<?xml version="1.0" encoding="utf-8" standalone="no"?>
<!DOCTYPE svg PUBLIC "-//W3C//DTD SVG 1.1//EN"
  "http://www.w3.org/Graphics/SVG/1.1/DTD/svg11.dtd">
<svg xmlns:xlink="http://www.w3.org/1999/xlink" width="432pt" height="288pt" viewBox="0 0 432 288" xmlns="http://www.w3.org/2000/svg" version="1.1">
 <metadata>
  <rdf:RDF xmlns:dc="http://purl.org/dc/elements/1.1/" xmlns:cc="http://creativecommons.org/ns#" xmlns:rdf="http://www.w3.org/1999/02/22-rdf-syntax-ns#">
   <cc:Work>
    <dc:type rdf:resource="http://purl.org/dc/dcmitype/StillImage"/>
    <dc:date>2026-05-18T12:28:31.719733</dc:date>
    <dc:format>image/svg+xml</dc:format>
    <dc:creator>
     <cc:Agent>
      <dc:title>Matplotlib v3.10.8, https://matplotlib.org/</dc:title>
     </cc:Agent>
    </dc:creator>
   </cc:Work>
  </rdf:RDF>
 </metadata>
 <defs>
  <style type="text/css">*{stroke-linejoin: round; stroke-linecap: butt}</style>
 </defs>
 <g id="figure_1">
  <g id="patch_1">
   <path d="M 0 288 
L 432 288 
L 432 0 
L 0 0 
z
" style="fill: #ffffff"/>
  </g>
  <g id="axes_1">
   <g id="patch_2">
    <path d="M 48.349063 245.875937 
L 413.248437 245.875937 
L 413.248437 14.599219 
L 48.349063 14.599219 
z
" style="fill: #ffffff"/>
   </g>
   <g id="FillBetweenPolyCollection_1">
    <defs>
     <path id="m7ee87569c5" d="M 48.349063 -132.513115 
L 48.349063 -104.759909 
L 52.034915 -106.590125 
L 55.720767 -106.77799 
L 59.406619 -106.258574 
L 63.092472 -108.721434 
L 66.778324 -114.826269 
L 70.464176 -112.129213 
L 74.150028 -107.85253 
L 77.835881 -121.426955 
L 81.521733 -116.482039 
L 85.207585 -119.797764 
L 88.893438 -126.755246 
L 92.57929 -128.791919 
L 96.265142 -125.149713 
L 99.950994 -134.867883 
L 103.636847 -140.96407 
L 107.322699 -133.64042 
L 111.008551 -147.081647 
L 114.694403 -136.286919 
L 118.380256 -155.576794 
L 122.066108 -146.131917 
L 125.75196 -150.930635 
L 129.437813 -143.699957 
L 133.123665 -154.330439 
L 136.809517 -157.812615 
L 140.495369 -158.466812 
L 144.181222 -158.342085 
L 147.867074 -158.62123 
L 151.552926 -170.253532 
L 155.238778 -167.163069 
L 158.924631 -176.115384 
L 162.610483 -168.493013 
L 166.296335 -170.828496 
L 169.982188 -178.495274 
L 173.66804 -169.070333 
L 177.353892 -172.79097 
L 181.039744 -185.278452 
L 184.725597 -176.550971 
L 188.411449 -175.299187 
L 192.097301 -194.069367 
L 195.783153 -180.664123 
L 199.469006 -189.619453 
L 203.154858 -190.715569 
L 206.84071 -178.995249 
L 210.526563 -192.331 
L 214.212415 -197.184896 
L 217.898267 -198.264559 
L 221.584119 -202.291582 
L 225.269972 -197.778272 
L 228.955824 -204.296334 
L 232.641676 -199.213782 
L 236.327528 -197.251492 
L 240.013381 -199.118014 
L 243.699233 -199.674386 
L 247.385085 -212.395713 
L 251.070937 -201.98022 
L 254.75679 -211.485285 
L 258.442642 -210.191128 
L 262.128494 -212.121508 
L 265.814347 -220.050552 
L 269.500199 -212.833688 
L 273.186051 -218.780827 
L 276.871903 -217.18747 
L 280.557756 -217.34411 
L 284.243608 -229.691108 
L 287.92946 -213.362473 
L 291.615313 -226.940982 
L 295.301165 -224.934583 
L 298.987017 -220.572268 
L 302.672869 -231.190456 
L 306.358722 -215.940833 
L 310.044574 -222.882907 
L 313.730426 -220.48519 
L 317.416278 -228.731565 
L 321.102131 -222.399019 
L 324.787983 -230.244446 
L 328.473835 -228.044369 
L 332.159687 -227.326595 
L 335.84554 -231.950373 
L 339.531392 -229.490646 
L 343.217244 -226.249822 
L 346.903097 -244.767046 
L 350.588949 -230.051333 
L 354.274801 -222.51434 
L 357.960653 -229.31572 
L 361.646506 -227.759637 
L 365.332358 -237.825109 
L 369.01821 -235.845519 
L 372.704063 -236.527605 
L 376.389915 -233.269119 
L 380.075767 -233.957535 
L 383.761619 -233.774617 
L 387.447472 -235.327185 
L 391.133324 -239.750669 
L 394.819176 -237.597076 
L 398.505028 -238.483262 
L 402.190881 -238.579808 
L 405.876733 -240.430892 
L 409.562585 -237.715196 
L 413.248437 -238.05637 
L 413.248437 -265.809577 
L 413.248437 -265.809577 
L 409.562585 -265.468402 
L 405.876733 -268.184098 
L 402.190881 -266.333014 
L 398.505028 -266.236468 
L 394.819176 -265.350282 
L 391.133324 -267.503875 
L 387.447472 -263.080391 
L 383.761619 -261.527823 
L 380.075767 -261.710742 
L 376.389915 -261.022325 
L 372.704063 -264.280811 
L 369.01821 -263.598725 
L 365.332358 -265.578316 
L 361.646506 -255.512843 
L 357.960653 -257.068926 
L 354.274801 -250.267547 
L 350.588949 -257.80454 
L 346.903097 -272.520253 
L 343.217244 -254.003029 
L 339.531392 -257.243852 
L 335.84554 -259.703579 
L 332.159687 -255.079801 
L 328.473835 -255.797575 
L 324.787983 -257.997653 
L 321.102131 -250.152225 
L 317.416278 -256.484771 
L 313.730426 -248.238396 
L 310.044574 -250.636113 
L 306.358722 -243.69404 
L 302.672869 -258.943662 
L 298.987017 -248.325475 
L 295.301165 -252.687789 
L 291.615313 -254.694188 
L 287.92946 -241.115679 
L 284.243608 -257.444315 
L 280.557756 -245.097317 
L 276.871903 -244.940676 
L 273.186051 -246.534033 
L 269.500199 -240.586895 
L 265.814347 -247.803758 
L 262.128494 -239.874714 
L 258.442642 -237.944334 
L 254.75679 -239.238491 
L 251.070937 -229.733427 
L 247.385085 -240.148919 
L 243.699233 -227.427592 
L 240.013381 -226.87122 
L 236.327528 -225.004698 
L 232.641676 -226.966988 
L 228.955824 -232.04954 
L 225.269972 -225.531478 
L 221.584119 -230.044788 
L 217.898267 -226.017765 
L 214.212415 -224.938102 
L 210.526563 -220.084206 
L 206.84071 -206.748455 
L 203.154858 -218.468775 
L 199.469006 -217.372659 
L 195.783153 -208.417329 
L 192.097301 -221.822573 
L 188.411449 -203.052393 
L 184.725597 -204.304178 
L 181.039744 -213.031658 
L 177.353892 -200.544176 
L 173.66804 -196.823539 
L 169.982188 -206.24848 
L 166.296335 -198.581702 
L 162.610483 -196.24622 
L 158.924631 -203.86859 
L 155.238778 -194.916276 
L 151.552926 -198.006738 
L 147.867074 -186.374437 
L 144.181222 -186.095291 
L 140.495369 -186.220018 
L 136.809517 -185.565821 
L 133.123665 -182.083645 
L 129.437813 -171.453163 
L 125.75196 -178.683841 
L 122.066108 -173.885124 
L 118.380256 -183.33 
L 114.694403 -164.040126 
L 111.008551 -174.834853 
L 107.322699 -161.393626 
L 103.636847 -168.717276 
L 99.950994 -162.621089 
L 96.265142 -152.902919 
L 92.57929 -156.545125 
L 88.893438 -154.508452 
L 85.207585 -147.55097 
L 81.521733 -144.235245 
L 77.835881 -149.180162 
L 74.150028 -135.605737 
L 70.464176 -139.88242 
L 66.778324 -142.579475 
L 63.092472 -136.474641 
L 59.406619 -134.01178 
L 55.720767 -134.531196 
L 52.034915 -134.343332 
L 48.349063 -132.513115 
z
" style="stroke: #2e86ab; stroke-opacity: 0.15"/>
    </defs>
    <g clip-path="url(#pd41ba46737)">
     <use xlink:href="#m7ee87569c5" x="0" y="288" style="fill: #2e86ab; fill-opacity: 0.15; stroke: #2e86ab; stroke-opacity: 0.15"/>
    </g>
   </g>
   <g id="matplotlib.axis_1">
    <g id="xtick_1">
     <g id="line2d_1">
      <path d="M 48.349063 245.875937 
L 48.349063 14.599219 
" clip-path="url(#pd41ba46737)" style="fill: none; stroke: #b0b0b0; stroke-opacity: 0.3; stroke-width: 0.8; stroke-linecap: square"/>
     </g>
     <g id="line2d_2">
      <defs>
       <path id="m4c7bcdd474" d="M 0 0 
L 0 3.5 
" style="stroke: #000000; stroke-width: 0.8"/>
      </defs>
      <g>
       <use xlink:href="#m4c7bcdd474" x="48.349063" y="245.875937" style="stroke: #000000; stroke-width: 0.8"/>
      </g>
     </g>
     <g id="text_1">
      <!-- 0.0 -->
      <g transform="translate(40.3975 260.474375) scale(0.1 -0.1)">
       <defs>
        <path id="DejaVuSans-30" d="M 2034 4250 
Q 1547 4250 1301 3770 
Q 1056 3291 1056 2328 
Q 1056 1369 1301 889 
Q 1547 409 2034 409 
Q 2525 409 2770 889 
Q 3016 1369 3016 2328 
Q 3016 3291 2770 3770 
Q 2525 4250 2034 4250 
z
M 2034 4750 
Q 2819 4750 3233 4129 
Q 3647 3509 3647 2328 
Q 3647 1150 3233 529 
Q 2819 -91 2034 -91 
Q 1250 -91 836 529 
Q 422 1150 422 2328 
Q 422 3509 836 4129 
Q 1250 4750 2034 4750 
z
" transform="scale(0.015625)"/>
        <path id="DejaVuSans-2e" d="M 684 794 
L 1344 794 
L 1344 0 
L 684 0 
L 684 794 
z
" transform="scale(0.015625)"/>
       </defs>
       <use xlink:href="#DejaVuSans-30"/>
       <use xlink:href="#DejaVuSans-2e" transform="translate(63.623047 0)"/>
       <use xlink:href="#DejaVuSans-30" transform="translate(95.410156 0)"/>
      </g>
     </g>
    </g>
    <g id="xtick_2">
     <g id="line2d_3">
      <path d="M 121.328937 245.875937 
L 121.328937 14.599219 
" clip-path="url(#pd41ba46737)" style="fill: none; stroke: #b0b0b0; stroke-opacity: 0.3; stroke-width: 0.8; stroke-linecap: square"/>
     </g>
     <g id="line2d_4">
      <g>
       <use xlink:href="#m4c7bcdd474" x="121.328937" y="245.875937" style="stroke: #000000; stroke-width: 0.8"/>
      </g>
     </g>
     <g id="text_2">
      <!-- 0.2 -->
      <g transform="translate(113.377375 260.474375) scale(0.1 -0.1)">
       <defs>
        <path id="DejaVuSans-32" d="M 1228 531 
L 3431 531 
L 3431 0 
L 469 0 
L 469 531 
Q 828 903 1448 1529 
Q 2069 2156 2228 2338 
Q 2531 2678 2651 2914 
Q 2772 3150 2772 3378 
Q 2772 3750 2511 3984 
Q 2250 4219 1831 4219 
Q 1534 4219 1204 4116 
Q 875 4013 500 3803 
L 500 4441 
Q 881 4594 1212 4672 
Q 1544 4750 1819 4750 
Q 2544 4750 2975 4387 
Q 3406 4025 3406 3419 
Q 3406 3131 3298 2873 
Q 3191 2616 2906 2266 
Q 2828 2175 2409 1742 
Q 1991 1309 1228 531 
z
" transform="scale(0.015625)"/>
       </defs>
       <use xlink:href="#DejaVuSans-30"/>
       <use xlink:href="#DejaVuSans-2e" transform="translate(63.623047 0)"/>
       <use xlink:href="#DejaVuSans-32" transform="translate(95.410156 0)"/>
      </g>
     </g>
    </g>
    <g id="xtick_3">
     <g id="line2d_5">
      <path d="M 194.308812 245.875937 
L 194.308812 14.599219 
" clip-path="url(#pd41ba46737)" style="fill: none; stroke: #b0b0b0; stroke-opacity: 0.3; stroke-width: 0.8; stroke-linecap: square"/>
     </g>
     <g id="line2d_6">
      <g>
       <use xlink:href="#m4c7bcdd474" x="194.308812" y="245.875937" style="stroke: #000000; stroke-width: 0.8"/>
      </g>
     </g>
     <g id="text_3">
      <!-- 0.4 -->
      <g transform="translate(186.35725 260.474375) scale(0.1 -0.1)">
       <defs>
        <path id="DejaVuSans-34" d="M 2419 4116 
L 825 1625 
L 2419 1625 
L 2419 4116 
z
M 2253 4666 
L 3047 4666 
L 3047 1625 
L 3713 1625 
L 3713 1100 
L 3047 1100 
L 3047 0 
L 2419 0 
L 2419 1100 
L 313 1100 
L 313 1709 
L 2253 4666 
z
" transform="scale(0.015625)"/>
       </defs>
       <use xlink:href="#DejaVuSans-30"/>
       <use xlink:href="#DejaVuSans-2e" transform="translate(63.623047 0)"/>
       <use xlink:href="#DejaVuSans-34" transform="translate(95.410156 0)"/>
      </g>
     </g>
    </g>
    <g id="xtick_4">
     <g id="line2d_7">
      <path d="M 267.288688 245.875937 
L 267.288688 14.599219 
" clip-path="url(#pd41ba46737)" style="fill: none; stroke: #b0b0b0; stroke-opacity: 0.3; stroke-width: 0.8; stroke-linecap: square"/>
     </g>
     <g id="line2d_8">
      <g>
       <use xlink:href="#m4c7bcdd474" x="267.288688" y="245.875937" style="stroke: #000000; stroke-width: 0.8"/>
      </g>
     </g>
     <g id="text_4">
      <!-- 0.6 -->
      <g transform="translate(259.337125 260.474375) scale(0.1 -0.1)">
       <defs>
        <path id="DejaVuSans-36" d="M 2113 2584 
Q 1688 2584 1439 2293 
Q 1191 2003 1191 1497 
Q 1191 994 1439 701 
Q 1688 409 2113 409 
Q 2538 409 2786 701 
Q 3034 994 3034 1497 
Q 3034 2003 2786 2293 
Q 2538 2584 2113 2584 
z
M 3366 4563 
L 3366 3988 
Q 3128 4100 2886 4159 
Q 2644 4219 2406 4219 
Q 1781 4219 1451 3797 
Q 1122 3375 1075 2522 
Q 1259 2794 1537 2939 
Q 1816 3084 2150 3084 
Q 2853 3084 3261 2657 
Q 3669 2231 3669 1497 
Q 3669 778 3244 343 
Q 2819 -91 2113 -91 
Q 1303 -91 875 529 
Q 447 1150 447 2328 
Q 447 3434 972 4092 
Q 1497 4750 2381 4750 
Q 2619 4750 2861 4703 
Q 3103 4656 3366 4563 
z
" transform="scale(0.015625)"/>
       </defs>
       <use xlink:href="#DejaVuSans-30"/>
       <use xlink:href="#DejaVuSans-2e" transform="translate(63.623047 0)"/>
       <use xlink:href="#DejaVuSans-36" transform="translate(95.410156 0)"/>
      </g>
     </g>
    </g>
    <g id="xtick_5">
     <g id="line2d_9">
      <path d="M 340.268562 245.875937 
L 340.268562 14.599219 
" clip-path="url(#pd41ba46737)" style="fill: none; stroke: #b0b0b0; stroke-opacity: 0.3; stroke-width: 0.8; stroke-linecap: square"/>
     </g>
     <g id="line2d_10">
      <g>
       <use xlink:href="#m4c7bcdd474" x="340.268562" y="245.875937" style="stroke: #000000; stroke-width: 0.8"/>
      </g>
     </g>
     <g id="text_5">
      <!-- 0.8 -->
      <g transform="translate(332.317 260.474375) scale(0.1 -0.1)">
       <defs>
        <path id="DejaVuSans-38" d="M 2034 2216 
Q 1584 2216 1326 1975 
Q 1069 1734 1069 1313 
Q 1069 891 1326 650 
Q 1584 409 2034 409 
Q 2484 409 2743 651 
Q 3003 894 3003 1313 
Q 3003 1734 2745 1975 
Q 2488 2216 2034 2216 
z
M 1403 2484 
Q 997 2584 770 2862 
Q 544 3141 544 3541 
Q 544 4100 942 4425 
Q 1341 4750 2034 4750 
Q 2731 4750 3128 4425 
Q 3525 4100 3525 3541 
Q 3525 3141 3298 2862 
Q 3072 2584 2669 2484 
Q 3125 2378 3379 2068 
Q 3634 1759 3634 1313 
Q 3634 634 3220 271 
Q 2806 -91 2034 -91 
Q 1263 -91 848 271 
Q 434 634 434 1313 
Q 434 1759 690 2068 
Q 947 2378 1403 2484 
z
M 1172 3481 
Q 1172 3119 1398 2916 
Q 1625 2713 2034 2713 
Q 2441 2713 2670 2916 
Q 2900 3119 2900 3481 
Q 2900 3844 2670 4047 
Q 2441 4250 2034 4250 
Q 1625 4250 1398 4047 
Q 1172 3844 1172 3481 
z
" transform="scale(0.015625)"/>
       </defs>
       <use xlink:href="#DejaVuSans-30"/>
       <use xlink:href="#DejaVuSans-2e" transform="translate(63.623047 0)"/>
       <use xlink:href="#DejaVuSans-38" transform="translate(95.410156 0)"/>
      </g>
     </g>
    </g>
    <g id="xtick_6">
     <g id="line2d_11">
      <path d="M 413.248437 245.875937 
L 413.248437 14.599219 
" clip-path="url(#pd41ba46737)" style="fill: none; stroke: #b0b0b0; stroke-opacity: 0.3; stroke-width: 0.8; stroke-linecap: square"/>
     </g>
     <g id="line2d_12">
      <g>
       <use xlink:href="#m4c7bcdd474" x="413.248437" y="245.875937" style="stroke: #000000; stroke-width: 0.8"/>
      </g>
     </g>
     <g id="text_6">
      <!-- 1.0 -->
      <g transform="translate(405.296875 260.474375) scale(0.1 -0.1)">
       <defs>
        <path id="DejaVuSans-31" d="M 794 531 
L 1825 531 
L 1825 4091 
L 703 3866 
L 703 4441 
L 1819 4666 
L 2450 4666 
L 2450 531 
L 3481 531 
L 3481 0 
L 794 0 
L 794 531 
z
" transform="scale(0.015625)"/>
       </defs>
       <use xlink:href="#DejaVuSans-31"/>
       <use xlink:href="#DejaVuSans-2e" transform="translate(63.623047 0)"/>
       <use xlink:href="#DejaVuSans-30" transform="translate(95.410156 0)"/>
      </g>
     </g>
    </g>
    <g id="text_7">
     <!-- Recall (Sensibilidade) -->
     <g transform="translate(171.782031 274.912344) scale(0.11 -0.11)">
      <defs>
       <path id="DejaVuSans-52" d="M 2841 2188 
Q 3044 2119 3236 1894 
Q 3428 1669 3622 1275 
L 4263 0 
L 3584 0 
L 2988 1197 
Q 2756 1666 2539 1819 
Q 2322 1972 1947 1972 
L 1259 1972 
L 1259 0 
L 628 0 
L 628 4666 
L 2053 4666 
Q 2853 4666 3247 4331 
Q 3641 3997 3641 3322 
Q 3641 2881 3436 2590 
Q 3231 2300 2841 2188 
z
M 1259 4147 
L 1259 2491 
L 2053 2491 
Q 2509 2491 2742 2702 
Q 2975 2913 2975 3322 
Q 2975 3731 2742 3939 
Q 2509 4147 2053 4147 
L 1259 4147 
z
" transform="scale(0.015625)"/>
       <path id="DejaVuSans-65" d="M 3597 1894 
L 3597 1613 
L 953 1613 
Q 991 1019 1311 708 
Q 1631 397 2203 397 
Q 2534 397 2845 478 
Q 3156 559 3463 722 
L 3463 178 
Q 3153 47 2828 -22 
Q 2503 -91 2169 -91 
Q 1331 -91 842 396 
Q 353 884 353 1716 
Q 353 2575 817 3079 
Q 1281 3584 2069 3584 
Q 2775 3584 3186 3129 
Q 3597 2675 3597 1894 
z
M 3022 2063 
Q 3016 2534 2758 2815 
Q 2500 3097 2075 3097 
Q 1594 3097 1305 2825 
Q 1016 2553 972 2059 
L 3022 2063 
z
" transform="scale(0.015625)"/>
       <path id="DejaVuSans-63" d="M 3122 3366 
L 3122 2828 
Q 2878 2963 2633 3030 
Q 2388 3097 2138 3097 
Q 1578 3097 1268 2742 
Q 959 2388 959 1747 
Q 959 1106 1268 751 
Q 1578 397 2138 397 
Q 2388 397 2633 464 
Q 2878 531 3122 666 
L 3122 134 
Q 2881 22 2623 -34 
Q 2366 -91 2075 -91 
Q 1284 -91 818 406 
Q 353 903 353 1747 
Q 353 2603 823 3093 
Q 1294 3584 2113 3584 
Q 2378 3584 2631 3529 
Q 2884 3475 3122 3366 
z
" transform="scale(0.015625)"/>
       <path id="DejaVuSans-61" d="M 2194 1759 
Q 1497 1759 1228 1600 
Q 959 1441 959 1056 
Q 959 750 1161 570 
Q 1363 391 1709 391 
Q 2188 391 2477 730 
Q 2766 1069 2766 1631 
L 2766 1759 
L 2194 1759 
z
M 3341 1997 
L 3341 0 
L 2766 0 
L 2766 531 
Q 2569 213 2275 61 
Q 1981 -91 1556 -91 
Q 1019 -91 701 211 
Q 384 513 384 1019 
Q 384 1609 779 1909 
Q 1175 2209 1959 2209 
L 2766 2209 
L 2766 2266 
Q 2766 2663 2505 2880 
Q 2244 3097 1772 3097 
Q 1472 3097 1187 3025 
Q 903 2953 641 2809 
L 641 3341 
Q 956 3463 1253 3523 
Q 1550 3584 1831 3584 
Q 2591 3584 2966 3190 
Q 3341 2797 3341 1997 
z
" transform="scale(0.015625)"/>
       <path id="DejaVuSans-6c" d="M 603 4863 
L 1178 4863 
L 1178 0 
L 603 0 
L 603 4863 
z
" transform="scale(0.015625)"/>
       <path id="DejaVuSans-20" transform="scale(0.015625)"/>
       <path id="DejaVuSans-28" d="M 1984 4856 
Q 1566 4138 1362 3434 
Q 1159 2731 1159 2009 
Q 1159 1288 1364 580 
Q 1569 -128 1984 -844 
L 1484 -844 
Q 1016 -109 783 600 
Q 550 1309 550 2009 
Q 550 2706 781 3412 
Q 1013 4119 1484 4856 
L 1984 4856 
z
" transform="scale(0.015625)"/>
       <path id="DejaVuSans-53" d="M 3425 4513 
L 3425 3897 
Q 3066 4069 2747 4153 
Q 2428 4238 2131 4238 
Q 1616 4238 1336 4038 
Q 1056 3838 1056 3469 
Q 1056 3159 1242 3001 
Q 1428 2844 1947 2747 
L 2328 2669 
Q 3034 2534 3370 2195 
Q 3706 1856 3706 1288 
Q 3706 609 3251 259 
Q 2797 -91 1919 -91 
Q 1588 -91 1214 -16 
Q 841 59 441 206 
L 441 856 
Q 825 641 1194 531 
Q 1563 422 1919 422 
Q 2459 422 2753 634 
Q 3047 847 3047 1241 
Q 3047 1584 2836 1778 
Q 2625 1972 2144 2069 
L 1759 2144 
Q 1053 2284 737 2584 
Q 422 2884 422 3419 
Q 422 4038 858 4394 
Q 1294 4750 2059 4750 
Q 2388 4750 2728 4690 
Q 3069 4631 3425 4513 
z
" transform="scale(0.015625)"/>
       <path id="DejaVuSans-6e" d="M 3513 2113 
L 3513 0 
L 2938 0 
L 2938 2094 
Q 2938 2591 2744 2837 
Q 2550 3084 2163 3084 
Q 1697 3084 1428 2787 
Q 1159 2491 1159 1978 
L 1159 0 
L 581 0 
L 581 3500 
L 1159 3500 
L 1159 2956 
Q 1366 3272 1645 3428 
Q 1925 3584 2291 3584 
Q 2894 3584 3203 3211 
Q 3513 2838 3513 2113 
z
" transform="scale(0.015625)"/>
       <path id="DejaVuSans-73" d="M 2834 3397 
L 2834 2853 
Q 2591 2978 2328 3040 
Q 2066 3103 1784 3103 
Q 1356 3103 1142 2972 
Q 928 2841 928 2578 
Q 928 2378 1081 2264 
Q 1234 2150 1697 2047 
L 1894 2003 
Q 2506 1872 2764 1633 
Q 3022 1394 3022 966 
Q 3022 478 2636 193 
Q 2250 -91 1575 -91 
Q 1294 -91 989 -36 
Q 684 19 347 128 
L 347 722 
Q 666 556 975 473 
Q 1284 391 1588 391 
Q 1994 391 2212 530 
Q 2431 669 2431 922 
Q 2431 1156 2273 1281 
Q 2116 1406 1581 1522 
L 1381 1569 
Q 847 1681 609 1914 
Q 372 2147 372 2553 
Q 372 3047 722 3315 
Q 1072 3584 1716 3584 
Q 2034 3584 2315 3537 
Q 2597 3491 2834 3397 
z
" transform="scale(0.015625)"/>
       <path id="DejaVuSans-69" d="M 603 3500 
L 1178 3500 
L 1178 0 
L 603 0 
L 603 3500 
z
M 603 4863 
L 1178 4863 
L 1178 4134 
L 603 4134 
L 603 4863 
z
" transform="scale(0.015625)"/>
       <path id="DejaVuSans-62" d="M 3116 1747 
Q 3116 2381 2855 2742 
Q 2594 3103 2138 3103 
Q 1681 3103 1420 2742 
Q 1159 2381 1159 1747 
Q 1159 1113 1420 752 
Q 1681 391 2138 391 
Q 2594 391 2855 752 
Q 3116 1113 3116 1747 
z
M 1159 2969 
Q 1341 3281 1617 3432 
Q 1894 3584 2278 3584 
Q 2916 3584 3314 3078 
Q 3713 2572 3713 1747 
Q 3713 922 3314 415 
Q 2916 -91 2278 -91 
Q 1894 -91 1617 61 
Q 1341 213 1159 525 
L 1159 0 
L 581 0 
L 581 4863 
L 1159 4863 
L 1159 2969 
z
" transform="scale(0.015625)"/>
       <path id="DejaVuSans-64" d="M 2906 2969 
L 2906 4863 
L 3481 4863 
L 3481 0 
L 2906 0 
L 2906 525 
Q 2725 213 2448 61 
Q 2172 -91 1784 -91 
Q 1150 -91 751 415 
Q 353 922 353 1747 
Q 353 2572 751 3078 
Q 1150 3584 1784 3584 
Q 2172 3584 2448 3432 
Q 2725 3281 2906 2969 
z
M 947 1747 
Q 947 1113 1208 752 
Q 1469 391 1925 391 
Q 2381 391 2643 752 
Q 2906 1113 2906 1747 
Q 2906 2381 2643 2742 
Q 2381 3103 1925 3103 
Q 1469 3103 1208 2742 
Q 947 2381 947 1747 
z
" transform="scale(0.015625)"/>
       <path id="DejaVuSans-29" d="M 513 4856 
L 1013 4856 
Q 1481 4119 1714 3412 
Q 1947 2706 1947 2009 
Q 1947 1309 1714 600 
Q 1481 -109 1013 -844 
L 513 -844 
Q 928 -128 1133 580 
Q 1338 1288 1338 2009 
Q 1338 2731 1133 3434 
Q 928 4138 513 4856 
z
" transform="scale(0.015625)"/>
      </defs>
      <use xlink:href="#DejaVuSans-52"/>
      <use xlink:href="#DejaVuSans-65" transform="translate(64.982422 0)"/>
      <use xlink:href="#DejaVuSans-63" transform="translate(126.505859 0)"/>
      <use xlink:href="#DejaVuSans-61" transform="translate(181.486328 0)"/>
      <use xlink:href="#DejaVuSans-6c" transform="translate(242.765625 0)"/>
      <use xlink:href="#DejaVuSans-6c" transform="translate(270.548828 0)"/>
      <use xlink:href="#DejaVuSans-20" transform="translate(298.332031 0)"/>
      <use xlink:href="#DejaVuSans-28" transform="translate(330.119141 0)"/>
      <use xlink:href="#DejaVuSans-53" transform="translate(369.132812 0)"/>
      <use xlink:href="#DejaVuSans-65" transform="translate(432.609375 0)"/>
      <use xlink:href="#DejaVuSans-6e" transform="translate(494.132812 0)"/>
      <use xlink:href="#DejaVuSans-73" transform="translate(557.511719 0)"/>
      <use xlink:href="#DejaVuSans-69" transform="translate(609.611328 0)"/>
      <use xlink:href="#DejaVuSans-62" transform="translate(637.394531 0)"/>
      <use xlink:href="#DejaVuSans-69" transform="translate(700.871094 0)"/>
      <use xlink:href="#DejaVuSans-6c" transform="translate(728.654297 0)"/>
      <use xlink:href="#DejaVuSans-69" transform="translate(756.4375 0)"/>
      <use xlink:href="#DejaVuSans-64" transform="translate(784.220703 0)"/>
      <use xlink:href="#DejaVuSans-61" transform="translate(847.697266 0)"/>
      <use xlink:href="#DejaVuSans-64" transform="translate(908.976562 0)"/>
      <use xlink:href="#DejaVuSans-65" transform="translate(972.453125 0)"/>
      <use xlink:href="#DejaVuSans-29" transform="translate(1033.976562 0)"/>
     </g>
    </g>
   </g>
   <g id="matplotlib.axis_2">
    <g id="ytick_1">
     <g id="line2d_13">
      <path d="M 48.349063 245.875937 
L 413.248437 245.875937 
" clip-path="url(#pd41ba46737)" style="fill: none; stroke: #b0b0b0; stroke-opacity: 0.3; stroke-width: 0.8; stroke-linecap: square"/>
     </g>
     <g id="line2d_14">
      <defs>
       <path id="m6ef88d6769" d="M 0 0 
L -3.5 0 
" style="stroke: #000000; stroke-width: 0.8"/>
      </defs>
      <g>
       <use xlink:href="#m6ef88d6769" x="48.349063" y="245.875937" style="stroke: #000000; stroke-width: 0.8"/>
      </g>
     </g>
     <g id="text_8">
      <!-- 0.5 -->
      <g transform="translate(25.445938 249.675156) scale(0.1 -0.1)">
       <defs>
        <path id="DejaVuSans-35" d="M 691 4666 
L 3169 4666 
L 3169 4134 
L 1269 4134 
L 1269 2991 
Q 1406 3038 1543 3061 
Q 1681 3084 1819 3084 
Q 2600 3084 3056 2656 
Q 3513 2228 3513 1497 
Q 3513 744 3044 326 
Q 2575 -91 1722 -91 
Q 1428 -91 1123 -41 
Q 819 9 494 109 
L 494 744 
Q 775 591 1075 516 
Q 1375 441 1709 441 
Q 2250 441 2565 725 
Q 2881 1009 2881 1497 
Q 2881 1984 2565 2268 
Q 2250 2553 1709 2553 
Q 1456 2553 1204 2497 
Q 953 2441 691 2322 
L 691 4666 
z
" transform="scale(0.015625)"/>
       </defs>
       <use xlink:href="#DejaVuSans-30"/>
       <use xlink:href="#DejaVuSans-2e" transform="translate(63.623047 0)"/>
       <use xlink:href="#DejaVuSans-35" transform="translate(95.410156 0)"/>
      </g>
     </g>
    </g>
    <g id="ytick_2">
     <g id="line2d_15">
      <path d="M 48.349063 199.620594 
L 413.248437 199.620594 
" clip-path="url(#pd41ba46737)" style="fill: none; stroke: #b0b0b0; stroke-opacity: 0.3; stroke-width: 0.8; stroke-linecap: square"/>
     </g>
     <g id="line2d_16">
      <g>
       <use xlink:href="#m6ef88d6769" x="48.349063" y="199.620594" style="stroke: #000000; stroke-width: 0.8"/>
      </g>
     </g>
     <g id="text_9">
      <!-- 0.6 -->
      <g transform="translate(25.445938 203.419812) scale(0.1 -0.1)">
       <use xlink:href="#DejaVuSans-30"/>
       <use xlink:href="#DejaVuSans-2e" transform="translate(63.623047 0)"/>
       <use xlink:href="#DejaVuSans-36" transform="translate(95.410156 0)"/>
      </g>
     </g>
    </g>
    <g id="ytick_3">
     <g id="line2d_17">
      <path d="M 48.349063 153.36525 
L 413.248437 153.36525 
" clip-path="url(#pd41ba46737)" style="fill: none; stroke: #b0b0b0; stroke-opacity: 0.3; stroke-width: 0.8; stroke-linecap: square"/>
     </g>
     <g id="line2d_18">
      <g>
       <use xlink:href="#m6ef88d6769" x="48.349063" y="153.36525" style="stroke: #000000; stroke-width: 0.8"/>
      </g>
     </g>
     <g id="text_10">
      <!-- 0.7 -->
      <g transform="translate(25.445938 157.164469) scale(0.1 -0.1)">
       <defs>
        <path id="DejaVuSans-37" d="M 525 4666 
L 3525 4666 
L 3525 4397 
L 1831 0 
L 1172 0 
L 2766 4134 
L 525 4134 
L 525 4666 
z
" transform="scale(0.015625)"/>
       </defs>
       <use xlink:href="#DejaVuSans-30"/>
       <use xlink:href="#DejaVuSans-2e" transform="translate(63.623047 0)"/>
       <use xlink:href="#DejaVuSans-37" transform="translate(95.410156 0)"/>
      </g>
     </g>
    </g>
    <g id="ytick_4">
     <g id="line2d_19">
      <path d="M 48.349063 107.109906 
L 413.248437 107.109906 
" clip-path="url(#pd41ba46737)" style="fill: none; stroke: #b0b0b0; stroke-opacity: 0.3; stroke-width: 0.8; stroke-linecap: square"/>
     </g>
     <g id="line2d_20">
      <g>
       <use xlink:href="#m6ef88d6769" x="48.349063" y="107.109906" style="stroke: #000000; stroke-width: 0.8"/>
      </g>
     </g>
     <g id="text_11">
      <!-- 0.8 -->
      <g transform="translate(25.445938 110.909125) scale(0.1 -0.1)">
       <use xlink:href="#DejaVuSans-30"/>
       <use xlink:href="#DejaVuSans-2e" transform="translate(63.623047 0)"/>
       <use xlink:href="#DejaVuSans-38" transform="translate(95.410156 0)"/>
      </g>
     </g>
    </g>
    <g id="ytick_5">
     <g id="line2d_21">
      <path d="M 48.349063 60.854562 
L 413.248437 60.854562 
" clip-path="url(#pd41ba46737)" style="fill: none; stroke: #b0b0b0; stroke-opacity: 0.3; stroke-width: 0.8; stroke-linecap: square"/>
     </g>
     <g id="line2d_22">
      <g>
       <use xlink:href="#m6ef88d6769" x="48.349063" y="60.854562" style="stroke: #000000; stroke-width: 0.8"/>
      </g>
     </g>
     <g id="text_12">
      <!-- 0.9 -->
      <g transform="translate(25.445938 64.653781) scale(0.1 -0.1)">
       <defs>
        <path id="DejaVuSans-39" d="M 703 97 
L 703 672 
Q 941 559 1184 500 
Q 1428 441 1663 441 
Q 2288 441 2617 861 
Q 2947 1281 2994 2138 
Q 2813 1869 2534 1725 
Q 2256 1581 1919 1581 
Q 1219 1581 811 2004 
Q 403 2428 403 3163 
Q 403 3881 828 4315 
Q 1253 4750 1959 4750 
Q 2769 4750 3195 4129 
Q 3622 3509 3622 2328 
Q 3622 1225 3098 567 
Q 2575 -91 1691 -91 
Q 1453 -91 1209 -44 
Q 966 3 703 97 
z
M 1959 2075 
Q 2384 2075 2632 2365 
Q 2881 2656 2881 3163 
Q 2881 3666 2632 3958 
Q 2384 4250 1959 4250 
Q 1534 4250 1286 3958 
Q 1038 3666 1038 3163 
Q 1038 2656 1286 2365 
Q 1534 2075 1959 2075 
z
" transform="scale(0.015625)"/>
       </defs>
       <use xlink:href="#DejaVuSans-30"/>
       <use xlink:href="#DejaVuSans-2e" transform="translate(63.623047 0)"/>
       <use xlink:href="#DejaVuSans-39" transform="translate(95.410156 0)"/>
      </g>
     </g>
    </g>
    <g id="ytick_6">
     <g id="line2d_23">
      <path d="M 48.349063 14.599219 
L 413.248437 14.599219 
" clip-path="url(#pd41ba46737)" style="fill: none; stroke: #b0b0b0; stroke-opacity: 0.3; stroke-width: 0.8; stroke-linecap: square"/>
     </g>
     <g id="line2d_24">
      <g>
       <use xlink:href="#m6ef88d6769" x="48.349063" y="14.599219" style="stroke: #000000; stroke-width: 0.8"/>
      </g>
     </g>
     <g id="text_13">
      <!-- 1.0 -->
      <g transform="translate(25.445938 18.398438) scale(0.1 -0.1)">
       <use xlink:href="#DejaVuSans-31"/>
       <use xlink:href="#DejaVuSans-2e" transform="translate(63.623047 0)"/>
       <use xlink:href="#DejaVuSans-30" transform="translate(95.410156 0)"/>
      </g>
     </g>
    </g>
    <g id="text_14">
     <!-- Precisão (Precision) -->
     <g transform="translate(19.158281 183.709609) rotate(-90) scale(0.11 -0.11)">
      <defs>
       <path id="DejaVuSans-50" d="M 1259 4147 
L 1259 2394 
L 2053 2394 
Q 2494 2394 2734 2622 
Q 2975 2850 2975 3272 
Q 2975 3691 2734 3919 
Q 2494 4147 2053 4147 
L 1259 4147 
z
M 628 4666 
L 2053 4666 
Q 2838 4666 3239 4311 
Q 3641 3956 3641 3272 
Q 3641 2581 3239 2228 
Q 2838 1875 2053 1875 
L 1259 1875 
L 1259 0 
L 628 0 
L 628 4666 
z
" transform="scale(0.015625)"/>
       <path id="DejaVuSans-72" d="M 2631 2963 
Q 2534 3019 2420 3045 
Q 2306 3072 2169 3072 
Q 1681 3072 1420 2755 
Q 1159 2438 1159 1844 
L 1159 0 
L 581 0 
L 581 3500 
L 1159 3500 
L 1159 2956 
Q 1341 3275 1631 3429 
Q 1922 3584 2338 3584 
Q 2397 3584 2469 3576 
Q 2541 3569 2628 3553 
L 2631 2963 
z
" transform="scale(0.015625)"/>
       <path id="DejaVuSans-e3" d="M 2194 1759 
Q 1497 1759 1228 1600 
Q 959 1441 959 1056 
Q 959 750 1161 570 
Q 1363 391 1709 391 
Q 2188 391 2477 730 
Q 2766 1069 2766 1631 
L 2766 1759 
L 2194 1759 
z
M 3341 1997 
L 3341 0 
L 2766 0 
L 2766 531 
Q 2569 213 2275 61 
Q 1981 -91 1556 -91 
Q 1019 -91 701 211 
Q 384 513 384 1019 
Q 384 1609 779 1909 
Q 1175 2209 1959 2209 
L 2766 2209 
L 2766 2266 
Q 2766 2663 2505 2880 
Q 2244 3097 1772 3097 
Q 1472 3097 1187 3025 
Q 903 2953 641 2809 
L 641 3341 
Q 956 3463 1253 3523 
Q 1550 3584 1831 3584 
Q 2591 3584 2966 3190 
Q 3341 2797 3341 1997 
z
M 1844 4281 
L 1665 4453 
Q 1597 4516 1545 4545 
Q 1494 4575 1453 4575 
Q 1334 4575 1278 4461 
Q 1222 4347 1215 4091 
L 825 4091 
Q 831 4513 990 4742 
Q 1150 4972 1434 4972 
Q 1553 4972 1653 4928 
Q 1753 4884 1869 4781 
L 2047 4609 
Q 2115 4547 2167 4517 
Q 2219 4488 2259 4488 
Q 2378 4488 2434 4602 
Q 2490 4716 2497 4972 
L 2887 4972 
Q 2881 4550 2721 4320 
Q 2562 4091 2278 4091 
Q 2159 4091 2059 4134 
Q 1959 4178 1844 4281 
z
" transform="scale(0.015625)"/>
       <path id="DejaVuSans-6f" d="M 1959 3097 
Q 1497 3097 1228 2736 
Q 959 2375 959 1747 
Q 959 1119 1226 758 
Q 1494 397 1959 397 
Q 2419 397 2687 759 
Q 2956 1122 2956 1747 
Q 2956 2369 2687 2733 
Q 2419 3097 1959 3097 
z
M 1959 3584 
Q 2709 3584 3137 3096 
Q 3566 2609 3566 1747 
Q 3566 888 3137 398 
Q 2709 -91 1959 -91 
Q 1206 -91 779 398 
Q 353 888 353 1747 
Q 353 2609 779 3096 
Q 1206 3584 1959 3584 
z
" transform="scale(0.015625)"/>
      </defs>
      <use xlink:href="#DejaVuSans-50"/>
      <use xlink:href="#DejaVuSans-72" transform="translate(58.552734 0)"/>
      <use xlink:href="#DejaVuSans-65" transform="translate(97.416016 0)"/>
      <use xlink:href="#DejaVuSans-63" transform="translate(158.939453 0)"/>
      <use xlink:href="#DejaVuSans-69" transform="translate(213.919922 0)"/>
      <use xlink:href="#DejaVuSans-73" transform="translate(241.703125 0)"/>
      <use xlink:href="#DejaVuSans-e3" transform="translate(293.802734 0)"/>
      <use xlink:href="#DejaVuSans-6f" transform="translate(355.082031 0)"/>
      <use xlink:href="#DejaVuSans-20" transform="translate(416.263672 0)"/>
      <use xlink:href="#DejaVuSans-28" transform="translate(448.050781 0)"/>
      <use xlink:href="#DejaVuSans-50" transform="translate(487.064453 0)"/>
      <use xlink:href="#DejaVuSans-72" transform="translate(545.617188 0)"/>
      <use xlink:href="#DejaVuSans-65" transform="translate(584.480469 0)"/>
      <use xlink:href="#DejaVuSans-63" transform="translate(646.003906 0)"/>
      <use xlink:href="#DejaVuSans-69" transform="translate(700.984375 0)"/>
      <use xlink:href="#DejaVuSans-73" transform="translate(728.767578 0)"/>
      <use xlink:href="#DejaVuSans-69" transform="translate(780.867188 0)"/>
      <use xlink:href="#DejaVuSans-6f" transform="translate(808.650391 0)"/>
      <use xlink:href="#DejaVuSans-6e" transform="translate(869.832031 0)"/>
      <use xlink:href="#DejaVuSans-29" transform="translate(933.210938 0)"/>
     </g>
    </g>
   </g>
   <g id="line2d_25">
    <path d="M 48.349063 169.363488 
L 52.034915 167.533272 
L 55.720767 167.345407 
L 59.406619 167.864823 
L 63.092472 165.401963 
L 66.778324 159.297128 
L 70.464176 161.994184 
L 74.150028 166.270867 
L 77.835881 152.696442 
L 81.521733 157.641358 
L 85.207585 154.325633 
L 88.893438 147.368151 
L 92.57929 145.331478 
L 96.265142 148.973684 
L 99.950994 139.255514 
L 103.636847 133.159327 
L 107.322699 140.482977 
L 111.008551 127.04175 
L 114.694403 137.836477 
L 118.380256 118.546603 
L 122.066108 127.99148 
L 125.75196 123.192762 
L 129.437813 130.42344 
L 133.123665 119.792958 
L 136.809517 116.310782 
L 140.495369 115.656585 
L 144.181222 115.781312 
L 147.867074 115.502166 
L 151.552926 103.869865 
L 155.238778 106.960328 
L 158.924631 98.008013 
L 162.610483 105.630383 
L 166.296335 103.294901 
L 169.982188 95.628123 
L 173.66804 105.053064 
L 177.353892 101.332427 
L 181.039744 88.844945 
L 184.725597 97.572426 
L 188.411449 98.82421 
L 192.097301 80.05403 
L 195.783153 93.459274 
L 199.469006 84.503944 
L 203.154858 83.407828 
L 206.84071 95.128148 
L 210.526563 81.792397 
L 214.212415 76.938501 
L 217.898267 75.858838 
L 221.584119 71.831815 
L 225.269972 76.345125 
L 228.955824 69.827063 
L 232.641676 74.909615 
L 236.327528 76.871905 
L 240.013381 75.005383 
L 243.699233 74.449011 
L 247.385085 61.727684 
L 251.070937 72.143177 
L 254.75679 62.638112 
L 258.442642 63.932269 
L 262.128494 62.001889 
L 265.814347 54.072845 
L 269.500199 61.289708 
L 273.186051 55.34257 
L 276.871903 56.935927 
L 280.557756 56.779287 
L 284.243608 44.432288 
L 287.92946 60.760924 
L 291.615313 47.182415 
L 295.301165 49.188814 
L 298.987017 53.551129 
L 302.672869 42.932941 
L 306.358722 58.182564 
L 310.044574 51.24049 
L 313.730426 53.638207 
L 317.416278 45.391832 
L 321.102131 51.724378 
L 324.787983 43.878951 
L 328.473835 46.079028 
L 332.159687 46.796802 
L 335.84554 42.173024 
L 339.531392 44.632751 
L 343.217244 47.873574 
L 346.903097 29.35635 
L 350.588949 44.072064 
L 354.274801 51.609056 
L 357.960653 44.807677 
L 361.646506 46.36376 
L 365.332358 36.298288 
L 369.01821 38.277878 
L 372.704063 37.595792 
L 376.389915 40.854278 
L 380.075767 40.165861 
L 383.761619 40.34878 
L 387.447472 38.796212 
L 391.133324 34.372728 
L 394.819176 36.526321 
L 398.505028 35.640135 
L 402.190881 35.543589 
L 405.876733 33.692505 
L 409.562585 36.408201 
L 413.248437 36.067027 
" clip-path="url(#pd41ba46737)" style="fill: none; stroke: #2e86ab; stroke-width: 2; stroke-linecap: square"/>
   </g>
   <g id="patch_3">
    <path d="M 48.349063 245.875937 
L 48.349063 14.599219 
" style="fill: none; stroke: #000000; stroke-width: 0.8; stroke-linejoin: miter; stroke-linecap: square"/>
   </g>
   <g id="patch_4">
    <path d="M 413.248437 245.875937 
L 413.248437 14.599219 
" style="fill: none; stroke: #000000; stroke-width: 0.8; stroke-linejoin: miter; stroke-linecap: square"/>
   </g>
   <g id="patch_5">
    <path d="M 48.349063 245.875937 
L 413.248437 245.875937 
" style="fill: none; stroke: #000000; stroke-width: 0.8; stroke-linejoin: miter; stroke-linecap: square"/>
   </g>
   <g id="patch_6">
    <path d="M 48.349063 14.599219 
L 413.248437 14.599219 
" style="fill: none; stroke: #000000; stroke-width: 0.8; stroke-linejoin: miter; stroke-linecap: square"/>
   </g>
   <g id="PathCollection_1">
    <defs>
     <path id="mf827cf7728" d="M 0 4.472136 
C 1.186024 4.472136 2.323632 4.000923 3.162278 3.162278 
C 4.000923 2.323632 4.472136 1.186024 4.472136 0 
C 4.472136 -1.186024 4.000923 -2.323632 3.162278 -3.162278 
C 2.323632 -4.000923 1.186024 -4.472136 0 -4.472136 
C -1.186024 -4.472136 -2.323632 -4.000923 -3.162278 -3.162278 
C -4.000923 -2.323632 -4.472136 -1.186024 -4.472136 0 
C -4.472136 1.186024 -4.000923 2.323632 -3.162278 3.162278 
C -2.323632 4.000923 -1.186024 4.472136 0 4.472136 
z
" style="stroke: #ff0000"/>
    </defs>
    <g clip-path="url(#pd41ba46737)">
     <use xlink:href="#mf827cf7728" x="394.638569" y="40.964765" style="fill: #ff0000; stroke: #ff0000"/>
    </g>
   </g>
   <g id="legend_1">
    <g id="patch_7">
     <path d="M 54.649063 45.240844 
L 214.560781 45.240844 
Q 216.360781 45.240844 216.360781 43.440844 
L 216.360781 20.899219 
Q 216.360781 19.099219 214.560781 19.099219 
L 54.649063 19.099219 
Q 52.849063 19.099219 52.849063 20.899219 
L 52.849063 43.440844 
Q 52.849063 45.240844 54.649063 45.240844 
z
" style="fill: #ffffff; opacity: 0.9; stroke: #cccccc; stroke-linejoin: miter"/>
    </g>
    <g id="PathCollection_2">
     <g>
      <use xlink:href="#mf827cf7728" x="65.449063" y="33.226828" style="fill: #ff0000; stroke: #ff0000"/>
     </g>
    </g>
    <g id="text_15">
     <!-- Ponto de operação -->
     <g transform="translate(81.649063 29.691094) scale(0.09 -0.09)">
      <defs>
       <path id="DejaVuSans-74" d="M 1172 4494 
L 1172 3500 
L 2356 3500 
L 2356 3053 
L 1172 3053 
L 1172 1153 
Q 1172 725 1289 603 
Q 1406 481 1766 481 
L 2356 481 
L 2356 0 
L 1766 0 
Q 1100 0 847 248 
Q 594 497 594 1153 
L 594 3053 
L 172 3053 
L 172 3500 
L 594 3500 
L 594 4494 
L 1172 4494 
z
" transform="scale(0.015625)"/>
       <path id="DejaVuSans-70" d="M 1159 525 
L 1159 -1331 
L 581 -1331 
L 581 3500 
L 1159 3500 
L 1159 2969 
Q 1341 3281 1617 3432 
Q 1894 3584 2278 3584 
Q 2916 3584 3314 3078 
Q 3713 2572 3713 1747 
Q 3713 922 3314 415 
Q 2916 -91 2278 -91 
Q 1894 -91 1617 61 
Q 1341 213 1159 525 
z
M 3116 1747 
Q 3116 2381 2855 2742 
Q 2594 3103 2138 3103 
Q 1681 3103 1420 2742 
Q 1159 2381 1159 1747 
Q 1159 1113 1420 752 
Q 1681 391 2138 391 
Q 2594 391 2855 752 
Q 3116 1113 3116 1747 
z
" transform="scale(0.015625)"/>
       <path id="DejaVuSans-e7" d="M 3122 3366 
L 3122 2828 
Q 2878 2963 2633 3030 
Q 2388 3097 2138 3097 
Q 1578 3097 1268 2742 
Q 959 2388 959 1747 
Q 959 1106 1268 751 
Q 1578 397 2138 397 
Q 2388 397 2633 464 
Q 2878 531 3122 666 
L 3122 134 
Q 2881 22 2623 -34 
Q 2366 -91 2075 -91 
Q 1284 -91 818 406 
Q 353 903 353 1747 
Q 353 2603 823 3093 
Q 1294 3584 2113 3584 
Q 2378 3584 2631 3529 
Q 2884 3475 3122 3366 
z
M 2311 0 
Q 2482 -194 2566 -358 
Q 2651 -522 2651 -672 
Q 2651 -950 2463 -1092 
Q 2276 -1234 1907 -1234 
Q 1764 -1234 1628 -1215 
Q 1492 -1197 1357 -1159 
L 1357 -750 
Q 1464 -803 1579 -826 
Q 1695 -850 1842 -850 
Q 2026 -850 2120 -775 
Q 2214 -700 2214 -556 
Q 2214 -463 2146 -327 
Q 2079 -191 1939 0 
L 2311 0 
z
" transform="scale(0.015625)"/>
      </defs>
      <use xlink:href="#DejaVuSans-50"/>
      <use xlink:href="#DejaVuSans-6f" transform="translate(56.677734 0)"/>
      <use xlink:href="#DejaVuSans-6e" transform="translate(117.859375 0)"/>
      <use xlink:href="#DejaVuSans-74" transform="translate(181.238281 0)"/>
      <use xlink:href="#DejaVuSans-6f" transform="translate(220.447266 0)"/>
      <use xlink:href="#DejaVuSans-20" transform="translate(281.628906 0)"/>
      <use xlink:href="#DejaVuSans-64" transform="translate(313.416016 0)"/>
      <use xlink:href="#DejaVuSans-65" transform="translate(376.892578 0)"/>
      <use xlink:href="#DejaVuSans-20" transform="translate(438.416016 0)"/>
      <use xlink:href="#DejaVuSans-6f" transform="translate(470.203125 0)"/>
      <use xlink:href="#DejaVuSans-70" transform="translate(531.384766 0)"/>
      <use xlink:href="#DejaVuSans-65" transform="translate(594.861328 0)"/>
      <use xlink:href="#DejaVuSans-72" transform="translate(656.384766 0)"/>
      <use xlink:href="#DejaVuSans-61" transform="translate(697.498047 0)"/>
      <use xlink:href="#DejaVuSans-e7" transform="translate(758.777344 0)"/>
      <use xlink:href="#DejaVuSans-e3" transform="translate(813.757812 0)"/>
      <use xlink:href="#DejaVuSans-6f" transform="translate(875.037109 0)"/>
     </g>
     <!-- (Recall=94,9%, Prec=94,3%) -->
     <g transform="translate(81.649063 39.769125) scale(0.09 -0.09)">
      <defs>
       <path id="DejaVuSans-3d" d="M 678 2906 
L 4684 2906 
L 4684 2381 
L 678 2381 
L 678 2906 
z
M 678 1631 
L 4684 1631 
L 4684 1100 
L 678 1100 
L 678 1631 
z
" transform="scale(0.015625)"/>
       <path id="DejaVuSans-2c" d="M 750 794 
L 1409 794 
L 1409 256 
L 897 -744 
L 494 -744 
L 750 256 
L 750 794 
z
" transform="scale(0.015625)"/>
       <path id="DejaVuSans-25" d="M 4653 2053 
Q 4381 2053 4226 1822 
Q 4072 1591 4072 1178 
Q 4072 772 4226 539 
Q 4381 306 4653 306 
Q 4919 306 5073 539 
Q 5228 772 5228 1178 
Q 5228 1588 5073 1820 
Q 4919 2053 4653 2053 
z
M 4653 2450 
Q 5147 2450 5437 2106 
Q 5728 1763 5728 1178 
Q 5728 594 5436 251 
Q 5144 -91 4653 -91 
Q 4153 -91 3862 251 
Q 3572 594 3572 1178 
Q 3572 1766 3864 2108 
Q 4156 2450 4653 2450 
z
M 1428 4353 
Q 1159 4353 1004 4120 
Q 850 3888 850 3481 
Q 850 3069 1003 2837 
Q 1156 2606 1428 2606 
Q 1700 2606 1854 2837 
Q 2009 3069 2009 3481 
Q 2009 3884 1853 4118 
Q 1697 4353 1428 4353 
z
M 4250 4750 
L 4750 4750 
L 1831 -91 
L 1331 -91 
L 4250 4750 
z
M 1428 4750 
Q 1922 4750 2215 4408 
Q 2509 4066 2509 3481 
Q 2509 2891 2217 2550 
Q 1925 2209 1428 2209 
Q 931 2209 642 2551 
Q 353 2894 353 3481 
Q 353 4063 643 4406 
Q 934 4750 1428 4750 
z
" transform="scale(0.015625)"/>
       <path id="DejaVuSans-33" d="M 2597 2516 
Q 3050 2419 3304 2112 
Q 3559 1806 3559 1356 
Q 3559 666 3084 287 
Q 2609 -91 1734 -91 
Q 1441 -91 1130 -33 
Q 819 25 488 141 
L 488 750 
Q 750 597 1062 519 
Q 1375 441 1716 441 
Q 2309 441 2620 675 
Q 2931 909 2931 1356 
Q 2931 1769 2642 2001 
Q 2353 2234 1838 2234 
L 1294 2234 
L 1294 2753 
L 1863 2753 
Q 2328 2753 2575 2939 
Q 2822 3125 2822 3475 
Q 2822 3834 2567 4026 
Q 2313 4219 1838 4219 
Q 1578 4219 1281 4162 
Q 984 4106 628 3988 
L 628 4550 
Q 988 4650 1302 4700 
Q 1616 4750 1894 4750 
Q 2613 4750 3031 4423 
Q 3450 4097 3450 3541 
Q 3450 3153 3228 2886 
Q 3006 2619 2597 2516 
z
" transform="scale(0.015625)"/>
      </defs>
      <use xlink:href="#DejaVuSans-28"/>
      <use xlink:href="#DejaVuSans-52" transform="translate(39.013672 0)"/>
      <use xlink:href="#DejaVuSans-65" transform="translate(103.996094 0)"/>
      <use xlink:href="#DejaVuSans-63" transform="translate(165.519531 0)"/>
      <use xlink:href="#DejaVuSans-61" transform="translate(220.5 0)"/>
      <use xlink:href="#DejaVuSans-6c" transform="translate(281.779297 0)"/>
      <use xlink:href="#DejaVuSans-6c" transform="translate(309.5625 0)"/>
      <use xlink:href="#DejaVuSans-3d" transform="translate(337.345703 0)"/>
      <use xlink:href="#DejaVuSans-39" transform="translate(421.134766 0)"/>
      <use xlink:href="#DejaVuSans-34" transform="translate(484.757812 0)"/>
      <use xlink:href="#DejaVuSans-2c" transform="translate(548.380859 0)"/>
      <use xlink:href="#DejaVuSans-39" transform="translate(580.167969 0)"/>
      <use xlink:href="#DejaVuSans-25" transform="translate(643.791016 0)"/>
      <use xlink:href="#DejaVuSans-2c" transform="translate(738.810547 0)"/>
      <use xlink:href="#DejaVuSans-20" transform="translate(770.597656 0)"/>
      <use xlink:href="#DejaVuSans-50" transform="translate(802.384766 0)"/>
      <use xlink:href="#DejaVuSans-72" transform="translate(860.9375 0)"/>
      <use xlink:href="#DejaVuSans-65" transform="translate(899.800781 0)"/>
      <use xlink:href="#DejaVuSans-63" transform="translate(961.324219 0)"/>
      <use xlink:href="#DejaVuSans-3d" transform="translate(1016.304688 0)"/>
      <use xlink:href="#DejaVuSans-39" transform="translate(1100.09375 0)"/>
      <use xlink:href="#DejaVuSans-34" transform="translate(1163.716797 0)"/>
      <use xlink:href="#DejaVuSans-2c" transform="translate(1227.339844 0)"/>
      <use xlink:href="#DejaVuSans-33" transform="translate(1259.126953 0)"/>
      <use xlink:href="#DejaVuSans-25" transform="translate(1322.75 0)"/>
      <use xlink:href="#DejaVuSans-29" transform="translate(1417.769531 0)"/>
     </g>
    </g>
   </g>
  </g>
 </g>
 <defs>
  <clipPath id="pd41ba46737">
   <rect x="48.349063" y="14.599219" width="364.899375" height="231.276719"/>
  </clipPath>
 </defs>
</svg>
