<?xml version="1.0" encoding="utf-8" standalone="no"?>
<!DOCTYPE svg PUBLIC "-//W3C//DTD SVG 1.1//EN"
  "http://www.w3.org/Graphics/SVG/1.1/DTD/svg11.dtd">
<svg xmlns:xlink="http://www.w3.org/1999/xlink" width="504pt" height="288pt" viewBox="0 0 504 288" xmlns="http://www.w3.org/2000/svg" version="1.1">
 <metadata>
  <rdf:RDF xmlns:dc="http://purl.org/dc/elements/1.1/" xmlns:cc="http://creativecommons.org/ns#" xmlns:rdf="http://www.w3.org/1999/02/22-rdf-syntax-ns#">
   <cc:Work>
    <dc:type rdf:resource="http://purl.org/dc/dcmitype/StillImage"/>
    <dc:date>2026-05-18T12:28:31.499050</dc:date>
    <dc:format>image/svg+xml</dc:format>
    <dc:creator>
     <cc:Agent>
      <dc:title>Matplotlib v3.10.8, https://matplotlib.org/</dc:title>
     </cc:Agent>
    </dc:creator>
   </cc:Work>
  </rdf:RDF>
 </metadata>
 <defs>
  <style type="text/css">*{stroke-linejoin: round; stroke-linecap: butt}</style>
 </defs>
 <g id="figure_1">
  <g id="patch_1">
   <path d="M 0 288 
L 504 288 
L 504 0 
L 0 0 
z
" style="fill: #ffffff"/>
  </g>
  <g id="axes_1">
   <g id="patch_2">
    <path d="M 45.170938 245.875938 
L 493.2 245.875938 
L 493.2 10.8 
L 45.170938 10.8 
z
" style="fill: #ffffff"/>
   </g>
   <g id="patch_3">
    <path d="M 80.066657 245.875938 
L 86.612796 245.875938 
L 86.612796 245.46447 
L 80.066657 245.46447 
z
" clip-path="url(#pfa09e8d822)" style="fill: #2e86ab; opacity: 0.7"/>
   </g>
   <g id="patch_4">
    <path d="M 86.612796 245.875938 
L 93.158936 245.875938 
L 93.158936 245.670204 
L 86.612796 245.670204 
z
" clip-path="url(#pfa09e8d822)" style="fill: #2e86ab; opacity: 0.7"/>
   </g>
   <g id="patch_5">
    <path d="M 93.158936 245.875938 
L 99.705076 245.875938 
L 99.705076 245.670204 
L 93.158936 245.670204 
z
" clip-path="url(#pfa09e8d822)" style="fill: #2e86ab; opacity: 0.7"/>
   </g>
   <g id="patch_6">
    <path d="M 99.705076 245.875938 
L 106.251216 245.875938 
L 106.251216 245.875938 
L 99.705076 245.875938 
z
" clip-path="url(#pfa09e8d822)" style="fill: #2e86ab; opacity: 0.7"/>
   </g>
   <g id="patch_7">
    <path d="M 106.251216 245.875938 
L 112.797355 245.875938 
L 112.797355 245.875938 
L 106.251216 245.875938 
z
" clip-path="url(#pfa09e8d822)" style="fill: #2e86ab; opacity: 0.7"/>
   </g>
   <g id="patch_8">
    <path d="M 112.797355 245.875938 
L 119.343495 245.875938 
L 119.343495 244.641535 
L 112.797355 244.641535 
z
" clip-path="url(#pfa09e8d822)" style="fill: #2e86ab; opacity: 0.7"/>
   </g>
   <g id="patch_9">
    <path d="M 119.343495 245.875938 
L 125.889635 245.875938 
L 125.889635 245.258736 
L 119.343495 245.258736 
z
" clip-path="url(#pfa09e8d822)" style="fill: #2e86ab; opacity: 0.7"/>
   </g>
   <g id="patch_10">
    <path d="M 125.889635 245.875938 
L 132.435775 245.875938 
L 132.435775 243.8186 
L 125.889635 243.8186 
z
" clip-path="url(#pfa09e8d822)" style="fill: #2e86ab; opacity: 0.7"/>
   </g>
   <g id="patch_11">
    <path d="M 132.435775 245.875938 
L 138.981915 245.875938 
L 138.981915 243.201399 
L 132.435775 243.201399 
z
" clip-path="url(#pfa09e8d822)" style="fill: #2e86ab; opacity: 0.7"/>
   </g>
   <g id="patch_12">
    <path d="M 138.981915 245.875938 
L 145.528054 245.875938 
L 145.528054 242.789932 
L 138.981915 242.789932 
z
" clip-path="url(#pfa09e8d822)" style="fill: #2e86ab; opacity: 0.7"/>
   </g>
   <g id="patch_13">
    <path d="M 145.528054 245.875938 
L 152.074194 245.875938 
L 152.074194 241.144062 
L 145.528054 241.144062 
z
" clip-path="url(#pfa09e8d822)" style="fill: #2e86ab; opacity: 0.7"/>
   </g>
   <g id="patch_14">
    <path d="M 152.074194 245.875938 
L 158.620334 245.875938 
L 158.620334 240.938328 
L 152.074194 240.938328 
z
" clip-path="url(#pfa09e8d822)" style="fill: #2e86ab; opacity: 0.7"/>
   </g>
   <g id="patch_15">
    <path d="M 158.620334 245.875938 
L 165.166474 245.875938 
L 165.166474 241.55553 
L 158.620334 241.55553 
z
" clip-path="url(#pfa09e8d822)" style="fill: #2e86ab; opacity: 0.7"/>
   </g>
   <g id="patch_16">
    <path d="M 165.166474 245.875938 
L 171.712613 245.875938 
L 171.712613 233.531915 
L 165.166474 233.531915 
z
" clip-path="url(#pfa09e8d822)" style="fill: #2e86ab; opacity: 0.7"/>
   </g>
   <g id="patch_17">
    <path d="M 171.712613 245.875938 
L 178.258753 245.875938 
L 178.258753 229.622974 
L 171.712613 229.622974 
z
" clip-path="url(#pfa09e8d822)" style="fill: #2e86ab; opacity: 0.7"/>
   </g>
   <g id="patch_18">
    <path d="M 178.258753 245.875938 
L 184.804893 245.875938 
L 184.804893 226.948436 
L 178.258753 226.948436 
z
" clip-path="url(#pfa09e8d822)" style="fill: #2e86ab; opacity: 0.7"/>
   </g>
   <g id="patch_19">
    <path d="M 184.804893 245.875938 
L 191.351033 245.875938 
L 191.351033 222.216561 
L 184.804893 222.216561 
z
" clip-path="url(#pfa09e8d822)" style="fill: #2e86ab; opacity: 0.7"/>
   </g>
   <g id="patch_20">
    <path d="M 191.351033 245.875938 
L 197.897172 245.875938 
L 197.897172 221.599359 
L 191.351033 221.599359 
z
" clip-path="url(#pfa09e8d822)" style="fill: #2e86ab; opacity: 0.7"/>
   </g>
   <g id="patch_21">
    <path d="M 197.897172 245.875938 
L 204.443312 245.875938 
L 204.443312 210.284005 
L 197.897172 210.284005 
z
" clip-path="url(#pfa09e8d822)" style="fill: #2e86ab; opacity: 0.7"/>
   </g>
   <g id="patch_22">
    <path d="M 204.443312 245.875938 
L 210.989452 245.875938 
L 210.989452 199.791586 
L 204.443312 199.791586 
z
" clip-path="url(#pfa09e8d822)" style="fill: #2e86ab; opacity: 0.7"/>
   </g>
   <g id="patch_23">
    <path d="M 210.989452 245.875938 
L 217.535592 245.875938 
L 217.535592 199.380118 
L 210.989452 199.380118 
z
" clip-path="url(#pfa09e8d822)" style="fill: #2e86ab; opacity: 0.7"/>
   </g>
   <g id="patch_24">
    <path d="M 217.535592 245.875938 
L 224.081731 245.875938 
L 224.081731 188.681965 
L 217.535592 188.681965 
z
" clip-path="url(#pfa09e8d822)" style="fill: #2e86ab; opacity: 0.7"/>
   </g>
   <g id="patch_25">
    <path d="M 224.081731 245.875938 
L 230.627871 245.875938 
L 230.627871 178.189546 
L 224.081731 178.189546 
z
" clip-path="url(#pfa09e8d822)" style="fill: #2e86ab; opacity: 0.7"/>
   </g>
   <g id="patch_26">
    <path d="M 230.627871 245.875938 
L 237.174011 245.875938 
L 237.174011 168.725795 
L 230.627871 168.725795 
z
" clip-path="url(#pfa09e8d822)" style="fill: #2e86ab; opacity: 0.7"/>
   </g>
   <g id="patch_27">
    <path d="M 237.174011 245.875938 
L 243.720151 245.875938 
L 243.720151 169.754464 
L 237.174011 169.754464 
z
" clip-path="url(#pfa09e8d822)" style="fill: #2e86ab; opacity: 0.7"/>
   </g>
   <g id="patch_28">
    <path d="M 243.720151 245.875938 
L 250.266291 245.875938 
L 250.266291 150.621228 
L 243.720151 150.621228 
z
" clip-path="url(#pfa09e8d822)" style="fill: #2e86ab; opacity: 0.7"/>
   </g>
   <g id="patch_29">
    <path d="M 250.266291 245.875938 
L 256.81243 245.875938 
L 256.81243 151.032696 
L 250.266291 151.032696 
z
" clip-path="url(#pfa09e8d822)" style="fill: #2e86ab; opacity: 0.7"/>
   </g>
   <g id="patch_30">
    <path d="M 256.81243 245.875938 
L 263.35857 245.875938 
L 263.35857 144.449217 
L 256.81243 144.449217 
z
" clip-path="url(#pfa09e8d822)" style="fill: #2e86ab; opacity: 0.7"/>
   </g>
   <g id="patch_31">
    <path d="M 263.35857 245.875938 
L 269.90471 245.875938 
L 269.90471 139.717342 
L 263.35857 139.717342 
z
" clip-path="url(#pfa09e8d822)" style="fill: #2e86ab; opacity: 0.7"/>
   </g>
   <g id="patch_32">
    <path d="M 269.90471 245.875938 
L 276.45085 245.875938 
L 276.45085 137.248537 
L 269.90471 137.248537 
z
" clip-path="url(#pfa09e8d822)" style="fill: #2e86ab; opacity: 0.7"/>
   </g>
   <g id="patch_33">
    <path d="M 276.45085 245.875938 
L 282.996989 245.875938 
L 282.996989 141.774679 
L 276.45085 141.774679 
z
" clip-path="url(#pfa09e8d822)" style="fill: #2e86ab; opacity: 0.7"/>
   </g>
   <g id="patch_34">
    <path d="M 282.996989 245.875938 
L 289.543129 245.875938 
L 289.543129 138.688673 
L 282.996989 138.688673 
z
" clip-path="url(#pfa09e8d822)" style="fill: #2e86ab; opacity: 0.7"/>
   </g>
   <g id="patch_35">
    <path d="M 289.543129 245.875938 
L 296.089269 245.875938 
L 296.089269 143.626282 
L 289.543129 143.626282 
z
" clip-path="url(#pfa09e8d822)" style="fill: #2e86ab; opacity: 0.7"/>
   </g>
   <g id="patch_36">
    <path d="M 296.089269 245.875938 
L 302.635409 245.875938 
L 302.635409 144.860684 
L 296.089269 144.860684 
z
" clip-path="url(#pfa09e8d822)" style="fill: #2e86ab; opacity: 0.7"/>
   </g>
   <g id="patch_37">
    <path d="M 302.635409 245.875938 
L 309.181548 245.875938 
L 309.181548 159.673512 
L 302.635409 159.673512 
z
" clip-path="url(#pfa09e8d822)" style="fill: #2e86ab; opacity: 0.7"/>
   </g>
   <g id="patch_38">
    <path d="M 309.181548 245.875938 
L 315.727688 245.875938 
L 315.727688 161.525115 
L 309.181548 161.525115 
z
" clip-path="url(#pfa09e8d822)" style="fill: #2e86ab; opacity: 0.7"/>
   </g>
   <g id="patch_39">
    <path d="M 315.727688 245.875938 
L 322.273828 245.875938 
L 322.273828 176.74941 
L 315.727688 176.74941 
z
" clip-path="url(#pfa09e8d822)" style="fill: #2e86ab; opacity: 0.7"/>
   </g>
   <g id="patch_40">
    <path d="M 322.273828 245.875938 
L 328.819968 245.875938 
L 328.819968 181.275552 
L 322.273828 181.275552 
z
" clip-path="url(#pfa09e8d822)" style="fill: #2e86ab; opacity: 0.7"/>
   </g>
   <g id="patch_41">
    <path d="M 328.819968 245.875938 
L 335.366108 245.875938 
L 335.366108 188.064764 
L 328.819968 188.064764 
z
" clip-path="url(#pfa09e8d822)" style="fill: #2e86ab; opacity: 0.7"/>
   </g>
   <g id="patch_42">
    <path d="M 335.366108 245.875938 
L 341.912247 245.875938 
L 341.912247 195.471178 
L 335.366108 195.471178 
z
" clip-path="url(#pfa09e8d822)" style="fill: #2e86ab; opacity: 0.7"/>
   </g>
   <g id="patch_43">
    <path d="M 341.912247 245.875938 
L 348.458387 245.875938 
L 348.458387 204.523461 
L 341.912247 204.523461 
z
" clip-path="url(#pfa09e8d822)" style="fill: #2e86ab; opacity: 0.7"/>
   </g>
   <g id="patch_44">
    <path d="M 348.458387 245.875938 
L 355.004527 245.875938 
L 355.004527 211.724141 
L 348.458387 211.724141 
z
" clip-path="url(#pfa09e8d822)" style="fill: #2e86ab; opacity: 0.7"/>
   </g>
   <g id="patch_45">
    <path d="M 355.004527 245.875938 
L 361.550667 245.875938 
L 361.550667 213.164277 
L 355.004527 213.164277 
z
" clip-path="url(#pfa09e8d822)" style="fill: #2e86ab; opacity: 0.7"/>
   </g>
   <g id="patch_46">
    <path d="M 361.550667 245.875938 
L 368.096806 245.875938 
L 368.096806 225.302566 
L 361.550667 225.302566 
z
" clip-path="url(#pfa09e8d822)" style="fill: #2e86ab; opacity: 0.7"/>
   </g>
   <g id="patch_47">
    <path d="M 368.096806 245.875938 
L 374.642946 245.875938 
L 374.642946 229.41724 
L 368.096806 229.41724 
z
" clip-path="url(#pfa09e8d822)" style="fill: #2e86ab; opacity: 0.7"/>
   </g>
   <g id="patch_48">
    <path d="M 374.642946 245.875938 
L 381.189086 245.875938 
L 381.189086 229.828708 
L 374.642946 229.828708 
z
" clip-path="url(#pfa09e8d822)" style="fill: #2e86ab; opacity: 0.7"/>
   </g>
   <g id="patch_49">
    <path d="M 381.189086 245.875938 
L 387.735226 245.875938 
L 387.735226 235.383518 
L 381.189086 235.383518 
z
" clip-path="url(#pfa09e8d822)" style="fill: #2e86ab; opacity: 0.7"/>
   </g>
   <g id="patch_50">
    <path d="M 387.735226 245.875938 
L 394.281365 245.875938 
L 394.281365 239.703926 
L 387.735226 239.703926 
z
" clip-path="url(#pfa09e8d822)" style="fill: #2e86ab; opacity: 0.7"/>
   </g>
   <g id="patch_51">
    <path d="M 394.281365 245.875938 
L 400.827505 245.875938 
L 400.827505 240.938328 
L 394.281365 240.938328 
z
" clip-path="url(#pfa09e8d822)" style="fill: #2e86ab; opacity: 0.7"/>
   </g>
   <g id="patch_52">
    <path d="M 400.827505 245.875938 
L 407.373645 245.875938 
L 407.373645 240.732595 
L 400.827505 240.732595 
z
" clip-path="url(#pfa09e8d822)" style="fill: #2e86ab; opacity: 0.7"/>
   </g>
   <g id="patch_53">
    <path d="M 407.373645 245.875938 
L 413.919785 245.875938 
L 413.919785 242.995666 
L 407.373645 242.995666 
z
" clip-path="url(#pfa09e8d822)" style="fill: #2e86ab; opacity: 0.7"/>
   </g>
   <g id="patch_54">
    <path d="M 413.919785 245.875938 
L 420.465924 245.875938 
L 420.465924 243.8186 
L 413.919785 243.8186 
z
" clip-path="url(#pfa09e8d822)" style="fill: #2e86ab; opacity: 0.7"/>
   </g>
   <g id="patch_55">
    <path d="M 420.465924 245.875938 
L 427.012064 245.875938 
L 427.012064 244.230068 
L 420.465924 244.230068 
z
" clip-path="url(#pfa09e8d822)" style="fill: #2e86ab; opacity: 0.7"/>
   </g>
   <g id="patch_56">
    <path d="M 427.012064 245.875938 
L 433.558204 245.875938 
L 433.558204 244.435802 
L 427.012064 244.435802 
z
" clip-path="url(#pfa09e8d822)" style="fill: #2e86ab; opacity: 0.7"/>
   </g>
   <g id="patch_57">
    <path d="M 433.558204 245.875938 
L 440.104344 245.875938 
L 440.104344 245.053003 
L 433.558204 245.053003 
z
" clip-path="url(#pfa09e8d822)" style="fill: #2e86ab; opacity: 0.7"/>
   </g>
   <g id="patch_58">
    <path d="M 440.104344 245.875938 
L 446.650484 245.875938 
L 446.650484 245.670204 
L 440.104344 245.670204 
z
" clip-path="url(#pfa09e8d822)" style="fill: #2e86ab; opacity: 0.7"/>
   </g>
   <g id="patch_59">
    <path d="M 446.650484 245.875938 
L 453.196623 245.875938 
L 453.196623 245.670204 
L 446.650484 245.670204 
z
" clip-path="url(#pfa09e8d822)" style="fill: #2e86ab; opacity: 0.7"/>
   </g>
   <g id="patch_60">
    <path d="M 453.196623 245.875938 
L 459.742763 245.875938 
L 459.742763 245.875938 
L 453.196623 245.875938 
z
" clip-path="url(#pfa09e8d822)" style="fill: #2e86ab; opacity: 0.7"/>
   </g>
   <g id="patch_61">
    <path d="M 459.742763 245.875938 
L 466.288903 245.875938 
L 466.288903 245.875938 
L 459.742763 245.875938 
z
" clip-path="url(#pfa09e8d822)" style="fill: #2e86ab; opacity: 0.7"/>
   </g>
   <g id="patch_62">
    <path d="M 466.288903 245.875938 
L 472.835043 245.875938 
L 472.835043 245.46447 
L 466.288903 245.46447 
z
" clip-path="url(#pfa09e8d822)" style="fill: #2e86ab; opacity: 0.7"/>
   </g>
   <g id="patch_63">
    <path d="M 65.535895 245.875938 
L 71.431087 245.875938 
L 71.431087 236.737903 
L 65.535895 236.737903 
z
" clip-path="url(#pfa09e8d822)" style="fill: #a23b72; opacity: 0.7"/>
   </g>
   <g id="patch_64">
    <path d="M 71.431087 245.875938 
L 77.326278 245.875938 
L 77.326278 232.168886 
L 71.431087 232.168886 
z
" clip-path="url(#pfa09e8d822)" style="fill: #a23b72; opacity: 0.7"/>
   </g>
   <g id="patch_65">
    <path d="M 77.326278 245.875938 
L 83.22147 245.875938 
L 83.22147 241.30692 
L 77.326278 241.30692 
z
" clip-path="url(#pfa09e8d822)" style="fill: #a23b72; opacity: 0.7"/>
   </g>
   <g id="patch_66">
    <path d="M 83.22147 245.875938 
L 89.116662 245.875938 
L 89.116662 227.599869 
L 83.22147 227.599869 
z
" clip-path="url(#pfa09e8d822)" style="fill: #a23b72; opacity: 0.7"/>
   </g>
   <g id="patch_67">
    <path d="M 89.116662 245.875938 
L 95.011854 245.875938 
L 95.011854 227.599869 
L 89.116662 227.599869 
z
" clip-path="url(#pfa09e8d822)" style="fill: #a23b72; opacity: 0.7"/>
   </g>
   <g id="patch_68">
    <path d="M 95.011854 245.875938 
L 100.907045 245.875938 
L 100.907045 223.030851 
L 95.011854 223.030851 
z
" clip-path="url(#pfa09e8d822)" style="fill: #a23b72; opacity: 0.7"/>
   </g>
   <g id="patch_69">
    <path d="M 100.907045 245.875938 
L 106.802237 245.875938 
L 106.802237 204.754782 
L 100.907045 204.754782 
z
" clip-path="url(#pfa09e8d822)" style="fill: #a23b72; opacity: 0.7"/>
   </g>
   <g id="patch_70">
    <path d="M 106.802237 245.875938 
L 112.697429 245.875938 
L 112.697429 163.633627 
L 106.802237 163.633627 
z
" clip-path="url(#pfa09e8d822)" style="fill: #a23b72; opacity: 0.7"/>
   </g>
   <g id="patch_71">
    <path d="M 112.697429 245.875938 
L 118.592621 245.875938 
L 118.592621 149.926575 
L 112.697429 149.926575 
z
" clip-path="url(#pfa09e8d822)" style="fill: #a23b72; opacity: 0.7"/>
   </g>
   <g id="patch_72">
    <path d="M 118.592621 245.875938 
L 124.487812 245.875938 
L 124.487812 131.650506 
L 118.592621 131.650506 
z
" clip-path="url(#pfa09e8d822)" style="fill: #a23b72; opacity: 0.7"/>
   </g>
   <g id="patch_73">
    <path d="M 124.487812 245.875938 
L 130.383004 245.875938 
L 130.383004 90.529351 
L 124.487812 90.529351 
z
" clip-path="url(#pfa09e8d822)" style="fill: #a23b72; opacity: 0.7"/>
   </g>
   <g id="patch_74">
    <path d="M 130.383004 245.875938 
L 136.278196 245.875938 
L 136.278196 95.098368 
L 130.383004 95.098368 
z
" clip-path="url(#pfa09e8d822)" style="fill: #a23b72; opacity: 0.7"/>
   </g>
   <g id="patch_75">
    <path d="M 136.278196 245.875938 
L 142.173388 245.875938 
L 142.173388 104.236403 
L 136.278196 104.236403 
z
" clip-path="url(#pfa09e8d822)" style="fill: #a23b72; opacity: 0.7"/>
   </g>
   <g id="patch_76">
    <path d="M 142.173388 245.875938 
L 148.068579 245.875938 
L 148.068579 53.977213 
L 142.173388 53.977213 
z
" clip-path="url(#pfa09e8d822)" style="fill: #a23b72; opacity: 0.7"/>
   </g>
   <g id="patch_77">
    <path d="M 148.068579 245.875938 
L 153.963771 245.875938 
L 153.963771 85.960334 
L 148.068579 85.960334 
z
" clip-path="url(#pfa09e8d822)" style="fill: #a23b72; opacity: 0.7"/>
   </g>
   <g id="patch_78">
    <path d="M 153.963771 245.875938 
L 159.858963 245.875938 
L 159.858963 21.994092 
L 153.963771 21.994092 
z
" clip-path="url(#pfa09e8d822)" style="fill: #a23b72; opacity: 0.7"/>
   </g>
   <g id="patch_79">
    <path d="M 159.858963 245.875938 
L 165.754155 245.875938 
L 165.754155 108.80542 
L 159.858963 108.80542 
z
" clip-path="url(#pfa09e8d822)" style="fill: #a23b72; opacity: 0.7"/>
   </g>
   <g id="patch_80">
    <path d="M 165.754155 245.875938 
L 171.649346 245.875938 
L 171.649346 81.391317 
L 165.754155 81.391317 
z
" clip-path="url(#pfa09e8d822)" style="fill: #a23b72; opacity: 0.7"/>
   </g>
   <g id="patch_81">
    <path d="M 171.649346 245.875938 
L 177.544538 245.875938 
L 177.544538 149.926575 
L 171.649346 149.926575 
z
" clip-path="url(#pfa09e8d822)" style="fill: #a23b72; opacity: 0.7"/>
   </g>
   <g id="patch_82">
    <path d="M 177.544538 245.875938 
L 183.43973 245.875938 
L 183.43973 136.219524 
L 177.544538 136.219524 
z
" clip-path="url(#pfa09e8d822)" style="fill: #a23b72; opacity: 0.7"/>
   </g>
   <g id="patch_83">
    <path d="M 183.43973 245.875938 
L 189.334922 245.875938 
L 189.334922 122.512472 
L 183.43973 122.512472 
z
" clip-path="url(#pfa09e8d822)" style="fill: #a23b72; opacity: 0.7"/>
   </g>
   <g id="patch_84">
    <path d="M 189.334922 245.875938 
L 195.230113 245.875938 
L 195.230113 195.616748 
L 189.334922 195.616748 
z
" clip-path="url(#pfa09e8d822)" style="fill: #a23b72; opacity: 0.7"/>
   </g>
   <g id="patch_85">
    <path d="M 195.230113 245.875938 
L 201.125305 245.875938 
L 201.125305 204.754782 
L 195.230113 204.754782 
z
" clip-path="url(#pfa09e8d822)" style="fill: #a23b72; opacity: 0.7"/>
   </g>
   <g id="patch_86">
    <path d="M 201.125305 245.875938 
L 207.020497 245.875938 
L 207.020497 204.754782 
L 201.125305 204.754782 
z
" clip-path="url(#pfa09e8d822)" style="fill: #a23b72; opacity: 0.7"/>
   </g>
   <g id="patch_87">
    <path d="M 207.020497 245.875938 
L 212.915689 245.875938 
L 212.915689 204.754782 
L 207.020497 204.754782 
z
" clip-path="url(#pfa09e8d822)" style="fill: #a23b72; opacity: 0.7"/>
   </g>
   <g id="patch_88">
    <path d="M 212.915689 245.875938 
L 218.81088 245.875938 
L 218.81088 232.168886 
L 212.915689 232.168886 
z
" clip-path="url(#pfa09e8d822)" style="fill: #a23b72; opacity: 0.7"/>
   </g>
   <g id="patch_89">
    <path d="M 218.81088 245.875938 
L 224.706072 245.875938 
L 224.706072 245.875938 
L 218.81088 245.875938 
z
" clip-path="url(#pfa09e8d822)" style="fill: #a23b72; opacity: 0.7"/>
   </g>
   <g id="patch_90">
    <path d="M 224.706072 245.875938 
L 230.601264 245.875938 
L 230.601264 236.737903 
L 224.706072 236.737903 
z
" clip-path="url(#pfa09e8d822)" style="fill: #a23b72; opacity: 0.7"/>
   </g>
   <g id="patch_91">
    <path d="M 230.601264 245.875938 
L 236.496456 245.875938 
L 236.496456 236.737903 
L 230.601264 236.737903 
z
" clip-path="url(#pfa09e8d822)" style="fill: #a23b72; opacity: 0.7"/>
   </g>
   <g id="patch_92">
    <path d="M 236.496456 245.875938 
L 242.391647 245.875938 
L 242.391647 241.30692 
L 236.496456 241.30692 
z
" clip-path="url(#pfa09e8d822)" style="fill: #a23b72; opacity: 0.7"/>
   </g>
   <g id="matplotlib.axis_1">
    <g id="xtick_1">
     <g id="line2d_1">
      <path d="M 57.417265 245.875938 
L 57.417265 10.8 
" clip-path="url(#pfa09e8d822)" style="fill: none; stroke: #b0b0b0; stroke-opacity: 0.3; stroke-width: 0.8; stroke-linecap: square"/>
     </g>
     <g id="line2d_2">
      <defs>
       <path id="m4cf7c62ae1" d="M 0 0 
L 0 3.5 
" style="stroke: #000000; stroke-width: 0.8"/>
      </defs>
      <g>
       <use xlink:href="#m4cf7c62ae1" x="57.417265" y="245.875938" style="stroke: #000000; stroke-width: 0.8"/>
      </g>
     </g>
     <g id="text_1">
      <!-- −0.3 -->
      <g transform="translate(45.275859 260.474375) scale(0.1 -0.1)">
       <defs>
        <path id="DejaVuSans-2212" d="M 678 2272 
L 4684 2272 
L 4684 1741 
L 678 1741 
L 678 2272 
z
" transform="scale(0.015625)"/>
        <path id="DejaVuSans-30" d="M 2034 4250 
Q 1547 4250 1301 3770 
Q 1056 3291 1056 2328 
Q 1056 1369 1301 889 
Q 1547 409 2034 409 
Q 2525 409 2770 889 
Q 3016 1369 3016 2328 
Q 3016 3291 2770 3770 
Q 2525 4250 2034 4250 
z
M 2034 4750 
Q 2819 4750 3233 4129 
Q 3647 3509 3647 2328 
Q 3647 1150 3233 529 
Q 2819 -91 2034 -91 
Q 1250 -91 836 529 
Q 422 1150 422 2328 
Q 422 3509 836 4129 
Q 1250 4750 2034 4750 
z
" transform="scale(0.015625)"/>
        <path id="DejaVuSans-2e" d="M 684 794 
L 1344 794 
L 1344 0 
L 684 0 
L 684 794 
z
" transform="scale(0.015625)"/>
        <path id="DejaVuSans-33" d="M 2597 2516 
Q 3050 2419 3304 2112 
Q 3559 1806 3559 1356 
Q 3559 666 3084 287 
Q 2609 -91 1734 -91 
Q 1441 -91 1130 -33 
Q 819 25 488 141 
L 488 750 
Q 750 597 1062 519 
Q 1375 441 1716 441 
Q 2309 441 2620 675 
Q 2931 909 2931 1356 
Q 2931 1769 2642 2001 
Q 2353 2234 1838 2234 
L 1294 2234 
L 1294 2753 
L 1863 2753 
Q 2328 2753 2575 2939 
Q 2822 3125 2822 3475 
Q 2822 3834 2567 4026 
Q 2313 4219 1838 4219 
Q 1578 4219 1281 4162 
Q 984 4106 628 3988 
L 628 4550 
Q 988 4650 1302 4700 
Q 1616 4750 1894 4750 
Q 2613 4750 3031 4423 
Q 3450 4097 3450 3541 
Q 3450 3153 3228 2886 
Q 3006 2619 2597 2516 
z
" transform="scale(0.015625)"/>
       </defs>
       <use xlink:href="#DejaVuSans-2212"/>
       <use xlink:href="#DejaVuSans-30" transform="translate(83.789062 0)"/>
       <use xlink:href="#DejaVuSans-2e" transform="translate(147.412109 0)"/>
       <use xlink:href="#DejaVuSans-33" transform="translate(179.199219 0)"/>
      </g>
     </g>
    </g>
    <g id="xtick_2">
     <g id="line2d_3">
      <path d="M 119.970855 245.875938 
L 119.970855 10.8 
" clip-path="url(#pfa09e8d822)" style="fill: none; stroke: #b0b0b0; stroke-opacity: 0.3; stroke-width: 0.8; stroke-linecap: square"/>
     </g>
     <g id="line2d_4">
      <g>
       <use xlink:href="#m4cf7c62ae1" x="119.970855" y="245.875938" style="stroke: #000000; stroke-width: 0.8"/>
      </g>
     </g>
     <g id="text_2">
      <!-- −0.2 -->
      <g transform="translate(107.829449 260.474375) scale(0.1 -0.1)">
       <defs>
        <path id="DejaVuSans-32" d="M 1228 531 
L 3431 531 
L 3431 0 
L 469 0 
L 469 531 
Q 828 903 1448 1529 
Q 2069 2156 2228 2338 
Q 2531 2678 2651 2914 
Q 2772 3150 2772 3378 
Q 2772 3750 2511 3984 
Q 2250 4219 1831 4219 
Q 1534 4219 1204 4116 
Q 875 4013 500 3803 
L 500 4441 
Q 881 4594 1212 4672 
Q 1544 4750 1819 4750 
Q 2544 4750 2975 4387 
Q 3406 4025 3406 3419 
Q 3406 3131 3298 2873 
Q 3191 2616 2906 2266 
Q 2828 2175 2409 1742 
Q 1991 1309 1228 531 
z
" transform="scale(0.015625)"/>
       </defs>
       <use xlink:href="#DejaVuSans-2212"/>
       <use xlink:href="#DejaVuSans-30" transform="translate(83.789062 0)"/>
       <use xlink:href="#DejaVuSans-2e" transform="translate(147.412109 0)"/>
       <use xlink:href="#DejaVuSans-32" transform="translate(179.199219 0)"/>
      </g>
     </g>
    </g>
    <g id="xtick_3">
     <g id="line2d_5">
      <path d="M 182.524446 245.875938 
L 182.524446 10.8 
" clip-path="url(#pfa09e8d822)" style="fill: none; stroke: #b0b0b0; stroke-opacity: 0.3; stroke-width: 0.8; stroke-linecap: square"/>
     </g>
     <g id="line2d_6">
      <g>
       <use xlink:href="#m4cf7c62ae1" x="182.524446" y="245.875938" style="stroke: #000000; stroke-width: 0.8"/>
      </g>
     </g>
     <g id="text_3">
      <!-- −0.1 -->
      <g transform="translate(170.383039 260.474375) scale(0.1 -0.1)">
       <defs>
        <path id="DejaVuSans-31" d="M 794 531 
L 1825 531 
L 1825 4091 
L 703 3866 
L 703 4441 
L 1819 4666 
L 2450 4666 
L 2450 531 
L 3481 531 
L 3481 0 
L 794 0 
L 794 531 
z
" transform="scale(0.015625)"/>
       </defs>
       <use xlink:href="#DejaVuSans-2212"/>
       <use xlink:href="#DejaVuSans-30" transform="translate(83.789062 0)"/>
       <use xlink:href="#DejaVuSans-2e" transform="translate(147.412109 0)"/>
       <use xlink:href="#DejaVuSans-31" transform="translate(179.199219 0)"/>
      </g>
     </g>
    </g>
    <g id="xtick_4">
     <g id="line2d_7">
      <path d="M 245.078036 245.875938 
L 245.078036 10.8 
" clip-path="url(#pfa09e8d822)" style="fill: none; stroke: #b0b0b0; stroke-opacity: 0.3; stroke-width: 0.8; stroke-linecap: square"/>
     </g>
     <g id="line2d_8">
      <g>
       <use xlink:href="#m4cf7c62ae1" x="245.078036" y="245.875938" style="stroke: #000000; stroke-width: 0.8"/>
      </g>
     </g>
     <g id="text_4">
      <!-- 0.0 -->
      <g transform="translate(237.126473 260.474375) scale(0.1 -0.1)">
       <use xlink:href="#DejaVuSans-30"/>
       <use xlink:href="#DejaVuSans-2e" transform="translate(63.623047 0)"/>
       <use xlink:href="#DejaVuSans-30" transform="translate(95.410156 0)"/>
      </g>
     </g>
    </g>
    <g id="xtick_5">
     <g id="line2d_9">
      <path d="M 307.631626 245.875938 
L 307.631626 10.8 
" clip-path="url(#pfa09e8d822)" style="fill: none; stroke: #b0b0b0; stroke-opacity: 0.3; stroke-width: 0.8; stroke-linecap: square"/>
     </g>
     <g id="line2d_10">
      <g>
       <use xlink:href="#m4cf7c62ae1" x="307.631626" y="245.875938" style="stroke: #000000; stroke-width: 0.8"/>
      </g>
     </g>
     <g id="text_5">
      <!-- 0.1 -->
      <g transform="translate(299.680064 260.474375) scale(0.1 -0.1)">
       <use xlink:href="#DejaVuSans-30"/>
       <use xlink:href="#DejaVuSans-2e" transform="translate(63.623047 0)"/>
       <use xlink:href="#DejaVuSans-31" transform="translate(95.410156 0)"/>
      </g>
     </g>
    </g>
    <g id="xtick_6">
     <g id="line2d_11">
      <path d="M 370.185216 245.875938 
L 370.185216 10.8 
" clip-path="url(#pfa09e8d822)" style="fill: none; stroke: #b0b0b0; stroke-opacity: 0.3; stroke-width: 0.8; stroke-linecap: square"/>
     </g>
     <g id="line2d_12">
      <g>
       <use xlink:href="#m4cf7c62ae1" x="370.185216" y="245.875938" style="stroke: #000000; stroke-width: 0.8"/>
      </g>
     </g>
     <g id="text_6">
      <!-- 0.2 -->
      <g transform="translate(362.233654 260.474375) scale(0.1 -0.1)">
       <use xlink:href="#DejaVuSans-30"/>
       <use xlink:href="#DejaVuSans-2e" transform="translate(63.623047 0)"/>
       <use xlink:href="#DejaVuSans-32" transform="translate(95.410156 0)"/>
      </g>
     </g>
    </g>
    <g id="xtick_7">
     <g id="line2d_13">
      <path d="M 432.738806 245.875938 
L 432.738806 10.8 
" clip-path="url(#pfa09e8d822)" style="fill: none; stroke: #b0b0b0; stroke-opacity: 0.3; stroke-width: 0.8; stroke-linecap: square"/>
     </g>
     <g id="line2d_14">
      <g>
       <use xlink:href="#m4cf7c62ae1" x="432.738806" y="245.875938" style="stroke: #000000; stroke-width: 0.8"/>
      </g>
     </g>
     <g id="text_7">
      <!-- 0.3 -->
      <g transform="translate(424.787244 260.474375) scale(0.1 -0.1)">
       <use xlink:href="#DejaVuSans-30"/>
       <use xlink:href="#DejaVuSans-2e" transform="translate(63.623047 0)"/>
       <use xlink:href="#DejaVuSans-33" transform="translate(95.410156 0)"/>
      </g>
     </g>
    </g>
    <g id="text_8">
     <!-- Score de Anomalia (menor = mais anômalo) -->
     <g transform="translate(146.934219 274.912344) scale(0.11 -0.11)">
      <defs>
       <path id="DejaVuSans-53" d="M 3425 4513 
L 3425 3897 
Q 3066 4069 2747 4153 
Q 2428 4238 2131 4238 
Q 1616 4238 1336 4038 
Q 1056 3838 1056 3469 
Q 1056 3159 1242 3001 
Q 1428 2844 1947 2747 
L 2328 2669 
Q 3034 2534 3370 2195 
Q 3706 1856 3706 1288 
Q 3706 609 3251 259 
Q 2797 -91 1919 -91 
Q 1588 -91 1214 -16 
Q 841 59 441 206 
L 441 856 
Q 825 641 1194 531 
Q 1563 422 1919 422 
Q 2459 422 2753 634 
Q 3047 847 3047 1241 
Q 3047 1584 2836 1778 
Q 2625 1972 2144 2069 
L 1759 2144 
Q 1053 2284 737 2584 
Q 422 2884 422 3419 
Q 422 4038 858 4394 
Q 1294 4750 2059 4750 
Q 2388 4750 2728 4690 
Q 3069 4631 3425 4513 
z
" transform="scale(0.015625)"/>
       <path id="DejaVuSans-63" d="M 3122 3366 
L 3122 2828 
Q 2878 2963 2633 3030 
Q 2388 3097 2138 3097 
Q 1578 3097 1268 2742 
Q 959 2388 959 1747 
Q 959 1106 1268 751 
Q 1578 397 2138 397 
Q 2388 397 2633 464 
Q 2878 531 3122 666 
L 3122 134 
Q 2881 22 2623 -34 
Q 2366 -91 2075 -91 
Q 1284 -91 818 406 
Q 353 903 353 1747 
Q 353 2603 823 3093 
Q 1294 3584 2113 3584 
Q 2378 3584 2631 3529 
Q 2884 3475 3122 3366 
z
" transform="scale(0.015625)"/>
       <path id="DejaVuSans-6f" d="M 1959 3097 
Q 1497 3097 1228 2736 
Q 959 2375 959 1747 
Q 959 1119 1226 758 
Q 1494 397 1959 397 
Q 2419 397 2687 759 
Q 2956 1122 2956 1747 
Q 2956 2369 2687 2733 
Q 2419 3097 1959 3097 
z
M 1959 3584 
Q 2709 3584 3137 3096 
Q 3566 2609 3566 1747 
Q 3566 888 3137 398 
Q 2709 -91 1959 -91 
Q 1206 -91 779 398 
Q 353 888 353 1747 
Q 353 2609 779 3096 
Q 1206 3584 1959 3584 
z
" transform="scale(0.015625)"/>
       <path id="DejaVuSans-72" d="M 2631 2963 
Q 2534 3019 2420 3045 
Q 2306 3072 2169 3072 
Q 1681 3072 1420 2755 
Q 1159 2438 1159 1844 
L 1159 0 
L 581 0 
L 581 3500 
L 1159 3500 
L 1159 2956 
Q 1341 3275 1631 3429 
Q 1922 3584 2338 3584 
Q 2397 3584 2469 3576 
Q 2541 3569 2628 3553 
L 2631 2963 
z
" transform="scale(0.015625)"/>
       <path id="DejaVuSans-65" d="M 3597 1894 
L 3597 1613 
L 953 1613 
Q 991 1019 1311 708 
Q 1631 397 2203 397 
Q 2534 397 2845 478 
Q 3156 559 3463 722 
L 3463 178 
Q 3153 47 2828 -22 
Q 2503 -91 2169 -91 
Q 1331 -91 842 396 
Q 353 884 353 1716 
Q 353 2575 817 3079 
Q 1281 3584 2069 3584 
Q 2775 3584 3186 3129 
Q 3597 2675 3597 1894 
z
M 3022 2063 
Q 3016 2534 2758 2815 
Q 2500 3097 2075 3097 
Q 1594 3097 1305 2825 
Q 1016 2553 972 2059 
L 3022 2063 
z
" transform="scale(0.015625)"/>
       <path id="DejaVuSans-20" transform="scale(0.015625)"/>
       <path id="DejaVuSans-64" d="M 2906 2969 
L 2906 4863 
L 3481 4863 
L 3481 0 
L 2906 0 
L 2906 525 
Q 2725 213 2448 61 
Q 2172 -91 1784 -91 
Q 1150 -91 751 415 
Q 353 922 353 1747 
Q 353 2572 751 3078 
Q 1150 3584 1784 3584 
Q 2172 3584 2448 3432 
Q 2725 3281 2906 2969 
z
M 947 1747 
Q 947 1113 1208 752 
Q 1469 391 1925 391 
Q 2381 391 2643 752 
Q 2906 1113 2906 1747 
Q 2906 2381 2643 2742 
Q 2381 3103 1925 3103 
Q 1469 3103 1208 2742 
Q 947 2381 947 1747 
z
" transform="scale(0.015625)"/>
       <path id="DejaVuSans-41" d="M 2188 4044 
L 1331 1722 
L 3047 1722 
L 2188 4044 
z
M 1831 4666 
L 2547 4666 
L 4325 0 
L 3669 0 
L 3244 1197 
L 1141 1197 
L 716 0 
L 50 0 
L 1831 4666 
z
" transform="scale(0.015625)"/>
       <path id="DejaVuSans-6e" d="M 3513 2113 
L 3513 0 
L 2938 0 
L 2938 2094 
Q 2938 2591 2744 2837 
Q 2550 3084 2163 3084 
Q 1697 3084 1428 2787 
Q 1159 2491 1159 1978 
L 1159 0 
L 581 0 
L 581 3500 
L 1159 3500 
L 1159 2956 
Q 1366 3272 1645 3428 
Q 1925 3584 2291 3584 
Q 2894 3584 3203 3211 
Q 3513 2838 3513 2113 
z
" transform="scale(0.015625)"/>
       <path id="DejaVuSans-6d" d="M 3328 2828 
Q 3544 3216 3844 3400 
Q 4144 3584 4550 3584 
Q 5097 3584 5394 3201 
Q 5691 2819 5691 2113 
L 5691 0 
L 5113 0 
L 5113 2094 
Q 5113 2597 4934 2840 
Q 4756 3084 4391 3084 
Q 3944 3084 3684 2787 
Q 3425 2491 3425 1978 
L 3425 0 
L 2847 0 
L 2847 2094 
Q 2847 2600 2669 2842 
Q 2491 3084 2119 3084 
Q 1678 3084 1418 2786 
Q 1159 2488 1159 1978 
L 1159 0 
L 581 0 
L 581 3500 
L 1159 3500 
L 1159 2956 
Q 1356 3278 1631 3431 
Q 1906 3584 2284 3584 
Q 2666 3584 2933 3390 
Q 3200 3197 3328 2828 
z
" transform="scale(0.015625)"/>
       <path id="DejaVuSans-61" d="M 2194 1759 
Q 1497 1759 1228 1600 
Q 959 1441 959 1056 
Q 959 750 1161 570 
Q 1363 391 1709 391 
Q 2188 391 2477 730 
Q 2766 1069 2766 1631 
L 2766 1759 
L 2194 1759 
z
M 3341 1997 
L 3341 0 
L 2766 0 
L 2766 531 
Q 2569 213 2275 61 
Q 1981 -91 1556 -91 
Q 1019 -91 701 211 
Q 384 513 384 1019 
Q 384 1609 779 1909 
Q 1175 2209 1959 2209 
L 2766 2209 
L 2766 2266 
Q 2766 2663 2505 2880 
Q 2244 3097 1772 3097 
Q 1472 3097 1187 3025 
Q 903 2953 641 2809 
L 641 3341 
Q 956 3463 1253 3523 
Q 1550 3584 1831 3584 
Q 2591 3584 2966 3190 
Q 3341 2797 3341 1997 
z
" transform="scale(0.015625)"/>
       <path id="DejaVuSans-6c" d="M 603 4863 
L 1178 4863 
L 1178 0 
L 603 0 
L 603 4863 
z
" transform="scale(0.015625)"/>
       <path id="DejaVuSans-69" d="M 603 3500 
L 1178 3500 
L 1178 0 
L 603 0 
L 603 3500 
z
M 603 4863 
L 1178 4863 
L 1178 4134 
L 603 4134 
L 603 4863 
z
" transform="scale(0.015625)"/>
       <path id="DejaVuSans-28" d="M 1984 4856 
Q 1566 4138 1362 3434 
Q 1159 2731 1159 2009 
Q 1159 1288 1364 580 
Q 1569 -128 1984 -844 
L 1484 -844 
Q 1016 -109 783 600 
Q 550 1309 550 2009 
Q 550 2706 781 3412 
Q 1013 4119 1484 4856 
L 1984 4856 
z
" transform="scale(0.015625)"/>
       <path id="DejaVuSans-3d" d="M 678 2906 
L 4684 2906 
L 4684 2381 
L 678 2381 
L 678 2906 
z
M 678 1631 
L 4684 1631 
L 4684 1100 
L 678 1100 
L 678 1631 
z
" transform="scale(0.015625)"/>
       <path id="DejaVuSans-73" d="M 2834 3397 
L 2834 2853 
Q 2591 2978 2328 3040 
Q 2066 3103 1784 3103 
Q 1356 3103 1142 2972 
Q 928 2841 928 2578 
Q 928 2378 1081 2264 
Q 1234 2150 1697 2047 
L 1894 2003 
Q 2506 1872 2764 1633 
Q 3022 1394 3022 966 
Q 3022 478 2636 193 
Q 2250 -91 1575 -91 
Q 1294 -91 989 -36 
Q 684 19 347 128 
L 347 722 
Q 666 556 975 473 
Q 1284 391 1588 391 
Q 1994 391 2212 530 
Q 2431 669 2431 922 
Q 2431 1156 2273 1281 
Q 2116 1406 1581 1522 
L 1381 1569 
Q 847 1681 609 1914 
Q 372 2147 372 2553 
Q 372 3047 722 3315 
Q 1072 3584 1716 3584 
Q 2034 3584 2315 3537 
Q 2597 3491 2834 3397 
z
" transform="scale(0.015625)"/>
       <path id="DejaVuSans-f4" d="M 1959 3097 
Q 1497 3097 1228 2736 
Q 959 2375 959 1747 
Q 959 1119 1226 758 
Q 1494 397 1959 397 
Q 2419 397 2687 759 
Q 2956 1122 2956 1747 
Q 2956 2369 2687 2733 
Q 2419 3097 1959 3097 
z
M 1959 3584 
Q 2709 3584 3137 3096 
Q 3566 2609 3566 1747 
Q 3566 888 3137 398 
Q 2709 -91 1959 -91 
Q 1206 -91 779 398 
Q 353 888 353 1747 
Q 353 2609 779 3096 
Q 1206 3584 1959 3584 
z
M 1729 5119 
L 2191 5119 
L 2957 3944 
L 2523 3944 
L 1960 4709 
L 1398 3944 
L 963 3944 
L 1729 5119 
z
" transform="scale(0.015625)"/>
       <path id="DejaVuSans-29" d="M 513 4856 
L 1013 4856 
Q 1481 4119 1714 3412 
Q 1947 2706 1947 2009 
Q 1947 1309 1714 600 
Q 1481 -109 1013 -844 
L 513 -844 
Q 928 -128 1133 580 
Q 1338 1288 1338 2009 
Q 1338 2731 1133 3434 
Q 928 4138 513 4856 
z
" transform="scale(0.015625)"/>
      </defs>
      <use xlink:href="#DejaVuSans-53"/>
      <use xlink:href="#DejaVuSans-63" transform="translate(63.476562 0)"/>
      <use xlink:href="#DejaVuSans-6f" transform="translate(118.457031 0)"/>
      <use xlink:href="#DejaVuSans-72" transform="translate(179.638672 0)"/>
      <use xlink:href="#DejaVuSans-65" transform="translate(218.501953 0)"/>
      <use xlink:href="#DejaVuSans-20" transform="translate(280.025391 0)"/>
      <use xlink:href="#DejaVuSans-64" transform="translate(311.8125 0)"/>
      <use xlink:href="#DejaVuSans-65" transform="translate(375.289062 0)"/>
      <use xlink:href="#DejaVuSans-20" transform="translate(436.8125 0)"/>
      <use xlink:href="#DejaVuSans-41" transform="translate(468.599609 0)"/>
      <use xlink:href="#DejaVuSans-6e" transform="translate(537.007812 0)"/>
      <use xlink:href="#DejaVuSans-6f" transform="translate(600.386719 0)"/>
      <use xlink:href="#DejaVuSans-6d" transform="translate(661.568359 0)"/>
      <use xlink:href="#DejaVuSans-61" transform="translate(758.980469 0)"/>
      <use xlink:href="#DejaVuSans-6c" transform="translate(820.259766 0)"/>
      <use xlink:href="#DejaVuSans-69" transform="translate(848.042969 0)"/>
      <use xlink:href="#DejaVuSans-61" transform="translate(875.826172 0)"/>
      <use xlink:href="#DejaVuSans-20" transform="translate(937.105469 0)"/>
      <use xlink:href="#DejaVuSans-28" transform="translate(968.892578 0)"/>
      <use xlink:href="#DejaVuSans-6d" transform="translate(1007.90625 0)"/>
      <use xlink:href="#DejaVuSans-65" transform="translate(1105.318359 0)"/>
      <use xlink:href="#DejaVuSans-6e" transform="translate(1166.841797 0)"/>
      <use xlink:href="#DejaVuSans-6f" transform="translate(1230.220703 0)"/>
      <use xlink:href="#DejaVuSans-72" transform="translate(1291.402344 0)"/>
      <use xlink:href="#DejaVuSans-20" transform="translate(1332.515625 0)"/>
      <use xlink:href="#DejaVuSans-3d" transform="translate(1364.302734 0)"/>
      <use xlink:href="#DejaVuSans-20" transform="translate(1448.091797 0)"/>
      <use xlink:href="#DejaVuSans-6d" transform="translate(1479.878906 0)"/>
      <use xlink:href="#DejaVuSans-61" transform="translate(1577.291016 0)"/>
      <use xlink:href="#DejaVuSans-69" transform="translate(1638.570312 0)"/>
      <use xlink:href="#DejaVuSans-73" transform="translate(1666.353516 0)"/>
      <use xlink:href="#DejaVuSans-20" transform="translate(1718.453125 0)"/>
      <use xlink:href="#DejaVuSans-61" transform="translate(1750.240234 0)"/>
      <use xlink:href="#DejaVuSans-6e" transform="translate(1811.519531 0)"/>
      <use xlink:href="#DejaVuSans-f4" transform="translate(1874.898438 0)"/>
      <use xlink:href="#DejaVuSans-6d" transform="translate(1936.080078 0)"/>
      <use xlink:href="#DejaVuSans-61" transform="translate(2033.492188 0)"/>
      <use xlink:href="#DejaVuSans-6c" transform="translate(2094.771484 0)"/>
      <use xlink:href="#DejaVuSans-6f" transform="translate(2122.554688 0)"/>
      <use xlink:href="#DejaVuSans-29" transform="translate(2183.736328 0)"/>
     </g>
    </g>
   </g>
   <g id="matplotlib.axis_2">
    <g id="ytick_1">
     <g id="line2d_15">
      <path d="M 45.170938 245.875938 
L 493.2 245.875938 
" clip-path="url(#pfa09e8d822)" style="fill: none; stroke: #b0b0b0; stroke-opacity: 0.3; stroke-width: 0.8; stroke-linecap: square"/>
     </g>
     <g id="line2d_16">
      <defs>
       <path id="m6ba85936ca" d="M 0 0 
L -3.5 0 
" style="stroke: #000000; stroke-width: 0.8"/>
      </defs>
      <g>
       <use xlink:href="#m6ba85936ca" x="45.170938" y="245.875938" style="stroke: #000000; stroke-width: 0.8"/>
      </g>
     </g>
     <g id="text_9">
      <!-- 0 -->
      <g transform="translate(31.808438 249.675156) scale(0.1 -0.1)">
       <use xlink:href="#DejaVuSans-30"/>
      </g>
     </g>
    </g>
    <g id="ytick_2">
     <g id="line2d_17">
      <path d="M 45.170938 202.816486 
L 493.2 202.816486 
" clip-path="url(#pfa09e8d822)" style="fill: none; stroke: #b0b0b0; stroke-opacity: 0.3; stroke-width: 0.8; stroke-linecap: square"/>
     </g>
     <g id="line2d_18">
      <g>
       <use xlink:href="#m6ba85936ca" x="45.170938" y="202.816486" style="stroke: #000000; stroke-width: 0.8"/>
      </g>
     </g>
     <g id="text_10">
      <!-- 2 -->
      <g transform="translate(31.808438 206.615705) scale(0.1 -0.1)">
       <use xlink:href="#DejaVuSans-32"/>
      </g>
     </g>
    </g>
    <g id="ytick_3">
     <g id="line2d_19">
      <path d="M 45.170938 159.757035 
L 493.2 159.757035 
" clip-path="url(#pfa09e8d822)" style="fill: none; stroke: #b0b0b0; stroke-opacity: 0.3; stroke-width: 0.8; stroke-linecap: square"/>
     </g>
     <g id="line2d_20">
      <g>
       <use xlink:href="#m6ba85936ca" x="45.170938" y="159.757035" style="stroke: #000000; stroke-width: 0.8"/>
      </g>
     </g>
     <g id="text_11">
      <!-- 4 -->
      <g transform="translate(31.808438 163.556253) scale(0.1 -0.1)">
       <defs>
        <path id="DejaVuSans-34" d="M 2419 4116 
L 825 1625 
L 2419 1625 
L 2419 4116 
z
M 2253 4666 
L 3047 4666 
L 3047 1625 
L 3713 1625 
L 3713 1100 
L 3047 1100 
L 3047 0 
L 2419 0 
L 2419 1100 
L 313 1100 
L 313 1709 
L 2253 4666 
z
" transform="scale(0.015625)"/>
       </defs>
       <use xlink:href="#DejaVuSans-34"/>
      </g>
     </g>
    </g>
    <g id="ytick_4">
     <g id="line2d_21">
      <path d="M 45.170938 116.697583 
L 493.2 116.697583 
" clip-path="url(#pfa09e8d822)" style="fill: none; stroke: #b0b0b0; stroke-opacity: 0.3; stroke-width: 0.8; stroke-linecap: square"/>
     </g>
     <g id="line2d_22">
      <g>
       <use xlink:href="#m6ba85936ca" x="45.170938" y="116.697583" style="stroke: #000000; stroke-width: 0.8"/>
      </g>
     </g>
     <g id="text_12">
      <!-- 6 -->
      <g transform="translate(31.808438 120.496802) scale(0.1 -0.1)">
       <defs>
        <path id="DejaVuSans-36" d="M 2113 2584 
Q 1688 2584 1439 2293 
Q 1191 2003 1191 1497 
Q 1191 994 1439 701 
Q 1688 409 2113 409 
Q 2538 409 2786 701 
Q 3034 994 3034 1497 
Q 3034 2003 2786 2293 
Q 2538 2584 2113 2584 
z
M 3366 4563 
L 3366 3988 
Q 3128 4100 2886 4159 
Q 2644 4219 2406 4219 
Q 1781 4219 1451 3797 
Q 1122 3375 1075 2522 
Q 1259 2794 1537 2939 
Q 1816 3084 2150 3084 
Q 2853 3084 3261 2657 
Q 3669 2231 3669 1497 
Q 3669 778 3244 343 
Q 2819 -91 2113 -91 
Q 1303 -91 875 529 
Q 447 1150 447 2328 
Q 447 3434 972 4092 
Q 1497 4750 2381 4750 
Q 2619 4750 2861 4703 
Q 3103 4656 3366 4563 
z
" transform="scale(0.015625)"/>
       </defs>
       <use xlink:href="#DejaVuSans-36"/>
      </g>
     </g>
    </g>
    <g id="ytick_5">
     <g id="line2d_23">
      <path d="M 45.170938 73.638132 
L 493.2 73.638132 
" clip-path="url(#pfa09e8d822)" style="fill: none; stroke: #b0b0b0; stroke-opacity: 0.3; stroke-width: 0.8; stroke-linecap: square"/>
     </g>
     <g id="line2d_24">
      <g>
       <use xlink:href="#m6ba85936ca" x="45.170938" y="73.638132" style="stroke: #000000; stroke-width: 0.8"/>
      </g>
     </g>
     <g id="text_13">
      <!-- 8 -->
      <g transform="translate(31.808438 77.43735) scale(0.1 -0.1)">
       <defs>
        <path id="DejaVuSans-38" d="M 2034 2216 
Q 1584 2216 1326 1975 
Q 1069 1734 1069 1313 
Q 1069 891 1326 650 
Q 1584 409 2034 409 
Q 2484 409 2743 651 
Q 3003 894 3003 1313 
Q 3003 1734 2745 1975 
Q 2488 2216 2034 2216 
z
M 1403 2484 
Q 997 2584 770 2862 
Q 544 3141 544 3541 
Q 544 4100 942 4425 
Q 1341 4750 2034 4750 
Q 2731 4750 3128 4425 
Q 3525 4100 3525 3541 
Q 3525 3141 3298 2862 
Q 3072 2584 2669 2484 
Q 3125 2378 3379 2068 
Q 3634 1759 3634 1313 
Q 3634 634 3220 271 
Q 2806 -91 2034 -91 
Q 1263 -91 848 271 
Q 434 634 434 1313 
Q 434 1759 690 2068 
Q 947 2378 1403 2484 
z
M 1172 3481 
Q 1172 3119 1398 2916 
Q 1625 2713 2034 2713 
Q 2441 2713 2670 2916 
Q 2900 3119 2900 3481 
Q 2900 3844 2670 4047 
Q 2441 4250 2034 4250 
Q 1625 4250 1398 4047 
Q 1172 3844 1172 3481 
z
" transform="scale(0.015625)"/>
       </defs>
       <use xlink:href="#DejaVuSans-38"/>
      </g>
     </g>
    </g>
    <g id="ytick_6">
     <g id="line2d_25">
      <path d="M 45.170938 30.57868 
L 493.2 30.57868 
" clip-path="url(#pfa09e8d822)" style="fill: none; stroke: #b0b0b0; stroke-opacity: 0.3; stroke-width: 0.8; stroke-linecap: square"/>
     </g>
     <g id="line2d_26">
      <g>
       <use xlink:href="#m6ba85936ca" x="45.170938" y="30.57868" style="stroke: #000000; stroke-width: 0.8"/>
      </g>
     </g>
     <g id="text_14">
      <!-- 10 -->
      <g transform="translate(25.445938 34.377899) scale(0.1 -0.1)">
       <use xlink:href="#DejaVuSans-31"/>
       <use xlink:href="#DejaVuSans-30" transform="translate(63.623047 0)"/>
      </g>
     </g>
    </g>
    <g id="text_15">
     <!-- Densidade -->
     <g transform="translate(19.158281 157.573906) rotate(-90) scale(0.11 -0.11)">
      <defs>
       <path id="DejaVuSans-44" d="M 1259 4147 
L 1259 519 
L 2022 519 
Q 2988 519 3436 956 
Q 3884 1394 3884 2338 
Q 3884 3275 3436 3711 
Q 2988 4147 2022 4147 
L 1259 4147 
z
M 628 4666 
L 1925 4666 
Q 3281 4666 3915 4102 
Q 4550 3538 4550 2338 
Q 4550 1131 3912 565 
Q 3275 0 1925 0 
L 628 0 
L 628 4666 
z
" transform="scale(0.015625)"/>
      </defs>
      <use xlink:href="#DejaVuSans-44"/>
      <use xlink:href="#DejaVuSans-65" transform="translate(77.001953 0)"/>
      <use xlink:href="#DejaVuSans-6e" transform="translate(138.525391 0)"/>
      <use xlink:href="#DejaVuSans-73" transform="translate(201.904297 0)"/>
      <use xlink:href="#DejaVuSans-69" transform="translate(254.003906 0)"/>
      <use xlink:href="#DejaVuSans-64" transform="translate(281.787109 0)"/>
      <use xlink:href="#DejaVuSans-61" transform="translate(345.263672 0)"/>
      <use xlink:href="#DejaVuSans-64" transform="translate(406.542969 0)"/>
      <use xlink:href="#DejaVuSans-65" transform="translate(470.019531 0)"/>
     </g>
    </g>
   </g>
   <g id="line2d_27">
    <path d="M 182.524446 245.875938 
L 182.524446 10.8 
" clip-path="url(#pfa09e8d822)" style="fill: none; stroke-dasharray: 4.44,1.92; stroke-dashoffset: 0; stroke: #ff0000; stroke-width: 1.2"/>
   </g>
   <g id="patch_93">
    <path d="M 45.170938 245.875938 
L 45.170938 10.8 
" style="fill: none; stroke: #000000; stroke-width: 0.8; stroke-linejoin: miter; stroke-linecap: square"/>
   </g>
   <g id="patch_94">
    <path d="M 493.2 245.875938 
L 493.2 10.8 
" style="fill: none; stroke: #000000; stroke-width: 0.8; stroke-linejoin: miter; stroke-linecap: square"/>
   </g>
   <g id="patch_95">
    <path d="M 45.170938 245.875938 
L 493.2 245.875938 
" style="fill: none; stroke: #000000; stroke-width: 0.8; stroke-linejoin: miter; stroke-linecap: square"/>
   </g>
   <g id="patch_96">
    <path d="M 45.170938 10.8 
L 493.2 10.8 
" style="fill: none; stroke: #000000; stroke-width: 0.8; stroke-linejoin: miter; stroke-linecap: square"/>
   </g>
   <g id="legend_1">
    <g id="patch_97">
     <path d="M 366 62.834375 
L 486.2 62.834375 
Q 488.2 62.834375 488.2 60.834375 
L 488.2 17.8 
Q 488.2 15.8 486.2 15.8 
L 366 15.8 
Q 364 15.8 364 17.8 
L 364 60.834375 
Q 364 62.834375 366 62.834375 
z
" style="fill: #ffffff; opacity: 0.9; stroke: #cccccc; stroke-linejoin: miter"/>
    </g>
    <g id="patch_98">
     <path d="M 368 27.398438 
L 388 27.398438 
L 388 20.398438 
L 368 20.398438 
z
" style="fill: #2e86ab; opacity: 0.7"/>
    </g>
    <g id="text_16">
     <!-- Normais -->
     <g transform="translate(396 27.398438) scale(0.1 -0.1)">
      <defs>
       <path id="DejaVuSans-4e" d="M 628 4666 
L 1478 4666 
L 3547 763 
L 3547 4666 
L 4159 4666 
L 4159 0 
L 3309 0 
L 1241 3903 
L 1241 0 
L 628 0 
L 628 4666 
z
" transform="scale(0.015625)"/>
      </defs>
      <use xlink:href="#DejaVuSans-4e"/>
      <use xlink:href="#DejaVuSans-6f" transform="translate(74.804688 0)"/>
      <use xlink:href="#DejaVuSans-72" transform="translate(135.986328 0)"/>
      <use xlink:href="#DejaVuSans-6d" transform="translate(175.349609 0)"/>
      <use xlink:href="#DejaVuSans-61" transform="translate(272.761719 0)"/>
      <use xlink:href="#DejaVuSans-69" transform="translate(334.041016 0)"/>
      <use xlink:href="#DejaVuSans-73" transform="translate(361.824219 0)"/>
     </g>
    </g>
    <g id="patch_99">
     <path d="M 368 42.076562 
L 388 42.076562 
L 388 35.076562 
L 368 35.076562 
z
" style="fill: #a23b72; opacity: 0.7"/>
    </g>
    <g id="text_17">
     <!-- Anômalos -->
     <g transform="translate(396 42.076562) scale(0.1 -0.1)">
      <use xlink:href="#DejaVuSans-41"/>
      <use xlink:href="#DejaVuSans-6e" transform="translate(68.408203 0)"/>
      <use xlink:href="#DejaVuSans-f4" transform="translate(131.787109 0)"/>
      <use xlink:href="#DejaVuSans-6d" transform="translate(192.96875 0)"/>
      <use xlink:href="#DejaVuSans-61" transform="translate(290.380859 0)"/>
      <use xlink:href="#DejaVuSans-6c" transform="translate(351.660156 0)"/>
      <use xlink:href="#DejaVuSans-6f" transform="translate(379.443359 0)"/>
      <use xlink:href="#DejaVuSans-73" transform="translate(440.625 0)"/>
     </g>
    </g>
    <g id="line2d_28">
     <path d="M 368 53.254687 
L 378 53.254687 
L 388 53.254687 
" style="fill: none; stroke-dasharray: 4.44,1.92; stroke-dashoffset: 0; stroke: #ff0000; stroke-width: 1.2"/>
    </g>
    <g id="text_18">
     <!-- Limiar de decisão -->
     <g transform="translate(396 56.754687) scale(0.1 -0.1)">
      <defs>
       <path id="DejaVuSans-4c" d="M 628 4666 
L 1259 4666 
L 1259 531 
L 3531 531 
L 3531 0 
L 628 0 
L 628 4666 
z
" transform="scale(0.015625)"/>
       <path id="DejaVuSans-e3" d="M 2194 1759 
Q 1497 1759 1228 1600 
Q 959 1441 959 1056 
Q 959 750 1161 570 
Q 1363 391 1709 391 
Q 2188 391 2477 730 
Q 2766 1069 2766 1631 
L 2766 1759 
L 2194 1759 
z
M 3341 1997 
L 3341 0 
L 2766 0 
L 2766 531 
Q 2569 213 2275 61 
Q 1981 -91 1556 -91 
Q 1019 -91 701 211 
Q 384 513 384 1019 
Q 384 1609 779 1909 
Q 1175 2209 1959 2209 
L 2766 2209 
L 2766 2266 
Q 2766 2663 2505 2880 
Q 2244 3097 1772 3097 
Q 1472 3097 1187 3025 
Q 903 2953 641 2809 
L 641 3341 
Q 956 3463 1253 3523 
Q 1550 3584 1831 3584 
Q 2591 3584 2966 3190 
Q 3341 2797 3341 1997 
z
M 1844 4281 
L 1665 4453 
Q 1597 4516 1545 4545 
Q 1494 4575 1453 4575 
Q 1334 4575 1278 4461 
Q 1222 4347 1215 4091 
L 825 4091 
Q 831 4513 990 4742 
Q 1150 4972 1434 4972 
Q 1553 4972 1653 4928 
Q 1753 4884 1869 4781 
L 2047 4609 
Q 2115 4547 2167 4517 
Q 2219 4488 2259 4488 
Q 2378 4488 2434 4602 
Q 2490 4716 2497 4972 
L 2887 4972 
Q 2881 4550 2721 4320 
Q 2562 4091 2278 4091 
Q 2159 4091 2059 4134 
Q 1959 4178 1844 4281 
z
" transform="scale(0.015625)"/>
      </defs>
      <use xlink:href="#DejaVuSans-4c"/>
      <use xlink:href="#DejaVuSans-69" transform="translate(55.712891 0)"/>
      <use xlink:href="#DejaVuSans-6d" transform="translate(83.496094 0)"/>
      <use xlink:href="#DejaVuSans-69" transform="translate(180.908203 0)"/>
      <use xlink:href="#DejaVuSans-61" transform="translate(208.691406 0)"/>
      <use xlink:href="#DejaVuSans-72" transform="translate(269.970703 0)"/>
      <use xlink:href="#DejaVuSans-20" transform="translate(311.083984 0)"/>
      <use xlink:href="#DejaVuSans-64" transform="translate(342.871094 0)"/>
      <use xlink:href="#DejaVuSans-65" transform="translate(406.347656 0)"/>
      <use xlink:href="#DejaVuSans-20" transform="translate(467.871094 0)"/>
      <use xlink:href="#DejaVuSans-64" transform="translate(499.658203 0)"/>
      <use xlink:href="#DejaVuSans-65" transform="translate(563.134766 0)"/>
      <use xlink:href="#DejaVuSans-63" transform="translate(624.658203 0)"/>
      <use xlink:href="#DejaVuSans-69" transform="translate(679.638672 0)"/>
      <use xlink:href="#DejaVuSans-73" transform="translate(707.421875 0)"/>
      <use xlink:href="#DejaVuSans-e3" transform="translate(759.521484 0)"/>
      <use xlink:href="#DejaVuSans-6f" transform="translate(820.800781 0)"/>
     </g>
    </g>
   </g>
  </g>
 </g>
 <defs>
  <clipPath id="pfa09e8d822">
   <rect x="45.170938" y="10.8" width="448.029063" height="235.075938"/>
  </clipPath>
 </defs>
</svg>
