<?xml version="1.0" encoding="utf-8" standalone="no"?>
<!DOCTYPE svg PUBLIC "-//W3C//DTD SVG 1.1//EN"
  "http://www.w3.org/Graphics/SVG/1.1/DTD/svg11.dtd">
<svg xmlns:xlink="http://www.w3.org/1999/xlink" width="432pt" height="360pt" viewBox="0 0 432 360" xmlns="http://www.w3.org/2000/svg" version="1.1">
 <metadata>
  <rdf:RDF xmlns:dc="http://purl.org/dc/elements/1.1/" xmlns:cc="http://creativecommons.org/ns#" xmlns:rdf="http://www.w3.org/1999/02/22-rdf-syntax-ns#">
   <cc:Work>
    <dc:type rdf:resource="http://purl.org/dc/dcmitype/StillImage"/>
    <dc:date>2026-05-18T13:02:44.380152</dc:date>
    <dc:format>image/svg+xml</dc:format>
    <dc:creator>
     <cc:Agent>
      <dc:title>Matplotlib v3.10.8, https://matplotlib.org/</dc:title>
     </cc:Agent>
    </dc:creator>
   </cc:Work>
  </rdf:RDF>
 </metadata>
 <defs>
  <style type="text/css">*{stroke-linejoin: round; stroke-linecap: butt}</style>
 </defs>
 <g id="figure_1">
  <g id="patch_1">
   <path d="M 0 360 
L 432 360 
L 432 0 
L 0 0 
z
" style="fill: #ffffff"/>
  </g>
  <g id="axes_1">
   <g id="patch_2">
    <path d="M 48.536406 317.688594 
L 413.248437 317.688594 
L 413.248437 14.599219 
L 48.536406 14.599219 
z
" style="fill: #ffffff"/>
   </g>
   <g id="FillBetweenPolyCollection_1">
    <defs>
     <path id="mad27467003" d="M 48.536406 -42.311406 
L 48.536406 -42.441929 
L 49.756179 -42.572451 
L 50.975952 -42.702973 
L 52.195724 -42.833496 
L 53.415497 -42.964018 
L 54.63527 -43.09454 
L 55.855042 -43.225063 
L 57.074815 -43.355585 
L 58.294588 -43.486107 
L 59.51436 -43.61663 
L 60.734133 -43.747152 
L 61.953906 -43.877674 
L 63.173678 -44.008196 
L 64.393451 -44.138719 
L 65.613224 -44.269241 
L 66.832996 -44.399763 
L 68.052769 -44.530286 
L 69.272542 -44.660808 
L 70.492314 -44.79133 
L 71.712087 -44.921853 
L 72.93186 -45.052375 
L 74.151633 -45.182897 
L 75.371405 -45.31342 
L 76.591178 -45.443942 
L 77.810951 -45.574464 
L 79.030723 -45.704987 
L 80.250496 -45.835509 
L 81.470269 -45.966031 
L 82.690041 -46.096554 
L 83.909814 -46.227076 
L 85.129587 -46.357598 
L 86.349359 -46.488121 
L 87.569132 -46.618643 
L 88.788905 -46.749165 
L 90.008677 -46.879688 
L 91.22845 -47.01021 
L 92.448223 -47.140732 
L 93.667995 -47.271255 
L 94.887768 -47.401777 
L 96.107541 -47.532299 
L 97.327313 -47.662822 
L 98.547086 -47.793344 
L 99.766859 -47.923866 
L 100.986631 -48.054389 
L 102.206404 -48.184911 
L 103.426177 -48.315433 
L 104.64595 -48.445956 
L 105.865722 -48.576478 
L 107.085495 -48.707 
L 108.305268 -48.837523 
L 109.52504 -48.968045 
L 110.744813 -49.098567 
L 111.964586 -49.22909 
L 113.184358 -49.359612 
L 114.404131 -49.490134 
L 115.623904 -49.620657 
L 116.843676 -49.751179 
L 118.063449 -49.881701 
L 119.283222 -50.012224 
L 120.502994 -50.142746 
L 121.722767 -50.273268 
L 122.94254 -50.403791 
L 124.162312 -50.534313 
L 125.382085 -50.664835 
L 126.601858 -50.795357 
L 127.82163 -50.92588 
L 129.041403 -51.056402 
L 130.261176 -51.186924 
L 131.480948 -51.317447 
L 132.700721 -51.447969 
L 133.920494 -51.578491 
L 135.140267 -51.709014 
L 136.360039 -51.839536 
L 137.579812 -51.970058 
L 138.799585 -52.100581 
L 140.019357 -52.231103 
L 141.23913 -52.361625 
L 142.458903 -52.492148 
L 143.678675 -52.62267 
L 144.898448 -52.753192 
L 146.118221 -52.883715 
L 147.337993 -53.014237 
L 148.557766 -53.144759 
L 149.777539 -53.275282 
L 150.997311 -53.405804 
L 152.217084 -53.536326 
L 153.436857 -53.666849 
L 154.656629 -53.797371 
L 155.876402 -53.927893 
L 157.096175 -54.058416 
L 158.315947 -54.188938 
L 159.53572 -54.31946 
L 160.755493 -54.449983 
L 161.975265 -54.580505 
L 163.195038 -54.711027 
L 164.414811 -54.84155 
L 165.634584 -54.972072 
L 166.854356 -55.102594 
L 168.074129 -55.233117 
L 169.293902 -55.363639 
L 170.513674 -55.494161 
L 171.733447 -55.624684 
L 172.95322 -55.755206 
L 174.172992 -55.885728 
L 175.392765 -56.016251 
L 176.612538 -56.146773 
L 177.83231 -56.277295 
L 179.052083 -56.407818 
L 180.271856 -56.53834 
L 181.491628 -56.668862 
L 182.711401 -56.799385 
L 183.931174 -56.929907 
L 185.150946 -57.060429 
L 186.370719 -57.190952 
L 187.590492 -57.321474 
L 188.810264 -57.451996 
L 190.030037 -57.582518 
L 191.24981 -57.713041 
L 192.469582 -57.843563 
L 193.689355 -57.974085 
L 194.909128 -58.104608 
L 196.128901 -58.23513 
L 197.348673 -58.365652 
L 198.568446 -58.496175 
L 199.788219 -58.626697 
L 201.007991 -58.757219 
L 202.227764 -58.887742 
L 203.447537 -59.018264 
L 204.667309 -59.148786 
L 205.887082 -59.279309 
L 207.106855 -59.409831 
L 208.326627 -59.540353 
L 209.5464 -59.670876 
L 210.766173 -59.801398 
L 211.985945 -59.93192 
L 213.205718 -60.062443 
L 214.425491 -60.192965 
L 215.645263 -60.323487 
L 216.865036 -60.45401 
L 218.084809 -60.584532 
L 219.304581 -60.715054 
L 220.524354 -60.845577 
L 221.744127 -60.976099 
L 222.963899 -61.106621 
L 224.183672 -61.237144 
L 225.403445 -61.367666 
L 226.623217 -61.498188 
L 227.84299 -61.628711 
L 229.062763 -61.759233 
L 230.282536 -61.889755 
L 231.502308 -62.020278 
L 232.722081 -62.1508 
L 233.941854 -62.281322 
L 235.161626 -62.411845 
L 236.381399 -62.542367 
L 237.601172 -62.672889 
L 238.820944 -62.803412 
L 240.040717 -62.933934 
L 241.26049 -63.064456 
L 242.480262 -63.194979 
L 243.700035 -63.325501 
L 244.919808 -63.456023 
L 246.13958 -63.586546 
L 247.359353 -63.717068 
L 248.579126 -63.84759 
L 249.798898 -63.978113 
L 251.018671 -64.108635 
L 252.238444 -64.239157 
L 253.458216 -64.369679 
L 254.677989 -64.500202 
L 255.897762 -64.630724 
L 257.117534 -64.761246 
L 258.337307 -64.891769 
L 259.55708 -65.022291 
L 260.776853 -65.152813 
L 261.996625 -65.283336 
L 263.216398 -65.413858 
L 264.436171 -65.54438 
L 265.655943 -65.674903 
L 266.875716 -65.805425 
L 268.095489 -65.935947 
L 269.315261 -66.06647 
L 270.535034 -66.196992 
L 271.754807 -66.327514 
L 272.974579 -66.458037 
L 274.194352 -66.588559 
L 275.414125 -66.719081 
L 276.633897 -66.849604 
L 277.85367 -66.980126 
L 279.073443 -67.110648 
L 280.293215 -67.241171 
L 281.512988 -67.371693 
L 282.732761 -67.502215 
L 283.952533 -67.632738 
L 285.172306 -67.76326 
L 286.392079 -67.893782 
L 287.611851 -68.024305 
L 288.831624 -68.154827 
L 290.051397 -68.285349 
L 291.27117 -68.415872 
L 292.490942 -68.546394 
L 293.710715 -68.676916 
L 294.930488 -68.807439 
L 296.15026 -68.937961 
L 297.370033 -69.068483 
L 298.589806 -69.199006 
L 299.809578 -69.329528 
L 301.029351 -69.46005 
L 302.249124 -69.590573 
L 303.468896 -69.721095 
L 304.688669 -69.851617 
L 305.908442 -69.98214 
L 307.128214 -70.112662 
L 308.347987 -70.243184 
L 309.56776 -70.373707 
L 310.787532 -70.504229 
L 312.007305 -70.634751 
L 313.227078 -70.765273 
L 314.44685 -70.895796 
L 315.666623 -71.026318 
L 316.886396 -71.15684 
L 318.106168 -71.287363 
L 319.325941 -71.417885 
L 320.545714 -71.548407 
L 321.765487 -71.67893 
L 322.985259 -71.809452 
L 324.205032 -71.939974 
L 325.424805 -72.070497 
L 326.644577 -72.201019 
L 327.86435 -72.331541 
L 329.084123 -72.462064 
L 330.303895 -72.592586 
L 331.523668 -72.723108 
L 332.743441 -72.853631 
L 333.963213 -72.984153 
L 335.182986 -73.114675 
L 336.402759 -73.245198 
L 337.622531 -73.37572 
L 338.842304 -73.506242 
L 340.062077 -73.636765 
L 341.281849 -73.767287 
L 342.501622 -73.897809 
L 343.721395 -74.028332 
L 344.941167 -74.158854 
L 346.16094 -74.289376 
L 347.380713 -74.419899 
L 348.600485 -74.550421 
L 349.820258 -74.680943 
L 351.040031 -74.811466 
L 352.259804 -74.941988 
L 353.479576 -75.07251 
L 354.699349 -75.203033 
L 355.919122 -75.333555 
L 357.138894 -75.464077 
L 358.358667 -75.5946 
L 359.57844 -75.725122 
L 360.798212 -75.855644 
L 362.017985 -75.986167 
L 363.237758 -76.116689 
L 364.45753 -76.247211 
L 365.677303 -76.377734 
L 366.897076 -76.508256 
L 368.116848 -76.638778 
L 369.336621 -76.769301 
L 370.556394 -76.899823 
L 371.776166 -77.030345 
L 372.995939 -77.160868 
L 374.215712 -77.29139 
L 375.435484 -77.421912 
L 376.655257 -77.552434 
L 377.87503 -77.682957 
L 379.094802 -77.813479 
L 380.314575 -77.944001 
L 381.534348 -78.074524 
L 382.754121 -78.205046 
L 383.973893 -78.335568 
L 385.193666 -78.466091 
L 386.413439 -78.596613 
L 387.633211 -78.727135 
L 388.852984 -78.857658 
L 390.072757 -78.98818 
L 391.292529 -79.118702 
L 392.512302 -79.249225 
L 393.732075 -79.379747 
L 394.951847 -79.510269 
L 396.17162 -79.640792 
L 397.391393 -79.771314 
L 398.611165 -79.901836 
L 399.830938 -80.032359 
L 401.050711 -80.162881 
L 402.270483 -80.293403 
L 403.490256 -80.423926 
L 404.710029 -80.554448 
L 405.929801 -80.68497 
L 407.149574 -80.815493 
L 408.369347 -80.946015 
L 409.589119 -81.076537 
L 410.808892 -164.850441 
L 412.028665 -250.1701 
L 413.248437 -345.400781 
L 413.248437 -345.400781 
L 413.248437 -345.400781 
L 412.028665 -344.387104 
L 410.808892 -343.373428 
L 409.589119 -342.359751 
L 408.369347 -341.346074 
L 407.149574 -340.332397 
L 405.929801 -339.31872 
L 404.710029 -338.305043 
L 403.490256 -337.291367 
L 402.270483 -336.27769 
L 401.050711 -335.264013 
L 399.830938 -334.250336 
L 398.611165 -333.236659 
L 397.391393 -332.222982 
L 396.17162 -331.209305 
L 394.951847 -330.195629 
L 393.732075 -329.181952 
L 392.512302 -328.168275 
L 391.292529 -327.154598 
L 390.072757 -326.140921 
L 388.852984 -325.127244 
L 387.633211 -324.113568 
L 386.413439 -323.099891 
L 385.193666 -322.086214 
L 383.973893 -321.072537 
L 382.754121 -320.05886 
L 381.534348 -319.045183 
L 380.314575 -318.031507 
L 379.094802 -317.01783 
L 377.87503 -316.004153 
L 376.655257 -314.990476 
L 375.435484 -313.976799 
L 374.215712 -312.963122 
L 372.995939 -311.949446 
L 371.776166 -310.935769 
L 370.556394 -309.922092 
L 369.336621 -308.908415 
L 368.116848 -307.894738 
L 366.897076 -306.881061 
L 365.677303 -305.867385 
L 364.45753 -304.853708 
L 363.237758 -303.840031 
L 362.017985 -302.826354 
L 360.798212 -301.812677 
L 359.57844 -300.799 
L 358.358667 -299.785323 
L 357.138894 -298.771647 
L 355.919122 -297.75797 
L 354.699349 -296.744293 
L 353.479576 -295.730616 
L 352.259804 -294.716939 
L 351.040031 -293.703262 
L 349.820258 -292.689586 
L 348.600485 -291.675909 
L 347.380713 -290.662232 
L 346.16094 -289.648555 
L 344.941167 -288.634878 
L 343.721395 -287.621201 
L 342.501622 -286.607525 
L 341.281849 -285.593848 
L 340.062077 -284.580171 
L 338.842304 -283.566494 
L 337.622531 -282.552817 
L 336.402759 -281.53914 
L 335.182986 -280.525464 
L 333.963213 -279.511787 
L 332.743441 -278.49811 
L 331.523668 -277.484433 
L 330.303895 -276.470756 
L 329.084123 -275.457079 
L 327.86435 -274.443402 
L 326.644577 -273.429726 
L 325.424805 -272.416049 
L 324.205032 -271.402372 
L 322.985259 -270.388695 
L 321.765487 -269.375018 
L 320.545714 -268.361341 
L 319.325941 -267.347665 
L 318.106168 -266.333988 
L 316.886396 -265.320311 
L 315.666623 -264.306634 
L 314.44685 -263.292957 
L 313.227078 -262.27928 
L 312.007305 -261.265604 
L 310.787532 -260.251927 
L 309.56776 -259.23825 
L 308.347987 -258.224573 
L 307.128214 -257.210896 
L 305.908442 -256.197219 
L 304.688669 -255.183543 
L 303.468896 -254.169866 
L 302.249124 -253.156189 
L 301.029351 -252.142512 
L 299.809578 -251.128835 
L 298.589806 -250.115158 
L 297.370033 -249.101482 
L 296.15026 -248.087805 
L 294.930488 -247.074128 
L 293.710715 -246.060451 
L 292.490942 -245.046774 
L 291.27117 -244.033097 
L 290.051397 -243.01942 
L 288.831624 -242.005744 
L 287.611851 -240.992067 
L 286.392079 -239.97839 
L 285.172306 -238.964713 
L 283.952533 -237.951036 
L 282.732761 -236.937359 
L 281.512988 -235.923683 
L 280.293215 -234.910006 
L 279.073443 -233.896329 
L 277.85367 -232.882652 
L 276.633897 -231.868975 
L 275.414125 -230.855298 
L 274.194352 -229.841622 
L 272.974579 -228.827945 
L 271.754807 -227.814268 
L 270.535034 -226.800591 
L 269.315261 -225.786914 
L 268.095489 -224.773237 
L 266.875716 -223.759561 
L 265.655943 -222.745884 
L 264.436171 -221.732207 
L 263.216398 -220.71853 
L 261.996625 -219.704853 
L 260.776853 -218.691176 
L 259.55708 -217.677499 
L 258.337307 -216.663823 
L 257.117534 -215.650146 
L 255.897762 -214.636469 
L 254.677989 -213.622792 
L 253.458216 -212.609115 
L 252.238444 -211.595438 
L 251.018671 -210.581762 
L 249.798898 -209.568085 
L 248.579126 -208.554408 
L 247.359353 -207.540731 
L 246.13958 -206.527054 
L 244.919808 -205.513377 
L 243.700035 -204.499701 
L 242.480262 -203.486024 
L 241.26049 -202.472347 
L 240.040717 -201.45867 
L 238.820944 -200.444993 
L 237.601172 -199.431316 
L 236.381399 -198.41764 
L 235.161626 -197.403963 
L 233.941854 -196.390286 
L 232.722081 -195.376609 
L 231.502308 -194.362932 
L 230.282536 -193.349255 
L 229.062763 -192.335578 
L 227.84299 -191.321902 
L 226.623217 -190.308225 
L 225.403445 -189.294548 
L 224.183672 -188.280871 
L 222.963899 -187.267194 
L 221.744127 -186.253517 
L 220.524354 -185.239841 
L 219.304581 -184.226164 
L 218.084809 -183.212487 
L 216.865036 -182.19881 
L 215.645263 -181.185133 
L 214.425491 -180.171456 
L 213.205718 -179.15778 
L 211.985945 -178.144103 
L 210.766173 -177.130426 
L 209.5464 -176.116749 
L 208.326627 -175.103072 
L 207.106855 -174.089395 
L 205.887082 -173.075719 
L 204.667309 -172.062042 
L 203.447537 -171.048365 
L 202.227764 -170.034688 
L 201.007991 -169.021011 
L 199.788219 -168.007334 
L 198.568446 -166.993658 
L 197.348673 -165.979981 
L 196.128901 -164.966304 
L 194.909128 -163.952627 
L 193.689355 -162.93895 
L 192.469582 -161.925273 
L 191.24981 -160.911596 
L 190.030037 -159.89792 
L 188.810264 -158.884243 
L 187.590492 -157.870566 
L 186.370719 -156.856889 
L 185.150946 -155.843212 
L 183.931174 -154.829535 
L 182.711401 -153.815859 
L 181.491628 -152.802182 
L 180.271856 -151.788505 
L 179.052083 -150.774828 
L 177.83231 -149.761151 
L 176.612538 -148.747474 
L 175.392765 -147.733798 
L 174.172992 -146.720121 
L 172.95322 -145.706444 
L 171.733447 -144.692767 
L 170.513674 -143.67909 
L 169.293902 -142.665413 
L 168.074129 -141.651737 
L 166.854356 -140.63806 
L 165.634584 -139.624383 
L 164.414811 -138.610706 
L 163.195038 -137.597029 
L 161.975265 -136.583352 
L 160.755493 -135.569675 
L 159.53572 -134.555999 
L 158.315947 -133.542322 
L 157.096175 -132.528645 
L 155.876402 -131.514968 
L 154.656629 -130.501291 
L 153.436857 -129.487614 
L 152.217084 -128.473938 
L 150.997311 -127.460261 
L 149.777539 -126.446584 
L 148.557766 -125.432907 
L 147.337993 -124.41923 
L 146.118221 -123.405553 
L 144.898448 -122.391877 
L 143.678675 -121.3782 
L 142.458903 -120.364523 
L 141.23913 -119.350846 
L 140.019357 -118.337169 
L 138.799585 -117.323492 
L 137.579812 -116.309816 
L 136.360039 -115.296139 
L 135.140267 -114.282462 
L 133.920494 -113.268785 
L 132.700721 -112.255108 
L 131.480948 -111.241431 
L 130.261176 -110.227754 
L 129.041403 -109.214078 
L 127.82163 -108.200401 
L 126.601858 -107.186724 
L 125.382085 -106.173047 
L 124.162312 -105.15937 
L 122.94254 -104.145693 
L 121.722767 -103.132017 
L 120.502994 -102.11834 
L 119.283222 -101.104663 
L 118.063449 -100.090986 
L 116.843676 -99.077309 
L 115.623904 -98.063632 
L 114.404131 -97.049956 
L 113.184358 -96.036279 
L 111.964586 -95.022602 
L 110.744813 -94.008925 
L 109.52504 -92.995248 
L 108.305268 -91.981571 
L 107.085495 -90.967895 
L 105.865722 -89.954218 
L 104.64595 -88.940541 
L 103.426177 -87.926864 
L 102.206404 -86.913187 
L 100.986631 -85.89951 
L 99.766859 -84.885834 
L 98.547086 -83.872157 
L 97.327313 -82.85848 
L 96.107541 -81.844803 
L 94.887768 -80.831126 
L 93.667995 -79.817449 
L 92.448223 -78.803772 
L 91.22845 -77.790096 
L 90.008677 -76.776419 
L 88.788905 -75.762742 
L 87.569132 -74.749065 
L 86.349359 -73.735388 
L 85.129587 -72.721711 
L 83.909814 -71.708035 
L 82.690041 -70.694358 
L 81.470269 -69.680681 
L 80.250496 -68.667004 
L 79.030723 -67.653327 
L 77.810951 -66.63965 
L 76.591178 -65.625974 
L 75.371405 -64.612297 
L 74.151633 -63.59862 
L 72.93186 -62.584943 
L 71.712087 -61.571266 
L 70.492314 -60.557589 
L 69.272542 -59.543913 
L 68.052769 -58.530236 
L 66.832996 -57.516559 
L 65.613224 -56.502882 
L 64.393451 -55.489205 
L 63.173678 -54.475528 
L 61.953906 -53.461851 
L 60.734133 -52.448175 
L 59.51436 -51.434498 
L 58.294588 -50.420821 
L 57.074815 -49.407144 
L 55.855042 -48.393467 
L 54.63527 -47.37979 
L 53.415497 -46.366114 
L 52.195724 -45.352437 
L 50.975952 -44.33876 
L 49.756179 -43.325083 
L 48.536406 -42.311406 
z
" style="stroke: #e74c3c; stroke-opacity: 0.15"/>
    </defs>
    <g clip-path="url(#p4741841d6b)">
     <use xlink:href="#mad27467003" x="0" y="360" style="fill: #e74c3c; fill-opacity: 0.15; stroke: #e74c3c; stroke-opacity: 0.15"/>
    </g>
   </g>
   <g id="matplotlib.axis_1">
    <g id="xtick_1">
     <g id="line2d_1">
      <path d="M 48.536406 317.688594 
L 48.536406 14.599219 
" clip-path="url(#p4741841d6b)" style="fill: none; stroke: #b0b0b0; stroke-opacity: 0.3; stroke-width: 0.8; stroke-linecap: square"/>
     </g>
     <g id="line2d_2">
      <defs>
       <path id="mf8aa231d43" d="M 0 0 
L 0 3.5 
" style="stroke: #000000; stroke-width: 0.8"/>
      </defs>
      <g>
       <use xlink:href="#mf8aa231d43" x="48.536406" y="317.688594" style="stroke: #000000; stroke-width: 0.8"/>
      </g>
     </g>
     <g id="text_1">
      <!-- 0.0 -->
      <g transform="translate(40.584844 332.287031) scale(0.1 -0.1)">
       <defs>
        <path id="DejaVuSans-30" d="M 2034 4250 
Q 1547 4250 1301 3770 
Q 1056 3291 1056 2328 
Q 1056 1369 1301 889 
Q 1547 409 2034 409 
Q 2525 409 2770 889 
Q 3016 1369 3016 2328 
Q 3016 3291 2770 3770 
Q 2525 4250 2034 4250 
z
M 2034 4750 
Q 2819 4750 3233 4129 
Q 3647 3509 3647 2328 
Q 3647 1150 3233 529 
Q 2819 -91 2034 -91 
Q 1250 -91 836 529 
Q 422 1150 422 2328 
Q 422 3509 836 4129 
Q 1250 4750 2034 4750 
z
" transform="scale(0.015625)"/>
        <path id="DejaVuSans-2e" d="M 684 794 
L 1344 794 
L 1344 0 
L 684 0 
L 684 794 
z
" transform="scale(0.015625)"/>
       </defs>
       <use xlink:href="#DejaVuSans-30"/>
       <use xlink:href="#DejaVuSans-2e" transform="translate(63.623047 0)"/>
       <use xlink:href="#DejaVuSans-30" transform="translate(95.410156 0)"/>
      </g>
     </g>
    </g>
    <g id="xtick_2">
     <g id="line2d_3">
      <path d="M 121.478813 317.688594 
L 121.478813 14.599219 
" clip-path="url(#p4741841d6b)" style="fill: none; stroke: #b0b0b0; stroke-opacity: 0.3; stroke-width: 0.8; stroke-linecap: square"/>
     </g>
     <g id="line2d_4">
      <g>
       <use xlink:href="#mf8aa231d43" x="121.478813" y="317.688594" style="stroke: #000000; stroke-width: 0.8"/>
      </g>
     </g>
     <g id="text_2">
      <!-- 0.2 -->
      <g transform="translate(113.52725 332.287031) scale(0.1 -0.1)">
       <defs>
        <path id="DejaVuSans-32" d="M 1228 531 
L 3431 531 
L 3431 0 
L 469 0 
L 469 531 
Q 828 903 1448 1529 
Q 2069 2156 2228 2338 
Q 2531 2678 2651 2914 
Q 2772 3150 2772 3378 
Q 2772 3750 2511 3984 
Q 2250 4219 1831 4219 
Q 1534 4219 1204 4116 
Q 875 4013 500 3803 
L 500 4441 
Q 881 4594 1212 4672 
Q 1544 4750 1819 4750 
Q 2544 4750 2975 4387 
Q 3406 4025 3406 3419 
Q 3406 3131 3298 2873 
Q 3191 2616 2906 2266 
Q 2828 2175 2409 1742 
Q 1991 1309 1228 531 
z
" transform="scale(0.015625)"/>
       </defs>
       <use xlink:href="#DejaVuSans-30"/>
       <use xlink:href="#DejaVuSans-2e" transform="translate(63.623047 0)"/>
       <use xlink:href="#DejaVuSans-32" transform="translate(95.410156 0)"/>
      </g>
     </g>
    </g>
    <g id="xtick_3">
     <g id="line2d_5">
      <path d="M 194.421219 317.688594 
L 194.421219 14.599219 
" clip-path="url(#p4741841d6b)" style="fill: none; stroke: #b0b0b0; stroke-opacity: 0.3; stroke-width: 0.8; stroke-linecap: square"/>
     </g>
     <g id="line2d_6">
      <g>
       <use xlink:href="#mf8aa231d43" x="194.421219" y="317.688594" style="stroke: #000000; stroke-width: 0.8"/>
      </g>
     </g>
     <g id="text_3">
      <!-- 0.4 -->
      <g transform="translate(186.469656 332.287031) scale(0.1 -0.1)">
       <defs>
        <path id="DejaVuSans-34" d="M 2419 4116 
L 825 1625 
L 2419 1625 
L 2419 4116 
z
M 2253 4666 
L 3047 4666 
L 3047 1625 
L 3713 1625 
L 3713 1100 
L 3047 1100 
L 3047 0 
L 2419 0 
L 2419 1100 
L 313 1100 
L 313 1709 
L 2253 4666 
z
" transform="scale(0.015625)"/>
       </defs>
       <use xlink:href="#DejaVuSans-30"/>
       <use xlink:href="#DejaVuSans-2e" transform="translate(63.623047 0)"/>
       <use xlink:href="#DejaVuSans-34" transform="translate(95.410156 0)"/>
      </g>
     </g>
    </g>
    <g id="xtick_4">
     <g id="line2d_7">
      <path d="M 267.363625 317.688594 
L 267.363625 14.599219 
" clip-path="url(#p4741841d6b)" style="fill: none; stroke: #b0b0b0; stroke-opacity: 0.3; stroke-width: 0.8; stroke-linecap: square"/>
     </g>
     <g id="line2d_8">
      <g>
       <use xlink:href="#mf8aa231d43" x="267.363625" y="317.688594" style="stroke: #000000; stroke-width: 0.8"/>
      </g>
     </g>
     <g id="text_4">
      <!-- 0.6 -->
      <g transform="translate(259.412062 332.287031) scale(0.1 -0.1)">
       <defs>
        <path id="DejaVuSans-36" d="M 2113 2584 
Q 1688 2584 1439 2293 
Q 1191 2003 1191 1497 
Q 1191 994 1439 701 
Q 1688 409 2113 409 
Q 2538 409 2786 701 
Q 3034 994 3034 1497 
Q 3034 2003 2786 2293 
Q 2538 2584 2113 2584 
z
M 3366 4563 
L 3366 3988 
Q 3128 4100 2886 4159 
Q 2644 4219 2406 4219 
Q 1781 4219 1451 3797 
Q 1122 3375 1075 2522 
Q 1259 2794 1537 2939 
Q 1816 3084 2150 3084 
Q 2853 3084 3261 2657 
Q 3669 2231 3669 1497 
Q 3669 778 3244 343 
Q 2819 -91 2113 -91 
Q 1303 -91 875 529 
Q 447 1150 447 2328 
Q 447 3434 972 4092 
Q 1497 4750 2381 4750 
Q 2619 4750 2861 4703 
Q 3103 4656 3366 4563 
z
" transform="scale(0.015625)"/>
       </defs>
       <use xlink:href="#DejaVuSans-30"/>
       <use xlink:href="#DejaVuSans-2e" transform="translate(63.623047 0)"/>
       <use xlink:href="#DejaVuSans-36" transform="translate(95.410156 0)"/>
      </g>
     </g>
    </g>
    <g id="xtick_5">
     <g id="line2d_9">
      <path d="M 340.306031 317.688594 
L 340.306031 14.599219 
" clip-path="url(#p4741841d6b)" style="fill: none; stroke: #b0b0b0; stroke-opacity: 0.3; stroke-width: 0.8; stroke-linecap: square"/>
     </g>
     <g id="line2d_10">
      <g>
       <use xlink:href="#mf8aa231d43" x="340.306031" y="317.688594" style="stroke: #000000; stroke-width: 0.8"/>
      </g>
     </g>
     <g id="text_5">
      <!-- 0.8 -->
      <g transform="translate(332.354469 332.287031) scale(0.1 -0.1)">
       <defs>
        <path id="DejaVuSans-38" d="M 2034 2216 
Q 1584 2216 1326 1975 
Q 1069 1734 1069 1313 
Q 1069 891 1326 650 
Q 1584 409 2034 409 
Q 2484 409 2743 651 
Q 3003 894 3003 1313 
Q 3003 1734 2745 1975 
Q 2488 2216 2034 2216 
z
M 1403 2484 
Q 997 2584 770 2862 
Q 544 3141 544 3541 
Q 544 4100 942 4425 
Q 1341 4750 2034 4750 
Q 2731 4750 3128 4425 
Q 3525 4100 3525 3541 
Q 3525 3141 3298 2862 
Q 3072 2584 2669 2484 
Q 3125 2378 3379 2068 
Q 3634 1759 3634 1313 
Q 3634 634 3220 271 
Q 2806 -91 2034 -91 
Q 1263 -91 848 271 
Q 434 634 434 1313 
Q 434 1759 690 2068 
Q 947 2378 1403 2484 
z
M 1172 3481 
Q 1172 3119 1398 2916 
Q 1625 2713 2034 2713 
Q 2441 2713 2670 2916 
Q 2900 3119 2900 3481 
Q 2900 3844 2670 4047 
Q 2441 4250 2034 4250 
Q 1625 4250 1398 4047 
Q 1172 3844 1172 3481 
z
" transform="scale(0.015625)"/>
       </defs>
       <use xlink:href="#DejaVuSans-30"/>
       <use xlink:href="#DejaVuSans-2e" transform="translate(63.623047 0)"/>
       <use xlink:href="#DejaVuSans-38" transform="translate(95.410156 0)"/>
      </g>
     </g>
    </g>
    <g id="xtick_6">
     <g id="line2d_11">
      <path d="M 413.248437 317.688594 
L 413.248437 14.599219 
" clip-path="url(#p4741841d6b)" style="fill: none; stroke: #b0b0b0; stroke-opacity: 0.3; stroke-width: 0.8; stroke-linecap: square"/>
     </g>
     <g id="line2d_12">
      <g>
       <use xlink:href="#mf8aa231d43" x="413.248437" y="317.688594" style="stroke: #000000; stroke-width: 0.8"/>
      </g>
     </g>
     <g id="text_6">
      <!-- 1.0 -->
      <g transform="translate(405.296875 332.287031) scale(0.1 -0.1)">
       <defs>
        <path id="DejaVuSans-31" d="M 794 531 
L 1825 531 
L 1825 4091 
L 703 3866 
L 703 4441 
L 1819 4666 
L 2450 4666 
L 2450 531 
L 3481 531 
L 3481 0 
L 794 0 
L 794 531 
z
" transform="scale(0.015625)"/>
       </defs>
       <use xlink:href="#DejaVuSans-31"/>
       <use xlink:href="#DejaVuSans-2e" transform="translate(63.623047 0)"/>
       <use xlink:href="#DejaVuSans-30" transform="translate(95.410156 0)"/>
      </g>
     </g>
    </g>
    <g id="text_7">
     <!-- Proporção Acumulada de Fornecedores -->
     <g transform="translate(123.500625 346.912344) scale(0.11 -0.11)">
      <defs>
       <path id="DejaVuSans-50" d="M 1259 4147 
L 1259 2394 
L 2053 2394 
Q 2494 2394 2734 2622 
Q 2975 2850 2975 3272 
Q 2975 3691 2734 3919 
Q 2494 4147 2053 4147 
L 1259 4147 
z
M 628 4666 
L 2053 4666 
Q 2838 4666 3239 4311 
Q 3641 3956 3641 3272 
Q 3641 2581 3239 2228 
Q 2838 1875 2053 1875 
L 1259 1875 
L 1259 0 
L 628 0 
L 628 4666 
z
" transform="scale(0.015625)"/>
       <path id="DejaVuSans-72" d="M 2631 2963 
Q 2534 3019 2420 3045 
Q 2306 3072 2169 3072 
Q 1681 3072 1420 2755 
Q 1159 2438 1159 1844 
L 1159 0 
L 581 0 
L 581 3500 
L 1159 3500 
L 1159 2956 
Q 1341 3275 1631 3429 
Q 1922 3584 2338 3584 
Q 2397 3584 2469 3576 
Q 2541 3569 2628 3553 
L 2631 2963 
z
" transform="scale(0.015625)"/>
       <path id="DejaVuSans-6f" d="M 1959 3097 
Q 1497 3097 1228 2736 
Q 959 2375 959 1747 
Q 959 1119 1226 758 
Q 1494 397 1959 397 
Q 2419 397 2687 759 
Q 2956 1122 2956 1747 
Q 2956 2369 2687 2733 
Q 2419 3097 1959 3097 
z
M 1959 3584 
Q 2709 3584 3137 3096 
Q 3566 2609 3566 1747 
Q 3566 888 3137 398 
Q 2709 -91 1959 -91 
Q 1206 -91 779 398 
Q 353 888 353 1747 
Q 353 2609 779 3096 
Q 1206 3584 1959 3584 
z
" transform="scale(0.015625)"/>
       <path id="DejaVuSans-70" d="M 1159 525 
L 1159 -1331 
L 581 -1331 
L 581 3500 
L 1159 3500 
L 1159 2969 
Q 1341 3281 1617 3432 
Q 1894 3584 2278 3584 
Q 2916 3584 3314 3078 
Q 3713 2572 3713 1747 
Q 3713 922 3314 415 
Q 2916 -91 2278 -91 
Q 1894 -91 1617 61 
Q 1341 213 1159 525 
z
M 3116 1747 
Q 3116 2381 2855 2742 
Q 2594 3103 2138 3103 
Q 1681 3103 1420 2742 
Q 1159 2381 1159 1747 
Q 1159 1113 1420 752 
Q 1681 391 2138 391 
Q 2594 391 2855 752 
Q 3116 1113 3116 1747 
z
" transform="scale(0.015625)"/>
       <path id="DejaVuSans-e7" d="M 3122 3366 
L 3122 2828 
Q 2878 2963 2633 3030 
Q 2388 3097 2138 3097 
Q 1578 3097 1268 2742 
Q 959 2388 959 1747 
Q 959 1106 1268 751 
Q 1578 397 2138 397 
Q 2388 397 2633 464 
Q 2878 531 3122 666 
L 3122 134 
Q 2881 22 2623 -34 
Q 2366 -91 2075 -91 
Q 1284 -91 818 406 
Q 353 903 353 1747 
Q 353 2603 823 3093 
Q 1294 3584 2113 3584 
Q 2378 3584 2631 3529 
Q 2884 3475 3122 3366 
z
M 2311 0 
Q 2482 -194 2566 -358 
Q 2651 -522 2651 -672 
Q 2651 -950 2463 -1092 
Q 2276 -1234 1907 -1234 
Q 1764 -1234 1628 -1215 
Q 1492 -1197 1357 -1159 
L 1357 -750 
Q 1464 -803 1579 -826 
Q 1695 -850 1842 -850 
Q 2026 -850 2120 -775 
Q 2214 -700 2214 -556 
Q 2214 -463 2146 -327 
Q 2079 -191 1939 0 
L 2311 0 
z
" transform="scale(0.015625)"/>
       <path id="DejaVuSans-e3" d="M 2194 1759 
Q 1497 1759 1228 1600 
Q 959 1441 959 1056 
Q 959 750 1161 570 
Q 1363 391 1709 391 
Q 2188 391 2477 730 
Q 2766 1069 2766 1631 
L 2766 1759 
L 2194 1759 
z
M 3341 1997 
L 3341 0 
L 2766 0 
L 2766 531 
Q 2569 213 2275 61 
Q 1981 -91 1556 -91 
Q 1019 -91 701 211 
Q 384 513 384 1019 
Q 384 1609 779 1909 
Q 1175 2209 1959 2209 
L 2766 2209 
L 2766 2266 
Q 2766 2663 2505 2880 
Q 2244 3097 1772 3097 
Q 1472 3097 1187 3025 
Q 903 2953 641 2809 
L 641 3341 
Q 956 3463 1253 3523 
Q 1550 3584 1831 3584 
Q 2591 3584 2966 3190 
Q 3341 2797 3341 1997 
z
M 1844 4281 
L 1665 4453 
Q 1597 4516 1545 4545 
Q 1494 4575 1453 4575 
Q 1334 4575 1278 4461 
Q 1222 4347 1215 4091 
L 825 4091 
Q 831 4513 990 4742 
Q 1150 4972 1434 4972 
Q 1553 4972 1653 4928 
Q 1753 4884 1869 4781 
L 2047 4609 
Q 2115 4547 2167 4517 
Q 2219 4488 2259 4488 
Q 2378 4488 2434 4602 
Q 2490 4716 2497 4972 
L 2887 4972 
Q 2881 4550 2721 4320 
Q 2562 4091 2278 4091 
Q 2159 4091 2059 4134 
Q 1959 4178 1844 4281 
z
" transform="scale(0.015625)"/>
       <path id="DejaVuSans-20" transform="scale(0.015625)"/>
       <path id="DejaVuSans-41" d="M 2188 4044 
L 1331 1722 
L 3047 1722 
L 2188 4044 
z
M 1831 4666 
L 2547 4666 
L 4325 0 
L 3669 0 
L 3244 1197 
L 1141 1197 
L 716 0 
L 50 0 
L 1831 4666 
z
" transform="scale(0.015625)"/>
       <path id="DejaVuSans-63" d="M 3122 3366 
L 3122 2828 
Q 2878 2963 2633 3030 
Q 2388 3097 2138 3097 
Q 1578 3097 1268 2742 
Q 959 2388 959 1747 
Q 959 1106 1268 751 
Q 1578 397 2138 397 
Q 2388 397 2633 464 
Q 2878 531 3122 666 
L 3122 134 
Q 2881 22 2623 -34 
Q 2366 -91 2075 -91 
Q 1284 -91 818 406 
Q 353 903 353 1747 
Q 353 2603 823 3093 
Q 1294 3584 2113 3584 
Q 2378 3584 2631 3529 
Q 2884 3475 3122 3366 
z
" transform="scale(0.015625)"/>
       <path id="DejaVuSans-75" d="M 544 1381 
L 544 3500 
L 1119 3500 
L 1119 1403 
Q 1119 906 1312 657 
Q 1506 409 1894 409 
Q 2359 409 2629 706 
Q 2900 1003 2900 1516 
L 2900 3500 
L 3475 3500 
L 3475 0 
L 2900 0 
L 2900 538 
Q 2691 219 2414 64 
Q 2138 -91 1772 -91 
Q 1169 -91 856 284 
Q 544 659 544 1381 
z
M 1991 3584 
L 1991 3584 
z
" transform="scale(0.015625)"/>
       <path id="DejaVuSans-6d" d="M 3328 2828 
Q 3544 3216 3844 3400 
Q 4144 3584 4550 3584 
Q 5097 3584 5394 3201 
Q 5691 2819 5691 2113 
L 5691 0 
L 5113 0 
L 5113 2094 
Q 5113 2597 4934 2840 
Q 4756 3084 4391 3084 
Q 3944 3084 3684 2787 
Q 3425 2491 3425 1978 
L 3425 0 
L 2847 0 
L 2847 2094 
Q 2847 2600 2669 2842 
Q 2491 3084 2119 3084 
Q 1678 3084 1418 2786 
Q 1159 2488 1159 1978 
L 1159 0 
L 581 0 
L 581 3500 
L 1159 3500 
L 1159 2956 
Q 1356 3278 1631 3431 
Q 1906 3584 2284 3584 
Q 2666 3584 2933 3390 
Q 3200 3197 3328 2828 
z
" transform="scale(0.015625)"/>
       <path id="DejaVuSans-6c" d="M 603 4863 
L 1178 4863 
L 1178 0 
L 603 0 
L 603 4863 
z
" transform="scale(0.015625)"/>
       <path id="DejaVuSans-61" d="M 2194 1759 
Q 1497 1759 1228 1600 
Q 959 1441 959 1056 
Q 959 750 1161 570 
Q 1363 391 1709 391 
Q 2188 391 2477 730 
Q 2766 1069 2766 1631 
L 2766 1759 
L 2194 1759 
z
M 3341 1997 
L 3341 0 
L 2766 0 
L 2766 531 
Q 2569 213 2275 61 
Q 1981 -91 1556 -91 
Q 1019 -91 701 211 
Q 384 513 384 1019 
Q 384 1609 779 1909 
Q 1175 2209 1959 2209 
L 2766 2209 
L 2766 2266 
Q 2766 2663 2505 2880 
Q 2244 3097 1772 3097 
Q 1472 3097 1187 3025 
Q 903 2953 641 2809 
L 641 3341 
Q 956 3463 1253 3523 
Q 1550 3584 1831 3584 
Q 2591 3584 2966 3190 
Q 3341 2797 3341 1997 
z
" transform="scale(0.015625)"/>
       <path id="DejaVuSans-64" d="M 2906 2969 
L 2906 4863 
L 3481 4863 
L 3481 0 
L 2906 0 
L 2906 525 
Q 2725 213 2448 61 
Q 2172 -91 1784 -91 
Q 1150 -91 751 415 
Q 353 922 353 1747 
Q 353 2572 751 3078 
Q 1150 3584 1784 3584 
Q 2172 3584 2448 3432 
Q 2725 3281 2906 2969 
z
M 947 1747 
Q 947 1113 1208 752 
Q 1469 391 1925 391 
Q 2381 391 2643 752 
Q 2906 1113 2906 1747 
Q 2906 2381 2643 2742 
Q 2381 3103 1925 3103 
Q 1469 3103 1208 2742 
Q 947 2381 947 1747 
z
" transform="scale(0.015625)"/>
       <path id="DejaVuSans-65" d="M 3597 1894 
L 3597 1613 
L 953 1613 
Q 991 1019 1311 708 
Q 1631 397 2203 397 
Q 2534 397 2845 478 
Q 3156 559 3463 722 
L 3463 178 
Q 3153 47 2828 -22 
Q 2503 -91 2169 -91 
Q 1331 -91 842 396 
Q 353 884 353 1716 
Q 353 2575 817 3079 
Q 1281 3584 2069 3584 
Q 2775 3584 3186 3129 
Q 3597 2675 3597 1894 
z
M 3022 2063 
Q 3016 2534 2758 2815 
Q 2500 3097 2075 3097 
Q 1594 3097 1305 2825 
Q 1016 2553 972 2059 
L 3022 2063 
z
" transform="scale(0.015625)"/>
       <path id="DejaVuSans-46" d="M 628 4666 
L 3309 4666 
L 3309 4134 
L 1259 4134 
L 1259 2759 
L 3109 2759 
L 3109 2228 
L 1259 2228 
L 1259 0 
L 628 0 
L 628 4666 
z
" transform="scale(0.015625)"/>
       <path id="DejaVuSans-6e" d="M 3513 2113 
L 3513 0 
L 2938 0 
L 2938 2094 
Q 2938 2591 2744 2837 
Q 2550 3084 2163 3084 
Q 1697 3084 1428 2787 
Q 1159 2491 1159 1978 
L 1159 0 
L 581 0 
L 581 3500 
L 1159 3500 
L 1159 2956 
Q 1366 3272 1645 3428 
Q 1925 3584 2291 3584 
Q 2894 3584 3203 3211 
Q 3513 2838 3513 2113 
z
" transform="scale(0.015625)"/>
       <path id="DejaVuSans-73" d="M 2834 3397 
L 2834 2853 
Q 2591 2978 2328 3040 
Q 2066 3103 1784 3103 
Q 1356 3103 1142 2972 
Q 928 2841 928 2578 
Q 928 2378 1081 2264 
Q 1234 2150 1697 2047 
L 1894 2003 
Q 2506 1872 2764 1633 
Q 3022 1394 3022 966 
Q 3022 478 2636 193 
Q 2250 -91 1575 -91 
Q 1294 -91 989 -36 
Q 684 19 347 128 
L 347 722 
Q 666 556 975 473 
Q 1284 391 1588 391 
Q 1994 391 2212 530 
Q 2431 669 2431 922 
Q 2431 1156 2273 1281 
Q 2116 1406 1581 1522 
L 1381 1569 
Q 847 1681 609 1914 
Q 372 2147 372 2553 
Q 372 3047 722 3315 
Q 1072 3584 1716 3584 
Q 2034 3584 2315 3537 
Q 2597 3491 2834 3397 
z
" transform="scale(0.015625)"/>
      </defs>
      <use xlink:href="#DejaVuSans-50"/>
      <use xlink:href="#DejaVuSans-72" transform="translate(58.552734 0)"/>
      <use xlink:href="#DejaVuSans-6f" transform="translate(97.416016 0)"/>
      <use xlink:href="#DejaVuSans-70" transform="translate(158.597656 0)"/>
      <use xlink:href="#DejaVuSans-6f" transform="translate(222.074219 0)"/>
      <use xlink:href="#DejaVuSans-72" transform="translate(283.255859 0)"/>
      <use xlink:href="#DejaVuSans-e7" transform="translate(322.119141 0)"/>
      <use xlink:href="#DejaVuSans-e3" transform="translate(377.099609 0)"/>
      <use xlink:href="#DejaVuSans-6f" transform="translate(438.378906 0)"/>
      <use xlink:href="#DejaVuSans-20" transform="translate(499.560547 0)"/>
      <use xlink:href="#DejaVuSans-41" transform="translate(531.347656 0)"/>
      <use xlink:href="#DejaVuSans-63" transform="translate(598.005859 0)"/>
      <use xlink:href="#DejaVuSans-75" transform="translate(652.986328 0)"/>
      <use xlink:href="#DejaVuSans-6d" transform="translate(716.365234 0)"/>
      <use xlink:href="#DejaVuSans-75" transform="translate(813.777344 0)"/>
      <use xlink:href="#DejaVuSans-6c" transform="translate(877.15625 0)"/>
      <use xlink:href="#DejaVuSans-61" transform="translate(904.939453 0)"/>
      <use xlink:href="#DejaVuSans-64" transform="translate(966.21875 0)"/>
      <use xlink:href="#DejaVuSans-61" transform="translate(1029.695312 0)"/>
      <use xlink:href="#DejaVuSans-20" transform="translate(1090.974609 0)"/>
      <use xlink:href="#DejaVuSans-64" transform="translate(1122.761719 0)"/>
      <use xlink:href="#DejaVuSans-65" transform="translate(1186.238281 0)"/>
      <use xlink:href="#DejaVuSans-20" transform="translate(1247.761719 0)"/>
      <use xlink:href="#DejaVuSans-46" transform="translate(1279.548828 0)"/>
      <use xlink:href="#DejaVuSans-6f" transform="translate(1333.443359 0)"/>
      <use xlink:href="#DejaVuSans-72" transform="translate(1394.625 0)"/>
      <use xlink:href="#DejaVuSans-6e" transform="translate(1433.988281 0)"/>
      <use xlink:href="#DejaVuSans-65" transform="translate(1497.367188 0)"/>
      <use xlink:href="#DejaVuSans-63" transform="translate(1558.890625 0)"/>
      <use xlink:href="#DejaVuSans-65" transform="translate(1613.871094 0)"/>
      <use xlink:href="#DejaVuSans-64" transform="translate(1675.394531 0)"/>
      <use xlink:href="#DejaVuSans-6f" transform="translate(1738.871094 0)"/>
      <use xlink:href="#DejaVuSans-72" transform="translate(1800.052734 0)"/>
      <use xlink:href="#DejaVuSans-65" transform="translate(1838.916016 0)"/>
      <use xlink:href="#DejaVuSans-73" transform="translate(1900.439453 0)"/>
     </g>
    </g>
   </g>
   <g id="matplotlib.axis_2">
    <g id="ytick_1">
     <g id="line2d_13">
      <path d="M 48.536406 317.688594 
L 413.248437 317.688594 
" clip-path="url(#p4741841d6b)" style="fill: none; stroke: #b0b0b0; stroke-opacity: 0.3; stroke-width: 0.8; stroke-linecap: square"/>
     </g>
     <g id="line2d_14">
      <defs>
       <path id="m92bd975532" d="M 0 0 
L -3.5 0 
" style="stroke: #000000; stroke-width: 0.8"/>
      </defs>
      <g>
       <use xlink:href="#m92bd975532" x="48.536406" y="317.688594" style="stroke: #000000; stroke-width: 0.8"/>
      </g>
     </g>
     <g id="text_8">
      <!-- 0.0 -->
      <g transform="translate(25.633281 321.487813) scale(0.1 -0.1)">
       <use xlink:href="#DejaVuSans-30"/>
       <use xlink:href="#DejaVuSans-2e" transform="translate(63.623047 0)"/>
       <use xlink:href="#DejaVuSans-30" transform="translate(95.410156 0)"/>
      </g>
     </g>
    </g>
    <g id="ytick_2">
     <g id="line2d_15">
      <path d="M 48.536406 257.070719 
L 413.248437 257.070719 
" clip-path="url(#p4741841d6b)" style="fill: none; stroke: #b0b0b0; stroke-opacity: 0.3; stroke-width: 0.8; stroke-linecap: square"/>
     </g>
     <g id="line2d_16">
      <g>
       <use xlink:href="#m92bd975532" x="48.536406" y="257.070719" style="stroke: #000000; stroke-width: 0.8"/>
      </g>
     </g>
     <g id="text_9">
      <!-- 0.2 -->
      <g transform="translate(25.633281 260.869937) scale(0.1 -0.1)">
       <use xlink:href="#DejaVuSans-30"/>
       <use xlink:href="#DejaVuSans-2e" transform="translate(63.623047 0)"/>
       <use xlink:href="#DejaVuSans-32" transform="translate(95.410156 0)"/>
      </g>
     </g>
    </g>
    <g id="ytick_3">
     <g id="line2d_17">
      <path d="M 48.536406 196.452844 
L 413.248437 196.452844 
" clip-path="url(#p4741841d6b)" style="fill: none; stroke: #b0b0b0; stroke-opacity: 0.3; stroke-width: 0.8; stroke-linecap: square"/>
     </g>
     <g id="line2d_18">
      <g>
       <use xlink:href="#m92bd975532" x="48.536406" y="196.452844" style="stroke: #000000; stroke-width: 0.8"/>
      </g>
     </g>
     <g id="text_10">
      <!-- 0.4 -->
      <g transform="translate(25.633281 200.252063) scale(0.1 -0.1)">
       <use xlink:href="#DejaVuSans-30"/>
       <use xlink:href="#DejaVuSans-2e" transform="translate(63.623047 0)"/>
       <use xlink:href="#DejaVuSans-34" transform="translate(95.410156 0)"/>
      </g>
     </g>
    </g>
    <g id="ytick_4">
     <g id="line2d_19">
      <path d="M 48.536406 135.834969 
L 413.248437 135.834969 
" clip-path="url(#p4741841d6b)" style="fill: none; stroke: #b0b0b0; stroke-opacity: 0.3; stroke-width: 0.8; stroke-linecap: square"/>
     </g>
     <g id="line2d_20">
      <g>
       <use xlink:href="#m92bd975532" x="48.536406" y="135.834969" style="stroke: #000000; stroke-width: 0.8"/>
      </g>
     </g>
     <g id="text_11">
      <!-- 0.6 -->
      <g transform="translate(25.633281 139.634188) scale(0.1 -0.1)">
       <use xlink:href="#DejaVuSans-30"/>
       <use xlink:href="#DejaVuSans-2e" transform="translate(63.623047 0)"/>
       <use xlink:href="#DejaVuSans-36" transform="translate(95.410156 0)"/>
      </g>
     </g>
    </g>
    <g id="ytick_5">
     <g id="line2d_21">
      <path d="M 48.536406 75.217094 
L 413.248437 75.217094 
" clip-path="url(#p4741841d6b)" style="fill: none; stroke: #b0b0b0; stroke-opacity: 0.3; stroke-width: 0.8; stroke-linecap: square"/>
     </g>
     <g id="line2d_22">
      <g>
       <use xlink:href="#m92bd975532" x="48.536406" y="75.217094" style="stroke: #000000; stroke-width: 0.8"/>
      </g>
     </g>
     <g id="text_12">
      <!-- 0.8 -->
      <g transform="translate(25.633281 79.016313) scale(0.1 -0.1)">
       <use xlink:href="#DejaVuSans-30"/>
       <use xlink:href="#DejaVuSans-2e" transform="translate(63.623047 0)"/>
       <use xlink:href="#DejaVuSans-38" transform="translate(95.410156 0)"/>
      </g>
     </g>
    </g>
    <g id="ytick_6">
     <g id="line2d_23">
      <path d="M 48.536406 14.599219 
L 413.248437 14.599219 
" clip-path="url(#p4741841d6b)" style="fill: none; stroke: #b0b0b0; stroke-opacity: 0.3; stroke-width: 0.8; stroke-linecap: square"/>
     </g>
     <g id="line2d_24">
      <g>
       <use xlink:href="#m92bd975532" x="48.536406" y="14.599219" style="stroke: #000000; stroke-width: 0.8"/>
      </g>
     </g>
     <g id="text_13">
      <!-- 1.0 -->
      <g transform="translate(25.633281 18.398438) scale(0.1 -0.1)">
       <use xlink:href="#DejaVuSans-31"/>
       <use xlink:href="#DejaVuSans-2e" transform="translate(63.623047 0)"/>
       <use xlink:href="#DejaVuSans-30" transform="translate(95.410156 0)"/>
      </g>
     </g>
    </g>
    <g id="text_14">
     <!-- Proporção Acumulada de Receitas -->
     <g transform="translate(19.345625 259.806328) rotate(-90) scale(0.11 -0.11)">
      <defs>
       <path id="DejaVuSans-52" d="M 2841 2188 
Q 3044 2119 3236 1894 
Q 3428 1669 3622 1275 
L 4263 0 
L 3584 0 
L 2988 1197 
Q 2756 1666 2539 1819 
Q 2322 1972 1947 1972 
L 1259 1972 
L 1259 0 
L 628 0 
L 628 4666 
L 2053 4666 
Q 2853 4666 3247 4331 
Q 3641 3997 3641 3322 
Q 3641 2881 3436 2590 
Q 3231 2300 2841 2188 
z
M 1259 4147 
L 1259 2491 
L 2053 2491 
Q 2509 2491 2742 2702 
Q 2975 2913 2975 3322 
Q 2975 3731 2742 3939 
Q 2509 4147 2053 4147 
L 1259 4147 
z
" transform="scale(0.015625)"/>
       <path id="DejaVuSans-69" d="M 603 3500 
L 1178 3500 
L 1178 0 
L 603 0 
L 603 3500 
z
M 603 4863 
L 1178 4863 
L 1178 4134 
L 603 4134 
L 603 4863 
z
" transform="scale(0.015625)"/>
       <path id="DejaVuSans-74" d="M 1172 4494 
L 1172 3500 
L 2356 3500 
L 2356 3053 
L 1172 3053 
L 1172 1153 
Q 1172 725 1289 603 
Q 1406 481 1766 481 
L 2356 481 
L 2356 0 
L 1766 0 
Q 1100 0 847 248 
Q 594 497 594 1153 
L 594 3053 
L 172 3053 
L 172 3500 
L 594 3500 
L 594 4494 
L 1172 4494 
z
" transform="scale(0.015625)"/>
      </defs>
      <use xlink:href="#DejaVuSans-50"/>
      <use xlink:href="#DejaVuSans-72" transform="translate(58.552734 0)"/>
      <use xlink:href="#DejaVuSans-6f" transform="translate(97.416016 0)"/>
      <use xlink:href="#DejaVuSans-70" transform="translate(158.597656 0)"/>
      <use xlink:href="#DejaVuSans-6f" transform="translate(222.074219 0)"/>
      <use xlink:href="#DejaVuSans-72" transform="translate(283.255859 0)"/>
      <use xlink:href="#DejaVuSans-e7" transform="translate(322.119141 0)"/>
      <use xlink:href="#DejaVuSans-e3" transform="translate(377.099609 0)"/>
      <use xlink:href="#DejaVuSans-6f" transform="translate(438.378906 0)"/>
      <use xlink:href="#DejaVuSans-20" transform="translate(499.560547 0)"/>
      <use xlink:href="#DejaVuSans-41" transform="translate(531.347656 0)"/>
      <use xlink:href="#DejaVuSans-63" transform="translate(598.005859 0)"/>
      <use xlink:href="#DejaVuSans-75" transform="translate(652.986328 0)"/>
      <use xlink:href="#DejaVuSans-6d" transform="translate(716.365234 0)"/>
      <use xlink:href="#DejaVuSans-75" transform="translate(813.777344 0)"/>
      <use xlink:href="#DejaVuSans-6c" transform="translate(877.15625 0)"/>
      <use xlink:href="#DejaVuSans-61" transform="translate(904.939453 0)"/>
      <use xlink:href="#DejaVuSans-64" transform="translate(966.21875 0)"/>
      <use xlink:href="#DejaVuSans-61" transform="translate(1029.695312 0)"/>
      <use xlink:href="#DejaVuSans-20" transform="translate(1090.974609 0)"/>
      <use xlink:href="#DejaVuSans-64" transform="translate(1122.761719 0)"/>
      <use xlink:href="#DejaVuSans-65" transform="translate(1186.238281 0)"/>
      <use xlink:href="#DejaVuSans-20" transform="translate(1247.761719 0)"/>
      <use xlink:href="#DejaVuSans-52" transform="translate(1279.548828 0)"/>
      <use xlink:href="#DejaVuSans-65" transform="translate(1344.53125 0)"/>
      <use xlink:href="#DejaVuSans-63" transform="translate(1406.054688 0)"/>
      <use xlink:href="#DejaVuSans-65" transform="translate(1461.035156 0)"/>
      <use xlink:href="#DejaVuSans-69" transform="translate(1522.558594 0)"/>
      <use xlink:href="#DejaVuSans-74" transform="translate(1550.341797 0)"/>
      <use xlink:href="#DejaVuSans-61" transform="translate(1589.550781 0)"/>
      <use xlink:href="#DejaVuSans-73" transform="translate(1650.830078 0)"/>
     </g>
    </g>
   </g>
   <g id="line2d_25">
    <path d="M 48.536406 317.558071 
L 409.589119 278.923463 
L 412.028665 109.8299 
L 413.248437 14.599219 
L 413.248437 14.599219 
" clip-path="url(#p4741841d6b)" style="fill: none; stroke: #e74c3c; stroke-width: 2.5; stroke-linecap: square"/>
   </g>
   <g id="line2d_26">
    <path d="M 48.536406 317.688594 
L 413.248437 14.599219 
" clip-path="url(#p4741841d6b)" style="fill: none; stroke-dasharray: 3.7,1.6; stroke-dashoffset: 0; stroke: #808080"/>
   </g>
   <g id="patch_3">
    <path d="M 48.536406 317.688594 
L 48.536406 14.599219 
" style="fill: none; stroke: #000000; stroke-width: 0.8; stroke-linejoin: miter; stroke-linecap: square"/>
   </g>
   <g id="patch_4">
    <path d="M 413.248437 317.688594 
L 413.248437 14.599219 
" style="fill: none; stroke: #000000; stroke-width: 0.8; stroke-linejoin: miter; stroke-linecap: square"/>
   </g>
   <g id="patch_5">
    <path d="M 48.536406 317.688594 
L 413.248437 317.688594 
" style="fill: none; stroke: #000000; stroke-width: 0.8; stroke-linejoin: miter; stroke-linecap: square"/>
   </g>
   <g id="patch_6">
    <path d="M 48.536406 14.599219 
L 413.248437 14.599219 
" style="fill: none; stroke: #000000; stroke-width: 0.8; stroke-linejoin: miter; stroke-linecap: square"/>
   </g>
   <g id="legend_1">
    <g id="patch_7">
     <path d="M 218.784375 312.688594 
L 406.248437 312.688594 
Q 408.248437 312.688594 408.248437 310.688594 
L 408.248437 282.332344 
Q 408.248437 280.332344 406.248437 280.332344 
L 218.784375 280.332344 
Q 216.784375 280.332344 216.784375 282.332344 
L 216.784375 310.688594 
Q 216.784375 312.688594 218.784375 312.688594 
z
" style="fill: #ffffff; opacity: 0.9; stroke: #cccccc; stroke-linejoin: miter"/>
    </g>
    <g id="line2d_27">
     <path d="M 220.784375 288.430781 
L 230.784375 288.430781 
L 240.784375 288.430781 
" style="fill: none; stroke: #e74c3c; stroke-width: 2.5; stroke-linecap: square"/>
    </g>
    <g id="text_15">
     <!-- Curva de Lorenz (Gini = 0,907) -->
     <g transform="translate(248.784375 291.930781) scale(0.1 -0.1)">
      <defs>
       <path id="DejaVuSans-43" d="M 4122 4306 
L 4122 3641 
Q 3803 3938 3442 4084 
Q 3081 4231 2675 4231 
Q 1875 4231 1450 3742 
Q 1025 3253 1025 2328 
Q 1025 1406 1450 917 
Q 1875 428 2675 428 
Q 3081 428 3442 575 
Q 3803 722 4122 1019 
L 4122 359 
Q 3791 134 3420 21 
Q 3050 -91 2638 -91 
Q 1578 -91 968 557 
Q 359 1206 359 2328 
Q 359 3453 968 4101 
Q 1578 4750 2638 4750 
Q 3056 4750 3426 4639 
Q 3797 4528 4122 4306 
z
" transform="scale(0.015625)"/>
       <path id="DejaVuSans-76" d="M 191 3500 
L 800 3500 
L 1894 563 
L 2988 3500 
L 3597 3500 
L 2284 0 
L 1503 0 
L 191 3500 
z
" transform="scale(0.015625)"/>
       <path id="DejaVuSans-4c" d="M 628 4666 
L 1259 4666 
L 1259 531 
L 3531 531 
L 3531 0 
L 628 0 
L 628 4666 
z
" transform="scale(0.015625)"/>
       <path id="DejaVuSans-7a" d="M 353 3500 
L 3084 3500 
L 3084 2975 
L 922 459 
L 3084 459 
L 3084 0 
L 275 0 
L 275 525 
L 2438 3041 
L 353 3041 
L 353 3500 
z
" transform="scale(0.015625)"/>
       <path id="DejaVuSans-28" d="M 1984 4856 
Q 1566 4138 1362 3434 
Q 1159 2731 1159 2009 
Q 1159 1288 1364 580 
Q 1569 -128 1984 -844 
L 1484 -844 
Q 1016 -109 783 600 
Q 550 1309 550 2009 
Q 550 2706 781 3412 
Q 1013 4119 1484 4856 
L 1984 4856 
z
" transform="scale(0.015625)"/>
       <path id="DejaVuSans-47" d="M 3809 666 
L 3809 1919 
L 2778 1919 
L 2778 2438 
L 4434 2438 
L 4434 434 
Q 4069 175 3628 42 
Q 3188 -91 2688 -91 
Q 1594 -91 976 548 
Q 359 1188 359 2328 
Q 359 3472 976 4111 
Q 1594 4750 2688 4750 
Q 3144 4750 3555 4637 
Q 3966 4525 4313 4306 
L 4313 3634 
Q 3963 3931 3569 4081 
Q 3175 4231 2741 4231 
Q 1884 4231 1454 3753 
Q 1025 3275 1025 2328 
Q 1025 1384 1454 906 
Q 1884 428 2741 428 
Q 3075 428 3337 486 
Q 3600 544 3809 666 
z
" transform="scale(0.015625)"/>
       <path id="DejaVuSans-3d" d="M 678 2906 
L 4684 2906 
L 4684 2381 
L 678 2381 
L 678 2906 
z
M 678 1631 
L 4684 1631 
L 4684 1100 
L 678 1100 
L 678 1631 
z
" transform="scale(0.015625)"/>
       <path id="DejaVuSans-2c" d="M 750 794 
L 1409 794 
L 1409 256 
L 897 -744 
L 494 -744 
L 750 256 
L 750 794 
z
" transform="scale(0.015625)"/>
       <path id="DejaVuSans-39" d="M 703 97 
L 703 672 
Q 941 559 1184 500 
Q 1428 441 1663 441 
Q 2288 441 2617 861 
Q 2947 1281 2994 2138 
Q 2813 1869 2534 1725 
Q 2256 1581 1919 1581 
Q 1219 1581 811 2004 
Q 403 2428 403 3163 
Q 403 3881 828 4315 
Q 1253 4750 1959 4750 
Q 2769 4750 3195 4129 
Q 3622 3509 3622 2328 
Q 3622 1225 3098 567 
Q 2575 -91 1691 -91 
Q 1453 -91 1209 -44 
Q 966 3 703 97 
z
M 1959 2075 
Q 2384 2075 2632 2365 
Q 2881 2656 2881 3163 
Q 2881 3666 2632 3958 
Q 2384 4250 1959 4250 
Q 1534 4250 1286 3958 
Q 1038 3666 1038 3163 
Q 1038 2656 1286 2365 
Q 1534 2075 1959 2075 
z
" transform="scale(0.015625)"/>
       <path id="DejaVuSans-37" d="M 525 4666 
L 3525 4666 
L 3525 4397 
L 1831 0 
L 1172 0 
L 2766 4134 
L 525 4134 
L 525 4666 
z
" transform="scale(0.015625)"/>
       <path id="DejaVuSans-29" d="M 513 4856 
L 1013 4856 
Q 1481 4119 1714 3412 
Q 1947 2706 1947 2009 
Q 1947 1309 1714 600 
Q 1481 -109 1013 -844 
L 513 -844 
Q 928 -128 1133 580 
Q 1338 1288 1338 2009 
Q 1338 2731 1133 3434 
Q 928 4138 513 4856 
z
" transform="scale(0.015625)"/>
      </defs>
      <use xlink:href="#DejaVuSans-43"/>
      <use xlink:href="#DejaVuSans-75" transform="translate(69.824219 0)"/>
      <use xlink:href="#DejaVuSans-72" transform="translate(133.203125 0)"/>
      <use xlink:href="#DejaVuSans-76" transform="translate(174.316406 0)"/>
      <use xlink:href="#DejaVuSans-61" transform="translate(233.496094 0)"/>
      <use xlink:href="#DejaVuSans-20" transform="translate(294.775391 0)"/>
      <use xlink:href="#DejaVuSans-64" transform="translate(326.5625 0)"/>
      <use xlink:href="#DejaVuSans-65" transform="translate(390.039062 0)"/>
      <use xlink:href="#DejaVuSans-20" transform="translate(451.5625 0)"/>
      <use xlink:href="#DejaVuSans-4c" transform="translate(483.349609 0)"/>
      <use xlink:href="#DejaVuSans-6f" transform="translate(537.3125 0)"/>
      <use xlink:href="#DejaVuSans-72" transform="translate(598.494141 0)"/>
      <use xlink:href="#DejaVuSans-65" transform="translate(637.357422 0)"/>
      <use xlink:href="#DejaVuSans-6e" transform="translate(698.880859 0)"/>
      <use xlink:href="#DejaVuSans-7a" transform="translate(762.259766 0)"/>
      <use xlink:href="#DejaVuSans-20" transform="translate(814.75 0)"/>
      <use xlink:href="#DejaVuSans-28" transform="translate(846.537109 0)"/>
      <use xlink:href="#DejaVuSans-47" transform="translate(885.550781 0)"/>
      <use xlink:href="#DejaVuSans-69" transform="translate(963.041016 0)"/>
      <use xlink:href="#DejaVuSans-6e" transform="translate(990.824219 0)"/>
      <use xlink:href="#DejaVuSans-69" transform="translate(1054.203125 0)"/>
      <use xlink:href="#DejaVuSans-20" transform="translate(1081.986328 0)"/>
      <use xlink:href="#DejaVuSans-3d" transform="translate(1113.773438 0)"/>
      <use xlink:href="#DejaVuSans-20" transform="translate(1197.5625 0)"/>
      <use xlink:href="#DejaVuSans-30" transform="translate(1229.349609 0)"/>
      <use xlink:href="#DejaVuSans-2c" transform="translate(1292.972656 0)"/>
      <use xlink:href="#DejaVuSans-39" transform="translate(1324.759766 0)"/>
      <use xlink:href="#DejaVuSans-30" transform="translate(1388.382812 0)"/>
      <use xlink:href="#DejaVuSans-37" transform="translate(1452.005859 0)"/>
      <use xlink:href="#DejaVuSans-29" transform="translate(1515.628906 0)"/>
     </g>
    </g>
    <g id="line2d_28">
     <path d="M 220.784375 303.108906 
L 230.784375 303.108906 
L 240.784375 303.108906 
" style="fill: none; stroke-dasharray: 3.7,1.6; stroke-dashoffset: 0; stroke: #808080"/>
    </g>
    <g id="text_16">
     <!-- Igualdade perfeita -->
     <g transform="translate(248.784375 306.608906) scale(0.1 -0.1)">
      <defs>
       <path id="DejaVuSans-49" d="M 628 4666 
L 1259 4666 
L 1259 0 
L 628 0 
L 628 4666 
z
" transform="scale(0.015625)"/>
       <path id="DejaVuSans-67" d="M 2906 1791 
Q 2906 2416 2648 2759 
Q 2391 3103 1925 3103 
Q 1463 3103 1205 2759 
Q 947 2416 947 1791 
Q 947 1169 1205 825 
Q 1463 481 1925 481 
Q 2391 481 2648 825 
Q 2906 1169 2906 1791 
z
M 3481 434 
Q 3481 -459 3084 -895 
Q 2688 -1331 1869 -1331 
Q 1566 -1331 1297 -1286 
Q 1028 -1241 775 -1147 
L 775 -588 
Q 1028 -725 1275 -790 
Q 1522 -856 1778 -856 
Q 2344 -856 2625 -561 
Q 2906 -266 2906 331 
L 2906 616 
Q 2728 306 2450 153 
Q 2172 0 1784 0 
Q 1141 0 747 490 
Q 353 981 353 1791 
Q 353 2603 747 3093 
Q 1141 3584 1784 3584 
Q 2172 3584 2450 3431 
Q 2728 3278 2906 2969 
L 2906 3500 
L 3481 3500 
L 3481 434 
z
" transform="scale(0.015625)"/>
       <path id="DejaVuSans-66" d="M 2375 4863 
L 2375 4384 
L 1825 4384 
Q 1516 4384 1395 4259 
Q 1275 4134 1275 3809 
L 1275 3500 
L 2222 3500 
L 2222 3053 
L 1275 3053 
L 1275 0 
L 697 0 
L 697 3053 
L 147 3053 
L 147 3500 
L 697 3500 
L 697 3744 
Q 697 4328 969 4595 
Q 1241 4863 1831 4863 
L 2375 4863 
z
" transform="scale(0.015625)"/>
      </defs>
      <use xlink:href="#DejaVuSans-49"/>
      <use xlink:href="#DejaVuSans-67" transform="translate(29.492188 0)"/>
      <use xlink:href="#DejaVuSans-75" transform="translate(92.96875 0)"/>
      <use xlink:href="#DejaVuSans-61" transform="translate(156.347656 0)"/>
      <use xlink:href="#DejaVuSans-6c" transform="translate(217.626953 0)"/>
      <use xlink:href="#DejaVuSans-64" transform="translate(245.410156 0)"/>
      <use xlink:href="#DejaVuSans-61" transform="translate(308.886719 0)"/>
      <use xlink:href="#DejaVuSans-64" transform="translate(370.166016 0)"/>
      <use xlink:href="#DejaVuSans-65" transform="translate(433.642578 0)"/>
      <use xlink:href="#DejaVuSans-20" transform="translate(495.166016 0)"/>
      <use xlink:href="#DejaVuSans-70" transform="translate(526.953125 0)"/>
      <use xlink:href="#DejaVuSans-65" transform="translate(590.429688 0)"/>
      <use xlink:href="#DejaVuSans-72" transform="translate(651.953125 0)"/>
      <use xlink:href="#DejaVuSans-66" transform="translate(693.066406 0)"/>
      <use xlink:href="#DejaVuSans-65" transform="translate(728.271484 0)"/>
      <use xlink:href="#DejaVuSans-69" transform="translate(789.794922 0)"/>
      <use xlink:href="#DejaVuSans-74" transform="translate(817.578125 0)"/>
      <use xlink:href="#DejaVuSans-61" transform="translate(856.787109 0)"/>
     </g>
    </g>
   </g>
  </g>
 </g>
 <defs>
  <clipPath id="p4741841d6b">
   <rect x="48.536406" y="14.599219" width="364.712031" height="303.089375"/>
  </clipPath>
 </defs>
</svg>
