<?xml version="1.0" encoding="utf-8" standalone="no"?>
<!DOCTYPE svg PUBLIC "-//W3C//DTD SVG 1.1//EN"
  "http://www.w3.org/Graphics/SVG/1.1/DTD/svg11.dtd">
<svg xmlns:xlink="http://www.w3.org/1999/xlink" width="460.8pt" height="347.754937pt" viewBox="0 0 460.8 347.754937" xmlns="http://www.w3.org/2000/svg" version="1.1">
 <metadata>
  <rdf:RDF xmlns:dc="http://purl.org/dc/elements/1.1/" xmlns:cc="http://creativecommons.org/ns#" xmlns:rdf="http://www.w3.org/1999/02/22-rdf-syntax-ns#">
   <cc:Work>
    <dc:type rdf:resource="http://purl.org/dc/dcmitype/StillImage"/>
    <dc:date>2026-05-18T11:58:51.622239</dc:date>
    <dc:format>image/svg+xml</dc:format>
    <dc:creator>
     <cc:Agent>
      <dc:title>Matplotlib v3.10.8, https://matplotlib.org/</dc:title>
     </cc:Agent>
    </dc:creator>
   </cc:Work>
  </rdf:RDF>
 </metadata>
 <defs>
  <style type="text/css">*{stroke-linejoin: round; stroke-linecap: butt}</style>
 </defs>
 <g id="figure_1">
  <g id="patch_1">
   <path d="M 0 347.754937 
L 460.8 347.754937 
L 460.8 0 
L 0 0 
z
" style="fill: #ffffff"/>
  </g>
  <g id="axes_1">
   <g id="line2d_1">
    <path d="M 70.971429 307.290937 
L 389.828571 307.290937 
" clip-path="url(#p5761df7422)" style="fill: none; stroke: #7f8c8d; stroke-opacity: 0.55; stroke-width: 0.8; stroke-linecap: square"/>
   </g>
   <g id="line2d_2">
    <path d="M 70.971429 307.290937 
L 389.828571 129.882937 
" clip-path="url(#p5761df7422)" style="fill: none; stroke: #7f8c8d; stroke-opacity: 0.233333; stroke-width: 0.8; stroke-linecap: square"/>
   </g>
   <g id="line2d_3">
    <path d="M 70.971429 307.290937 
L 389.828571 41.178937 
" clip-path="url(#p5761df7422)" style="fill: none; stroke: #7f8c8d; stroke-opacity: 0.21; stroke-width: 0.8; stroke-linecap: square"/>
   </g>
   <g id="line2d_4">
    <path d="M 70.971429 269.274937 
L 389.828571 262.938937 
" clip-path="url(#p5761df7422)" style="fill: none; stroke: #7f8c8d; stroke-opacity: 0.483333; stroke-width: 0.8; stroke-linecap: square"/>
   </g>
   <g id="line2d_5">
    <path d="M 70.971429 269.274937 
L 389.828571 174.234937 
" clip-path="url(#p5761df7422)" style="fill: none; stroke: #7f8c8d; stroke-opacity: 0.25; stroke-width: 0.8; stroke-linecap: square"/>
   </g>
   <g id="line2d_6">
    <path d="M 70.971429 231.258937 
L 389.828571 307.290937 
" clip-path="url(#p5761df7422)" style="fill: none; stroke: #7f8c8d; stroke-opacity: 0.55; stroke-width: 0.8; stroke-linecap: square"/>
   </g>
   <g id="line2d_7">
    <path d="M 70.971429 231.258937 
L 389.828571 262.938937 
" clip-path="url(#p5761df7422)" style="fill: none; stroke: #7f8c8d; stroke-opacity: 0.483333; stroke-width: 0.8; stroke-linecap: square"/>
   </g>
   <g id="line2d_8">
    <path d="M 70.971429 231.258937 
L 389.828571 218.586937 
" clip-path="url(#p5761df7422)" style="fill: none; stroke: #7f8c8d; stroke-opacity: 0.416667; stroke-width: 0.8; stroke-linecap: square"/>
   </g>
   <g id="line2d_9">
    <path d="M 70.971429 193.242937 
L 389.828571 307.290937 
" clip-path="url(#p5761df7422)" style="fill: none; stroke: #7f8c8d; stroke-opacity: 0.55; stroke-width: 0.8; stroke-linecap: square"/>
   </g>
   <g id="line2d_10">
    <path d="M 70.971429 193.242937 
L 389.828571 262.938937 
" clip-path="url(#p5761df7422)" style="fill: none; stroke: #7f8c8d; stroke-opacity: 0.483333; stroke-width: 0.8; stroke-linecap: square"/>
   </g>
   <g id="line2d_11">
    <path d="M 70.971429 193.242937 
L 389.828571 218.586937 
" clip-path="url(#p5761df7422)" style="fill: none; stroke: #7f8c8d; stroke-opacity: 0.416667; stroke-width: 0.8; stroke-linecap: square"/>
   </g>
   <g id="line2d_12">
    <path d="M 70.971429 155.226937 
L 389.828571 307.290937 
" clip-path="url(#p5761df7422)" style="fill: none; stroke: #7f8c8d; stroke-opacity: 0.55; stroke-width: 0.8; stroke-linecap: square"/>
   </g>
   <g id="line2d_13">
    <path d="M 70.971429 155.226937 
L 389.828571 262.938937 
" clip-path="url(#p5761df7422)" style="fill: none; stroke: #7f8c8d; stroke-opacity: 0.483333; stroke-width: 0.8; stroke-linecap: square"/>
   </g>
   <g id="line2d_14">
    <path d="M 70.971429 155.226937 
L 389.828571 218.586937 
" clip-path="url(#p5761df7422)" style="fill: none; stroke: #7f8c8d; stroke-opacity: 0.416667; stroke-width: 0.8; stroke-linecap: square"/>
   </g>
   <g id="line2d_15">
    <path d="M 70.971429 155.226937 
L 389.828571 174.234937 
" clip-path="url(#p5761df7422)" style="fill: none; stroke: #7f8c8d; stroke-opacity: 0.25; stroke-width: 0.8; stroke-linecap: square"/>
   </g>
   <g id="line2d_16">
    <path d="M 70.971429 155.226937 
L 389.828571 129.882937 
" clip-path="url(#p5761df7422)" style="fill: none; stroke: #7f8c8d; stroke-opacity: 0.233333; stroke-width: 0.8; stroke-linecap: square"/>
   </g>
   <g id="line2d_17">
    <path d="M 70.971429 117.210937 
L 389.828571 262.938937 
" clip-path="url(#p5761df7422)" style="fill: none; stroke: #7f8c8d; stroke-opacity: 0.483333; stroke-width: 0.8; stroke-linecap: square"/>
   </g>
   <g id="line2d_18">
    <path d="M 70.971429 117.210937 
L 389.828571 218.586937 
" clip-path="url(#p5761df7422)" style="fill: none; stroke: #7f8c8d; stroke-opacity: 0.416667; stroke-width: 0.8; stroke-linecap: square"/>
   </g>
   <g id="line2d_19">
    <path d="M 70.971429 117.210937 
L 389.828571 85.530937 
" clip-path="url(#p5761df7422)" style="fill: none; stroke: #7f8c8d; stroke-opacity: 0.216667; stroke-width: 0.8; stroke-linecap: square"/>
   </g>
   <g id="line2d_20">
    <path d="M 70.971429 79.194937 
L 389.828571 307.290937 
" clip-path="url(#p5761df7422)" style="fill: none; stroke: #7f8c8d; stroke-opacity: 0.55; stroke-width: 0.8; stroke-linecap: square"/>
   </g>
   <g id="line2d_21">
    <path d="M 70.971429 79.194937 
L 389.828571 218.586937 
" clip-path="url(#p5761df7422)" style="fill: none; stroke: #7f8c8d; stroke-opacity: 0.416667; stroke-width: 0.8; stroke-linecap: square"/>
   </g>
   <g id="line2d_22">
    <path d="M 70.971429 41.178937 
L 389.828571 307.290937 
" clip-path="url(#p5761df7422)" style="fill: none; stroke: #7f8c8d; stroke-opacity: 0.55; stroke-width: 0.8; stroke-linecap: square"/>
   </g>
   <g id="PathCollection_1">
    <defs>
     <path id="m1c777e48a5" d="M 0 7.905694 
C 2.096615 7.905694 4.10764 7.0727 5.59017 5.59017 
C 7.0727 4.10764 7.905694 2.096615 7.905694 0 
C 7.905694 -2.096615 7.0727 -4.10764 5.59017 -5.59017 
C 4.10764 -7.0727 2.096615 -7.905694 0 -7.905694 
C -2.096615 -7.905694 -4.10764 -7.0727 -5.59017 -5.59017 
C -7.0727 -4.10764 -7.905694 -2.096615 -7.905694 0 
C -7.905694 2.096615 -7.0727 4.10764 -5.59017 5.59017 
C -4.10764 7.0727 -2.096615 7.905694 0 7.905694 
z
" style="stroke: #2c3e50; stroke-width: 1.5"/>
    </defs>
    <g clip-path="url(#p5761df7422)">
     <use xlink:href="#m1c777e48a5" x="70.971429" y="307.290937" style="fill: #3498db; stroke: #2c3e50; stroke-width: 1.5"/>
    </g>
   </g>
   <g id="PathCollection_2">
    <g clip-path="url(#p5761df7422)">
     <use xlink:href="#m1c777e48a5" x="70.971429" y="269.274937" style="fill: #3498db; stroke: #2c3e50; stroke-width: 1.5"/>
    </g>
   </g>
   <g id="PathCollection_3">
    <g clip-path="url(#p5761df7422)">
     <use xlink:href="#m1c777e48a5" x="70.971429" y="231.258937" style="fill: #3498db; stroke: #2c3e50; stroke-width: 1.5"/>
    </g>
   </g>
   <g id="PathCollection_4">
    <g clip-path="url(#p5761df7422)">
     <use xlink:href="#m1c777e48a5" x="70.971429" y="193.242937" style="fill: #3498db; stroke: #2c3e50; stroke-width: 1.5"/>
    </g>
   </g>
   <g id="PathCollection_5">
    <g clip-path="url(#p5761df7422)">
     <use xlink:href="#m1c777e48a5" x="70.971429" y="155.226937" style="fill: #3498db; stroke: #2c3e50; stroke-width: 1.5"/>
    </g>
   </g>
   <g id="PathCollection_6">
    <g clip-path="url(#p5761df7422)">
     <use xlink:href="#m1c777e48a5" x="70.971429" y="117.210937" style="fill: #3498db; stroke: #2c3e50; stroke-width: 1.5"/>
    </g>
   </g>
   <g id="PathCollection_7">
    <g clip-path="url(#p5761df7422)">
     <use xlink:href="#m1c777e48a5" x="70.971429" y="79.194937" style="fill: #3498db; stroke: #2c3e50; stroke-width: 1.5"/>
    </g>
   </g>
   <g id="PathCollection_8">
    <g clip-path="url(#p5761df7422)">
     <use xlink:href="#m1c777e48a5" x="70.971429" y="41.178937" style="fill: #3498db; stroke: #2c3e50; stroke-width: 1.5"/>
    </g>
   </g>
   <g id="PathCollection_9">
    <defs>
     <path id="m6f306401d5" d="M -17.320508 17.320508 
L 17.320508 17.320508 
L 17.320508 -17.320508 
L -17.320508 -17.320508 
z
" style="stroke: #922b21; stroke-width: 2"/>
    </defs>
    <g clip-path="url(#p5761df7422)">
     <use xlink:href="#m6f306401d5" x="389.828571" y="307.290937" style="fill: #e74c3c; stroke: #922b21; stroke-width: 2"/>
    </g>
   </g>
   <g id="PathCollection_10">
    <defs>
     <path id="m4a949a9a8c" d="M -15.811388 15.811388 
L 15.811388 15.811388 
L 15.811388 -15.811388 
L -15.811388 -15.811388 
z
" style="stroke: #922b21; stroke-width: 2"/>
    </defs>
    <g clip-path="url(#p5761df7422)">
     <use xlink:href="#m4a949a9a8c" x="389.828571" y="262.938937" style="fill: #e74c3c; stroke: #922b21; stroke-width: 2"/>
    </g>
   </g>
   <g id="PathCollection_11">
    <defs>
     <path id="m40fca3b3de" d="M -14.142136 14.142136 
L 14.142136 14.142136 
L 14.142136 -14.142136 
L -14.142136 -14.142136 
z
" style="stroke: #922b21; stroke-width: 2"/>
    </defs>
    <g clip-path="url(#p5761df7422)">
     <use xlink:href="#m40fca3b3de" x="389.828571" y="218.586937" style="fill: #e74c3c; stroke: #922b21; stroke-width: 2"/>
    </g>
   </g>
   <g id="PathCollection_12">
    <defs>
     <path id="m53e892094d" d="M -8.660254 8.660254 
L 8.660254 8.660254 
L 8.660254 -8.660254 
L -8.660254 -8.660254 
z
" style="stroke: #922b21"/>
    </defs>
    <g clip-path="url(#p5761df7422)">
     <use xlink:href="#m53e892094d" x="389.828571" y="174.234937" style="fill: #e74c3c; stroke: #922b21"/>
    </g>
   </g>
   <g id="PathCollection_13">
    <defs>
     <path id="m7f7be5b0a0" d="M -7.905694 7.905694 
L 7.905694 7.905694 
L 7.905694 -7.905694 
L -7.905694 -7.905694 
z
" style="stroke: #922b21"/>
    </defs>
    <g clip-path="url(#p5761df7422)">
     <use xlink:href="#m7f7be5b0a0" x="389.828571" y="129.882937" style="fill: #e74c3c; stroke: #922b21"/>
    </g>
   </g>
   <g id="PathCollection_14">
    <defs>
     <path id="m2282ece6ad" d="M -7.071068 7.071068 
L 7.071068 7.071068 
L 7.071068 -7.071068 
L -7.071068 -7.071068 
z
" style="stroke: #922b21"/>
    </defs>
    <g clip-path="url(#p5761df7422)">
     <use xlink:href="#m2282ece6ad" x="389.828571" y="85.530937" style="fill: #e74c3c; stroke: #922b21"/>
    </g>
   </g>
   <g id="PathCollection_15">
    <defs>
     <path id="m4f7c1ee96f" d="M -6.708204 6.708204 
L 6.708204 6.708204 
L 6.708204 -6.708204 
L -6.708204 -6.708204 
z
" style="stroke: #922b21"/>
    </defs>
    <g clip-path="url(#p5761df7422)">
     <use xlink:href="#m4f7c1ee96f" x="389.828571" y="41.178937" style="fill: #e74c3c; stroke: #922b21"/>
    </g>
   </g>
   <g id="text_1">
    <!-- MS -->
    <g transform="translate(47.683214 309.498437) scale(0.08 -0.08)">
     <defs>
      <path id="DejaVuSans-Bold-4d" d="M 588 4666 
L 2119 4666 
L 3181 2169 
L 4250 4666 
L 5778 4666 
L 5778 0 
L 4641 0 
L 4641 3413 
L 3566 897 
L 2803 897 
L 1728 3413 
L 1728 0 
L 588 0 
L 588 4666 
z
" transform="scale(0.015625)"/>
      <path id="DejaVuSans-Bold-53" d="M 3834 4519 
L 3834 3531 
Q 3450 3703 3084 3790 
Q 2719 3878 2394 3878 
Q 1963 3878 1756 3759 
Q 1550 3641 1550 3391 
Q 1550 3203 1689 3098 
Q 1828 2994 2194 2919 
L 2706 2816 
Q 3484 2659 3812 2340 
Q 4141 2022 4141 1434 
Q 4141 663 3683 286 
Q 3225 -91 2284 -91 
Q 1841 -91 1394 -6 
Q 947 78 500 244 
L 500 1259 
Q 947 1022 1364 901 
Q 1781 781 2169 781 
Q 2563 781 2772 912 
Q 2981 1044 2981 1288 
Q 2981 1506 2839 1625 
Q 2697 1744 2272 1838 
L 1806 1941 
Q 1106 2091 782 2419 
Q 459 2747 459 3303 
Q 459 4000 909 4375 
Q 1359 4750 2203 4750 
Q 2588 4750 2994 4692 
Q 3400 4634 3834 4519 
z
" transform="scale(0.015625)"/>
     </defs>
     <use xlink:href="#DejaVuSans-Bold-4d"/>
     <use xlink:href="#DejaVuSans-Bold-53" transform="translate(99.511719 0)"/>
    </g>
   </g>
   <g id="text_2">
    <!-- MEC -->
    <g transform="translate(42.108214 271.482437) scale(0.08 -0.08)">
     <defs>
      <path id="DejaVuSans-Bold-45" d="M 588 4666 
L 3834 4666 
L 3834 3756 
L 1791 3756 
L 1791 2888 
L 3713 2888 
L 3713 1978 
L 1791 1978 
L 1791 909 
L 3903 909 
L 3903 0 
L 588 0 
L 588 4666 
z
" transform="scale(0.015625)"/>
      <path id="DejaVuSans-Bold-43" d="M 4288 256 
Q 3956 84 3597 -3 
Q 3238 -91 2847 -91 
Q 1681 -91 1000 561 
Q 319 1213 319 2328 
Q 319 3447 1000 4098 
Q 1681 4750 2847 4750 
Q 3238 4750 3597 4662 
Q 3956 4575 4288 4403 
L 4288 3438 
Q 3953 3666 3628 3772 
Q 3303 3878 2944 3878 
Q 2300 3878 1931 3465 
Q 1563 3053 1563 2328 
Q 1563 1606 1931 1193 
Q 2300 781 2944 781 
Q 3303 781 3628 887 
Q 3953 994 4288 1222 
L 4288 256 
z
" transform="scale(0.015625)"/>
     </defs>
     <use xlink:href="#DejaVuSans-Bold-4d"/>
     <use xlink:href="#DejaVuSans-Bold-45" transform="translate(99.511719 0)"/>
     <use xlink:href="#DejaVuSans-Bold-43" transform="translate(167.822266 0)"/>
    </g>
   </g>
   <g id="text_3">
    <!-- MDIC -->
    <g transform="translate(37.955714 233.466437) scale(0.08 -0.08)">
     <defs>
      <path id="DejaVuSans-Bold-44" d="M 1791 3756 
L 1791 909 
L 2222 909 
Q 2959 909 3348 1275 
Q 3738 1641 3738 2338 
Q 3738 3031 3350 3393 
Q 2963 3756 2222 3756 
L 1791 3756 
z
M 588 4666 
L 1856 4666 
Q 2919 4666 3439 4514 
Q 3959 4363 4331 4000 
Q 4659 3684 4818 3271 
Q 4978 2859 4978 2338 
Q 4978 1809 4818 1395 
Q 4659 981 4331 666 
Q 3956 303 3431 151 
Q 2906 0 1856 0 
L 588 0 
L 588 4666 
z
" transform="scale(0.015625)"/>
      <path id="DejaVuSans-Bold-49" d="M 588 4666 
L 1791 4666 
L 1791 0 
L 588 0 
L 588 4666 
z
" transform="scale(0.015625)"/>
     </defs>
     <use xlink:href="#DejaVuSans-Bold-4d"/>
     <use xlink:href="#DejaVuSans-Bold-44" transform="translate(99.511719 0)"/>
     <use xlink:href="#DejaVuSans-Bold-49" transform="translate(182.519531 0)"/>
     <use xlink:href="#DejaVuSans-Bold-43" transform="translate(219.726562 0)"/>
    </g>
   </g>
   <g id="text_4">
    <!-- MJ -->
    <g transform="translate(50.468214 195.450437) scale(0.08 -0.08)">
     <defs>
      <path id="DejaVuSans-Bold-4a" d="M 588 4666 
L 1791 4666 
L 1791 453 
Q 1791 -419 1317 -850 
Q 844 -1281 -116 -1281 
L -359 -1281 
L -359 -372 
L -172 -372 
Q 203 -372 395 -162 
Q 588 47 588 453 
L 588 4666 
z
" transform="scale(0.015625)"/>
     </defs>
     <use xlink:href="#DejaVuSans-Bold-4d"/>
     <use xlink:href="#DejaVuSans-Bold-4a" transform="translate(99.511719 0)"/>
    </g>
   </g>
   <g id="text_5">
    <!-- MD -->
    <g transform="translate(46.803214 157.434437) scale(0.08 -0.08)">
     <use xlink:href="#DejaVuSans-Bold-4d"/>
     <use xlink:href="#DejaVuSans-Bold-44" transform="translate(99.511719 0)"/>
    </g>
   </g>
   <g id="text_6">
    <!-- ME -->
    <g transform="translate(47.979464 119.418437) scale(0.08 -0.08)">
     <use xlink:href="#DejaVuSans-Bold-4d"/>
     <use xlink:href="#DejaVuSans-Bold-45" transform="translate(99.511719 0)"/>
    </g>
   </g>
   <g id="text_7">
    <!-- MMA -->
    <g transform="translate(39.291964 81.402437) scale(0.08 -0.08)">
     <defs>
      <path id="DejaVuSans-Bold-41" d="M 3419 850 
L 1538 850 
L 1241 0 
L 31 0 
L 1759 4666 
L 3194 4666 
L 4922 0 
L 3713 0 
L 3419 850 
z
M 1838 1716 
L 3116 1716 
L 2478 3572 
L 1838 1716 
z
" transform="scale(0.015625)"/>
     </defs>
     <use xlink:href="#DejaVuSans-Bold-4d"/>
     <use xlink:href="#DejaVuSans-Bold-4d" transform="translate(99.511719 0)"/>
     <use xlink:href="#DejaVuSans-Bold-41" transform="translate(199.023438 0)"/>
    </g>
   </g>
   <g id="text_8">
    <!-- MCTI -->
    <g transform="translate(39.139464 43.386437) scale(0.08 -0.08)">
     <defs>
      <path id="DejaVuSans-Bold-54" d="M 31 4666 
L 4331 4666 
L 4331 3756 
L 2784 3756 
L 2784 0 
L 1581 0 
L 1581 3756 
L 31 3756 
L 31 4666 
z
" transform="scale(0.015625)"/>
     </defs>
     <use xlink:href="#DejaVuSans-Bold-4d"/>
     <use xlink:href="#DejaVuSans-Bold-43" transform="translate(99.511719 0)"/>
     <use xlink:href="#DejaVuSans-Bold-54" transform="translate(172.900391 0)"/>
     <use xlink:href="#DejaVuSans-Bold-49" transform="translate(241.113281 0)"/>
    </g>
   </g>
   <g id="text_9">
    <!-- AlphaTech -->
    <g style="fill: #922b21" transform="translate(399.394286 309.498437) scale(0.08 -0.08)">
     <defs>
      <path id="DejaVuSans-Bold-6c" d="M 538 4863 
L 1656 4863 
L 1656 0 
L 538 0 
L 538 4863 
z
" transform="scale(0.015625)"/>
      <path id="DejaVuSans-Bold-70" d="M 1656 506 
L 1656 -1331 
L 538 -1331 
L 538 3500 
L 1656 3500 
L 1656 2988 
Q 1888 3294 2169 3439 
Q 2450 3584 2816 3584 
Q 3463 3584 3878 3070 
Q 4294 2556 4294 1747 
Q 4294 938 3878 423 
Q 3463 -91 2816 -91 
Q 2450 -91 2169 54 
Q 1888 200 1656 506 
z
M 2400 2772 
Q 2041 2772 1848 2508 
Q 1656 2244 1656 1747 
Q 1656 1250 1848 986 
Q 2041 722 2400 722 
Q 2759 722 2948 984 
Q 3138 1247 3138 1747 
Q 3138 2247 2948 2509 
Q 2759 2772 2400 2772 
z
" transform="scale(0.015625)"/>
      <path id="DejaVuSans-Bold-68" d="M 4056 2131 
L 4056 0 
L 2931 0 
L 2931 347 
L 2931 1625 
Q 2931 2084 2911 2256 
Q 2891 2428 2841 2509 
Q 2775 2619 2662 2680 
Q 2550 2741 2406 2741 
Q 2056 2741 1856 2470 
Q 1656 2200 1656 1722 
L 1656 0 
L 538 0 
L 538 4863 
L 1656 4863 
L 1656 2988 
Q 1909 3294 2193 3439 
Q 2478 3584 2822 3584 
Q 3428 3584 3742 3212 
Q 4056 2841 4056 2131 
z
" transform="scale(0.015625)"/>
      <path id="DejaVuSans-Bold-61" d="M 2106 1575 
Q 1756 1575 1579 1456 
Q 1403 1338 1403 1106 
Q 1403 894 1545 773 
Q 1688 653 1941 653 
Q 2256 653 2472 879 
Q 2688 1106 2688 1447 
L 2688 1575 
L 2106 1575 
z
M 3816 1997 
L 3816 0 
L 2688 0 
L 2688 519 
Q 2463 200 2181 54 
Q 1900 -91 1497 -91 
Q 953 -91 614 226 
Q 275 544 275 1050 
Q 275 1666 698 1953 
Q 1122 2241 2028 2241 
L 2688 2241 
L 2688 2328 
Q 2688 2594 2478 2717 
Q 2269 2841 1825 2841 
Q 1466 2841 1156 2769 
Q 847 2697 581 2553 
L 581 3406 
Q 941 3494 1303 3539 
Q 1666 3584 2028 3584 
Q 2975 3584 3395 3211 
Q 3816 2838 3816 1997 
z
" transform="scale(0.015625)"/>
      <path id="DejaVuSans-Bold-65" d="M 4031 1759 
L 4031 1441 
L 1416 1441 
Q 1456 1047 1700 850 
Q 1944 653 2381 653 
Q 2734 653 3104 758 
Q 3475 863 3866 1075 
L 3866 213 
Q 3469 63 3072 -14 
Q 2675 -91 2278 -91 
Q 1328 -91 801 392 
Q 275 875 275 1747 
Q 275 2603 792 3093 
Q 1309 3584 2216 3584 
Q 3041 3584 3536 3087 
Q 4031 2591 4031 1759 
z
M 2881 2131 
Q 2881 2450 2695 2645 
Q 2509 2841 2209 2841 
Q 1884 2841 1681 2658 
Q 1478 2475 1428 2131 
L 2881 2131 
z
" transform="scale(0.015625)"/>
      <path id="DejaVuSans-Bold-63" d="M 3366 3391 
L 3366 2478 
Q 3138 2634 2908 2709 
Q 2678 2784 2431 2784 
Q 1963 2784 1702 2511 
Q 1441 2238 1441 1747 
Q 1441 1256 1702 982 
Q 1963 709 2431 709 
Q 2694 709 2930 787 
Q 3166 866 3366 1019 
L 3366 103 
Q 3103 6 2833 -42 
Q 2563 -91 2291 -91 
Q 1344 -91 809 395 
Q 275 881 275 1747 
Q 275 2613 809 3098 
Q 1344 3584 2291 3584 
Q 2566 3584 2833 3536 
Q 3100 3488 3366 3391 
z
" transform="scale(0.015625)"/>
     </defs>
     <use xlink:href="#DejaVuSans-Bold-41"/>
     <use xlink:href="#DejaVuSans-Bold-6c" transform="translate(77.392578 0)"/>
     <use xlink:href="#DejaVuSans-Bold-70" transform="translate(111.669922 0)"/>
     <use xlink:href="#DejaVuSans-Bold-68" transform="translate(183.251953 0)"/>
     <use xlink:href="#DejaVuSans-Bold-61" transform="translate(254.443359 0)"/>
     <use xlink:href="#DejaVuSans-Bold-54" transform="translate(321.923828 0)"/>
     <use xlink:href="#DejaVuSans-Bold-65" transform="translate(376.886719 0)"/>
     <use xlink:href="#DejaVuSans-Bold-63" transform="translate(444.708984 0)"/>
     <use xlink:href="#DejaVuSans-Bold-68" transform="translate(503.986328 0)"/>
    </g>
   </g>
   <g id="text_10">
    <!-- BetaSys -->
    <g style="fill: #922b21" transform="translate(399.394286 265.083937) scale(0.08 -0.08)">
     <defs>
      <path id="DejaVuSans-Bold-42" d="M 2456 2859 
Q 2741 2859 2887 2984 
Q 3034 3109 3034 3353 
Q 3034 3594 2887 3720 
Q 2741 3847 2456 3847 
L 1791 3847 
L 1791 2859 
L 2456 2859 
z
M 2497 819 
Q 2859 819 3042 972 
Q 3225 1125 3225 1434 
Q 3225 1738 3044 1889 
Q 2863 2041 2497 2041 
L 1791 2041 
L 1791 819 
L 2497 819 
z
M 3616 2497 
Q 4003 2384 4215 2081 
Q 4428 1778 4428 1338 
Q 4428 663 3972 331 
Q 3516 0 2584 0 
L 588 0 
L 588 4666 
L 2394 4666 
Q 3366 4666 3802 4372 
Q 4238 4078 4238 3431 
Q 4238 3091 4078 2852 
Q 3919 2613 3616 2497 
z
" transform="scale(0.015625)"/>
      <path id="DejaVuSans-Bold-74" d="M 1759 4494 
L 1759 3500 
L 2913 3500 
L 2913 2700 
L 1759 2700 
L 1759 1216 
Q 1759 972 1856 886 
Q 1953 800 2241 800 
L 2816 800 
L 2816 0 
L 1856 0 
Q 1194 0 917 276 
Q 641 553 641 1216 
L 641 2700 
L 84 2700 
L 84 3500 
L 641 3500 
L 641 4494 
L 1759 4494 
z
" transform="scale(0.015625)"/>
      <path id="DejaVuSans-Bold-79" d="M 78 3500 
L 1197 3500 
L 2138 1125 
L 2938 3500 
L 4056 3500 
L 2584 -331 
Q 2363 -916 2067 -1148 
Q 1772 -1381 1288 -1381 
L 641 -1381 
L 641 -647 
L 991 -647 
Q 1275 -647 1404 -556 
Q 1534 -466 1606 -231 
L 1638 -134 
L 78 3500 
z
" transform="scale(0.015625)"/>
      <path id="DejaVuSans-Bold-73" d="M 3272 3391 
L 3272 2541 
Q 2913 2691 2578 2766 
Q 2244 2841 1947 2841 
Q 1628 2841 1473 2761 
Q 1319 2681 1319 2516 
Q 1319 2381 1436 2309 
Q 1553 2238 1856 2203 
L 2053 2175 
Q 2913 2066 3209 1816 
Q 3506 1566 3506 1031 
Q 3506 472 3093 190 
Q 2681 -91 1863 -91 
Q 1516 -91 1145 -36 
Q 775 19 384 128 
L 384 978 
Q 719 816 1070 734 
Q 1422 653 1784 653 
Q 2113 653 2278 743 
Q 2444 834 2444 1013 
Q 2444 1163 2330 1236 
Q 2216 1309 1875 1350 
L 1678 1375 
Q 931 1469 631 1722 
Q 331 1975 331 2491 
Q 331 3047 712 3315 
Q 1094 3584 1881 3584 
Q 2191 3584 2531 3537 
Q 2872 3491 3272 3391 
z
" transform="scale(0.015625)"/>
     </defs>
     <use xlink:href="#DejaVuSans-Bold-42"/>
     <use xlink:href="#DejaVuSans-Bold-65" transform="translate(76.220703 0)"/>
     <use xlink:href="#DejaVuSans-Bold-74" transform="translate(144.042969 0)"/>
     <use xlink:href="#DejaVuSans-Bold-61" transform="translate(191.845703 0)"/>
     <use xlink:href="#DejaVuSans-Bold-53" transform="translate(259.326172 0)"/>
     <use xlink:href="#DejaVuSans-Bold-79" transform="translate(331.347656 0)"/>
     <use xlink:href="#DejaVuSans-Bold-73" transform="translate(396.533203 0)"/>
    </g>
   </g>
   <g id="text_11">
    <!-- GammaSol -->
    <g style="fill: #922b21" transform="translate(399.394286 220.794437) scale(0.08 -0.08)">
     <defs>
      <path id="DejaVuSans-Bold-47" d="M 4781 347 
Q 4331 128 3847 18 
Q 3363 -91 2847 -91 
Q 1681 -91 1000 561 
Q 319 1213 319 2328 
Q 319 3456 1012 4103 
Q 1706 4750 2913 4750 
Q 3378 4750 3804 4662 
Q 4231 4575 4609 4403 
L 4609 3438 
Q 4219 3659 3833 3768 
Q 3447 3878 3059 3878 
Q 2341 3878 1952 3476 
Q 1563 3075 1563 2328 
Q 1563 1588 1938 1184 
Q 2313 781 3003 781 
Q 3191 781 3352 804 
Q 3513 828 3641 878 
L 3641 1784 
L 2906 1784 
L 2906 2591 
L 4781 2591 
L 4781 347 
z
" transform="scale(0.015625)"/>
      <path id="DejaVuSans-Bold-6d" d="M 3781 2919 
Q 3994 3244 4286 3414 
Q 4578 3584 4928 3584 
Q 5531 3584 5847 3212 
Q 6163 2841 6163 2131 
L 6163 0 
L 5038 0 
L 5038 1825 
Q 5041 1866 5042 1909 
Q 5044 1953 5044 2034 
Q 5044 2406 4934 2573 
Q 4825 2741 4581 2741 
Q 4263 2741 4089 2478 
Q 3916 2216 3909 1719 
L 3909 0 
L 2784 0 
L 2784 1825 
Q 2784 2406 2684 2573 
Q 2584 2741 2328 2741 
Q 2006 2741 1831 2477 
Q 1656 2213 1656 1722 
L 1656 0 
L 531 0 
L 531 3500 
L 1656 3500 
L 1656 2988 
Q 1863 3284 2130 3434 
Q 2397 3584 2719 3584 
Q 3081 3584 3359 3409 
Q 3638 3234 3781 2919 
z
" transform="scale(0.015625)"/>
      <path id="DejaVuSans-Bold-6f" d="M 2203 2784 
Q 1831 2784 1636 2517 
Q 1441 2250 1441 1747 
Q 1441 1244 1636 976 
Q 1831 709 2203 709 
Q 2569 709 2762 976 
Q 2956 1244 2956 1747 
Q 2956 2250 2762 2517 
Q 2569 2784 2203 2784 
z
M 2203 3584 
Q 3106 3584 3614 3096 
Q 4122 2609 4122 1747 
Q 4122 884 3614 396 
Q 3106 -91 2203 -91 
Q 1297 -91 786 396 
Q 275 884 275 1747 
Q 275 2609 786 3096 
Q 1297 3584 2203 3584 
z
" transform="scale(0.015625)"/>
     </defs>
     <use xlink:href="#DejaVuSans-Bold-47"/>
     <use xlink:href="#DejaVuSans-Bold-61" transform="translate(82.080078 0)"/>
     <use xlink:href="#DejaVuSans-Bold-6d" transform="translate(149.560547 0)"/>
     <use xlink:href="#DejaVuSans-Bold-6d" transform="translate(253.759766 0)"/>
     <use xlink:href="#DejaVuSans-Bold-61" transform="translate(357.958984 0)"/>
     <use xlink:href="#DejaVuSans-Bold-53" transform="translate(425.439453 0)"/>
     <use xlink:href="#DejaVuSans-Bold-6f" transform="translate(497.460938 0)"/>
     <use xlink:href="#DejaVuSans-Bold-6c" transform="translate(566.162109 0)"/>
    </g>
   </g>
   <g id="text_12">
    <!-- DeltaTI -->
    <g style="fill: #922b21" transform="translate(399.394286 176.442437) scale(0.08 -0.08)">
     <use xlink:href="#DejaVuSans-Bold-44"/>
     <use xlink:href="#DejaVuSans-Bold-65" transform="translate(83.007812 0)"/>
     <use xlink:href="#DejaVuSans-Bold-6c" transform="translate(150.830078 0)"/>
     <use xlink:href="#DejaVuSans-Bold-74" transform="translate(185.107422 0)"/>
     <use xlink:href="#DejaVuSans-Bold-61" transform="translate(232.910156 0)"/>
     <use xlink:href="#DejaVuSans-Bold-54" transform="translate(300.390625 0)"/>
     <use xlink:href="#DejaVuSans-Bold-49" transform="translate(368.603516 0)"/>
    </g>
   </g>
   <g id="text_13">
    <!-- Epsilon -->
    <g style="fill: #922b21" transform="translate(399.394286 132.090437) scale(0.08 -0.08)">
     <defs>
      <path id="DejaVuSans-Bold-69" d="M 538 3500 
L 1656 3500 
L 1656 0 
L 538 0 
L 538 3500 
z
M 538 4863 
L 1656 4863 
L 1656 3950 
L 538 3950 
L 538 4863 
z
" transform="scale(0.015625)"/>
      <path id="DejaVuSans-Bold-6e" d="M 4056 2131 
L 4056 0 
L 2931 0 
L 2931 347 
L 2931 1631 
Q 2931 2084 2911 2256 
Q 2891 2428 2841 2509 
Q 2775 2619 2662 2680 
Q 2550 2741 2406 2741 
Q 2056 2741 1856 2470 
Q 1656 2200 1656 1722 
L 1656 0 
L 538 0 
L 538 3500 
L 1656 3500 
L 1656 2988 
Q 1909 3294 2193 3439 
Q 2478 3584 2822 3584 
Q 3428 3584 3742 3212 
Q 4056 2841 4056 2131 
z
" transform="scale(0.015625)"/>
     </defs>
     <use xlink:href="#DejaVuSans-Bold-45"/>
     <use xlink:href="#DejaVuSans-Bold-70" transform="translate(68.310547 0)"/>
     <use xlink:href="#DejaVuSans-Bold-73" transform="translate(139.892578 0)"/>
     <use xlink:href="#DejaVuSans-Bold-69" transform="translate(199.414062 0)"/>
     <use xlink:href="#DejaVuSans-Bold-6c" transform="translate(233.691406 0)"/>
     <use xlink:href="#DejaVuSans-Bold-6f" transform="translate(267.96875 0)"/>
     <use xlink:href="#DejaVuSans-Bold-6e" transform="translate(336.669922 0)"/>
    </g>
   </g>
   <g id="text_14">
    <!-- ZetaCorp -->
    <g style="fill: #922b21" transform="translate(399.394286 87.738437) scale(0.08 -0.08)">
     <defs>
      <path id="DejaVuSans-Bold-5a" d="M 359 4666 
L 4281 4666 
L 4281 3938 
L 1778 909 
L 4353 909 
L 4353 0 
L 288 0 
L 288 728 
L 2791 3756 
L 359 3756 
L 359 4666 
z
" transform="scale(0.015625)"/>
      <path id="DejaVuSans-Bold-72" d="M 3138 2547 
Q 2991 2616 2845 2648 
Q 2700 2681 2553 2681 
Q 2122 2681 1889 2404 
Q 1656 2128 1656 1613 
L 1656 0 
L 538 0 
L 538 3500 
L 1656 3500 
L 1656 2925 
Q 1872 3269 2151 3426 
Q 2431 3584 2822 3584 
Q 2878 3584 2943 3579 
Q 3009 3575 3134 3559 
L 3138 2547 
z
" transform="scale(0.015625)"/>
     </defs>
     <use xlink:href="#DejaVuSans-Bold-5a"/>
     <use xlink:href="#DejaVuSans-Bold-65" transform="translate(72.509766 0)"/>
     <use xlink:href="#DejaVuSans-Bold-74" transform="translate(140.332031 0)"/>
     <use xlink:href="#DejaVuSans-Bold-61" transform="translate(188.134766 0)"/>
     <use xlink:href="#DejaVuSans-Bold-43" transform="translate(255.615234 0)"/>
     <use xlink:href="#DejaVuSans-Bold-6f" transform="translate(329.003906 0)"/>
     <use xlink:href="#DejaVuSans-Bold-72" transform="translate(397.705078 0)"/>
     <use xlink:href="#DejaVuSans-Bold-70" transform="translate(447.021484 0)"/>
    </g>
   </g>
   <g id="text_15">
    <!-- GovTech -->
    <g style="fill: #922b21" transform="translate(399.394286 43.386437) scale(0.08 -0.08)">
     <defs>
      <path id="DejaVuSans-Bold-76" d="M 97 3500 
L 1216 3500 
L 2088 1081 
L 2956 3500 
L 4078 3500 
L 2700 0 
L 1472 0 
L 97 3500 
z
" transform="scale(0.015625)"/>
     </defs>
     <use xlink:href="#DejaVuSans-Bold-47"/>
     <use xlink:href="#DejaVuSans-Bold-6f" transform="translate(82.080078 0)"/>
     <use xlink:href="#DejaVuSans-Bold-76" transform="translate(150.78125 0)"/>
     <use xlink:href="#DejaVuSans-Bold-54" transform="translate(215.966797 0)"/>
     <use xlink:href="#DejaVuSans-Bold-65" transform="translate(270.929688 0)"/>
     <use xlink:href="#DejaVuSans-Bold-63" transform="translate(338.751953 0)"/>
     <use xlink:href="#DejaVuSans-Bold-68" transform="translate(398.029297 0)"/>
    </g>
   </g>
   <g id="patch_2">
    <path d="M 247.151684 30.570198 
Q 317.608412 68.661877 386.589888 105.955978 
" style="fill: none; stroke: #c0392b; stroke-width: 1.5; stroke-linecap: round"/>
    <path d="M 384.279127 102.660468 
L 386.589888 105.955978 
L 382.567023 105.82728 
" style="fill: none; stroke: #c0392b; stroke-width: 1.5; stroke-linecap: round"/>
   </g>
   <g id="text_16">
    <g id="patch_3">
     <path d="M 166.628571 29.118656 
L 276.768884 29.118656 
Q 279.468884 29.118656 279.468884 26.418656 
L 279.468884 7.129687 
Q 279.468884 4.429687 276.768884 4.429687 
L 166.628571 4.429687 
Q 163.928571 4.429687 163.928571 7.129687 
L 163.928571 26.418656 
Q 163.928571 29.118656 166.628571 29.118656 
z
" style="fill: #fadbd8; stroke: #c0392b; stroke-linejoin: miter"/>
    </g>
    <!-- Oligopólio Core -->
    <g style="fill: #c0392b" transform="translate(166.628571 14.398594) scale(0.09 -0.09)">
     <defs>
      <path id="DejaVuSans-Bold-4f" d="M 2719 3878 
Q 2169 3878 1866 3472 
Q 1563 3066 1563 2328 
Q 1563 1594 1866 1187 
Q 2169 781 2719 781 
Q 3272 781 3575 1187 
Q 3878 1594 3878 2328 
Q 3878 3066 3575 3472 
Q 3272 3878 2719 3878 
z
M 2719 4750 
Q 3844 4750 4481 4106 
Q 5119 3463 5119 2328 
Q 5119 1197 4481 553 
Q 3844 -91 2719 -91 
Q 1597 -91 958 553 
Q 319 1197 319 2328 
Q 319 3463 958 4106 
Q 1597 4750 2719 4750 
z
" transform="scale(0.015625)"/>
      <path id="DejaVuSans-Bold-67" d="M 2919 594 
Q 2688 288 2409 144 
Q 2131 0 1766 0 
Q 1125 0 706 504 
Q 288 1009 288 1791 
Q 288 2575 706 3076 
Q 1125 3578 1766 3578 
Q 2131 3578 2409 3434 
Q 2688 3291 2919 2981 
L 2919 3500 
L 4044 3500 
L 4044 353 
Q 4044 -491 3511 -936 
Q 2978 -1381 1966 -1381 
Q 1638 -1381 1331 -1331 
Q 1025 -1281 716 -1178 
L 716 -306 
Q 1009 -475 1290 -558 
Q 1572 -641 1856 -641 
Q 2406 -641 2662 -400 
Q 2919 -159 2919 353 
L 2919 594 
z
M 2181 2772 
Q 1834 2772 1640 2515 
Q 1447 2259 1447 1791 
Q 1447 1309 1634 1061 
Q 1822 813 2181 813 
Q 2531 813 2725 1069 
Q 2919 1325 2919 1791 
Q 2919 2259 2725 2515 
Q 2531 2772 2181 2772 
z
" transform="scale(0.015625)"/>
      <path id="DejaVuSans-Bold-f3" d="M 2203 2784 
Q 1831 2784 1636 2517 
Q 1441 2250 1441 1747 
Q 1441 1244 1636 976 
Q 1831 709 2203 709 
Q 2569 709 2762 976 
Q 2956 1244 2956 1747 
Q 2956 2250 2762 2517 
Q 2569 2784 2203 2784 
z
M 2203 3584 
Q 3106 3584 3614 3096 
Q 4122 2609 4122 1747 
Q 4122 884 3614 396 
Q 3106 -91 2203 -91 
Q 1297 -91 786 396 
Q 275 884 275 1747 
Q 275 2609 786 3096 
Q 1297 3584 2203 3584 
z
M 2694 5119 
L 3578 5119 
L 2425 3944 
L 1813 3944 
L 2694 5119 
z
" transform="scale(0.015625)"/>
      <path id="DejaVuSans-Bold-20" transform="scale(0.015625)"/>
     </defs>
     <use xlink:href="#DejaVuSans-Bold-4f"/>
     <use xlink:href="#DejaVuSans-Bold-6c" transform="translate(85.009766 0)"/>
     <use xlink:href="#DejaVuSans-Bold-69" transform="translate(119.287109 0)"/>
     <use xlink:href="#DejaVuSans-Bold-67" transform="translate(153.564453 0)"/>
     <use xlink:href="#DejaVuSans-Bold-6f" transform="translate(225.146484 0)"/>
     <use xlink:href="#DejaVuSans-Bold-70" transform="translate(293.847656 0)"/>
     <use xlink:href="#DejaVuSans-Bold-f3" transform="translate(365.429688 0)"/>
     <use xlink:href="#DejaVuSans-Bold-6c" transform="translate(434.130859 0)"/>
     <use xlink:href="#DejaVuSans-Bold-69" transform="translate(468.408203 0)"/>
     <use xlink:href="#DejaVuSans-Bold-6f" transform="translate(502.685547 0)"/>
     <use xlink:href="#DejaVuSans-Bold-20" transform="translate(571.386719 0)"/>
     <use xlink:href="#DejaVuSans-Bold-43" transform="translate(606.201172 0)"/>
     <use xlink:href="#DejaVuSans-Bold-6f" transform="translate(679.589844 0)"/>
     <use xlink:href="#DejaVuSans-Bold-72" transform="translate(748.291016 0)"/>
     <use xlink:href="#DejaVuSans-Bold-65" transform="translate(797.607422 0)"/>
    </g>
    <!-- (87.2% market share) -->
    <g style="fill: #c0392b" transform="translate(166.628571 24.546937) scale(0.09 -0.09)">
     <defs>
      <path id="DejaVuSans-Bold-28" d="M 2413 -844 
L 1484 -844 
Q 1006 -72 778 623 
Q 550 1319 550 2003 
Q 550 2688 779 3389 
Q 1009 4091 1484 4856 
L 2413 4856 
Q 2013 4116 1813 3408 
Q 1613 2700 1613 2009 
Q 1613 1319 1811 609 
Q 2009 -100 2413 -844 
z
" transform="scale(0.015625)"/>
      <path id="DejaVuSans-Bold-38" d="M 2228 2088 
Q 1891 2088 1709 1903 
Q 1528 1719 1528 1375 
Q 1528 1031 1709 848 
Q 1891 666 2228 666 
Q 2563 666 2741 848 
Q 2919 1031 2919 1375 
Q 2919 1722 2741 1905 
Q 2563 2088 2228 2088 
z
M 1350 2484 
Q 925 2613 709 2878 
Q 494 3144 494 3541 
Q 494 4131 934 4440 
Q 1375 4750 2228 4750 
Q 3075 4750 3515 4442 
Q 3956 4134 3956 3541 
Q 3956 3144 3739 2878 
Q 3522 2613 3097 2484 
Q 3572 2353 3814 2058 
Q 4056 1763 4056 1313 
Q 4056 619 3595 264 
Q 3134 -91 2228 -91 
Q 1319 -91 855 264 
Q 391 619 391 1313 
Q 391 1763 633 2058 
Q 875 2353 1350 2484 
z
M 1631 3419 
Q 1631 3141 1786 2991 
Q 1941 2841 2228 2841 
Q 2509 2841 2662 2991 
Q 2816 3141 2816 3419 
Q 2816 3697 2662 3845 
Q 2509 3994 2228 3994 
Q 1941 3994 1786 3844 
Q 1631 3694 1631 3419 
z
" transform="scale(0.015625)"/>
      <path id="DejaVuSans-Bold-37" d="M 428 4666 
L 3944 4666 
L 3944 3988 
L 2125 0 
L 953 0 
L 2675 3781 
L 428 3781 
L 428 4666 
z
" transform="scale(0.015625)"/>
      <path id="DejaVuSans-Bold-2e" d="M 653 1209 
L 1778 1209 
L 1778 0 
L 653 0 
L 653 1209 
z
" transform="scale(0.015625)"/>
      <path id="DejaVuSans-Bold-32" d="M 1844 884 
L 3897 884 
L 3897 0 
L 506 0 
L 506 884 
L 2209 2388 
Q 2438 2594 2547 2791 
Q 2656 2988 2656 3200 
Q 2656 3528 2436 3728 
Q 2216 3928 1850 3928 
Q 1569 3928 1234 3808 
Q 900 3688 519 3450 
L 519 4475 
Q 925 4609 1322 4679 
Q 1719 4750 2100 4750 
Q 2938 4750 3402 4381 
Q 3866 4013 3866 3353 
Q 3866 2972 3669 2642 
Q 3472 2313 2841 1759 
L 1844 884 
z
" transform="scale(0.015625)"/>
      <path id="DejaVuSans-Bold-25" d="M 4959 1925 
Q 4738 1925 4616 1733 
Q 4494 1541 4494 1184 
Q 4494 825 4614 633 
Q 4734 441 4959 441 
Q 5184 441 5303 633 
Q 5422 825 5422 1184 
Q 5422 1541 5301 1733 
Q 5181 1925 4959 1925 
z
M 4959 2450 
Q 5541 2450 5875 2112 
Q 6209 1775 6209 1184 
Q 6209 594 5875 251 
Q 5541 -91 4959 -91 
Q 4378 -91 4042 251 
Q 3706 594 3706 1184 
Q 3706 1772 4042 2111 
Q 4378 2450 4959 2450 
z
M 2094 -91 
L 1403 -91 
L 4319 4750 
L 5013 4750 
L 2094 -91 
z
M 1453 4750 
Q 2034 4750 2367 4411 
Q 2700 4072 2700 3481 
Q 2700 2891 2367 2550 
Q 2034 2209 1453 2209 
Q 872 2209 539 2550 
Q 206 2891 206 3481 
Q 206 4072 539 4411 
Q 872 4750 1453 4750 
z
M 1453 4225 
Q 1228 4225 1106 4031 
Q 984 3838 984 3481 
Q 984 3122 1106 2926 
Q 1228 2731 1453 2731 
Q 1678 2731 1798 2926 
Q 1919 3122 1919 3481 
Q 1919 3838 1797 4031 
Q 1675 4225 1453 4225 
z
" transform="scale(0.015625)"/>
      <path id="DejaVuSans-Bold-6b" d="M 538 4863 
L 1656 4863 
L 1656 2216 
L 2944 3500 
L 4244 3500 
L 2534 1894 
L 4378 0 
L 3022 0 
L 1656 1459 
L 1656 0 
L 538 0 
L 538 4863 
z
" transform="scale(0.015625)"/>
      <path id="DejaVuSans-Bold-29" d="M 513 -844 
Q 913 -100 1113 609 
Q 1313 1319 1313 2009 
Q 1313 2700 1113 3408 
Q 913 4116 513 4856 
L 1441 4856 
Q 1916 4091 2145 3389 
Q 2375 2688 2375 2003 
Q 2375 1319 2147 623 
Q 1919 -72 1441 -844 
L 513 -844 
z
" transform="scale(0.015625)"/>
     </defs>
     <use xlink:href="#DejaVuSans-Bold-28"/>
     <use xlink:href="#DejaVuSans-Bold-38" transform="translate(45.703125 0)"/>
     <use xlink:href="#DejaVuSans-Bold-37" transform="translate(115.283203 0)"/>
     <use xlink:href="#DejaVuSans-Bold-2e" transform="translate(184.863281 0)"/>
     <use xlink:href="#DejaVuSans-Bold-32" transform="translate(222.851562 0)"/>
     <use xlink:href="#DejaVuSans-Bold-25" transform="translate(292.431641 0)"/>
     <use xlink:href="#DejaVuSans-Bold-20" transform="translate(392.626953 0)"/>
     <use xlink:href="#DejaVuSans-Bold-6d" transform="translate(427.441406 0)"/>
     <use xlink:href="#DejaVuSans-Bold-61" transform="translate(531.640625 0)"/>
     <use xlink:href="#DejaVuSans-Bold-72" transform="translate(599.121094 0)"/>
     <use xlink:href="#DejaVuSans-Bold-6b" transform="translate(648.4375 0)"/>
     <use xlink:href="#DejaVuSans-Bold-65" transform="translate(712.316406 0)"/>
     <use xlink:href="#DejaVuSans-Bold-74" transform="translate(780.138672 0)"/>
     <use xlink:href="#DejaVuSans-Bold-20" transform="translate(827.941406 0)"/>
     <use xlink:href="#DejaVuSans-Bold-73" transform="translate(862.755859 0)"/>
     <use xlink:href="#DejaVuSans-Bold-68" transform="translate(922.277344 0)"/>
     <use xlink:href="#DejaVuSans-Bold-61" transform="translate(993.46875 0)"/>
     <use xlink:href="#DejaVuSans-Bold-72" transform="translate(1060.949219 0)"/>
     <use xlink:href="#DejaVuSans-Bold-65" transform="translate(1110.265625 0)"/>
     <use xlink:href="#DejaVuSans-Bold-29" transform="translate(1178.087891 0)"/>
    </g>
   </g>
  </g>
 </g>
 <defs>
  <clipPath id="p5761df7422">
   <rect x="7.2" y="7.914937" width="446.4" height="332.64"/>
  </clipPath>
 </defs>
</svg>
