<?xml version="1.0" encoding="utf-8" standalone="no"?>
<!DOCTYPE svg PUBLIC "-//W3C//DTD SVG 1.1//EN"
  "http://www.w3.org/Graphics/SVG/1.1/DTD/svg11.dtd">
<svg xmlns:xlink="http://www.w3.org/1999/xlink" width="516.6pt" height="347.04pt" viewBox="0 0 516.6 347.04" xmlns="http://www.w3.org/2000/svg" version="1.1">
 <metadata>
  <rdf:RDF xmlns:dc="http://purl.org/dc/elements/1.1/" xmlns:cc="http://creativecommons.org/ns#" xmlns:rdf="http://www.w3.org/1999/02/22-rdf-syntax-ns#">
   <cc:Work>
    <dc:type rdf:resource="http://purl.org/dc/dcmitype/StillImage"/>
    <dc:date>2026-05-18T11:58:51.072935</dc:date>
    <dc:format>image/svg+xml</dc:format>
    <dc:creator>
     <cc:Agent>
      <dc:title>Matplotlib v3.10.8, https://matplotlib.org/</dc:title>
     </cc:Agent>
    </dc:creator>
   </cc:Work>
  </rdf:RDF>
 </metadata>
 <defs>
  <style type="text/css">*{stroke-linejoin: round; stroke-linecap: butt}</style>
 </defs>
 <g id="figure_1">
  <g id="patch_1">
   <path d="M 0 347.04 
L 516.6 347.04 
L 516.6 -0 
L 0 -0 
z
" style="fill: #ffffff"/>
  </g>
  <g id="axes_1">
   <g id="patch_2">
    <path d="M 132.75 256.68 
C 152.72775 256.68 171.889952 247.917738 186.016354 232.323 
C 200.142756 216.728262 208.08 195.57429 208.08 173.52 
C 208.08 151.46571 200.142756 130.311738 186.016354 114.717 
C 171.889952 99.122262 152.72775 90.36 132.75 90.36 
C 112.77225 90.36 93.610048 99.122262 79.483646 114.717 
C 65.357244 130.311738 57.42 151.46571 57.42 173.52 
C 57.42 195.57429 65.357244 216.728262 79.483646 232.323 
C 93.610048 247.917738 112.77225 256.68 132.75 256.68 
z
" clip-path="url(#pf34723cdf8)" style="fill: #e74c3c; opacity: 0.25; stroke: #000000; stroke-width: 2; stroke-linejoin: miter"/>
   </g>
   <g id="patch_3">
    <path d="M 258.3 256.68 
C 278.27775 256.68 297.439952 247.917738 311.566354 232.323 
C 325.692756 216.728262 333.63 195.57429 333.63 173.52 
C 333.63 151.46571 325.692756 130.311738 311.566354 114.717 
C 297.439952 99.122262 278.27775 90.36 258.3 90.36 
C 238.32225 90.36 219.160048 99.122262 205.033646 114.717 
C 190.907244 130.311738 182.97 151.46571 182.97 173.52 
C 182.97 195.57429 190.907244 216.728262 205.033646 232.323 
C 219.160048 247.917738 238.32225 256.68 258.3 256.68 
z
" clip-path="url(#pf34723cdf8)" style="fill: #2ecc71; opacity: 0.25; stroke: #000000; stroke-width: 2; stroke-linejoin: miter"/>
   </g>
   <g id="patch_4">
    <path d="M 383.85 256.68 
C 403.82775 256.68 422.989952 247.917738 437.116354 232.323 
C 451.242756 216.728262 459.18 195.57429 459.18 173.52 
C 459.18 151.46571 451.242756 130.311738 437.116354 114.717 
C 422.989952 99.122262 403.82775 90.36 383.85 90.36 
C 363.87225 90.36 344.710048 99.122262 330.583646 114.717 
C 316.457244 130.311738 308.52 151.46571 308.52 173.52 
C 308.52 195.57429 316.457244 216.728262 330.583646 232.323 
C 344.710048 247.917738 363.87225 256.68 383.85 256.68 
z
" clip-path="url(#pf34723cdf8)" style="fill: #3498db; opacity: 0.25; stroke: #000000; stroke-width: 2; stroke-linejoin: miter"/>
   </g>
   <g id="patch_5">
    <path d="M 17.244 334.296 
L 193.014 334.296 
Q 198.036 334.296 198.036 328.752 
L 198.036 273.312 
Q 198.036 267.768 193.014 267.768 
L 17.244 267.768 
Q 12.222 267.768 12.222 273.312 
L 12.222 328.752 
Q 12.222 334.296 17.244 334.296 
z
" clip-path="url(#pf34723cdf8)" style="fill: #fadbd8; stroke: #e74c3c; stroke-width: 1.2; stroke-linejoin: miter"/>
   </g>
   <g id="patch_6">
    <path d="M 323.586 334.296 
L 499.356 334.296 
Q 504.378 334.296 504.378 328.752 
L 504.378 273.312 
Q 504.378 267.768 499.356 267.768 
L 323.586 267.768 
Q 318.564 267.768 318.564 273.312 
L 318.564 328.752 
Q 318.564 334.296 323.586 334.296 
z
" clip-path="url(#pf34723cdf8)" style="fill: #d4e6f1; stroke: #3498db; stroke-width: 1.2; stroke-linejoin: miter"/>
   </g>
   <g id="text_1">
    <!-- Ciclo de -->
    <g transform="translate(110.542187 170.680469) scale(0.1 -0.1)">
     <defs>
      <path id="DejaVuSans-Bold-43" d="M 4288 256 
Q 3956 84 3597 -3 
Q 3238 -91 2847 -91 
Q 1681 -91 1000 561 
Q 319 1213 319 2328 
Q 319 3447 1000 4098 
Q 1681 4750 2847 4750 
Q 3238 4750 3597 4662 
Q 3956 4575 4288 4403 
L 4288 3438 
Q 3953 3666 3628 3772 
Q 3303 3878 2944 3878 
Q 2300 3878 1931 3465 
Q 1563 3053 1563 2328 
Q 1563 1606 1931 1193 
Q 2300 781 2944 781 
Q 3303 781 3628 887 
Q 3953 994 4288 1222 
L 4288 256 
z
" transform="scale(0.015625)"/>
      <path id="DejaVuSans-Bold-69" d="M 538 3500 
L 1656 3500 
L 1656 0 
L 538 0 
L 538 3500 
z
M 538 4863 
L 1656 4863 
L 1656 3950 
L 538 3950 
L 538 4863 
z
" transform="scale(0.015625)"/>
      <path id="DejaVuSans-Bold-63" d="M 3366 3391 
L 3366 2478 
Q 3138 2634 2908 2709 
Q 2678 2784 2431 2784 
Q 1963 2784 1702 2511 
Q 1441 2238 1441 1747 
Q 1441 1256 1702 982 
Q 1963 709 2431 709 
Q 2694 709 2930 787 
Q 3166 866 3366 1019 
L 3366 103 
Q 3103 6 2833 -42 
Q 2563 -91 2291 -91 
Q 1344 -91 809 395 
Q 275 881 275 1747 
Q 275 2613 809 3098 
Q 1344 3584 2291 3584 
Q 2566 3584 2833 3536 
Q 3100 3488 3366 3391 
z
" transform="scale(0.015625)"/>
      <path id="DejaVuSans-Bold-6c" d="M 538 4863 
L 1656 4863 
L 1656 0 
L 538 0 
L 538 4863 
z
" transform="scale(0.015625)"/>
      <path id="DejaVuSans-Bold-6f" d="M 2203 2784 
Q 1831 2784 1636 2517 
Q 1441 2250 1441 1747 
Q 1441 1244 1636 976 
Q 1831 709 2203 709 
Q 2569 709 2762 976 
Q 2956 1244 2956 1747 
Q 2956 2250 2762 2517 
Q 2569 2784 2203 2784 
z
M 2203 3584 
Q 3106 3584 3614 3096 
Q 4122 2609 4122 1747 
Q 4122 884 3614 396 
Q 3106 -91 2203 -91 
Q 1297 -91 786 396 
Q 275 884 275 1747 
Q 275 2609 786 3096 
Q 1297 3584 2203 3584 
z
" transform="scale(0.015625)"/>
      <path id="DejaVuSans-Bold-20" transform="scale(0.015625)"/>
      <path id="DejaVuSans-Bold-64" d="M 2919 2988 
L 2919 4863 
L 4044 4863 
L 4044 0 
L 2919 0 
L 2919 506 
Q 2688 197 2409 53 
Q 2131 -91 1766 -91 
Q 1119 -91 703 423 
Q 288 938 288 1747 
Q 288 2556 703 3070 
Q 1119 3584 1766 3584 
Q 2128 3584 2408 3439 
Q 2688 3294 2919 2988 
z
M 2181 722 
Q 2541 722 2730 984 
Q 2919 1247 2919 1747 
Q 2919 2247 2730 2509 
Q 2541 2772 2181 2772 
Q 1825 2772 1636 2509 
Q 1447 2247 1447 1747 
Q 1447 1247 1636 984 
Q 1825 722 2181 722 
z
" transform="scale(0.015625)"/>
      <path id="DejaVuSans-Bold-65" d="M 4031 1759 
L 4031 1441 
L 1416 1441 
Q 1456 1047 1700 850 
Q 1944 653 2381 653 
Q 2734 653 3104 758 
Q 3475 863 3866 1075 
L 3866 213 
Q 3469 63 3072 -14 
Q 2675 -91 2278 -91 
Q 1328 -91 801 392 
Q 275 875 275 1747 
Q 275 2603 792 3093 
Q 1309 3584 2216 3584 
Q 3041 3584 3536 3087 
Q 4031 2591 4031 1759 
z
M 2881 2131 
Q 2881 2450 2695 2645 
Q 2509 2841 2209 2841 
Q 1884 2841 1681 2658 
Q 1478 2475 1428 2131 
L 2881 2131 
z
" transform="scale(0.015625)"/>
     </defs>
     <use xlink:href="#DejaVuSans-Bold-43"/>
     <use xlink:href="#DejaVuSans-Bold-69" transform="translate(73.388672 0)"/>
     <use xlink:href="#DejaVuSans-Bold-63" transform="translate(107.666016 0)"/>
     <use xlink:href="#DejaVuSans-Bold-6c" transform="translate(166.943359 0)"/>
     <use xlink:href="#DejaVuSans-Bold-6f" transform="translate(201.220703 0)"/>
     <use xlink:href="#DejaVuSans-Bold-20" transform="translate(269.921875 0)"/>
     <use xlink:href="#DejaVuSans-Bold-64" transform="translate(304.736328 0)"/>
     <use xlink:href="#DejaVuSans-Bold-65" transform="translate(376.318359 0)"/>
    </g>
    <!-- Relevância -->
    <g transform="translate(102.157813 181.878281) scale(0.1 -0.1)">
     <defs>
      <path id="DejaVuSans-Bold-52" d="M 2297 2597 
Q 2675 2597 2839 2737 
Q 3003 2878 3003 3200 
Q 3003 3519 2839 3656 
Q 2675 3794 2297 3794 
L 1791 3794 
L 1791 2597 
L 2297 2597 
z
M 1791 1766 
L 1791 0 
L 588 0 
L 588 4666 
L 2425 4666 
Q 3347 4666 3776 4356 
Q 4206 4047 4206 3378 
Q 4206 2916 3982 2619 
Q 3759 2322 3309 2181 
Q 3556 2125 3751 1926 
Q 3947 1728 4147 1325 
L 4800 0 
L 3519 0 
L 2950 1159 
Q 2778 1509 2601 1637 
Q 2425 1766 2131 1766 
L 1791 1766 
z
" transform="scale(0.015625)"/>
      <path id="DejaVuSans-Bold-76" d="M 97 3500 
L 1216 3500 
L 2088 1081 
L 2956 3500 
L 4078 3500 
L 2700 0 
L 1472 0 
L 97 3500 
z
" transform="scale(0.015625)"/>
      <path id="DejaVuSans-Bold-e2" d="M 2106 1575 
Q 1756 1575 1579 1456 
Q 1403 1338 1403 1106 
Q 1403 894 1545 773 
Q 1688 653 1941 653 
Q 2256 653 2472 879 
Q 2688 1106 2688 1447 
L 2688 1575 
L 2106 1575 
z
M 3816 1997 
L 3816 0 
L 2688 0 
L 2688 519 
Q 2463 200 2181 54 
Q 1900 -91 1497 -91 
Q 953 -91 614 226 
Q 275 544 275 1050 
Q 275 1666 698 1953 
Q 1122 2241 2028 2241 
L 2688 2241 
L 2688 2328 
Q 2688 2594 2478 2717 
Q 2269 2841 1825 2841 
Q 1466 2841 1156 2769 
Q 847 2697 581 2553 
L 581 3406 
Q 941 3494 1303 3539 
Q 1666 3584 2028 3584 
Q 2975 3584 3395 3211 
Q 3816 2838 3816 1997 
z
M 1806 5119 
L 2562 5119 
L 3362 3944 
L 2806 3944 
L 2184 4647 
L 1562 3944 
L 1006 3944 
L 1806 5119 
z
" transform="scale(0.015625)"/>
      <path id="DejaVuSans-Bold-6e" d="M 4056 2131 
L 4056 0 
L 2931 0 
L 2931 347 
L 2931 1631 
Q 2931 2084 2911 2256 
Q 2891 2428 2841 2509 
Q 2775 2619 2662 2680 
Q 2550 2741 2406 2741 
Q 2056 2741 1856 2470 
Q 1656 2200 1656 1722 
L 1656 0 
L 538 0 
L 538 3500 
L 1656 3500 
L 1656 2988 
Q 1909 3294 2193 3439 
Q 2478 3584 2822 3584 
Q 3428 3584 3742 3212 
Q 4056 2841 4056 2131 
z
" transform="scale(0.015625)"/>
      <path id="DejaVuSans-Bold-61" d="M 2106 1575 
Q 1756 1575 1579 1456 
Q 1403 1338 1403 1106 
Q 1403 894 1545 773 
Q 1688 653 1941 653 
Q 2256 653 2472 879 
Q 2688 1106 2688 1447 
L 2688 1575 
L 2106 1575 
z
M 3816 1997 
L 3816 0 
L 2688 0 
L 2688 519 
Q 2463 200 2181 54 
Q 1900 -91 1497 -91 
Q 953 -91 614 226 
Q 275 544 275 1050 
Q 275 1666 698 1953 
Q 1122 2241 2028 2241 
L 2688 2241 
L 2688 2328 
Q 2688 2594 2478 2717 
Q 2269 2841 1825 2841 
Q 1466 2841 1156 2769 
Q 847 2697 581 2553 
L 581 3406 
Q 941 3494 1303 3539 
Q 1666 3584 2028 3584 
Q 2975 3584 3395 3211 
Q 3816 2838 3816 1997 
z
" transform="scale(0.015625)"/>
     </defs>
     <use xlink:href="#DejaVuSans-Bold-52"/>
     <use xlink:href="#DejaVuSans-Bold-65" transform="translate(77.001953 0)"/>
     <use xlink:href="#DejaVuSans-Bold-6c" transform="translate(144.824219 0)"/>
     <use xlink:href="#DejaVuSans-Bold-65" transform="translate(179.101562 0)"/>
     <use xlink:href="#DejaVuSans-Bold-76" transform="translate(246.923828 0)"/>
     <use xlink:href="#DejaVuSans-Bold-e2" transform="translate(312.109375 0)"/>
     <use xlink:href="#DejaVuSans-Bold-6e" transform="translate(379.589844 0)"/>
     <use xlink:href="#DejaVuSans-Bold-63" transform="translate(450.78125 0)"/>
     <use xlink:href="#DejaVuSans-Bold-69" transform="translate(510.058594 0)"/>
     <use xlink:href="#DejaVuSans-Bold-61" transform="translate(544.335938 0)"/>
    </g>
   </g>
   <g id="text_2">
    <!-- Ciclo de -->
    <g transform="translate(236.092188 170.641406) scale(0.1 -0.1)">
     <use xlink:href="#DejaVuSans-Bold-43"/>
     <use xlink:href="#DejaVuSans-Bold-69" transform="translate(73.388672 0)"/>
     <use xlink:href="#DejaVuSans-Bold-63" transform="translate(107.666016 0)"/>
     <use xlink:href="#DejaVuSans-Bold-6c" transform="translate(166.943359 0)"/>
     <use xlink:href="#DejaVuSans-Bold-6f" transform="translate(201.220703 0)"/>
     <use xlink:href="#DejaVuSans-Bold-20" transform="translate(269.921875 0)"/>
     <use xlink:href="#DejaVuSans-Bold-64" transform="translate(304.736328 0)"/>
     <use xlink:href="#DejaVuSans-Bold-65" transform="translate(376.318359 0)"/>
    </g>
    <!-- Design -->
    <g transform="translate(238.929688 181.839219) scale(0.1 -0.1)">
     <defs>
      <path id="DejaVuSans-Bold-44" d="M 1791 3756 
L 1791 909 
L 2222 909 
Q 2959 909 3348 1275 
Q 3738 1641 3738 2338 
Q 3738 3031 3350 3393 
Q 2963 3756 2222 3756 
L 1791 3756 
z
M 588 4666 
L 1856 4666 
Q 2919 4666 3439 4514 
Q 3959 4363 4331 4000 
Q 4659 3684 4818 3271 
Q 4978 2859 4978 2338 
Q 4978 1809 4818 1395 
Q 4659 981 4331 666 
Q 3956 303 3431 151 
Q 2906 0 1856 0 
L 588 0 
L 588 4666 
z
" transform="scale(0.015625)"/>
      <path id="DejaVuSans-Bold-73" d="M 3272 3391 
L 3272 2541 
Q 2913 2691 2578 2766 
Q 2244 2841 1947 2841 
Q 1628 2841 1473 2761 
Q 1319 2681 1319 2516 
Q 1319 2381 1436 2309 
Q 1553 2238 1856 2203 
L 2053 2175 
Q 2913 2066 3209 1816 
Q 3506 1566 3506 1031 
Q 3506 472 3093 190 
Q 2681 -91 1863 -91 
Q 1516 -91 1145 -36 
Q 775 19 384 128 
L 384 978 
Q 719 816 1070 734 
Q 1422 653 1784 653 
Q 2113 653 2278 743 
Q 2444 834 2444 1013 
Q 2444 1163 2330 1236 
Q 2216 1309 1875 1350 
L 1678 1375 
Q 931 1469 631 1722 
Q 331 1975 331 2491 
Q 331 3047 712 3315 
Q 1094 3584 1881 3584 
Q 2191 3584 2531 3537 
Q 2872 3491 3272 3391 
z
" transform="scale(0.015625)"/>
      <path id="DejaVuSans-Bold-67" d="M 2919 594 
Q 2688 288 2409 144 
Q 2131 0 1766 0 
Q 1125 0 706 504 
Q 288 1009 288 1791 
Q 288 2575 706 3076 
Q 1125 3578 1766 3578 
Q 2131 3578 2409 3434 
Q 2688 3291 2919 2981 
L 2919 3500 
L 4044 3500 
L 4044 353 
Q 4044 -491 3511 -936 
Q 2978 -1381 1966 -1381 
Q 1638 -1381 1331 -1331 
Q 1025 -1281 716 -1178 
L 716 -306 
Q 1009 -475 1290 -558 
Q 1572 -641 1856 -641 
Q 2406 -641 2662 -400 
Q 2919 -159 2919 353 
L 2919 594 
z
M 2181 2772 
Q 1834 2772 1640 2515 
Q 1447 2259 1447 1791 
Q 1447 1309 1634 1061 
Q 1822 813 2181 813 
Q 2531 813 2725 1069 
Q 2919 1325 2919 1791 
Q 2919 2259 2725 2515 
Q 2531 2772 2181 2772 
z
" transform="scale(0.015625)"/>
     </defs>
     <use xlink:href="#DejaVuSans-Bold-44"/>
     <use xlink:href="#DejaVuSans-Bold-65" transform="translate(83.007812 0)"/>
     <use xlink:href="#DejaVuSans-Bold-73" transform="translate(150.830078 0)"/>
     <use xlink:href="#DejaVuSans-Bold-69" transform="translate(210.351562 0)"/>
     <use xlink:href="#DejaVuSans-Bold-67" transform="translate(244.628906 0)"/>
     <use xlink:href="#DejaVuSans-Bold-6e" transform="translate(316.210938 0)"/>
    </g>
   </g>
   <g id="text_3">
    <!-- Ciclo de -->
    <g transform="translate(361.642188 170.641406) scale(0.1 -0.1)">
     <use xlink:href="#DejaVuSans-Bold-43"/>
     <use xlink:href="#DejaVuSans-Bold-69" transform="translate(73.388672 0)"/>
     <use xlink:href="#DejaVuSans-Bold-63" transform="translate(107.666016 0)"/>
     <use xlink:href="#DejaVuSans-Bold-6c" transform="translate(166.943359 0)"/>
     <use xlink:href="#DejaVuSans-Bold-6f" transform="translate(201.220703 0)"/>
     <use xlink:href="#DejaVuSans-Bold-20" transform="translate(269.921875 0)"/>
     <use xlink:href="#DejaVuSans-Bold-64" transform="translate(304.736328 0)"/>
     <use xlink:href="#DejaVuSans-Bold-65" transform="translate(376.318359 0)"/>
    </g>
    <!-- Rigor -->
    <g transform="translate(368.80625 181.839219) scale(0.1 -0.1)">
     <defs>
      <path id="DejaVuSans-Bold-72" d="M 3138 2547 
Q 2991 2616 2845 2648 
Q 2700 2681 2553 2681 
Q 2122 2681 1889 2404 
Q 1656 2128 1656 1613 
L 1656 0 
L 538 0 
L 538 3500 
L 1656 3500 
L 1656 2925 
Q 1872 3269 2151 3426 
Q 2431 3584 2822 3584 
Q 2878 3584 2943 3579 
Q 3009 3575 3134 3559 
L 3138 2547 
z
" transform="scale(0.015625)"/>
     </defs>
     <use xlink:href="#DejaVuSans-Bold-52"/>
     <use xlink:href="#DejaVuSans-Bold-69" transform="translate(77.001953 0)"/>
     <use xlink:href="#DejaVuSans-Bold-67" transform="translate(111.279297 0)"/>
     <use xlink:href="#DejaVuSans-Bold-6f" transform="translate(182.861328 0)"/>
     <use xlink:href="#DejaVuSans-Bold-72" transform="translate(251.5625 0)"/>
    </g>
   </g>
   <g id="patch_7">
    <path d="M 187.477049 173.52 
Q 195.522578 173.52 201.891057 173.52 
" style="fill: none; stroke: #555555; stroke-width: 1.5; stroke-linecap: round"/>
    <path d="M 197.491057 171.32 
L 201.891057 173.52 
L 197.491057 175.72 
" style="fill: none; stroke: #555555; stroke-width: 1.5; stroke-linecap: round"/>
   </g>
   <g id="patch_8">
    <path d="M 313.027049 173.52 
Q 321.072578 173.52 327.441057 173.52 
" style="fill: none; stroke: #555555; stroke-width: 1.5; stroke-linecap: round"/>
    <path d="M 323.041057 171.32 
L 327.441057 173.52 
L 323.041057 175.72 
" style="fill: none; stroke: #555555; stroke-width: 1.5; stroke-linecap: round"/>
   </g>
   <g id="text_4">
    <!-- Ambiente de Aplicação: -->
    <g style="fill: #922b21" transform="translate(45.239625 298.341281) scale(0.09 -0.09)">
     <defs>
      <path id="DejaVuSans-Bold-41" d="M 3419 850 
L 1538 850 
L 1241 0 
L 31 0 
L 1759 4666 
L 3194 4666 
L 4922 0 
L 3713 0 
L 3419 850 
z
M 1838 1716 
L 3116 1716 
L 2478 3572 
L 1838 1716 
z
" transform="scale(0.015625)"/>
      <path id="DejaVuSans-Bold-6d" d="M 3781 2919 
Q 3994 3244 4286 3414 
Q 4578 3584 4928 3584 
Q 5531 3584 5847 3212 
Q 6163 2841 6163 2131 
L 6163 0 
L 5038 0 
L 5038 1825 
Q 5041 1866 5042 1909 
Q 5044 1953 5044 2034 
Q 5044 2406 4934 2573 
Q 4825 2741 4581 2741 
Q 4263 2741 4089 2478 
Q 3916 2216 3909 1719 
L 3909 0 
L 2784 0 
L 2784 1825 
Q 2784 2406 2684 2573 
Q 2584 2741 2328 2741 
Q 2006 2741 1831 2477 
Q 1656 2213 1656 1722 
L 1656 0 
L 531 0 
L 531 3500 
L 1656 3500 
L 1656 2988 
Q 1863 3284 2130 3434 
Q 2397 3584 2719 3584 
Q 3081 3584 3359 3409 
Q 3638 3234 3781 2919 
z
" transform="scale(0.015625)"/>
      <path id="DejaVuSans-Bold-62" d="M 2400 722 
Q 2759 722 2948 984 
Q 3138 1247 3138 1747 
Q 3138 2247 2948 2509 
Q 2759 2772 2400 2772 
Q 2041 2772 1848 2508 
Q 1656 2244 1656 1747 
Q 1656 1250 1848 986 
Q 2041 722 2400 722 
z
M 1656 2988 
Q 1888 3294 2169 3439 
Q 2450 3584 2816 3584 
Q 3463 3584 3878 3070 
Q 4294 2556 4294 1747 
Q 4294 938 3878 423 
Q 3463 -91 2816 -91 
Q 2450 -91 2169 54 
Q 1888 200 1656 506 
L 1656 0 
L 538 0 
L 538 4863 
L 1656 4863 
L 1656 2988 
z
" transform="scale(0.015625)"/>
      <path id="DejaVuSans-Bold-74" d="M 1759 4494 
L 1759 3500 
L 2913 3500 
L 2913 2700 
L 1759 2700 
L 1759 1216 
Q 1759 972 1856 886 
Q 1953 800 2241 800 
L 2816 800 
L 2816 0 
L 1856 0 
Q 1194 0 917 276 
Q 641 553 641 1216 
L 641 2700 
L 84 2700 
L 84 3500 
L 641 3500 
L 641 4494 
L 1759 4494 
z
" transform="scale(0.015625)"/>
      <path id="DejaVuSans-Bold-70" d="M 1656 506 
L 1656 -1331 
L 538 -1331 
L 538 3500 
L 1656 3500 
L 1656 2988 
Q 1888 3294 2169 3439 
Q 2450 3584 2816 3584 
Q 3463 3584 3878 3070 
Q 4294 2556 4294 1747 
Q 4294 938 3878 423 
Q 3463 -91 2816 -91 
Q 2450 -91 2169 54 
Q 1888 200 1656 506 
z
M 2400 2772 
Q 2041 2772 1848 2508 
Q 1656 2244 1656 1747 
Q 1656 1250 1848 986 
Q 2041 722 2400 722 
Q 2759 722 2948 984 
Q 3138 1247 3138 1747 
Q 3138 2247 2948 2509 
Q 2759 2772 2400 2772 
z
" transform="scale(0.015625)"/>
      <path id="DejaVuSans-Bold-e7" d="M 3366 3391 
L 3366 2478 
Q 3138 2634 2908 2709 
Q 2678 2784 2431 2784 
Q 1963 2784 1702 2511 
Q 1441 2238 1441 1747 
Q 1441 1256 1702 982 
Q 1963 709 2431 709 
Q 2694 709 2930 787 
Q 3166 866 3366 1019 
L 3366 103 
Q 3103 6 2833 -42 
Q 2563 -91 2291 -91 
Q 1344 -91 809 395 
Q 275 881 275 1747 
Q 275 2613 809 3098 
Q 1344 3584 2291 3584 
Q 2566 3584 2833 3536 
Q 3100 3488 3366 3391 
z
M 2457 0 
Q 2639 -194 2724 -359 
Q 2810 -525 2810 -672 
Q 2810 -969 2618 -1111 
Q 2426 -1253 2029 -1253 
Q 1879 -1253 1719 -1233 
Q 1560 -1213 1398 -1172 
L 1395 -697 
Q 1551 -747 1680 -770 
Q 1810 -794 1914 -794 
Q 2095 -794 2196 -722 
Q 2298 -650 2298 -525 
Q 2298 -444 2231 -316 
Q 2164 -188 2023 0 
L 2457 0 
z
" transform="scale(0.015625)"/>
      <path id="DejaVuSans-Bold-e3" d="M 2106 1575 
Q 1756 1575 1579 1456 
Q 1403 1338 1403 1106 
Q 1403 894 1545 773 
Q 1688 653 1941 653 
Q 2256 653 2472 879 
Q 2688 1106 2688 1447 
L 2688 1575 
L 2106 1575 
z
M 3816 1997 
L 3816 0 
L 2688 0 
L 2688 519 
Q 2463 200 2181 54 
Q 1900 -91 1497 -91 
Q 953 -91 614 226 
Q 275 544 275 1050 
Q 275 1666 698 1953 
Q 1122 2241 2028 2241 
L 2688 2241 
L 2688 2328 
Q 2688 2594 2478 2717 
Q 2269 2841 1825 2841 
Q 1466 2841 1156 2769 
Q 847 2697 581 2553 
L 581 3406 
Q 941 3494 1303 3539 
Q 1666 3584 2028 3584 
Q 2975 3584 3395 3211 
Q 3816 2838 3816 1997 
z
M 2190 4263 
L 2018 4378 
Q 2006 4384 1987 4397 
Q 1840 4494 1762 4494 
Q 1650 4494 1590 4397 
Q 1531 4300 1531 4116 
L 1531 4091 
L 1097 4091 
Q 1097 4516 1257 4747 
Q 1418 4978 1709 4978 
Q 1822 4978 1936 4936 
Q 2050 4894 2178 4800 
L 2368 4666 
Q 2437 4619 2495 4594 
Q 2553 4569 2600 4569 
Q 2712 4569 2774 4669 
Q 2837 4769 2837 4947 
L 2837 4972 
L 3272 4972 
Q 3272 4547 3111 4315 
Q 2950 4084 2659 4084 
Q 2547 4084 2442 4121 
Q 2337 4159 2190 4263 
z
" transform="scale(0.015625)"/>
      <path id="DejaVuSans-Bold-3a" d="M 716 3500 
L 1844 3500 
L 1844 2291 
L 716 2291 
L 716 3500 
z
M 716 1209 
L 1844 1209 
L 1844 0 
L 716 0 
L 716 1209 
z
" transform="scale(0.015625)"/>
     </defs>
     <use xlink:href="#DejaVuSans-Bold-41"/>
     <use xlink:href="#DejaVuSans-Bold-6d" transform="translate(77.392578 0)"/>
     <use xlink:href="#DejaVuSans-Bold-62" transform="translate(181.591797 0)"/>
     <use xlink:href="#DejaVuSans-Bold-69" transform="translate(253.173828 0)"/>
     <use xlink:href="#DejaVuSans-Bold-65" transform="translate(287.451172 0)"/>
     <use xlink:href="#DejaVuSans-Bold-6e" transform="translate(355.273438 0)"/>
     <use xlink:href="#DejaVuSans-Bold-74" transform="translate(426.464844 0)"/>
     <use xlink:href="#DejaVuSans-Bold-65" transform="translate(474.267578 0)"/>
     <use xlink:href="#DejaVuSans-Bold-20" transform="translate(542.089844 0)"/>
     <use xlink:href="#DejaVuSans-Bold-64" transform="translate(576.904297 0)"/>
     <use xlink:href="#DejaVuSans-Bold-65" transform="translate(648.486328 0)"/>
     <use xlink:href="#DejaVuSans-Bold-20" transform="translate(716.308594 0)"/>
     <use xlink:href="#DejaVuSans-Bold-41" transform="translate(751.123047 0)"/>
     <use xlink:href="#DejaVuSans-Bold-70" transform="translate(828.515625 0)"/>
     <use xlink:href="#DejaVuSans-Bold-6c" transform="translate(900.097656 0)"/>
     <use xlink:href="#DejaVuSans-Bold-69" transform="translate(934.375 0)"/>
     <use xlink:href="#DejaVuSans-Bold-63" transform="translate(968.652344 0)"/>
     <use xlink:href="#DejaVuSans-Bold-61" transform="translate(1027.929688 0)"/>
     <use xlink:href="#DejaVuSans-Bold-e7" transform="translate(1095.410156 0)"/>
     <use xlink:href="#DejaVuSans-Bold-e3" transform="translate(1154.6875 0)"/>
     <use xlink:href="#DejaVuSans-Bold-6f" transform="translate(1222.167969 0)"/>
     <use xlink:href="#DejaVuSans-Bold-3a" transform="translate(1290.869141 0)"/>
    </g>
    <!-- Compras Públicas Brasileiras -->
    <g style="fill: #922b21" transform="translate(31.588453 308.851313) scale(0.09 -0.09)">
     <defs>
      <path id="DejaVuSans-Bold-50" d="M 588 4666 
L 2584 4666 
Q 3475 4666 3951 4270 
Q 4428 3875 4428 3144 
Q 4428 2409 3951 2014 
Q 3475 1619 2584 1619 
L 1791 1619 
L 1791 0 
L 588 0 
L 588 4666 
z
M 1791 3794 
L 1791 2491 
L 2456 2491 
Q 2806 2491 2997 2661 
Q 3188 2831 3188 3144 
Q 3188 3456 2997 3625 
Q 2806 3794 2456 3794 
L 1791 3794 
z
" transform="scale(0.015625)"/>
      <path id="DejaVuSans-Bold-fa" d="M 500 1363 
L 500 3500 
L 1625 3500 
L 1625 3150 
Q 1625 2866 1622 2436 
Q 1619 2006 1619 1863 
Q 1619 1441 1641 1255 
Q 1663 1069 1716 984 
Q 1784 875 1895 815 
Q 2006 756 2150 756 
Q 2500 756 2700 1025 
Q 2900 1294 2900 1772 
L 2900 3500 
L 4019 3500 
L 4019 0 
L 2900 0 
L 2900 506 
Q 2647 200 2364 54 
Q 2081 -91 1741 -91 
Q 1134 -91 817 281 
Q 500 653 500 1363 
z
M 2782 5119 
L 3666 5119 
L 2513 3944 
L 1901 3944 
L 2782 5119 
z
" transform="scale(0.015625)"/>
      <path id="DejaVuSans-Bold-42" d="M 2456 2859 
Q 2741 2859 2887 2984 
Q 3034 3109 3034 3353 
Q 3034 3594 2887 3720 
Q 2741 3847 2456 3847 
L 1791 3847 
L 1791 2859 
L 2456 2859 
z
M 2497 819 
Q 2859 819 3042 972 
Q 3225 1125 3225 1434 
Q 3225 1738 3044 1889 
Q 2863 2041 2497 2041 
L 1791 2041 
L 1791 819 
L 2497 819 
z
M 3616 2497 
Q 4003 2384 4215 2081 
Q 4428 1778 4428 1338 
Q 4428 663 3972 331 
Q 3516 0 2584 0 
L 588 0 
L 588 4666 
L 2394 4666 
Q 3366 4666 3802 4372 
Q 4238 4078 4238 3431 
Q 4238 3091 4078 2852 
Q 3919 2613 3616 2497 
z
" transform="scale(0.015625)"/>
     </defs>
     <use xlink:href="#DejaVuSans-Bold-43"/>
     <use xlink:href="#DejaVuSans-Bold-6f" transform="translate(73.388672 0)"/>
     <use xlink:href="#DejaVuSans-Bold-6d" transform="translate(142.089844 0)"/>
     <use xlink:href="#DejaVuSans-Bold-70" transform="translate(246.289062 0)"/>
     <use xlink:href="#DejaVuSans-Bold-72" transform="translate(317.871094 0)"/>
     <use xlink:href="#DejaVuSans-Bold-61" transform="translate(367.1875 0)"/>
     <use xlink:href="#DejaVuSans-Bold-73" transform="translate(434.667969 0)"/>
     <use xlink:href="#DejaVuSans-Bold-20" transform="translate(494.189453 0)"/>
     <use xlink:href="#DejaVuSans-Bold-50" transform="translate(529.003906 0)"/>
     <use xlink:href="#DejaVuSans-Bold-fa" transform="translate(602.294922 0)"/>
     <use xlink:href="#DejaVuSans-Bold-62" transform="translate(673.486328 0)"/>
     <use xlink:href="#DejaVuSans-Bold-6c" transform="translate(745.068359 0)"/>
     <use xlink:href="#DejaVuSans-Bold-69" transform="translate(779.345703 0)"/>
     <use xlink:href="#DejaVuSans-Bold-63" transform="translate(813.623047 0)"/>
     <use xlink:href="#DejaVuSans-Bold-61" transform="translate(872.900391 0)"/>
     <use xlink:href="#DejaVuSans-Bold-73" transform="translate(940.380859 0)"/>
     <use xlink:href="#DejaVuSans-Bold-20" transform="translate(999.902344 0)"/>
     <use xlink:href="#DejaVuSans-Bold-42" transform="translate(1034.716797 0)"/>
     <use xlink:href="#DejaVuSans-Bold-72" transform="translate(1110.9375 0)"/>
     <use xlink:href="#DejaVuSans-Bold-61" transform="translate(1160.253906 0)"/>
     <use xlink:href="#DejaVuSans-Bold-73" transform="translate(1227.734375 0)"/>
     <use xlink:href="#DejaVuSans-Bold-69" transform="translate(1287.255859 0)"/>
     <use xlink:href="#DejaVuSans-Bold-6c" transform="translate(1321.533203 0)"/>
     <use xlink:href="#DejaVuSans-Bold-65" transform="translate(1355.810547 0)"/>
     <use xlink:href="#DejaVuSans-Bold-69" transform="translate(1423.632812 0)"/>
     <use xlink:href="#DejaVuSans-Bold-72" transform="translate(1457.910156 0)"/>
     <use xlink:href="#DejaVuSans-Bold-61" transform="translate(1507.226562 0)"/>
     <use xlink:href="#DejaVuSans-Bold-73" transform="translate(1574.707031 0)"/>
    </g>
   </g>
   <g id="text_5">
    <!-- Base de Conhecimento: -->
    <g style="fill: #1a5276" transform="translate(351.817172 298.476422) scale(0.09 -0.09)">
     <defs>
      <path id="DejaVuSans-Bold-68" d="M 4056 2131 
L 4056 0 
L 2931 0 
L 2931 347 
L 2931 1625 
Q 2931 2084 2911 2256 
Q 2891 2428 2841 2509 
Q 2775 2619 2662 2680 
Q 2550 2741 2406 2741 
Q 2056 2741 1856 2470 
Q 1656 2200 1656 1722 
L 1656 0 
L 538 0 
L 538 4863 
L 1656 4863 
L 1656 2988 
Q 1909 3294 2193 3439 
Q 2478 3584 2822 3584 
Q 3428 3584 3742 3212 
Q 4056 2841 4056 2131 
z
" transform="scale(0.015625)"/>
     </defs>
     <use xlink:href="#DejaVuSans-Bold-42"/>
     <use xlink:href="#DejaVuSans-Bold-61" transform="translate(76.220703 0)"/>
     <use xlink:href="#DejaVuSans-Bold-73" transform="translate(143.701172 0)"/>
     <use xlink:href="#DejaVuSans-Bold-65" transform="translate(203.222656 0)"/>
     <use xlink:href="#DejaVuSans-Bold-20" transform="translate(271.044922 0)"/>
     <use xlink:href="#DejaVuSans-Bold-64" transform="translate(305.859375 0)"/>
     <use xlink:href="#DejaVuSans-Bold-65" transform="translate(377.441406 0)"/>
     <use xlink:href="#DejaVuSans-Bold-20" transform="translate(445.263672 0)"/>
     <use xlink:href="#DejaVuSans-Bold-43" transform="translate(480.078125 0)"/>
     <use xlink:href="#DejaVuSans-Bold-6f" transform="translate(553.466797 0)"/>
     <use xlink:href="#DejaVuSans-Bold-6e" transform="translate(622.167969 0)"/>
     <use xlink:href="#DejaVuSans-Bold-68" transform="translate(693.359375 0)"/>
     <use xlink:href="#DejaVuSans-Bold-65" transform="translate(764.550781 0)"/>
     <use xlink:href="#DejaVuSans-Bold-63" transform="translate(832.373047 0)"/>
     <use xlink:href="#DejaVuSans-Bold-69" transform="translate(891.650391 0)"/>
     <use xlink:href="#DejaVuSans-Bold-6d" transform="translate(925.927734 0)"/>
     <use xlink:href="#DejaVuSans-Bold-65" transform="translate(1030.126953 0)"/>
     <use xlink:href="#DejaVuSans-Bold-6e" transform="translate(1097.949219 0)"/>
     <use xlink:href="#DejaVuSans-Bold-74" transform="translate(1169.140625 0)"/>
     <use xlink:href="#DejaVuSans-Bold-6f" transform="translate(1216.943359 0)"/>
     <use xlink:href="#DejaVuSans-Bold-3a" transform="translate(1285.644531 0)"/>
    </g>
    <!-- TCE, XAI, DSR, SHAP -->
    <g style="fill: #1a5276" transform="translate(359.257641 308.554453) scale(0.09 -0.09)">
     <defs>
      <path id="DejaVuSans-Bold-54" d="M 31 4666 
L 4331 4666 
L 4331 3756 
L 2784 3756 
L 2784 0 
L 1581 0 
L 1581 3756 
L 31 3756 
L 31 4666 
z
" transform="scale(0.015625)"/>
      <path id="DejaVuSans-Bold-45" d="M 588 4666 
L 3834 4666 
L 3834 3756 
L 1791 3756 
L 1791 2888 
L 3713 2888 
L 3713 1978 
L 1791 1978 
L 1791 909 
L 3903 909 
L 3903 0 
L 588 0 
L 588 4666 
z
" transform="scale(0.015625)"/>
      <path id="DejaVuSans-Bold-2c" d="M 653 1209 
L 1778 1209 
L 1778 256 
L 1006 -909 
L 341 -909 
L 653 256 
L 653 1209 
z
" transform="scale(0.015625)"/>
      <path id="DejaVuSans-Bold-58" d="M 3188 2381 
L 4806 0 
L 3553 0 
L 2463 1594 
L 1381 0 
L 122 0 
L 1741 2381 
L 184 4666 
L 1441 4666 
L 2463 3163 
L 3481 4666 
L 4744 4666 
L 3188 2381 
z
" transform="scale(0.015625)"/>
      <path id="DejaVuSans-Bold-49" d="M 588 4666 
L 1791 4666 
L 1791 0 
L 588 0 
L 588 4666 
z
" transform="scale(0.015625)"/>
      <path id="DejaVuSans-Bold-53" d="M 3834 4519 
L 3834 3531 
Q 3450 3703 3084 3790 
Q 2719 3878 2394 3878 
Q 1963 3878 1756 3759 
Q 1550 3641 1550 3391 
Q 1550 3203 1689 3098 
Q 1828 2994 2194 2919 
L 2706 2816 
Q 3484 2659 3812 2340 
Q 4141 2022 4141 1434 
Q 4141 663 3683 286 
Q 3225 -91 2284 -91 
Q 1841 -91 1394 -6 
Q 947 78 500 244 
L 500 1259 
Q 947 1022 1364 901 
Q 1781 781 2169 781 
Q 2563 781 2772 912 
Q 2981 1044 2981 1288 
Q 2981 1506 2839 1625 
Q 2697 1744 2272 1838 
L 1806 1941 
Q 1106 2091 782 2419 
Q 459 2747 459 3303 
Q 459 4000 909 4375 
Q 1359 4750 2203 4750 
Q 2588 4750 2994 4692 
Q 3400 4634 3834 4519 
z
" transform="scale(0.015625)"/>
      <path id="DejaVuSans-Bold-48" d="M 588 4666 
L 1791 4666 
L 1791 2888 
L 3566 2888 
L 3566 4666 
L 4769 4666 
L 4769 0 
L 3566 0 
L 3566 1978 
L 1791 1978 
L 1791 0 
L 588 0 
L 588 4666 
z
" transform="scale(0.015625)"/>
     </defs>
     <use xlink:href="#DejaVuSans-Bold-54"/>
     <use xlink:href="#DejaVuSans-Bold-43" transform="translate(68.212891 0)"/>
     <use xlink:href="#DejaVuSans-Bold-45" transform="translate(141.601562 0)"/>
     <use xlink:href="#DejaVuSans-Bold-2c" transform="translate(209.912109 0)"/>
     <use xlink:href="#DejaVuSans-Bold-20" transform="translate(247.900391 0)"/>
     <use xlink:href="#DejaVuSans-Bold-58" transform="translate(282.714844 0)"/>
     <use xlink:href="#DejaVuSans-Bold-41" transform="translate(359.814453 0)"/>
     <use xlink:href="#DejaVuSans-Bold-49" transform="translate(437.207031 0)"/>
     <use xlink:href="#DejaVuSans-Bold-2c" transform="translate(474.414062 0)"/>
     <use xlink:href="#DejaVuSans-Bold-20" transform="translate(512.402344 0)"/>
     <use xlink:href="#DejaVuSans-Bold-44" transform="translate(547.216797 0)"/>
     <use xlink:href="#DejaVuSans-Bold-53" transform="translate(630.224609 0)"/>
     <use xlink:href="#DejaVuSans-Bold-52" transform="translate(702.246094 0)"/>
     <use xlink:href="#DejaVuSans-Bold-2c" transform="translate(781.123047 0)"/>
     <use xlink:href="#DejaVuSans-Bold-20" transform="translate(819.111328 0)"/>
     <use xlink:href="#DejaVuSans-Bold-53" transform="translate(853.925781 0)"/>
     <use xlink:href="#DejaVuSans-Bold-48" transform="translate(925.947266 0)"/>
     <use xlink:href="#DejaVuSans-Bold-41" transform="translate(1009.638672 0)"/>
     <use xlink:href="#DejaVuSans-Bold-50" transform="translate(1087.03125 0)"/>
    </g>
   </g>
   <g id="text_6">
    <!-- Desenvolvimento do Artefato -->
    <g style="fill: #1e8449" transform="translate(183.759609 242.531437) scale(0.09 -0.09)">
     <defs>
      <path id="DejaVuSans-Bold-66" d="M 2841 4863 
L 2841 4128 
L 2222 4128 
Q 1984 4128 1890 4042 
Q 1797 3956 1797 3744 
L 1797 3500 
L 2753 3500 
L 2753 2700 
L 1797 2700 
L 1797 0 
L 678 0 
L 678 2700 
L 122 2700 
L 122 3500 
L 678 3500 
L 678 3744 
Q 678 4316 997 4589 
Q 1316 4863 1984 4863 
L 2841 4863 
z
" transform="scale(0.015625)"/>
     </defs>
     <use xlink:href="#DejaVuSans-Bold-44"/>
     <use xlink:href="#DejaVuSans-Bold-65" transform="translate(83.007812 0)"/>
     <use xlink:href="#DejaVuSans-Bold-73" transform="translate(150.830078 0)"/>
     <use xlink:href="#DejaVuSans-Bold-65" transform="translate(210.351562 0)"/>
     <use xlink:href="#DejaVuSans-Bold-6e" transform="translate(278.173828 0)"/>
     <use xlink:href="#DejaVuSans-Bold-76" transform="translate(349.365234 0)"/>
     <use xlink:href="#DejaVuSans-Bold-6f" transform="translate(414.550781 0)"/>
     <use xlink:href="#DejaVuSans-Bold-6c" transform="translate(483.251953 0)"/>
     <use xlink:href="#DejaVuSans-Bold-76" transform="translate(517.529297 0)"/>
     <use xlink:href="#DejaVuSans-Bold-69" transform="translate(582.714844 0)"/>
     <use xlink:href="#DejaVuSans-Bold-6d" transform="translate(616.992188 0)"/>
     <use xlink:href="#DejaVuSans-Bold-65" transform="translate(721.191406 0)"/>
     <use xlink:href="#DejaVuSans-Bold-6e" transform="translate(789.013672 0)"/>
     <use xlink:href="#DejaVuSans-Bold-74" transform="translate(860.205078 0)"/>
     <use xlink:href="#DejaVuSans-Bold-6f" transform="translate(908.007812 0)"/>
     <use xlink:href="#DejaVuSans-Bold-20" transform="translate(976.708984 0)"/>
     <use xlink:href="#DejaVuSans-Bold-64" transform="translate(1011.523438 0)"/>
     <use xlink:href="#DejaVuSans-Bold-6f" transform="translate(1083.105469 0)"/>
     <use xlink:href="#DejaVuSans-Bold-20" transform="translate(1151.806641 0)"/>
     <use xlink:href="#DejaVuSans-Bold-41" transform="translate(1186.621094 0)"/>
     <use xlink:href="#DejaVuSans-Bold-72" transform="translate(1264.013672 0)"/>
     <use xlink:href="#DejaVuSans-Bold-74" transform="translate(1313.330078 0)"/>
     <use xlink:href="#DejaVuSans-Bold-65" transform="translate(1361.132812 0)"/>
     <use xlink:href="#DejaVuSans-Bold-66" transform="translate(1428.955078 0)"/>
     <use xlink:href="#DejaVuSans-Bold-61" transform="translate(1472.460938 0)"/>
     <use xlink:href="#DejaVuSans-Bold-74" transform="translate(1539.941406 0)"/>
     <use xlink:href="#DejaVuSans-Bold-6f" transform="translate(1587.744141 0)"/>
    </g>
   </g>
  </g>
 </g>
 <defs>
  <clipPath id="pf34723cdf8">
   <rect x="7.2" y="7.2" width="502.2" height="332.64"/>
  </clipPath>
 </defs>
</svg>
