<?xml version="1.0" encoding="utf-8" standalone="no"?>
<!DOCTYPE svg PUBLIC "-//W3C//DTD SVG 1.1//EN"
  "http://www.w3.org/Graphics/SVG/1.1/DTD/svg11.dtd">
<svg xmlns:xlink="http://www.w3.org/1999/xlink" width="572.4pt" height="180.72pt" viewBox="0 0 572.4 180.72" xmlns="http://www.w3.org/2000/svg" version="1.1">
 <metadata>
  <rdf:RDF xmlns:dc="http://purl.org/dc/elements/1.1/" xmlns:cc="http://creativecommons.org/ns#" xmlns:rdf="http://www.w3.org/1999/02/22-rdf-syntax-ns#">
   <cc:Work>
    <dc:type rdf:resource="http://purl.org/dc/dcmitype/StillImage"/>
    <dc:date>2026-05-18T11:58:51.170596</dc:date>
    <dc:format>image/svg+xml</dc:format>
    <dc:creator>
     <cc:Agent>
      <dc:title>Matplotlib v3.10.8, https://matplotlib.org/</dc:title>
     </cc:Agent>
    </dc:creator>
   </cc:Work>
  </rdf:RDF>
 </metadata>
 <defs>
  <style type="text/css">*{stroke-linejoin: round; stroke-linecap: butt}</style>
 </defs>
 <g id="figure_1">
  <g id="patch_1">
   <path d="M 0 180.72 
L 572.4 180.72 
L 572.4 0 
L 0 0 
z
" style="fill: #ffffff"/>
  </g>
  <g id="axes_1">
   <g id="patch_2">
    <path d="M 80.621684 90.36 
Q 85.318779 90.36 87.779807 90.36 
" style="fill: none; stroke: #555555; stroke-width: 2; stroke-linecap: round"/>
    <path d="M 83.379807 88.16 
L 87.779807 90.36 
L 83.379807 92.56 
" style="fill: none; stroke: #555555; stroke-width: 2; stroke-linecap: round"/>
   </g>
   <g id="patch_3">
    <path d="M 175.481684 90.36 
Q 180.178779 90.36 182.639807 90.36 
" style="fill: none; stroke: #555555; stroke-width: 2; stroke-linecap: round"/>
    <path d="M 178.239807 88.16 
L 182.639807 90.36 
L 178.239807 92.56 
" style="fill: none; stroke: #555555; stroke-width: 2; stroke-linecap: round"/>
   </g>
   <g id="patch_4">
    <path d="M 270.341684 90.36 
Q 275.038779 90.36 277.499807 90.36 
" style="fill: none; stroke: #555555; stroke-width: 2; stroke-linecap: round"/>
    <path d="M 273.099807 88.16 
L 277.499807 90.36 
L 273.099807 92.56 
" style="fill: none; stroke: #555555; stroke-width: 2; stroke-linecap: round"/>
   </g>
   <g id="patch_5">
    <path d="M 365.201684 90.36 
Q 369.898779 90.36 372.359807 90.36 
" style="fill: none; stroke: #555555; stroke-width: 2; stroke-linecap: round"/>
    <path d="M 367.959807 88.16 
L 372.359807 90.36 
L 367.959807 92.56 
" style="fill: none; stroke: #555555; stroke-width: 2; stroke-linecap: round"/>
   </g>
   <g id="patch_6">
    <path d="M 460.061684 90.36 
Q 464.758779 90.36 467.219807 90.36 
" style="fill: none; stroke: #555555; stroke-width: 2; stroke-linecap: round"/>
    <path d="M 462.819807 88.16 
L 467.219807 90.36 
L 462.819807 92.56 
" style="fill: none; stroke: #555555; stroke-width: 2; stroke-linecap: round"/>
   </g>
   <g id="patch_7">
    <path d="M 12.78 137.484 
L 85.32 137.484 
Q 90.9 137.484 90.9 131.94 
L 90.9 48.78 
Q 90.9 43.236 85.32 43.236 
L 12.78 43.236 
Q 7.2 43.236 7.2 48.78 
L 7.2 131.94 
Q 7.2 137.484 12.78 137.484 
z
" clip-path="url(#pf0275b3445)" style="fill: #aed6f1; stroke: #000000; stroke-width: 1.2; stroke-linejoin: miter"/>
   </g>
   <g id="patch_8">
    <path d="M 107.64 137.484 
L 180.18 137.484 
Q 185.76 137.484 185.76 131.94 
L 185.76 48.78 
Q 185.76 43.236 180.18 43.236 
L 107.64 43.236 
Q 102.06 43.236 102.06 48.78 
L 102.06 131.94 
Q 102.06 137.484 107.64 137.484 
z
" clip-path="url(#pf0275b3445)" style="fill: #a9dfbf; stroke: #000000; stroke-width: 1.2; stroke-linejoin: miter"/>
   </g>
   <g id="patch_9">
    <path d="M 202.5 137.484 
L 275.04 137.484 
Q 280.62 137.484 280.62 131.94 
L 280.62 48.78 
Q 280.62 43.236 275.04 43.236 
L 202.5 43.236 
Q 196.92 43.236 196.92 48.78 
L 196.92 131.94 
Q 196.92 137.484 202.5 137.484 
z
" clip-path="url(#pf0275b3445)" style="fill: #f9e79f; stroke: #000000; stroke-width: 1.2; stroke-linejoin: miter"/>
   </g>
   <g id="patch_10">
    <path d="M 297.36 137.484 
L 369.9 137.484 
Q 375.48 137.484 375.48 131.94 
L 375.48 48.78 
Q 375.48 43.236 369.9 43.236 
L 297.36 43.236 
Q 291.78 43.236 291.78 48.78 
L 291.78 131.94 
Q 291.78 137.484 297.36 137.484 
z
" clip-path="url(#pf0275b3445)" style="fill: #d7bde2; stroke: #000000; stroke-width: 1.2; stroke-linejoin: miter"/>
   </g>
   <g id="patch_11">
    <path d="M 392.22 137.484 
L 464.76 137.484 
Q 470.34 137.484 470.34 131.94 
L 470.34 48.78 
Q 470.34 43.236 464.76 43.236 
L 392.22 43.236 
Q 386.64 43.236 386.64 48.78 
L 386.64 131.94 
Q 386.64 137.484 392.22 137.484 
z
" clip-path="url(#pf0275b3445)" style="fill: #f5b7b1; stroke: #000000; stroke-width: 1.2; stroke-linejoin: miter"/>
   </g>
   <g id="patch_12">
    <path d="M 487.08 137.484 
L 559.62 137.484 
Q 565.2 137.484 565.2 131.94 
L 565.2 48.78 
Q 565.2 43.236 559.62 43.236 
L 487.08 43.236 
Q 481.5 43.236 481.5 48.78 
L 481.5 131.94 
Q 481.5 137.484 487.08 137.484 
z
" clip-path="url(#pf0275b3445)" style="fill: #f0b27a; stroke: #000000; stroke-width: 1.2; stroke-linejoin: miter"/>
   </g>
   <g id="text_1">
    <!-- Edital Original -->
    <g transform="translate(18.826172 88.201055) scale(0.075 -0.075)">
     <defs>
      <path id="DejaVuSans-Bold-45" d="M 588 4666 
L 3834 4666 
L 3834 3756 
L 1791 3756 
L 1791 2888 
L 3713 2888 
L 3713 1978 
L 1791 1978 
L 1791 909 
L 3903 909 
L 3903 0 
L 588 0 
L 588 4666 
z
" transform="scale(0.015625)"/>
      <path id="DejaVuSans-Bold-64" d="M 2919 2988 
L 2919 4863 
L 4044 4863 
L 4044 0 
L 2919 0 
L 2919 506 
Q 2688 197 2409 53 
Q 2131 -91 1766 -91 
Q 1119 -91 703 423 
Q 288 938 288 1747 
Q 288 2556 703 3070 
Q 1119 3584 1766 3584 
Q 2128 3584 2408 3439 
Q 2688 3294 2919 2988 
z
M 2181 722 
Q 2541 722 2730 984 
Q 2919 1247 2919 1747 
Q 2919 2247 2730 2509 
Q 2541 2772 2181 2772 
Q 1825 2772 1636 2509 
Q 1447 2247 1447 1747 
Q 1447 1247 1636 984 
Q 1825 722 2181 722 
z
" transform="scale(0.015625)"/>
      <path id="DejaVuSans-Bold-69" d="M 538 3500 
L 1656 3500 
L 1656 0 
L 538 0 
L 538 3500 
z
M 538 4863 
L 1656 4863 
L 1656 3950 
L 538 3950 
L 538 4863 
z
" transform="scale(0.015625)"/>
      <path id="DejaVuSans-Bold-74" d="M 1759 4494 
L 1759 3500 
L 2913 3500 
L 2913 2700 
L 1759 2700 
L 1759 1216 
Q 1759 972 1856 886 
Q 1953 800 2241 800 
L 2816 800 
L 2816 0 
L 1856 0 
Q 1194 0 917 276 
Q 641 553 641 1216 
L 641 2700 
L 84 2700 
L 84 3500 
L 641 3500 
L 641 4494 
L 1759 4494 
z
" transform="scale(0.015625)"/>
      <path id="DejaVuSans-Bold-61" d="M 2106 1575 
Q 1756 1575 1579 1456 
Q 1403 1338 1403 1106 
Q 1403 894 1545 773 
Q 1688 653 1941 653 
Q 2256 653 2472 879 
Q 2688 1106 2688 1447 
L 2688 1575 
L 2106 1575 
z
M 3816 1997 
L 3816 0 
L 2688 0 
L 2688 519 
Q 2463 200 2181 54 
Q 1900 -91 1497 -91 
Q 953 -91 614 226 
Q 275 544 275 1050 
Q 275 1666 698 1953 
Q 1122 2241 2028 2241 
L 2688 2241 
L 2688 2328 
Q 2688 2594 2478 2717 
Q 2269 2841 1825 2841 
Q 1466 2841 1156 2769 
Q 847 2697 581 2553 
L 581 3406 
Q 941 3494 1303 3539 
Q 1666 3584 2028 3584 
Q 2975 3584 3395 3211 
Q 3816 2838 3816 1997 
z
" transform="scale(0.015625)"/>
      <path id="DejaVuSans-Bold-6c" d="M 538 4863 
L 1656 4863 
L 1656 0 
L 538 0 
L 538 4863 
z
" transform="scale(0.015625)"/>
      <path id="DejaVuSans-Bold-20" transform="scale(0.015625)"/>
      <path id="DejaVuSans-Bold-4f" d="M 2719 3878 
Q 2169 3878 1866 3472 
Q 1563 3066 1563 2328 
Q 1563 1594 1866 1187 
Q 2169 781 2719 781 
Q 3272 781 3575 1187 
Q 3878 1594 3878 2328 
Q 3878 3066 3575 3472 
Q 3272 3878 2719 3878 
z
M 2719 4750 
Q 3844 4750 4481 4106 
Q 5119 3463 5119 2328 
Q 5119 1197 4481 553 
Q 3844 -91 2719 -91 
Q 1597 -91 958 553 
Q 319 1197 319 2328 
Q 319 3463 958 4106 
Q 1597 4750 2719 4750 
z
" transform="scale(0.015625)"/>
      <path id="DejaVuSans-Bold-72" d="M 3138 2547 
Q 2991 2616 2845 2648 
Q 2700 2681 2553 2681 
Q 2122 2681 1889 2404 
Q 1656 2128 1656 1613 
L 1656 0 
L 538 0 
L 538 3500 
L 1656 3500 
L 1656 2925 
Q 1872 3269 2151 3426 
Q 2431 3584 2822 3584 
Q 2878 3584 2943 3579 
Q 3009 3575 3134 3559 
L 3138 2547 
z
" transform="scale(0.015625)"/>
      <path id="DejaVuSans-Bold-67" d="M 2919 594 
Q 2688 288 2409 144 
Q 2131 0 1766 0 
Q 1125 0 706 504 
Q 288 1009 288 1791 
Q 288 2575 706 3076 
Q 1125 3578 1766 3578 
Q 2131 3578 2409 3434 
Q 2688 3291 2919 2981 
L 2919 3500 
L 4044 3500 
L 4044 353 
Q 4044 -491 3511 -936 
Q 2978 -1381 1966 -1381 
Q 1638 -1381 1331 -1331 
Q 1025 -1281 716 -1178 
L 716 -306 
Q 1009 -475 1290 -558 
Q 1572 -641 1856 -641 
Q 2406 -641 2662 -400 
Q 2919 -159 2919 353 
L 2919 594 
z
M 2181 2772 
Q 1834 2772 1640 2515 
Q 1447 2259 1447 1791 
Q 1447 1309 1634 1061 
Q 1822 813 2181 813 
Q 2531 813 2725 1069 
Q 2919 1325 2919 1791 
Q 2919 2259 2725 2515 
Q 2531 2772 2181 2772 
z
" transform="scale(0.015625)"/>
      <path id="DejaVuSans-Bold-6e" d="M 4056 2131 
L 4056 0 
L 2931 0 
L 2931 347 
L 2931 1631 
Q 2931 2084 2911 2256 
Q 2891 2428 2841 2509 
Q 2775 2619 2662 2680 
Q 2550 2741 2406 2741 
Q 2056 2741 1856 2470 
Q 1656 2200 1656 1722 
L 1656 0 
L 538 0 
L 538 3500 
L 1656 3500 
L 1656 2988 
Q 1909 3294 2193 3439 
Q 2478 3584 2822 3584 
Q 3428 3584 3742 3212 
Q 4056 2841 4056 2131 
z
" transform="scale(0.015625)"/>
     </defs>
     <use xlink:href="#DejaVuSans-Bold-45"/>
     <use xlink:href="#DejaVuSans-Bold-64" transform="translate(68.310547 0)"/>
     <use xlink:href="#DejaVuSans-Bold-69" transform="translate(139.892578 0)"/>
     <use xlink:href="#DejaVuSans-Bold-74" transform="translate(174.169922 0)"/>
     <use xlink:href="#DejaVuSans-Bold-61" transform="translate(221.972656 0)"/>
     <use xlink:href="#DejaVuSans-Bold-6c" transform="translate(289.453125 0)"/>
     <use xlink:href="#DejaVuSans-Bold-20" transform="translate(323.730469 0)"/>
     <use xlink:href="#DejaVuSans-Bold-4f" transform="translate(358.544922 0)"/>
     <use xlink:href="#DejaVuSans-Bold-72" transform="translate(443.554688 0)"/>
     <use xlink:href="#DejaVuSans-Bold-69" transform="translate(492.871094 0)"/>
     <use xlink:href="#DejaVuSans-Bold-67" transform="translate(527.148438 0)"/>
     <use xlink:href="#DejaVuSans-Bold-69" transform="translate(598.730469 0)"/>
     <use xlink:href="#DejaVuSans-Bold-6e" transform="translate(633.007812 0)"/>
     <use xlink:href="#DejaVuSans-Bold-61" transform="translate(704.199219 0)"/>
     <use xlink:href="#DejaVuSans-Bold-6c" transform="translate(771.679688 0)"/>
    </g>
    <!-- (PDF) -->
    <g transform="translate(37.198828 96.658008) scale(0.075 -0.075)">
     <defs>
      <path id="DejaVuSans-Bold-28" d="M 2413 -844 
L 1484 -844 
Q 1006 -72 778 623 
Q 550 1319 550 2003 
Q 550 2688 779 3389 
Q 1009 4091 1484 4856 
L 2413 4856 
Q 2013 4116 1813 3408 
Q 1613 2700 1613 2009 
Q 1613 1319 1811 609 
Q 2009 -100 2413 -844 
z
" transform="scale(0.015625)"/>
      <path id="DejaVuSans-Bold-50" d="M 588 4666 
L 2584 4666 
Q 3475 4666 3951 4270 
Q 4428 3875 4428 3144 
Q 4428 2409 3951 2014 
Q 3475 1619 2584 1619 
L 1791 1619 
L 1791 0 
L 588 0 
L 588 4666 
z
M 1791 3794 
L 1791 2491 
L 2456 2491 
Q 2806 2491 2997 2661 
Q 3188 2831 3188 3144 
Q 3188 3456 2997 3625 
Q 2806 3794 2456 3794 
L 1791 3794 
z
" transform="scale(0.015625)"/>
      <path id="DejaVuSans-Bold-44" d="M 1791 3756 
L 1791 909 
L 2222 909 
Q 2959 909 3348 1275 
Q 3738 1641 3738 2338 
Q 3738 3031 3350 3393 
Q 2963 3756 2222 3756 
L 1791 3756 
z
M 588 4666 
L 1856 4666 
Q 2919 4666 3439 4514 
Q 3959 4363 4331 4000 
Q 4659 3684 4818 3271 
Q 4978 2859 4978 2338 
Q 4978 1809 4818 1395 
Q 4659 981 4331 666 
Q 3956 303 3431 151 
Q 2906 0 1856 0 
L 588 0 
L 588 4666 
z
" transform="scale(0.015625)"/>
      <path id="DejaVuSans-Bold-46" d="M 588 4666 
L 3834 4666 
L 3834 3756 
L 1791 3756 
L 1791 2888 
L 3713 2888 
L 3713 1978 
L 1791 1978 
L 1791 0 
L 588 0 
L 588 4666 
z
" transform="scale(0.015625)"/>
      <path id="DejaVuSans-Bold-29" d="M 513 -844 
Q 913 -100 1113 609 
Q 1313 1319 1313 2009 
Q 1313 2700 1113 3408 
Q 913 4116 513 4856 
L 1441 4856 
Q 1916 4091 2145 3389 
Q 2375 2688 2375 2003 
Q 2375 1319 2147 623 
Q 1919 -72 1441 -844 
L 513 -844 
z
" transform="scale(0.015625)"/>
     </defs>
     <use xlink:href="#DejaVuSans-Bold-28"/>
     <use xlink:href="#DejaVuSans-Bold-50" transform="translate(45.703125 0)"/>
     <use xlink:href="#DejaVuSans-Bold-44" transform="translate(118.994141 0)"/>
     <use xlink:href="#DejaVuSans-Bold-46" transform="translate(202.001953 0)"/>
     <use xlink:href="#DejaVuSans-Bold-29" transform="translate(270.3125 0)"/>
    </g>
   </g>
   <g id="text_2">
    <!-- Pré-processamento -->
    <g transform="translate(102.852188 84.155156) scale(0.075 -0.075)">
     <defs>
      <path id="DejaVuSans-Bold-e9" d="M 4031 1759 
L 4031 1441 
L 1416 1441 
Q 1456 1047 1700 850 
Q 1944 653 2381 653 
Q 2734 653 3104 758 
Q 3475 863 3866 1075 
L 3866 213 
Q 3469 63 3072 -14 
Q 2675 -91 2278 -91 
Q 1328 -91 801 392 
Q 275 875 275 1747 
Q 275 2603 792 3093 
Q 1309 3584 2216 3584 
Q 3041 3584 3536 3087 
Q 4031 2591 4031 1759 
z
M 2881 2131 
Q 2881 2450 2695 2645 
Q 2509 2841 2209 2841 
Q 1884 2841 1681 2658 
Q 1478 2475 1428 2131 
L 2881 2131 
z
M 2702 5119 
L 3586 5119 
L 2433 3944 
L 1821 3944 
L 2702 5119 
z
" transform="scale(0.015625)"/>
      <path id="DejaVuSans-Bold-2d" d="M 347 2297 
L 2309 2297 
L 2309 1388 
L 347 1388 
L 347 2297 
z
" transform="scale(0.015625)"/>
      <path id="DejaVuSans-Bold-70" d="M 1656 506 
L 1656 -1331 
L 538 -1331 
L 538 3500 
L 1656 3500 
L 1656 2988 
Q 1888 3294 2169 3439 
Q 2450 3584 2816 3584 
Q 3463 3584 3878 3070 
Q 4294 2556 4294 1747 
Q 4294 938 3878 423 
Q 3463 -91 2816 -91 
Q 2450 -91 2169 54 
Q 1888 200 1656 506 
z
M 2400 2772 
Q 2041 2772 1848 2508 
Q 1656 2244 1656 1747 
Q 1656 1250 1848 986 
Q 2041 722 2400 722 
Q 2759 722 2948 984 
Q 3138 1247 3138 1747 
Q 3138 2247 2948 2509 
Q 2759 2772 2400 2772 
z
" transform="scale(0.015625)"/>
      <path id="DejaVuSans-Bold-6f" d="M 2203 2784 
Q 1831 2784 1636 2517 
Q 1441 2250 1441 1747 
Q 1441 1244 1636 976 
Q 1831 709 2203 709 
Q 2569 709 2762 976 
Q 2956 1244 2956 1747 
Q 2956 2250 2762 2517 
Q 2569 2784 2203 2784 
z
M 2203 3584 
Q 3106 3584 3614 3096 
Q 4122 2609 4122 1747 
Q 4122 884 3614 396 
Q 3106 -91 2203 -91 
Q 1297 -91 786 396 
Q 275 884 275 1747 
Q 275 2609 786 3096 
Q 1297 3584 2203 3584 
z
" transform="scale(0.015625)"/>
      <path id="DejaVuSans-Bold-63" d="M 3366 3391 
L 3366 2478 
Q 3138 2634 2908 2709 
Q 2678 2784 2431 2784 
Q 1963 2784 1702 2511 
Q 1441 2238 1441 1747 
Q 1441 1256 1702 982 
Q 1963 709 2431 709 
Q 2694 709 2930 787 
Q 3166 866 3366 1019 
L 3366 103 
Q 3103 6 2833 -42 
Q 2563 -91 2291 -91 
Q 1344 -91 809 395 
Q 275 881 275 1747 
Q 275 2613 809 3098 
Q 1344 3584 2291 3584 
Q 2566 3584 2833 3536 
Q 3100 3488 3366 3391 
z
" transform="scale(0.015625)"/>
      <path id="DejaVuSans-Bold-65" d="M 4031 1759 
L 4031 1441 
L 1416 1441 
Q 1456 1047 1700 850 
Q 1944 653 2381 653 
Q 2734 653 3104 758 
Q 3475 863 3866 1075 
L 3866 213 
Q 3469 63 3072 -14 
Q 2675 -91 2278 -91 
Q 1328 -91 801 392 
Q 275 875 275 1747 
Q 275 2603 792 3093 
Q 1309 3584 2216 3584 
Q 3041 3584 3536 3087 
Q 4031 2591 4031 1759 
z
M 2881 2131 
Q 2881 2450 2695 2645 
Q 2509 2841 2209 2841 
Q 1884 2841 1681 2658 
Q 1478 2475 1428 2131 
L 2881 2131 
z
" transform="scale(0.015625)"/>
      <path id="DejaVuSans-Bold-73" d="M 3272 3391 
L 3272 2541 
Q 2913 2691 2578 2766 
Q 2244 2841 1947 2841 
Q 1628 2841 1473 2761 
Q 1319 2681 1319 2516 
Q 1319 2381 1436 2309 
Q 1553 2238 1856 2203 
L 2053 2175 
Q 2913 2066 3209 1816 
Q 3506 1566 3506 1031 
Q 3506 472 3093 190 
Q 2681 -91 1863 -91 
Q 1516 -91 1145 -36 
Q 775 19 384 128 
L 384 978 
Q 719 816 1070 734 
Q 1422 653 1784 653 
Q 2113 653 2278 743 
Q 2444 834 2444 1013 
Q 2444 1163 2330 1236 
Q 2216 1309 1875 1350 
L 1678 1375 
Q 931 1469 631 1722 
Q 331 1975 331 2491 
Q 331 3047 712 3315 
Q 1094 3584 1881 3584 
Q 2191 3584 2531 3537 
Q 2872 3491 3272 3391 
z
" transform="scale(0.015625)"/>
      <path id="DejaVuSans-Bold-6d" d="M 3781 2919 
Q 3994 3244 4286 3414 
Q 4578 3584 4928 3584 
Q 5531 3584 5847 3212 
Q 6163 2841 6163 2131 
L 6163 0 
L 5038 0 
L 5038 1825 
Q 5041 1866 5042 1909 
Q 5044 1953 5044 2034 
Q 5044 2406 4934 2573 
Q 4825 2741 4581 2741 
Q 4263 2741 4089 2478 
Q 3916 2216 3909 1719 
L 3909 0 
L 2784 0 
L 2784 1825 
Q 2784 2406 2684 2573 
Q 2584 2741 2328 2741 
Q 2006 2741 1831 2477 
Q 1656 2213 1656 1722 
L 1656 0 
L 531 0 
L 531 3500 
L 1656 3500 
L 1656 2988 
Q 1863 3284 2130 3434 
Q 2397 3584 2719 3584 
Q 3081 3584 3359 3409 
Q 3638 3234 3781 2919 
z
" transform="scale(0.015625)"/>
     </defs>
     <use xlink:href="#DejaVuSans-Bold-50"/>
     <use xlink:href="#DejaVuSans-Bold-72" transform="translate(73.291016 0)"/>
     <use xlink:href="#DejaVuSans-Bold-e9" transform="translate(122.607422 0)"/>
     <use xlink:href="#DejaVuSans-Bold-2d" transform="translate(190.429688 0)"/>
     <use xlink:href="#DejaVuSans-Bold-70" transform="translate(231.933594 0)"/>
     <use xlink:href="#DejaVuSans-Bold-72" transform="translate(303.515625 0)"/>
     <use xlink:href="#DejaVuSans-Bold-6f" transform="translate(352.832031 0)"/>
     <use xlink:href="#DejaVuSans-Bold-63" transform="translate(421.533203 0)"/>
     <use xlink:href="#DejaVuSans-Bold-65" transform="translate(480.810547 0)"/>
     <use xlink:href="#DejaVuSans-Bold-73" transform="translate(548.632812 0)"/>
     <use xlink:href="#DejaVuSans-Bold-73" transform="translate(608.154297 0)"/>
     <use xlink:href="#DejaVuSans-Bold-61" transform="translate(667.675781 0)"/>
     <use xlink:href="#DejaVuSans-Bold-6d" transform="translate(735.15625 0)"/>
     <use xlink:href="#DejaVuSans-Bold-65" transform="translate(839.355469 0)"/>
     <use xlink:href="#DejaVuSans-Bold-6e" transform="translate(907.177734 0)"/>
     <use xlink:href="#DejaVuSans-Bold-74" transform="translate(978.369141 0)"/>
     <use xlink:href="#DejaVuSans-Bold-6f" transform="translate(1026.171875 0)"/>
    </g>
    <!-- (Tokenização, -->
    <g transform="translate(115.196719 92.605547) scale(0.075 -0.075)">
     <defs>
      <path id="DejaVuSans-Bold-54" d="M 31 4666 
L 4331 4666 
L 4331 3756 
L 2784 3756 
L 2784 0 
L 1581 0 
L 1581 3756 
L 31 3756 
L 31 4666 
z
" transform="scale(0.015625)"/>
      <path id="DejaVuSans-Bold-6b" d="M 538 4863 
L 1656 4863 
L 1656 2216 
L 2944 3500 
L 4244 3500 
L 2534 1894 
L 4378 0 
L 3022 0 
L 1656 1459 
L 1656 0 
L 538 0 
L 538 4863 
z
" transform="scale(0.015625)"/>
      <path id="DejaVuSans-Bold-7a" d="M 366 3500 
L 3419 3500 
L 3419 2719 
L 1575 800 
L 3419 800 
L 3419 0 
L 288 0 
L 288 781 
L 2131 2700 
L 366 2700 
L 366 3500 
z
" transform="scale(0.015625)"/>
      <path id="DejaVuSans-Bold-e7" d="M 3366 3391 
L 3366 2478 
Q 3138 2634 2908 2709 
Q 2678 2784 2431 2784 
Q 1963 2784 1702 2511 
Q 1441 2238 1441 1747 
Q 1441 1256 1702 982 
Q 1963 709 2431 709 
Q 2694 709 2930 787 
Q 3166 866 3366 1019 
L 3366 103 
Q 3103 6 2833 -42 
Q 2563 -91 2291 -91 
Q 1344 -91 809 395 
Q 275 881 275 1747 
Q 275 2613 809 3098 
Q 1344 3584 2291 3584 
Q 2566 3584 2833 3536 
Q 3100 3488 3366 3391 
z
M 2457 0 
Q 2639 -194 2724 -359 
Q 2810 -525 2810 -672 
Q 2810 -969 2618 -1111 
Q 2426 -1253 2029 -1253 
Q 1879 -1253 1719 -1233 
Q 1560 -1213 1398 -1172 
L 1395 -697 
Q 1551 -747 1680 -770 
Q 1810 -794 1914 -794 
Q 2095 -794 2196 -722 
Q 2298 -650 2298 -525 
Q 2298 -444 2231 -316 
Q 2164 -188 2023 0 
L 2457 0 
z
" transform="scale(0.015625)"/>
      <path id="DejaVuSans-Bold-e3" d="M 2106 1575 
Q 1756 1575 1579 1456 
Q 1403 1338 1403 1106 
Q 1403 894 1545 773 
Q 1688 653 1941 653 
Q 2256 653 2472 879 
Q 2688 1106 2688 1447 
L 2688 1575 
L 2106 1575 
z
M 3816 1997 
L 3816 0 
L 2688 0 
L 2688 519 
Q 2463 200 2181 54 
Q 1900 -91 1497 -91 
Q 953 -91 614 226 
Q 275 544 275 1050 
Q 275 1666 698 1953 
Q 1122 2241 2028 2241 
L 2688 2241 
L 2688 2328 
Q 2688 2594 2478 2717 
Q 2269 2841 1825 2841 
Q 1466 2841 1156 2769 
Q 847 2697 581 2553 
L 581 3406 
Q 941 3494 1303 3539 
Q 1666 3584 2028 3584 
Q 2975 3584 3395 3211 
Q 3816 2838 3816 1997 
z
M 2190 4263 
L 2018 4378 
Q 2006 4384 1987 4397 
Q 1840 4494 1762 4494 
Q 1650 4494 1590 4397 
Q 1531 4300 1531 4116 
L 1531 4091 
L 1097 4091 
Q 1097 4516 1257 4747 
Q 1418 4978 1709 4978 
Q 1822 4978 1936 4936 
Q 2050 4894 2178 4800 
L 2368 4666 
Q 2437 4619 2495 4594 
Q 2553 4569 2600 4569 
Q 2712 4569 2774 4669 
Q 2837 4769 2837 4947 
L 2837 4972 
L 3272 4972 
Q 3272 4547 3111 4315 
Q 2950 4084 2659 4084 
Q 2547 4084 2442 4121 
Q 2337 4159 2190 4263 
z
" transform="scale(0.015625)"/>
      <path id="DejaVuSans-Bold-2c" d="M 653 1209 
L 1778 1209 
L 1778 256 
L 1006 -909 
L 341 -909 
L 653 256 
L 653 1209 
z
" transform="scale(0.015625)"/>
     </defs>
     <use xlink:href="#DejaVuSans-Bold-28"/>
     <use xlink:href="#DejaVuSans-Bold-54" transform="translate(45.703125 0)"/>
     <use xlink:href="#DejaVuSans-Bold-6f" transform="translate(100.666016 0)"/>
     <use xlink:href="#DejaVuSans-Bold-6b" transform="translate(169.367188 0)"/>
     <use xlink:href="#DejaVuSans-Bold-65" transform="translate(233.246094 0)"/>
     <use xlink:href="#DejaVuSans-Bold-6e" transform="translate(301.068359 0)"/>
     <use xlink:href="#DejaVuSans-Bold-69" transform="translate(372.259766 0)"/>
     <use xlink:href="#DejaVuSans-Bold-7a" transform="translate(406.537109 0)"/>
     <use xlink:href="#DejaVuSans-Bold-61" transform="translate(464.740234 0)"/>
     <use xlink:href="#DejaVuSans-Bold-e7" transform="translate(532.220703 0)"/>
     <use xlink:href="#DejaVuSans-Bold-e3" transform="translate(591.498047 0)"/>
     <use xlink:href="#DejaVuSans-Bold-6f" transform="translate(658.978516 0)"/>
     <use xlink:href="#DejaVuSans-Bold-2c" transform="translate(727.679688 0)"/>
    </g>
    <!-- Stopwords) -->
    <g transform="translate(119.636367 101.003906) scale(0.075 -0.075)">
     <defs>
      <path id="DejaVuSans-Bold-53" d="M 3834 4519 
L 3834 3531 
Q 3450 3703 3084 3790 
Q 2719 3878 2394 3878 
Q 1963 3878 1756 3759 
Q 1550 3641 1550 3391 
Q 1550 3203 1689 3098 
Q 1828 2994 2194 2919 
L 2706 2816 
Q 3484 2659 3812 2340 
Q 4141 2022 4141 1434 
Q 4141 663 3683 286 
Q 3225 -91 2284 -91 
Q 1841 -91 1394 -6 
Q 947 78 500 244 
L 500 1259 
Q 947 1022 1364 901 
Q 1781 781 2169 781 
Q 2563 781 2772 912 
Q 2981 1044 2981 1288 
Q 2981 1506 2839 1625 
Q 2697 1744 2272 1838 
L 1806 1941 
Q 1106 2091 782 2419 
Q 459 2747 459 3303 
Q 459 4000 909 4375 
Q 1359 4750 2203 4750 
Q 2588 4750 2994 4692 
Q 3400 4634 3834 4519 
z
" transform="scale(0.015625)"/>
      <path id="DejaVuSans-Bold-77" d="M 225 3500 
L 1313 3500 
L 1900 1088 
L 2491 3500 
L 3425 3500 
L 4013 1113 
L 4603 3500 
L 5691 3500 
L 4769 0 
L 3547 0 
L 2956 2406 
L 2369 0 
L 1147 0 
L 225 3500 
z
" transform="scale(0.015625)"/>
     </defs>
     <use xlink:href="#DejaVuSans-Bold-53"/>
     <use xlink:href="#DejaVuSans-Bold-74" transform="translate(72.021484 0)"/>
     <use xlink:href="#DejaVuSans-Bold-6f" transform="translate(119.824219 0)"/>
     <use xlink:href="#DejaVuSans-Bold-70" transform="translate(188.525391 0)"/>
     <use xlink:href="#DejaVuSans-Bold-77" transform="translate(260.107422 0)"/>
     <use xlink:href="#DejaVuSans-Bold-6f" transform="translate(352.490234 0)"/>
     <use xlink:href="#DejaVuSans-Bold-72" transform="translate(421.191406 0)"/>
     <use xlink:href="#DejaVuSans-Bold-64" transform="translate(470.507812 0)"/>
     <use xlink:href="#DejaVuSans-Bold-73" transform="translate(542.089844 0)"/>
     <use xlink:href="#DejaVuSans-Bold-29" transform="translate(601.611328 0)"/>
    </g>
   </g>
   <g id="text_3">
    <!-- Extração de -->
    <g transform="translate(213.753984 84.052852) scale(0.075 -0.075)">
     <defs>
      <path id="DejaVuSans-Bold-78" d="M 1422 1791 
L 159 3500 
L 1344 3500 
L 2059 2463 
L 2784 3500 
L 3969 3500 
L 2706 1797 
L 4031 0 
L 2847 0 
L 2059 1106 
L 1281 0 
L 97 0 
L 1422 1791 
z
" transform="scale(0.015625)"/>
     </defs>
     <use xlink:href="#DejaVuSans-Bold-45"/>
     <use xlink:href="#DejaVuSans-Bold-78" transform="translate(68.310547 0)"/>
     <use xlink:href="#DejaVuSans-Bold-74" transform="translate(132.8125 0)"/>
     <use xlink:href="#DejaVuSans-Bold-72" transform="translate(180.615234 0)"/>
     <use xlink:href="#DejaVuSans-Bold-61" transform="translate(229.931641 0)"/>
     <use xlink:href="#DejaVuSans-Bold-e7" transform="translate(297.412109 0)"/>
     <use xlink:href="#DejaVuSans-Bold-e3" transform="translate(356.689453 0)"/>
     <use xlink:href="#DejaVuSans-Bold-6f" transform="translate(424.169922 0)"/>
     <use xlink:href="#DejaVuSans-Bold-20" transform="translate(492.871094 0)"/>
     <use xlink:href="#DejaVuSans-Bold-64" transform="translate(527.685547 0)"/>
     <use xlink:href="#DejaVuSans-Bold-65" transform="translate(599.267578 0)"/>
    </g>
    <!-- Entidades -->
    <g transform="translate(217.786406 92.451211) scale(0.075 -0.075)">
     <use xlink:href="#DejaVuSans-Bold-45"/>
     <use xlink:href="#DejaVuSans-Bold-6e" transform="translate(68.310547 0)"/>
     <use xlink:href="#DejaVuSans-Bold-74" transform="translate(139.501953 0)"/>
     <use xlink:href="#DejaVuSans-Bold-69" transform="translate(187.304688 0)"/>
     <use xlink:href="#DejaVuSans-Bold-64" transform="translate(221.582031 0)"/>
     <use xlink:href="#DejaVuSans-Bold-61" transform="translate(293.164062 0)"/>
     <use xlink:href="#DejaVuSans-Bold-64" transform="translate(360.644531 0)"/>
     <use xlink:href="#DejaVuSans-Bold-65" transform="translate(432.226562 0)"/>
     <use xlink:href="#DejaVuSans-Bold-73" transform="translate(500.048828 0)"/>
    </g>
    <!-- (NER) -->
    <g transform="translate(226.754766 100.84957) scale(0.075 -0.075)">
     <defs>
      <path id="DejaVuSans-Bold-4e" d="M 588 4666 
L 1931 4666 
L 3628 1466 
L 3628 4666 
L 4769 4666 
L 4769 0 
L 3425 0 
L 1728 3200 
L 1728 0 
L 588 0 
L 588 4666 
z
" transform="scale(0.015625)"/>
      <path id="DejaVuSans-Bold-52" d="M 2297 2597 
Q 2675 2597 2839 2737 
Q 3003 2878 3003 3200 
Q 3003 3519 2839 3656 
Q 2675 3794 2297 3794 
L 1791 3794 
L 1791 2597 
L 2297 2597 
z
M 1791 1766 
L 1791 0 
L 588 0 
L 588 4666 
L 2425 4666 
Q 3347 4666 3776 4356 
Q 4206 4047 4206 3378 
Q 4206 2916 3982 2619 
Q 3759 2322 3309 2181 
Q 3556 2125 3751 1926 
Q 3947 1728 4147 1325 
L 4800 0 
L 3519 0 
L 2950 1159 
Q 2778 1509 2601 1637 
Q 2425 1766 2131 1766 
L 1791 1766 
z
" transform="scale(0.015625)"/>
     </defs>
     <use xlink:href="#DejaVuSans-Bold-28"/>
     <use xlink:href="#DejaVuSans-Bold-4e" transform="translate(45.703125 0)"/>
     <use xlink:href="#DejaVuSans-Bold-45" transform="translate(129.394531 0)"/>
     <use xlink:href="#DejaVuSans-Bold-52" transform="translate(197.705078 0)"/>
     <use xlink:href="#DejaVuSans-Bold-29" transform="translate(274.707031 0)"/>
    </g>
   </g>
   <g id="text_4">
    <!-- Classificação -->
    <g transform="translate(306.311836 84.052852) scale(0.075 -0.075)">
     <defs>
      <path id="DejaVuSans-Bold-43" d="M 4288 256 
Q 3956 84 3597 -3 
Q 3238 -91 2847 -91 
Q 1681 -91 1000 561 
Q 319 1213 319 2328 
Q 319 3447 1000 4098 
Q 1681 4750 2847 4750 
Q 3238 4750 3597 4662 
Q 3956 4575 4288 4403 
L 4288 3438 
Q 3953 3666 3628 3772 
Q 3303 3878 2944 3878 
Q 2300 3878 1931 3465 
Q 1563 3053 1563 2328 
Q 1563 1606 1931 1193 
Q 2300 781 2944 781 
Q 3303 781 3628 887 
Q 3953 994 4288 1222 
L 4288 256 
z
" transform="scale(0.015625)"/>
      <path id="DejaVuSans-Bold-66" d="M 2841 4863 
L 2841 4128 
L 2222 4128 
Q 1984 4128 1890 4042 
Q 1797 3956 1797 3744 
L 1797 3500 
L 2753 3500 
L 2753 2700 
L 1797 2700 
L 1797 0 
L 678 0 
L 678 2700 
L 122 2700 
L 122 3500 
L 678 3500 
L 678 3744 
Q 678 4316 997 4589 
Q 1316 4863 1984 4863 
L 2841 4863 
z
" transform="scale(0.015625)"/>
     </defs>
     <use xlink:href="#DejaVuSans-Bold-43"/>
     <use xlink:href="#DejaVuSans-Bold-6c" transform="translate(73.388672 0)"/>
     <use xlink:href="#DejaVuSans-Bold-61" transform="translate(107.666016 0)"/>
     <use xlink:href="#DejaVuSans-Bold-73" transform="translate(175.146484 0)"/>
     <use xlink:href="#DejaVuSans-Bold-73" transform="translate(234.667969 0)"/>
     <use xlink:href="#DejaVuSans-Bold-69" transform="translate(294.189453 0)"/>
     <use xlink:href="#DejaVuSans-Bold-66" transform="translate(328.466797 0)"/>
     <use xlink:href="#DejaVuSans-Bold-69" transform="translate(371.972656 0)"/>
     <use xlink:href="#DejaVuSans-Bold-63" transform="translate(406.25 0)"/>
     <use xlink:href="#DejaVuSans-Bold-61" transform="translate(465.527344 0)"/>
     <use xlink:href="#DejaVuSans-Bold-e7" transform="translate(533.007812 0)"/>
     <use xlink:href="#DejaVuSans-Bold-e3" transform="translate(592.285156 0)"/>
     <use xlink:href="#DejaVuSans-Bold-6f" transform="translate(659.765625 0)"/>
    </g>
    <!-- de Cláusulas -->
    <g transform="translate(306.909492 92.451211) scale(0.075 -0.075)">
     <defs>
      <path id="DejaVuSans-Bold-e1" d="M 2106 1575 
Q 1756 1575 1579 1456 
Q 1403 1338 1403 1106 
Q 1403 894 1545 773 
Q 1688 653 1941 653 
Q 2256 653 2472 879 
Q 2688 1106 2688 1447 
L 2688 1575 
L 2106 1575 
z
M 3816 1997 
L 3816 0 
L 2688 0 
L 2688 519 
Q 2463 200 2181 54 
Q 1900 -91 1497 -91 
Q 953 -91 614 226 
Q 275 544 275 1050 
Q 275 1666 698 1953 
Q 1122 2241 2028 2241 
L 2688 2241 
L 2688 2328 
Q 2688 2594 2478 2717 
Q 2269 2841 1825 2841 
Q 1466 2841 1156 2769 
Q 847 2697 581 2553 
L 581 3406 
Q 941 3494 1303 3539 
Q 1666 3584 2028 3584 
Q 2975 3584 3395 3211 
Q 3816 2838 3816 1997 
z
M 2606 5119 
L 3490 5119 
L 2337 3944 
L 1725 3944 
L 2606 5119 
z
" transform="scale(0.015625)"/>
      <path id="DejaVuSans-Bold-75" d="M 500 1363 
L 500 3500 
L 1625 3500 
L 1625 3150 
Q 1625 2866 1622 2436 
Q 1619 2006 1619 1863 
Q 1619 1441 1641 1255 
Q 1663 1069 1716 984 
Q 1784 875 1895 815 
Q 2006 756 2150 756 
Q 2500 756 2700 1025 
Q 2900 1294 2900 1772 
L 2900 3500 
L 4019 3500 
L 4019 0 
L 2900 0 
L 2900 506 
Q 2647 200 2364 54 
Q 2081 -91 1741 -91 
Q 1134 -91 817 281 
Q 500 653 500 1363 
z
" transform="scale(0.015625)"/>
     </defs>
     <use xlink:href="#DejaVuSans-Bold-64"/>
     <use xlink:href="#DejaVuSans-Bold-65" transform="translate(71.582031 0)"/>
     <use xlink:href="#DejaVuSans-Bold-20" transform="translate(139.404297 0)"/>
     <use xlink:href="#DejaVuSans-Bold-43" transform="translate(174.21875 0)"/>
     <use xlink:href="#DejaVuSans-Bold-6c" transform="translate(247.607422 0)"/>
     <use xlink:href="#DejaVuSans-Bold-e1" transform="translate(281.884766 0)"/>
     <use xlink:href="#DejaVuSans-Bold-75" transform="translate(349.365234 0)"/>
     <use xlink:href="#DejaVuSans-Bold-73" transform="translate(420.556641 0)"/>
     <use xlink:href="#DejaVuSans-Bold-75" transform="translate(480.078125 0)"/>
     <use xlink:href="#DejaVuSans-Bold-6c" transform="translate(551.269531 0)"/>
     <use xlink:href="#DejaVuSans-Bold-61" transform="translate(585.546875 0)"/>
     <use xlink:href="#DejaVuSans-Bold-73" transform="translate(653.027344 0)"/>
    </g>
    <!-- (Random Forest) -->
    <g transform="translate(298.235859 100.84957) scale(0.075 -0.075)">
     <use xlink:href="#DejaVuSans-Bold-28"/>
     <use xlink:href="#DejaVuSans-Bold-52" transform="translate(45.703125 0)"/>
     <use xlink:href="#DejaVuSans-Bold-61" transform="translate(122.705078 0)"/>
     <use xlink:href="#DejaVuSans-Bold-6e" transform="translate(190.185547 0)"/>
     <use xlink:href="#DejaVuSans-Bold-64" transform="translate(261.376953 0)"/>
     <use xlink:href="#DejaVuSans-Bold-6f" transform="translate(332.958984 0)"/>
     <use xlink:href="#DejaVuSans-Bold-6d" transform="translate(401.660156 0)"/>
     <use xlink:href="#DejaVuSans-Bold-20" transform="translate(505.859375 0)"/>
     <use xlink:href="#DejaVuSans-Bold-46" transform="translate(540.673828 0)"/>
     <use xlink:href="#DejaVuSans-Bold-6f" transform="translate(604.984375 0)"/>
     <use xlink:href="#DejaVuSans-Bold-72" transform="translate(673.685547 0)"/>
     <use xlink:href="#DejaVuSans-Bold-65" transform="translate(723.001953 0)"/>
     <use xlink:href="#DejaVuSans-Bold-73" transform="translate(790.824219 0)"/>
     <use xlink:href="#DejaVuSans-Bold-74" transform="translate(850.345703 0)"/>
     <use xlink:href="#DejaVuSans-Bold-29" transform="translate(898.148438 0)"/>
    </g>
   </g>
   <g id="text_5">
    <!-- Armazenamento -->
    <g transform="translate(393.884531 84.001875) scale(0.075 -0.075)">
     <defs>
      <path id="DejaVuSans-Bold-41" d="M 3419 850 
L 1538 850 
L 1241 0 
L 31 0 
L 1759 4666 
L 3194 4666 
L 4922 0 
L 3713 0 
L 3419 850 
z
M 1838 1716 
L 3116 1716 
L 2478 3572 
L 1838 1716 
z
" transform="scale(0.015625)"/>
     </defs>
     <use xlink:href="#DejaVuSans-Bold-41"/>
     <use xlink:href="#DejaVuSans-Bold-72" transform="translate(77.392578 0)"/>
     <use xlink:href="#DejaVuSans-Bold-6d" transform="translate(126.708984 0)"/>
     <use xlink:href="#DejaVuSans-Bold-61" transform="translate(230.908203 0)"/>
     <use xlink:href="#DejaVuSans-Bold-7a" transform="translate(298.388672 0)"/>
     <use xlink:href="#DejaVuSans-Bold-65" transform="translate(356.591797 0)"/>
     <use xlink:href="#DejaVuSans-Bold-6e" transform="translate(424.414062 0)"/>
     <use xlink:href="#DejaVuSans-Bold-61" transform="translate(495.605469 0)"/>
     <use xlink:href="#DejaVuSans-Bold-6d" transform="translate(563.085938 0)"/>
     <use xlink:href="#DejaVuSans-Bold-65" transform="translate(667.285156 0)"/>
     <use xlink:href="#DejaVuSans-Bold-6e" transform="translate(735.107422 0)"/>
     <use xlink:href="#DejaVuSans-Bold-74" transform="translate(806.298828 0)"/>
     <use xlink:href="#DejaVuSans-Bold-6f" transform="translate(854.101562 0)"/>
    </g>
    <!-- Vetorial -->
    <g transform="translate(411.93082 92.400234) scale(0.075 -0.075)">
     <defs>
      <path id="DejaVuSans-Bold-56" d="M 31 4666 
L 1241 4666 
L 2478 1222 
L 3713 4666 
L 4922 4666 
L 3194 0 
L 1759 0 
L 31 4666 
z
" transform="scale(0.015625)"/>
     </defs>
     <use xlink:href="#DejaVuSans-Bold-56"/>
     <use xlink:href="#DejaVuSans-Bold-65" transform="translate(71.892578 0)"/>
     <use xlink:href="#DejaVuSans-Bold-74" transform="translate(139.714844 0)"/>
     <use xlink:href="#DejaVuSans-Bold-6f" transform="translate(187.517578 0)"/>
     <use xlink:href="#DejaVuSans-Bold-72" transform="translate(256.21875 0)"/>
     <use xlink:href="#DejaVuSans-Bold-69" transform="translate(305.535156 0)"/>
     <use xlink:href="#DejaVuSans-Bold-61" transform="translate(339.8125 0)"/>
     <use xlink:href="#DejaVuSans-Bold-6c" transform="translate(407.292969 0)"/>
    </g>
    <!-- (Embeddings) -->
    <g transform="translate(399.125742 100.798594) scale(0.075 -0.075)">
     <defs>
      <path id="DejaVuSans-Bold-62" d="M 2400 722 
Q 2759 722 2948 984 
Q 3138 1247 3138 1747 
Q 3138 2247 2948 2509 
Q 2759 2772 2400 2772 
Q 2041 2772 1848 2508 
Q 1656 2244 1656 1747 
Q 1656 1250 1848 986 
Q 2041 722 2400 722 
z
M 1656 2988 
Q 1888 3294 2169 3439 
Q 2450 3584 2816 3584 
Q 3463 3584 3878 3070 
Q 4294 2556 4294 1747 
Q 4294 938 3878 423 
Q 3463 -91 2816 -91 
Q 2450 -91 2169 54 
Q 1888 200 1656 506 
L 1656 0 
L 538 0 
L 538 4863 
L 1656 4863 
L 1656 2988 
z
" transform="scale(0.015625)"/>
     </defs>
     <use xlink:href="#DejaVuSans-Bold-28"/>
     <use xlink:href="#DejaVuSans-Bold-45" transform="translate(45.703125 0)"/>
     <use xlink:href="#DejaVuSans-Bold-6d" transform="translate(114.013672 0)"/>
     <use xlink:href="#DejaVuSans-Bold-62" transform="translate(218.212891 0)"/>
     <use xlink:href="#DejaVuSans-Bold-65" transform="translate(289.794922 0)"/>
     <use xlink:href="#DejaVuSans-Bold-64" transform="translate(357.617188 0)"/>
     <use xlink:href="#DejaVuSans-Bold-64" transform="translate(429.199219 0)"/>
     <use xlink:href="#DejaVuSans-Bold-69" transform="translate(500.78125 0)"/>
     <use xlink:href="#DejaVuSans-Bold-6e" transform="translate(535.058594 0)"/>
     <use xlink:href="#DejaVuSans-Bold-67" transform="translate(606.25 0)"/>
     <use xlink:href="#DejaVuSans-Bold-73" transform="translate(677.832031 0)"/>
     <use xlink:href="#DejaVuSans-Bold-29" transform="translate(737.353516 0)"/>
    </g>
   </g>
   <g id="text_6">
    <!-- Recuperação -->
    <g transform="translate(496.088672 84.098555) scale(0.075 -0.075)">
     <use xlink:href="#DejaVuSans-Bold-52"/>
     <use xlink:href="#DejaVuSans-Bold-65" transform="translate(77.001953 0)"/>
     <use xlink:href="#DejaVuSans-Bold-63" transform="translate(144.824219 0)"/>
     <use xlink:href="#DejaVuSans-Bold-75" transform="translate(204.101562 0)"/>
     <use xlink:href="#DejaVuSans-Bold-70" transform="translate(275.292969 0)"/>
     <use xlink:href="#DejaVuSans-Bold-65" transform="translate(346.875 0)"/>
     <use xlink:href="#DejaVuSans-Bold-72" transform="translate(414.697266 0)"/>
     <use xlink:href="#DejaVuSans-Bold-61" transform="translate(464.013672 0)"/>
     <use xlink:href="#DejaVuSans-Bold-e7" transform="translate(531.494141 0)"/>
     <use xlink:href="#DejaVuSans-Bold-e3" transform="translate(590.771484 0)"/>
     <use xlink:href="#DejaVuSans-Bold-6f" transform="translate(658.251953 0)"/>
    </g>
    <!-- por Similaridade -->
    <g transform="translate(488.361914 92.496914) scale(0.075 -0.075)">
     <use xlink:href="#DejaVuSans-Bold-70"/>
     <use xlink:href="#DejaVuSans-Bold-6f" transform="translate(71.582031 0)"/>
     <use xlink:href="#DejaVuSans-Bold-72" transform="translate(140.283203 0)"/>
     <use xlink:href="#DejaVuSans-Bold-20" transform="translate(189.599609 0)"/>
     <use xlink:href="#DejaVuSans-Bold-53" transform="translate(224.414062 0)"/>
     <use xlink:href="#DejaVuSans-Bold-69" transform="translate(296.435547 0)"/>
     <use xlink:href="#DejaVuSans-Bold-6d" transform="translate(330.712891 0)"/>
     <use xlink:href="#DejaVuSans-Bold-69" transform="translate(434.912109 0)"/>
     <use xlink:href="#DejaVuSans-Bold-6c" transform="translate(469.189453 0)"/>
     <use xlink:href="#DejaVuSans-Bold-61" transform="translate(503.466797 0)"/>
     <use xlink:href="#DejaVuSans-Bold-72" transform="translate(570.947266 0)"/>
     <use xlink:href="#DejaVuSans-Bold-69" transform="translate(620.263672 0)"/>
     <use xlink:href="#DejaVuSans-Bold-64" transform="translate(654.541016 0)"/>
     <use xlink:href="#DejaVuSans-Bold-61" transform="translate(726.123047 0)"/>
     <use xlink:href="#DejaVuSans-Bold-64" transform="translate(793.603516 0)"/>
     <use xlink:href="#DejaVuSans-Bold-65" transform="translate(865.185547 0)"/>
    </g>
    <!-- (RAG) -->
    <g transform="translate(511.054688 100.895273) scale(0.075 -0.075)">
     <defs>
      <path id="DejaVuSans-Bold-47" d="M 4781 347 
Q 4331 128 3847 18 
Q 3363 -91 2847 -91 
Q 1681 -91 1000 561 
Q 319 1213 319 2328 
Q 319 3456 1012 4103 
Q 1706 4750 2913 4750 
Q 3378 4750 3804 4662 
Q 4231 4575 4609 4403 
L 4609 3438 
Q 4219 3659 3833 3768 
Q 3447 3878 3059 3878 
Q 2341 3878 1952 3476 
Q 1563 3075 1563 2328 
Q 1563 1588 1938 1184 
Q 2313 781 3003 781 
Q 3191 781 3352 804 
Q 3513 828 3641 878 
L 3641 1784 
L 2906 1784 
L 2906 2591 
L 4781 2591 
L 4781 347 
z
" transform="scale(0.015625)"/>
     </defs>
     <use xlink:href="#DejaVuSans-Bold-28"/>
     <use xlink:href="#DejaVuSans-Bold-52" transform="translate(45.703125 0)"/>
     <use xlink:href="#DejaVuSans-Bold-41" transform="translate(122.705078 0)"/>
     <use xlink:href="#DejaVuSans-Bold-47" transform="translate(200.097656 0)"/>
     <use xlink:href="#DejaVuSans-Bold-29" transform="translate(282.177734 0)"/>
    </g>
   </g>
  </g>
 </g>
 <defs>
  <clipPath id="pf0275b3445">
   <rect x="7.2" y="7.2" width="558" height="166.32"/>
  </clipPath>
 </defs>
</svg>
