<?xml version="1.0" encoding="utf-8" standalone="no"?>
<!DOCTYPE svg PUBLIC "-//W3C//DTD SVG 1.1//EN"
  "http://www.w3.org/Graphics/SVG/1.1/DTD/svg11.dtd">
<svg xmlns:xlink="http://www.w3.org/1999/xlink" width="432pt" height="360pt" viewBox="0 0 432 360" xmlns="http://www.w3.org/2000/svg" version="1.1">
 <metadata>
  <rdf:RDF xmlns:dc="http://purl.org/dc/elements/1.1/" xmlns:cc="http://creativecommons.org/ns#" xmlns:rdf="http://www.w3.org/1999/02/22-rdf-syntax-ns#">
   <cc:Work>
    <dc:type rdf:resource="http://purl.org/dc/dcmitype/StillImage"/>
    <dc:date>2026-05-18T12:34:27.413920</dc:date>
    <dc:format>image/svg+xml</dc:format>
    <dc:creator>
     <cc:Agent>
      <dc:title>Matplotlib v3.10.8, https://matplotlib.org/</dc:title>
     </cc:Agent>
    </dc:creator>
   </cc:Work>
  </rdf:RDF>
 </metadata>
 <defs>
  <style type="text/css">*{stroke-linejoin: round; stroke-linecap: butt}</style>
 </defs>
 <g id="figure_1">
  <g id="patch_1">
   <path d="M 0 360 
L 432 360 
L 432 0 
L 0 0 
z
" style="fill: #ffffff"/>
  </g>
  <g id="axes_1">
   <g id="patch_2">
    <path d="M 48.349063 317.875938 
L 413.248437 317.875938 
L 413.248437 14.599219 
L 48.349063 14.599219 
z
" style="fill: #ffffff"/>
   </g>
   <g id="matplotlib.axis_1">
    <g id="xtick_1">
     <g id="line2d_1">
      <path d="M 48.349063 317.875938 
L 48.349063 14.599219 
" clip-path="url(#p672e08c749)" style="fill: none; stroke: #b0b0b0; stroke-opacity: 0.3; stroke-width: 0.8; stroke-linecap: square"/>
     </g>
     <g id="line2d_2">
      <defs>
       <path id="mbee3c6b598" d="M 0 0 
L 0 3.5 
" style="stroke: #000000; stroke-width: 0.8"/>
      </defs>
      <g>
       <use xlink:href="#mbee3c6b598" x="48.349063" y="317.875938" style="stroke: #000000; stroke-width: 0.8"/>
      </g>
     </g>
     <g id="text_1">
      <!-- 0.0 -->
      <g transform="translate(40.3975 332.474375) scale(0.1 -0.1)">
       <defs>
        <path id="DejaVuSans-30" d="M 2034 4250 
Q 1547 4250 1301 3770 
Q 1056 3291 1056 2328 
Q 1056 1369 1301 889 
Q 1547 409 2034 409 
Q 2525 409 2770 889 
Q 3016 1369 3016 2328 
Q 3016 3291 2770 3770 
Q 2525 4250 2034 4250 
z
M 2034 4750 
Q 2819 4750 3233 4129 
Q 3647 3509 3647 2328 
Q 3647 1150 3233 529 
Q 2819 -91 2034 -91 
Q 1250 -91 836 529 
Q 422 1150 422 2328 
Q 422 3509 836 4129 
Q 1250 4750 2034 4750 
z
" transform="scale(0.015625)"/>
        <path id="DejaVuSans-2e" d="M 684 794 
L 1344 794 
L 1344 0 
L 684 0 
L 684 794 
z
" transform="scale(0.015625)"/>
       </defs>
       <use xlink:href="#DejaVuSans-30"/>
       <use xlink:href="#DejaVuSans-2e" transform="translate(63.623047 0)"/>
       <use xlink:href="#DejaVuSans-30" transform="translate(95.410156 0)"/>
      </g>
     </g>
    </g>
    <g id="xtick_2">
     <g id="line2d_3">
      <path d="M 121.328938 317.875938 
L 121.328938 14.599219 
" clip-path="url(#p672e08c749)" style="fill: none; stroke: #b0b0b0; stroke-opacity: 0.3; stroke-width: 0.8; stroke-linecap: square"/>
     </g>
     <g id="line2d_4">
      <g>
       <use xlink:href="#mbee3c6b598" x="121.328938" y="317.875938" style="stroke: #000000; stroke-width: 0.8"/>
      </g>
     </g>
     <g id="text_2">
      <!-- 0.2 -->
      <g transform="translate(113.377375 332.474375) scale(0.1 -0.1)">
       <defs>
        <path id="DejaVuSans-32" d="M 1228 531 
L 3431 531 
L 3431 0 
L 469 0 
L 469 531 
Q 828 903 1448 1529 
Q 2069 2156 2228 2338 
Q 2531 2678 2651 2914 
Q 2772 3150 2772 3378 
Q 2772 3750 2511 3984 
Q 2250 4219 1831 4219 
Q 1534 4219 1204 4116 
Q 875 4013 500 3803 
L 500 4441 
Q 881 4594 1212 4672 
Q 1544 4750 1819 4750 
Q 2544 4750 2975 4387 
Q 3406 4025 3406 3419 
Q 3406 3131 3298 2873 
Q 3191 2616 2906 2266 
Q 2828 2175 2409 1742 
Q 1991 1309 1228 531 
z
" transform="scale(0.015625)"/>
       </defs>
       <use xlink:href="#DejaVuSans-30"/>
       <use xlink:href="#DejaVuSans-2e" transform="translate(63.623047 0)"/>
       <use xlink:href="#DejaVuSans-32" transform="translate(95.410156 0)"/>
      </g>
     </g>
    </g>
    <g id="xtick_3">
     <g id="line2d_5">
      <path d="M 194.308812 317.875938 
L 194.308812 14.599219 
" clip-path="url(#p672e08c749)" style="fill: none; stroke: #b0b0b0; stroke-opacity: 0.3; stroke-width: 0.8; stroke-linecap: square"/>
     </g>
     <g id="line2d_6">
      <g>
       <use xlink:href="#mbee3c6b598" x="194.308812" y="317.875938" style="stroke: #000000; stroke-width: 0.8"/>
      </g>
     </g>
     <g id="text_3">
      <!-- 0.4 -->
      <g transform="translate(186.35725 332.474375) scale(0.1 -0.1)">
       <defs>
        <path id="DejaVuSans-34" d="M 2419 4116 
L 825 1625 
L 2419 1625 
L 2419 4116 
z
M 2253 4666 
L 3047 4666 
L 3047 1625 
L 3713 1625 
L 3713 1100 
L 3047 1100 
L 3047 0 
L 2419 0 
L 2419 1100 
L 313 1100 
L 313 1709 
L 2253 4666 
z
" transform="scale(0.015625)"/>
       </defs>
       <use xlink:href="#DejaVuSans-30"/>
       <use xlink:href="#DejaVuSans-2e" transform="translate(63.623047 0)"/>
       <use xlink:href="#DejaVuSans-34" transform="translate(95.410156 0)"/>
      </g>
     </g>
    </g>
    <g id="xtick_4">
     <g id="line2d_7">
      <path d="M 267.288688 317.875938 
L 267.288688 14.599219 
" clip-path="url(#p672e08c749)" style="fill: none; stroke: #b0b0b0; stroke-opacity: 0.3; stroke-width: 0.8; stroke-linecap: square"/>
     </g>
     <g id="line2d_8">
      <g>
       <use xlink:href="#mbee3c6b598" x="267.288688" y="317.875938" style="stroke: #000000; stroke-width: 0.8"/>
      </g>
     </g>
     <g id="text_4">
      <!-- 0.6 -->
      <g transform="translate(259.337125 332.474375) scale(0.1 -0.1)">
       <defs>
        <path id="DejaVuSans-36" d="M 2113 2584 
Q 1688 2584 1439 2293 
Q 1191 2003 1191 1497 
Q 1191 994 1439 701 
Q 1688 409 2113 409 
Q 2538 409 2786 701 
Q 3034 994 3034 1497 
Q 3034 2003 2786 2293 
Q 2538 2584 2113 2584 
z
M 3366 4563 
L 3366 3988 
Q 3128 4100 2886 4159 
Q 2644 4219 2406 4219 
Q 1781 4219 1451 3797 
Q 1122 3375 1075 2522 
Q 1259 2794 1537 2939 
Q 1816 3084 2150 3084 
Q 2853 3084 3261 2657 
Q 3669 2231 3669 1497 
Q 3669 778 3244 343 
Q 2819 -91 2113 -91 
Q 1303 -91 875 529 
Q 447 1150 447 2328 
Q 447 3434 972 4092 
Q 1497 4750 2381 4750 
Q 2619 4750 2861 4703 
Q 3103 4656 3366 4563 
z
" transform="scale(0.015625)"/>
       </defs>
       <use xlink:href="#DejaVuSans-30"/>
       <use xlink:href="#DejaVuSans-2e" transform="translate(63.623047 0)"/>
       <use xlink:href="#DejaVuSans-36" transform="translate(95.410156 0)"/>
      </g>
     </g>
    </g>
    <g id="xtick_5">
     <g id="line2d_9">
      <path d="M 340.268562 317.875938 
L 340.268562 14.599219 
" clip-path="url(#p672e08c749)" style="fill: none; stroke: #b0b0b0; stroke-opacity: 0.3; stroke-width: 0.8; stroke-linecap: square"/>
     </g>
     <g id="line2d_10">
      <g>
       <use xlink:href="#mbee3c6b598" x="340.268562" y="317.875938" style="stroke: #000000; stroke-width: 0.8"/>
      </g>
     </g>
     <g id="text_5">
      <!-- 0.8 -->
      <g transform="translate(332.317 332.474375) scale(0.1 -0.1)">
       <defs>
        <path id="DejaVuSans-38" d="M 2034 2216 
Q 1584 2216 1326 1975 
Q 1069 1734 1069 1313 
Q 1069 891 1326 650 
Q 1584 409 2034 409 
Q 2484 409 2743 651 
Q 3003 894 3003 1313 
Q 3003 1734 2745 1975 
Q 2488 2216 2034 2216 
z
M 1403 2484 
Q 997 2584 770 2862 
Q 544 3141 544 3541 
Q 544 4100 942 4425 
Q 1341 4750 2034 4750 
Q 2731 4750 3128 4425 
Q 3525 4100 3525 3541 
Q 3525 3141 3298 2862 
Q 3072 2584 2669 2484 
Q 3125 2378 3379 2068 
Q 3634 1759 3634 1313 
Q 3634 634 3220 271 
Q 2806 -91 2034 -91 
Q 1263 -91 848 271 
Q 434 634 434 1313 
Q 434 1759 690 2068 
Q 947 2378 1403 2484 
z
M 1172 3481 
Q 1172 3119 1398 2916 
Q 1625 2713 2034 2713 
Q 2441 2713 2670 2916 
Q 2900 3119 2900 3481 
Q 2900 3844 2670 4047 
Q 2441 4250 2034 4250 
Q 1625 4250 1398 4047 
Q 1172 3844 1172 3481 
z
" transform="scale(0.015625)"/>
       </defs>
       <use xlink:href="#DejaVuSans-30"/>
       <use xlink:href="#DejaVuSans-2e" transform="translate(63.623047 0)"/>
       <use xlink:href="#DejaVuSans-38" transform="translate(95.410156 0)"/>
      </g>
     </g>
    </g>
    <g id="xtick_6">
     <g id="line2d_11">
      <path d="M 413.248437 317.875938 
L 413.248437 14.599219 
" clip-path="url(#p672e08c749)" style="fill: none; stroke: #b0b0b0; stroke-opacity: 0.3; stroke-width: 0.8; stroke-linecap: square"/>
     </g>
     <g id="line2d_12">
      <g>
       <use xlink:href="#mbee3c6b598" x="413.248437" y="317.875938" style="stroke: #000000; stroke-width: 0.8"/>
      </g>
     </g>
     <g id="text_6">
      <!-- 1.0 -->
      <g transform="translate(405.296875 332.474375) scale(0.1 -0.1)">
       <defs>
        <path id="DejaVuSans-31" d="M 794 531 
L 1825 531 
L 1825 4091 
L 703 3866 
L 703 4441 
L 1819 4666 
L 2450 4666 
L 2450 531 
L 3481 531 
L 3481 0 
L 794 0 
L 794 531 
z
" transform="scale(0.015625)"/>
       </defs>
       <use xlink:href="#DejaVuSans-31"/>
       <use xlink:href="#DejaVuSans-2e" transform="translate(63.623047 0)"/>
       <use xlink:href="#DejaVuSans-30" transform="translate(95.410156 0)"/>
      </g>
     </g>
    </g>
    <g id="text_7">
     <!-- Taxa de Falsos Positivos (1 - Especificidade) -->
     <g transform="translate(110.988125 346.912344) scale(0.11 -0.11)">
      <defs>
       <path id="DejaVuSans-54" d="M -19 4666 
L 3928 4666 
L 3928 4134 
L 2272 4134 
L 2272 0 
L 1638 0 
L 1638 4134 
L -19 4134 
L -19 4666 
z
" transform="scale(0.015625)"/>
       <path id="DejaVuSans-61" d="M 2194 1759 
Q 1497 1759 1228 1600 
Q 959 1441 959 1056 
Q 959 750 1161 570 
Q 1363 391 1709 391 
Q 2188 391 2477 730 
Q 2766 1069 2766 1631 
L 2766 1759 
L 2194 1759 
z
M 3341 1997 
L 3341 0 
L 2766 0 
L 2766 531 
Q 2569 213 2275 61 
Q 1981 -91 1556 -91 
Q 1019 -91 701 211 
Q 384 513 384 1019 
Q 384 1609 779 1909 
Q 1175 2209 1959 2209 
L 2766 2209 
L 2766 2266 
Q 2766 2663 2505 2880 
Q 2244 3097 1772 3097 
Q 1472 3097 1187 3025 
Q 903 2953 641 2809 
L 641 3341 
Q 956 3463 1253 3523 
Q 1550 3584 1831 3584 
Q 2591 3584 2966 3190 
Q 3341 2797 3341 1997 
z
" transform="scale(0.015625)"/>
       <path id="DejaVuSans-78" d="M 3513 3500 
L 2247 1797 
L 3578 0 
L 2900 0 
L 1881 1375 
L 863 0 
L 184 0 
L 1544 1831 
L 300 3500 
L 978 3500 
L 1906 2253 
L 2834 3500 
L 3513 3500 
z
" transform="scale(0.015625)"/>
       <path id="DejaVuSans-20" transform="scale(0.015625)"/>
       <path id="DejaVuSans-64" d="M 2906 2969 
L 2906 4863 
L 3481 4863 
L 3481 0 
L 2906 0 
L 2906 525 
Q 2725 213 2448 61 
Q 2172 -91 1784 -91 
Q 1150 -91 751 415 
Q 353 922 353 1747 
Q 353 2572 751 3078 
Q 1150 3584 1784 3584 
Q 2172 3584 2448 3432 
Q 2725 3281 2906 2969 
z
M 947 1747 
Q 947 1113 1208 752 
Q 1469 391 1925 391 
Q 2381 391 2643 752 
Q 2906 1113 2906 1747 
Q 2906 2381 2643 2742 
Q 2381 3103 1925 3103 
Q 1469 3103 1208 2742 
Q 947 2381 947 1747 
z
" transform="scale(0.015625)"/>
       <path id="DejaVuSans-65" d="M 3597 1894 
L 3597 1613 
L 953 1613 
Q 991 1019 1311 708 
Q 1631 397 2203 397 
Q 2534 397 2845 478 
Q 3156 559 3463 722 
L 3463 178 
Q 3153 47 2828 -22 
Q 2503 -91 2169 -91 
Q 1331 -91 842 396 
Q 353 884 353 1716 
Q 353 2575 817 3079 
Q 1281 3584 2069 3584 
Q 2775 3584 3186 3129 
Q 3597 2675 3597 1894 
z
M 3022 2063 
Q 3016 2534 2758 2815 
Q 2500 3097 2075 3097 
Q 1594 3097 1305 2825 
Q 1016 2553 972 2059 
L 3022 2063 
z
" transform="scale(0.015625)"/>
       <path id="DejaVuSans-46" d="M 628 4666 
L 3309 4666 
L 3309 4134 
L 1259 4134 
L 1259 2759 
L 3109 2759 
L 3109 2228 
L 1259 2228 
L 1259 0 
L 628 0 
L 628 4666 
z
" transform="scale(0.015625)"/>
       <path id="DejaVuSans-6c" d="M 603 4863 
L 1178 4863 
L 1178 0 
L 603 0 
L 603 4863 
z
" transform="scale(0.015625)"/>
       <path id="DejaVuSans-73" d="M 2834 3397 
L 2834 2853 
Q 2591 2978 2328 3040 
Q 2066 3103 1784 3103 
Q 1356 3103 1142 2972 
Q 928 2841 928 2578 
Q 928 2378 1081 2264 
Q 1234 2150 1697 2047 
L 1894 2003 
Q 2506 1872 2764 1633 
Q 3022 1394 3022 966 
Q 3022 478 2636 193 
Q 2250 -91 1575 -91 
Q 1294 -91 989 -36 
Q 684 19 347 128 
L 347 722 
Q 666 556 975 473 
Q 1284 391 1588 391 
Q 1994 391 2212 530 
Q 2431 669 2431 922 
Q 2431 1156 2273 1281 
Q 2116 1406 1581 1522 
L 1381 1569 
Q 847 1681 609 1914 
Q 372 2147 372 2553 
Q 372 3047 722 3315 
Q 1072 3584 1716 3584 
Q 2034 3584 2315 3537 
Q 2597 3491 2834 3397 
z
" transform="scale(0.015625)"/>
       <path id="DejaVuSans-6f" d="M 1959 3097 
Q 1497 3097 1228 2736 
Q 959 2375 959 1747 
Q 959 1119 1226 758 
Q 1494 397 1959 397 
Q 2419 397 2687 759 
Q 2956 1122 2956 1747 
Q 2956 2369 2687 2733 
Q 2419 3097 1959 3097 
z
M 1959 3584 
Q 2709 3584 3137 3096 
Q 3566 2609 3566 1747 
Q 3566 888 3137 398 
Q 2709 -91 1959 -91 
Q 1206 -91 779 398 
Q 353 888 353 1747 
Q 353 2609 779 3096 
Q 1206 3584 1959 3584 
z
" transform="scale(0.015625)"/>
       <path id="DejaVuSans-50" d="M 1259 4147 
L 1259 2394 
L 2053 2394 
Q 2494 2394 2734 2622 
Q 2975 2850 2975 3272 
Q 2975 3691 2734 3919 
Q 2494 4147 2053 4147 
L 1259 4147 
z
M 628 4666 
L 2053 4666 
Q 2838 4666 3239 4311 
Q 3641 3956 3641 3272 
Q 3641 2581 3239 2228 
Q 2838 1875 2053 1875 
L 1259 1875 
L 1259 0 
L 628 0 
L 628 4666 
z
" transform="scale(0.015625)"/>
       <path id="DejaVuSans-69" d="M 603 3500 
L 1178 3500 
L 1178 0 
L 603 0 
L 603 3500 
z
M 603 4863 
L 1178 4863 
L 1178 4134 
L 603 4134 
L 603 4863 
z
" transform="scale(0.015625)"/>
       <path id="DejaVuSans-74" d="M 1172 4494 
L 1172 3500 
L 2356 3500 
L 2356 3053 
L 1172 3053 
L 1172 1153 
Q 1172 725 1289 603 
Q 1406 481 1766 481 
L 2356 481 
L 2356 0 
L 1766 0 
Q 1100 0 847 248 
Q 594 497 594 1153 
L 594 3053 
L 172 3053 
L 172 3500 
L 594 3500 
L 594 4494 
L 1172 4494 
z
" transform="scale(0.015625)"/>
       <path id="DejaVuSans-76" d="M 191 3500 
L 800 3500 
L 1894 563 
L 2988 3500 
L 3597 3500 
L 2284 0 
L 1503 0 
L 191 3500 
z
" transform="scale(0.015625)"/>
       <path id="DejaVuSans-28" d="M 1984 4856 
Q 1566 4138 1362 3434 
Q 1159 2731 1159 2009 
Q 1159 1288 1364 580 
Q 1569 -128 1984 -844 
L 1484 -844 
Q 1016 -109 783 600 
Q 550 1309 550 2009 
Q 550 2706 781 3412 
Q 1013 4119 1484 4856 
L 1984 4856 
z
" transform="scale(0.015625)"/>
       <path id="DejaVuSans-2d" d="M 313 2009 
L 1997 2009 
L 1997 1497 
L 313 1497 
L 313 2009 
z
" transform="scale(0.015625)"/>
       <path id="DejaVuSans-45" d="M 628 4666 
L 3578 4666 
L 3578 4134 
L 1259 4134 
L 1259 2753 
L 3481 2753 
L 3481 2222 
L 1259 2222 
L 1259 531 
L 3634 531 
L 3634 0 
L 628 0 
L 628 4666 
z
" transform="scale(0.015625)"/>
       <path id="DejaVuSans-70" d="M 1159 525 
L 1159 -1331 
L 581 -1331 
L 581 3500 
L 1159 3500 
L 1159 2969 
Q 1341 3281 1617 3432 
Q 1894 3584 2278 3584 
Q 2916 3584 3314 3078 
Q 3713 2572 3713 1747 
Q 3713 922 3314 415 
Q 2916 -91 2278 -91 
Q 1894 -91 1617 61 
Q 1341 213 1159 525 
z
M 3116 1747 
Q 3116 2381 2855 2742 
Q 2594 3103 2138 3103 
Q 1681 3103 1420 2742 
Q 1159 2381 1159 1747 
Q 1159 1113 1420 752 
Q 1681 391 2138 391 
Q 2594 391 2855 752 
Q 3116 1113 3116 1747 
z
" transform="scale(0.015625)"/>
       <path id="DejaVuSans-63" d="M 3122 3366 
L 3122 2828 
Q 2878 2963 2633 3030 
Q 2388 3097 2138 3097 
Q 1578 3097 1268 2742 
Q 959 2388 959 1747 
Q 959 1106 1268 751 
Q 1578 397 2138 397 
Q 2388 397 2633 464 
Q 2878 531 3122 666 
L 3122 134 
Q 2881 22 2623 -34 
Q 2366 -91 2075 -91 
Q 1284 -91 818 406 
Q 353 903 353 1747 
Q 353 2603 823 3093 
Q 1294 3584 2113 3584 
Q 2378 3584 2631 3529 
Q 2884 3475 3122 3366 
z
" transform="scale(0.015625)"/>
       <path id="DejaVuSans-66" d="M 2375 4863 
L 2375 4384 
L 1825 4384 
Q 1516 4384 1395 4259 
Q 1275 4134 1275 3809 
L 1275 3500 
L 2222 3500 
L 2222 3053 
L 1275 3053 
L 1275 0 
L 697 0 
L 697 3053 
L 147 3053 
L 147 3500 
L 697 3500 
L 697 3744 
Q 697 4328 969 4595 
Q 1241 4863 1831 4863 
L 2375 4863 
z
" transform="scale(0.015625)"/>
       <path id="DejaVuSans-29" d="M 513 4856 
L 1013 4856 
Q 1481 4119 1714 3412 
Q 1947 2706 1947 2009 
Q 1947 1309 1714 600 
Q 1481 -109 1013 -844 
L 513 -844 
Q 928 -128 1133 580 
Q 1338 1288 1338 2009 
Q 1338 2731 1133 3434 
Q 928 4138 513 4856 
z
" transform="scale(0.015625)"/>
      </defs>
      <use xlink:href="#DejaVuSans-54"/>
      <use xlink:href="#DejaVuSans-61" transform="translate(44.583984 0)"/>
      <use xlink:href="#DejaVuSans-78" transform="translate(105.863281 0)"/>
      <use xlink:href="#DejaVuSans-61" transform="translate(165.042969 0)"/>
      <use xlink:href="#DejaVuSans-20" transform="translate(226.322266 0)"/>
      <use xlink:href="#DejaVuSans-64" transform="translate(258.109375 0)"/>
      <use xlink:href="#DejaVuSans-65" transform="translate(321.585938 0)"/>
      <use xlink:href="#DejaVuSans-20" transform="translate(383.109375 0)"/>
      <use xlink:href="#DejaVuSans-46" transform="translate(414.896484 0)"/>
      <use xlink:href="#DejaVuSans-61" transform="translate(463.291016 0)"/>
      <use xlink:href="#DejaVuSans-6c" transform="translate(524.570312 0)"/>
      <use xlink:href="#DejaVuSans-73" transform="translate(552.353516 0)"/>
      <use xlink:href="#DejaVuSans-6f" transform="translate(604.453125 0)"/>
      <use xlink:href="#DejaVuSans-73" transform="translate(665.634766 0)"/>
      <use xlink:href="#DejaVuSans-20" transform="translate(717.734375 0)"/>
      <use xlink:href="#DejaVuSans-50" transform="translate(749.521484 0)"/>
      <use xlink:href="#DejaVuSans-6f" transform="translate(806.199219 0)"/>
      <use xlink:href="#DejaVuSans-73" transform="translate(867.380859 0)"/>
      <use xlink:href="#DejaVuSans-69" transform="translate(919.480469 0)"/>
      <use xlink:href="#DejaVuSans-74" transform="translate(947.263672 0)"/>
      <use xlink:href="#DejaVuSans-69" transform="translate(986.472656 0)"/>
      <use xlink:href="#DejaVuSans-76" transform="translate(1014.255859 0)"/>
      <use xlink:href="#DejaVuSans-6f" transform="translate(1073.435547 0)"/>
      <use xlink:href="#DejaVuSans-73" transform="translate(1134.617188 0)"/>
      <use xlink:href="#DejaVuSans-20" transform="translate(1186.716797 0)"/>
      <use xlink:href="#DejaVuSans-28" transform="translate(1218.503906 0)"/>
      <use xlink:href="#DejaVuSans-31" transform="translate(1257.517578 0)"/>
      <use xlink:href="#DejaVuSans-20" transform="translate(1321.140625 0)"/>
      <use xlink:href="#DejaVuSans-2d" transform="translate(1352.927734 0)"/>
      <use xlink:href="#DejaVuSans-20" transform="translate(1389.011719 0)"/>
      <use xlink:href="#DejaVuSans-45" transform="translate(1420.798828 0)"/>
      <use xlink:href="#DejaVuSans-73" transform="translate(1483.982422 0)"/>
      <use xlink:href="#DejaVuSans-70" transform="translate(1536.082031 0)"/>
      <use xlink:href="#DejaVuSans-65" transform="translate(1599.558594 0)"/>
      <use xlink:href="#DejaVuSans-63" transform="translate(1661.082031 0)"/>
      <use xlink:href="#DejaVuSans-69" transform="translate(1716.0625 0)"/>
      <use xlink:href="#DejaVuSans-66" transform="translate(1743.845703 0)"/>
      <use xlink:href="#DejaVuSans-69" transform="translate(1779.050781 0)"/>
      <use xlink:href="#DejaVuSans-63" transform="translate(1806.833984 0)"/>
      <use xlink:href="#DejaVuSans-69" transform="translate(1861.814453 0)"/>
      <use xlink:href="#DejaVuSans-64" transform="translate(1889.597656 0)"/>
      <use xlink:href="#DejaVuSans-61" transform="translate(1953.074219 0)"/>
      <use xlink:href="#DejaVuSans-64" transform="translate(2014.353516 0)"/>
      <use xlink:href="#DejaVuSans-65" transform="translate(2077.830078 0)"/>
      <use xlink:href="#DejaVuSans-29" transform="translate(2139.353516 0)"/>
     </g>
    </g>
   </g>
   <g id="matplotlib.axis_2">
    <g id="ytick_1">
     <g id="line2d_13">
      <path d="M 48.349063 317.875938 
L 413.248437 317.875938 
" clip-path="url(#p672e08c749)" style="fill: none; stroke: #b0b0b0; stroke-opacity: 0.3; stroke-width: 0.8; stroke-linecap: square"/>
     </g>
     <g id="line2d_14">
      <defs>
       <path id="mad30c4c5d0" d="M 0 0 
L -3.5 0 
" style="stroke: #000000; stroke-width: 0.8"/>
      </defs>
      <g>
       <use xlink:href="#mad30c4c5d0" x="48.349063" y="317.875938" style="stroke: #000000; stroke-width: 0.8"/>
      </g>
     </g>
     <g id="text_8">
      <!-- 0.0 -->
      <g transform="translate(25.445938 321.675156) scale(0.1 -0.1)">
       <use xlink:href="#DejaVuSans-30"/>
       <use xlink:href="#DejaVuSans-2e" transform="translate(63.623047 0)"/>
       <use xlink:href="#DejaVuSans-30" transform="translate(95.410156 0)"/>
      </g>
     </g>
    </g>
    <g id="ytick_2">
     <g id="line2d_15">
      <path d="M 48.349063 257.220594 
L 413.248437 257.220594 
" clip-path="url(#p672e08c749)" style="fill: none; stroke: #b0b0b0; stroke-opacity: 0.3; stroke-width: 0.8; stroke-linecap: square"/>
     </g>
     <g id="line2d_16">
      <g>
       <use xlink:href="#mad30c4c5d0" x="48.349063" y="257.220594" style="stroke: #000000; stroke-width: 0.8"/>
      </g>
     </g>
     <g id="text_9">
      <!-- 0.2 -->
      <g transform="translate(25.445938 261.019813) scale(0.1 -0.1)">
       <use xlink:href="#DejaVuSans-30"/>
       <use xlink:href="#DejaVuSans-2e" transform="translate(63.623047 0)"/>
       <use xlink:href="#DejaVuSans-32" transform="translate(95.410156 0)"/>
      </g>
     </g>
    </g>
    <g id="ytick_3">
     <g id="line2d_17">
      <path d="M 48.349063 196.56525 
L 413.248437 196.56525 
" clip-path="url(#p672e08c749)" style="fill: none; stroke: #b0b0b0; stroke-opacity: 0.3; stroke-width: 0.8; stroke-linecap: square"/>
     </g>
     <g id="line2d_18">
      <g>
       <use xlink:href="#mad30c4c5d0" x="48.349063" y="196.56525" style="stroke: #000000; stroke-width: 0.8"/>
      </g>
     </g>
     <g id="text_10">
      <!-- 0.4 -->
      <g transform="translate(25.445938 200.364469) scale(0.1 -0.1)">
       <use xlink:href="#DejaVuSans-30"/>
       <use xlink:href="#DejaVuSans-2e" transform="translate(63.623047 0)"/>
       <use xlink:href="#DejaVuSans-34" transform="translate(95.410156 0)"/>
      </g>
     </g>
    </g>
    <g id="ytick_4">
     <g id="line2d_19">
      <path d="M 48.349063 135.909906 
L 413.248437 135.909906 
" clip-path="url(#p672e08c749)" style="fill: none; stroke: #b0b0b0; stroke-opacity: 0.3; stroke-width: 0.8; stroke-linecap: square"/>
     </g>
     <g id="line2d_20">
      <g>
       <use xlink:href="#mad30c4c5d0" x="48.349063" y="135.909906" style="stroke: #000000; stroke-width: 0.8"/>
      </g>
     </g>
     <g id="text_11">
      <!-- 0.6 -->
      <g transform="translate(25.445938 139.709125) scale(0.1 -0.1)">
       <use xlink:href="#DejaVuSans-30"/>
       <use xlink:href="#DejaVuSans-2e" transform="translate(63.623047 0)"/>
       <use xlink:href="#DejaVuSans-36" transform="translate(95.410156 0)"/>
      </g>
     </g>
    </g>
    <g id="ytick_5">
     <g id="line2d_21">
      <path d="M 48.349063 75.254563 
L 413.248437 75.254563 
" clip-path="url(#p672e08c749)" style="fill: none; stroke: #b0b0b0; stroke-opacity: 0.3; stroke-width: 0.8; stroke-linecap: square"/>
     </g>
     <g id="line2d_22">
      <g>
       <use xlink:href="#mad30c4c5d0" x="48.349063" y="75.254563" style="stroke: #000000; stroke-width: 0.8"/>
      </g>
     </g>
     <g id="text_12">
      <!-- 0.8 -->
      <g transform="translate(25.445938 79.053781) scale(0.1 -0.1)">
       <use xlink:href="#DejaVuSans-30"/>
       <use xlink:href="#DejaVuSans-2e" transform="translate(63.623047 0)"/>
       <use xlink:href="#DejaVuSans-38" transform="translate(95.410156 0)"/>
      </g>
     </g>
    </g>
    <g id="ytick_6">
     <g id="line2d_23">
      <path d="M 48.349063 14.599219 
L 413.248437 14.599219 
" clip-path="url(#p672e08c749)" style="fill: none; stroke: #b0b0b0; stroke-opacity: 0.3; stroke-width: 0.8; stroke-linecap: square"/>
     </g>
     <g id="line2d_24">
      <g>
       <use xlink:href="#mad30c4c5d0" x="48.349063" y="14.599219" style="stroke: #000000; stroke-width: 0.8"/>
      </g>
     </g>
     <g id="text_13">
      <!-- 1.0 -->
      <g transform="translate(25.445938 18.398438) scale(0.1 -0.1)">
       <use xlink:href="#DejaVuSans-31"/>
       <use xlink:href="#DejaVuSans-2e" transform="translate(63.623047 0)"/>
       <use xlink:href="#DejaVuSans-30" transform="translate(95.410156 0)"/>
      </g>
     </g>
    </g>
    <g id="text_14">
     <!-- Taxa de Verdadeiros Positivos (Sensibilidade) -->
     <g transform="translate(19.158281 289.977266) rotate(-90) scale(0.11 -0.11)">
      <defs>
       <path id="DejaVuSans-56" d="M 1831 0 
L 50 4666 
L 709 4666 
L 2188 738 
L 3669 4666 
L 4325 4666 
L 2547 0 
L 1831 0 
z
" transform="scale(0.015625)"/>
       <path id="DejaVuSans-72" d="M 2631 2963 
Q 2534 3019 2420 3045 
Q 2306 3072 2169 3072 
Q 1681 3072 1420 2755 
Q 1159 2438 1159 1844 
L 1159 0 
L 581 0 
L 581 3500 
L 1159 3500 
L 1159 2956 
Q 1341 3275 1631 3429 
Q 1922 3584 2338 3584 
Q 2397 3584 2469 3576 
Q 2541 3569 2628 3553 
L 2631 2963 
z
" transform="scale(0.015625)"/>
       <path id="DejaVuSans-53" d="M 3425 4513 
L 3425 3897 
Q 3066 4069 2747 4153 
Q 2428 4238 2131 4238 
Q 1616 4238 1336 4038 
Q 1056 3838 1056 3469 
Q 1056 3159 1242 3001 
Q 1428 2844 1947 2747 
L 2328 2669 
Q 3034 2534 3370 2195 
Q 3706 1856 3706 1288 
Q 3706 609 3251 259 
Q 2797 -91 1919 -91 
Q 1588 -91 1214 -16 
Q 841 59 441 206 
L 441 856 
Q 825 641 1194 531 
Q 1563 422 1919 422 
Q 2459 422 2753 634 
Q 3047 847 3047 1241 
Q 3047 1584 2836 1778 
Q 2625 1972 2144 2069 
L 1759 2144 
Q 1053 2284 737 2584 
Q 422 2884 422 3419 
Q 422 4038 858 4394 
Q 1294 4750 2059 4750 
Q 2388 4750 2728 4690 
Q 3069 4631 3425 4513 
z
" transform="scale(0.015625)"/>
       <path id="DejaVuSans-6e" d="M 3513 2113 
L 3513 0 
L 2938 0 
L 2938 2094 
Q 2938 2591 2744 2837 
Q 2550 3084 2163 3084 
Q 1697 3084 1428 2787 
Q 1159 2491 1159 1978 
L 1159 0 
L 581 0 
L 581 3500 
L 1159 3500 
L 1159 2956 
Q 1366 3272 1645 3428 
Q 1925 3584 2291 3584 
Q 2894 3584 3203 3211 
Q 3513 2838 3513 2113 
z
" transform="scale(0.015625)"/>
       <path id="DejaVuSans-62" d="M 3116 1747 
Q 3116 2381 2855 2742 
Q 2594 3103 2138 3103 
Q 1681 3103 1420 2742 
Q 1159 2381 1159 1747 
Q 1159 1113 1420 752 
Q 1681 391 2138 391 
Q 2594 391 2855 752 
Q 3116 1113 3116 1747 
z
M 1159 2969 
Q 1341 3281 1617 3432 
Q 1894 3584 2278 3584 
Q 2916 3584 3314 3078 
Q 3713 2572 3713 1747 
Q 3713 922 3314 415 
Q 2916 -91 2278 -91 
Q 1894 -91 1617 61 
Q 1341 213 1159 525 
L 1159 0 
L 581 0 
L 581 4863 
L 1159 4863 
L 1159 2969 
z
" transform="scale(0.015625)"/>
      </defs>
      <use xlink:href="#DejaVuSans-54"/>
      <use xlink:href="#DejaVuSans-61" transform="translate(44.583984 0)"/>
      <use xlink:href="#DejaVuSans-78" transform="translate(105.863281 0)"/>
      <use xlink:href="#DejaVuSans-61" transform="translate(165.042969 0)"/>
      <use xlink:href="#DejaVuSans-20" transform="translate(226.322266 0)"/>
      <use xlink:href="#DejaVuSans-64" transform="translate(258.109375 0)"/>
      <use xlink:href="#DejaVuSans-65" transform="translate(321.585938 0)"/>
      <use xlink:href="#DejaVuSans-20" transform="translate(383.109375 0)"/>
      <use xlink:href="#DejaVuSans-56" transform="translate(414.896484 0)"/>
      <use xlink:href="#DejaVuSans-65" transform="translate(475.554688 0)"/>
      <use xlink:href="#DejaVuSans-72" transform="translate(537.078125 0)"/>
      <use xlink:href="#DejaVuSans-64" transform="translate(576.441406 0)"/>
      <use xlink:href="#DejaVuSans-61" transform="translate(639.917969 0)"/>
      <use xlink:href="#DejaVuSans-64" transform="translate(701.197266 0)"/>
      <use xlink:href="#DejaVuSans-65" transform="translate(764.673828 0)"/>
      <use xlink:href="#DejaVuSans-69" transform="translate(826.197266 0)"/>
      <use xlink:href="#DejaVuSans-72" transform="translate(853.980469 0)"/>
      <use xlink:href="#DejaVuSans-6f" transform="translate(892.84375 0)"/>
      <use xlink:href="#DejaVuSans-73" transform="translate(954.025391 0)"/>
      <use xlink:href="#DejaVuSans-20" transform="translate(1006.125 0)"/>
      <use xlink:href="#DejaVuSans-50" transform="translate(1037.912109 0)"/>
      <use xlink:href="#DejaVuSans-6f" transform="translate(1094.589844 0)"/>
      <use xlink:href="#DejaVuSans-73" transform="translate(1155.771484 0)"/>
      <use xlink:href="#DejaVuSans-69" transform="translate(1207.871094 0)"/>
      <use xlink:href="#DejaVuSans-74" transform="translate(1235.654297 0)"/>
      <use xlink:href="#DejaVuSans-69" transform="translate(1274.863281 0)"/>
      <use xlink:href="#DejaVuSans-76" transform="translate(1302.646484 0)"/>
      <use xlink:href="#DejaVuSans-6f" transform="translate(1361.826172 0)"/>
      <use xlink:href="#DejaVuSans-73" transform="translate(1423.007812 0)"/>
      <use xlink:href="#DejaVuSans-20" transform="translate(1475.107422 0)"/>
      <use xlink:href="#DejaVuSans-28" transform="translate(1506.894531 0)"/>
      <use xlink:href="#DejaVuSans-53" transform="translate(1545.908203 0)"/>
      <use xlink:href="#DejaVuSans-65" transform="translate(1609.384766 0)"/>
      <use xlink:href="#DejaVuSans-6e" transform="translate(1670.908203 0)"/>
      <use xlink:href="#DejaVuSans-73" transform="translate(1734.287109 0)"/>
      <use xlink:href="#DejaVuSans-69" transform="translate(1786.386719 0)"/>
      <use xlink:href="#DejaVuSans-62" transform="translate(1814.169922 0)"/>
      <use xlink:href="#DejaVuSans-69" transform="translate(1877.646484 0)"/>
      <use xlink:href="#DejaVuSans-6c" transform="translate(1905.429688 0)"/>
      <use xlink:href="#DejaVuSans-69" transform="translate(1933.212891 0)"/>
      <use xlink:href="#DejaVuSans-64" transform="translate(1960.996094 0)"/>
      <use xlink:href="#DejaVuSans-61" transform="translate(2024.472656 0)"/>
      <use xlink:href="#DejaVuSans-64" transform="translate(2085.751953 0)"/>
      <use xlink:href="#DejaVuSans-65" transform="translate(2149.228516 0)"/>
      <use xlink:href="#DejaVuSans-29" transform="translate(2210.751953 0)"/>
     </g>
    </g>
   </g>
   <g id="line2d_25">
    <path d="M 48.349063 317.875938 
L 48.349063 288.714715 
L 48.717648 288.714715 
L 48.717648 284.048919 
L 48.90194 284.048919 
L 48.90194 251.388349 
L 49.086233 251.388349 
L 49.086233 247.305778 
L 49.270526 247.305778 
L 49.270526 245.556105 
L 49.454818 245.556105 
L 49.454818 235.641289 
L 49.639111 235.641289 
L 49.639111 232.141942 
L 49.823403 232.141942 
L 49.823403 217.561331 
L 50.007696 217.561331 
L 50.007696 215.228433 
L 50.376281 215.228433 
L 50.376281 213.478759 
L 50.560574 213.478759 
L 50.560574 211.145861 
L 50.744866 211.145861 
L 50.744866 208.812964 
L 51.113452 208.812964 
L 51.113452 208.229739 
L 51.297744 208.229739 
L 51.297744 207.646515 
L 51.482037 207.646515 
L 51.482037 206.480066 
L 51.66633 206.480066 
L 51.66633 203.563944 
L 51.850622 203.563944 
L 51.850622 199.481372 
L 52.4035 199.481372 
L 52.4035 198.314923 
L 52.587793 198.314923 
L 52.587793 196.56525 
L 52.772085 196.56525 
L 52.772085 185.483985 
L 52.956378 185.483985 
L 52.956378 184.900761 
L 53.324963 184.900761 
L 53.324963 182.567863 
L 53.693548 182.567863 
L 53.693548 181.401414 
L 54.062134 181.401414 
L 54.062134 180.234965 
L 54.246426 180.234965 
L 54.246426 179.651741 
L 54.615011 179.651741 
L 54.615011 179.068516 
L 54.799304 179.068516 
L 54.799304 178.485292 
L 55.167889 178.485292 
L 55.167889 173.819496 
L 55.352182 173.819496 
L 55.352182 170.903374 
L 55.536474 170.903374 
L 55.536474 169.1537 
L 55.720767 169.1537 
L 55.720767 168.570476 
L 56.457938 168.570476 
L 56.457938 163.321456 
L 56.64223 163.321456 
L 56.64223 160.405334 
L 57.195108 160.405334 
L 57.195108 159.822109 
L 57.379401 159.822109 
L 57.379401 156.322762 
L 57.563693 156.322762 
L 57.563693 153.989864 
L 57.747986 153.989864 
L 57.747986 152.823416 
L 58.485156 152.823416 
L 58.485156 151.656967 
L 58.853741 151.656967 
L 58.853741 151.073742 
L 59.222327 151.073742 
L 59.222327 148.740844 
L 59.406619 148.740844 
L 59.406619 146.991171 
L 59.590912 146.991171 
L 59.590912 145.824722 
L 60.14379 145.824722 
L 60.14379 145.241498 
L 60.512375 145.241498 
L 60.512375 144.658273 
L 60.696668 144.658273 
L 60.696668 143.491824 
L 60.88096 143.491824 
L 60.88096 142.9086 
L 61.065253 142.9086 
L 61.065253 142.325375 
L 61.249545 142.325375 
L 61.249545 140.575702 
L 61.433838 140.575702 
L 61.433838 139.992477 
L 61.618131 139.992477 
L 61.618131 139.409253 
L 61.802423 139.409253 
L 61.802423 138.242804 
L 62.171009 138.242804 
L 62.171009 137.076355 
L 63.092472 137.076355 
L 63.092472 136.493131 
L 63.645349 136.493131 
L 63.645349 134.743457 
L 64.198227 134.743457 
L 64.198227 134.160233 
L 64.38252 134.160233 
L 64.38252 131.827335 
L 64.751105 131.827335 
L 64.751105 131.244111 
L 64.935398 131.244111 
L 64.935398 130.660886 
L 65.856861 130.660886 
L 65.856861 129.494437 
L 66.041153 129.494437 
L 66.041153 127.744764 
L 66.225446 127.744764 
L 66.225446 127.161539 
L 66.409739 127.161539 
L 66.409739 126.578315 
L 66.594031 126.578315 
L 66.594031 125.99509 
L 66.962616 125.99509 
L 66.962616 124.828642 
L 67.515494 124.828642 
L 67.515494 124.245417 
L 68.252665 124.245417 
L 68.252665 123.662193 
L 68.436957 123.662193 
L 68.436957 123.078968 
L 68.62125 123.078968 
L 68.62125 122.495744 
L 68.805543 122.495744 
L 68.805543 120.74607 
L 69.174128 120.74607 
L 69.174128 120.162846 
L 69.35842 120.162846 
L 69.35842 119.579621 
L 69.911298 119.579621 
L 69.911298 117.246724 
L 70.464176 117.246724 
L 70.464176 116.080275 
L 70.648469 116.080275 
L 70.648469 114.913826 
L 70.832761 114.913826 
L 70.832761 114.330601 
L 71.017054 114.330601 
L 71.017054 113.747377 
L 71.201347 113.747377 
L 71.201347 113.164152 
L 71.385639 113.164152 
L 71.385639 112.580928 
L 72.307102 112.580928 
L 72.307102 111.997703 
L 72.675688 111.997703 
L 72.675688 111.414479 
L 73.597151 111.414479 
L 73.597151 110.831255 
L 73.781443 110.831255 
L 73.781443 110.24803 
L 74.334321 110.24803 
L 74.334321 109.081581 
L 76.36154 109.081581 
L 76.36154 108.498357 
L 76.730125 108.498357 
L 76.730125 107.331908 
L 76.914418 107.331908 
L 76.914418 106.165459 
L 77.467295 106.165459 
L 77.467295 103.832561 
L 78.757344 103.832561 
L 78.757344 102.666112 
L 79.678807 102.666112 
L 79.678807 101.499663 
L 79.863099 101.499663 
L 79.863099 100.916439 
L 80.415977 100.916439 
L 80.415977 100.333214 
L 80.968855 100.333214 
L 80.968855 99.74999 
L 81.33744 99.74999 
L 81.33744 98.000316 
L 81.521733 98.000316 
L 81.521733 97.417092 
L 81.706026 97.417092 
L 81.706026 96.833867 
L 81.890318 96.833867 
L 81.890318 96.250643 
L 82.074611 96.250643 
L 82.074611 95.667419 
L 82.258903 95.667419 
L 82.258903 95.084194 
L 82.443196 95.084194 
L 82.443196 93.917745 
L 82.627489 93.917745 
L 82.627489 92.751296 
L 82.811781 92.751296 
L 82.811781 89.835174 
L 83.364659 89.835174 
L 83.364659 89.25195 
L 83.548952 89.25195 
L 83.548952 88.085501 
L 83.917537 88.085501 
L 83.917537 87.502276 
L 84.839 87.502276 
L 84.839 86.919052 
L 85.391878 86.919052 
L 85.391878 86.335827 
L 86.129048 86.335827 
L 86.129048 85.752603 
L 86.681926 85.752603 
L 86.681926 85.169378 
L 86.866219 85.169378 
L 86.866219 84.586154 
L 87.787682 84.586154 
L 87.787682 83.419705 
L 87.971974 83.419705 
L 87.971974 81.670032 
L 88.524852 81.670032 
L 88.524852 81.086807 
L 89.07773 81.086807 
L 89.07773 80.503583 
L 89.262023 80.503583 
L 89.262023 79.337134 
L 91.473534 79.337134 
L 91.473534 78.753909 
L 92.947875 78.753909 
L 92.947875 78.170685 
L 93.500753 78.170685 
L 93.500753 77.58746 
L 93.869338 77.58746 
L 93.869338 77.004236 
L 94.237923 77.004236 
L 94.237923 76.421011 
L 94.422216 76.421011 
L 94.422216 75.254563 
L 95.159386 75.254563 
L 95.159386 74.671338 
L 95.896557 74.671338 
L 95.896557 74.088114 
L 96.080849 74.088114 
L 96.080849 73.504889 
L 96.265142 73.504889 
L 96.265142 71.755216 
L 96.449435 71.755216 
L 96.449435 71.171991 
L 98.660946 71.171991 
L 98.660946 70.588767 
L 99.582409 70.588767 
L 99.582409 68.839093 
L 100.31958 68.839093 
L 100.31958 68.255869 
L 100.872457 68.255869 
L 100.872457 67.672645 
L 101.978213 67.672645 
L 101.978213 65.922971 
L 102.162506 65.922971 
L 102.162506 64.756522 
L 103.821139 64.756522 
L 103.821139 64.173298 
L 104.55831 64.173298 
L 104.55831 63.006849 
L 104.742602 63.006849 
L 104.742602 62.423624 
L 105.111188 62.423624 
L 105.111188 61.8404 
L 108.244162 61.8404 
L 108.244162 60.673951 
L 109.53421 60.673951 
L 109.53421 60.090727 
L 109.718503 60.090727 
L 109.718503 59.507502 
L 110.639966 59.507502 
L 110.639966 58.924278 
L 111.008551 58.924278 
L 111.008551 57.757829 
L 111.930014 57.757829 
L 111.930014 57.174604 
L 112.851477 57.174604 
L 112.851477 56.008155 
L 113.03577 56.008155 
L 113.03577 55.424931 
L 113.220063 55.424931 
L 113.220063 54.258482 
L 113.77294 54.258482 
L 113.77294 53.675258 
L 114.141526 53.675258 
L 114.141526 53.092033 
L 115.247281 53.092033 
L 115.247281 52.508809 
L 115.615866 52.508809 
L 115.615866 51.34236 
L 115.800159 51.34236 
L 115.800159 50.759135 
L 117.2745 50.759135 
L 117.2745 50.175911 
L 117.827378 50.175911 
L 117.827378 49.592686 
L 118.380256 49.592686 
L 118.380256 49.009462 
L 119.486011 49.009462 
L 119.486011 48.426237 
L 120.591767 48.426237 
L 120.591767 47.843013 
L 120.77606 47.843013 
L 120.77606 47.259788 
L 125.936253 47.259788 
L 125.936253 46.676564 
L 128.884935 46.676564 
L 128.884935 46.09334 
L 130.543568 46.09334 
L 130.543568 45.510115 
L 131.096446 45.510115 
L 131.096446 44.926891 
L 132.017909 44.926891 
L 132.017909 44.343666 
L 132.386494 44.343666 
L 132.386494 43.760442 
L 136.256639 43.760442 
L 136.256639 43.177217 
L 137.178102 43.177217 
L 137.178102 42.593993 
L 137.546688 42.593993 
L 137.546688 42.010768 
L 137.73098 42.010768 
L 137.73098 41.427544 
L 137.915273 41.427544 
L 137.915273 40.844319 
L 138.099565 40.844319 
L 138.099565 40.261095 
L 138.652443 40.261095 
L 138.652443 39.67787 
L 142.338295 39.67787 
L 142.338295 39.094646 
L 142.891173 39.094646 
L 142.891173 38.511422 
L 145.102685 38.511422 
L 145.102685 37.928197 
L 145.655563 37.928197 
L 145.655563 37.344973 
L 147.682781 37.344973 
L 147.682781 36.178524 
L 148.788537 36.178524 
L 148.788537 35.595299 
L 149.341415 35.595299 
L 149.341415 35.012075 
L 150.815756 35.012075 
L 150.815756 34.42885 
L 153.580145 34.42885 
L 153.580145 33.845626 
L 155.423071 33.845626 
L 155.423071 33.262401 
L 156.344534 33.262401 
L 156.344534 32.679177 
L 156.713119 32.679177 
L 156.713119 32.095953 
L 156.897412 32.095953 
L 156.897412 31.512728 
L 157.45029 31.512728 
L 157.45029 30.346279 
L 158.924631 30.346279 
L 158.924631 29.763055 
L 159.661801 29.763055 
L 159.661801 29.17983 
L 160.583264 29.17983 
L 160.583264 28.596606 
L 165.19058 28.596606 
L 165.19058 28.013381 
L 165.92775 28.013381 
L 165.92775 27.430157 
L 167.586384 27.430157 
L 167.586384 26.846932 
L 169.982188 26.846932 
L 169.982188 26.263708 
L 177.90677 26.263708 
L 177.90677 25.680483 
L 179.196818 25.680483 
L 179.196818 25.097259 
L 181.039744 25.097259 
L 181.039744 24.514035 
L 183.435548 24.514035 
L 183.435548 23.93081 
L 187.674278 23.93081 
L 187.674278 23.347586 
L 188.227156 23.347586 
L 188.227156 22.764361 
L 198.916128 22.764361 
L 198.916128 22.181137 
L 200.574761 22.181137 
L 200.574761 21.597912 
L 202.049102 21.597912 
L 202.049102 21.014688 
L 205.182077 21.014688 
L 205.182077 20.431463 
L 208.499344 20.431463 
L 208.499344 19.848239 
L 216.976804 19.848239 
L 216.976804 19.265014 
L 230.430165 19.265014 
L 230.430165 18.68179 
L 240.013381 18.68179 
L 240.013381 18.098566 
L 240.381966 18.098566 
L 240.381966 17.515341 
L 250.333767 17.515341 
L 250.333767 16.932117 
L 251.808108 16.932117 
L 251.808108 16.348892 
L 296.40692 16.348892 
L 296.40692 15.765668 
L 336.029832 15.765668 
L 336.029832 15.182443 
L 383.024449 15.182443 
L 383.024449 14.599219 
L 413.248437 14.599219 
L 413.248437 14.599219 
" clip-path="url(#p672e08c749)" style="fill: none; stroke: #2e86ab; stroke-width: 2.5; stroke-linecap: square"/>
   </g>
   <g id="line2d_26">
    <path d="M 48.349063 317.875938 
L 413.248437 14.599219 
" clip-path="url(#p672e08c749)" style="fill: none; stroke-dasharray: 3.7,1.6; stroke-dashoffset: 0; stroke: #808080"/>
   </g>
   <g id="patch_3">
    <path d="M 48.349063 317.875938 
L 48.349063 14.599219 
" style="fill: none; stroke: #000000; stroke-width: 0.8; stroke-linejoin: miter; stroke-linecap: square"/>
   </g>
   <g id="patch_4">
    <path d="M 413.248437 317.875938 
L 413.248437 14.599219 
" style="fill: none; stroke: #000000; stroke-width: 0.8; stroke-linejoin: miter; stroke-linecap: square"/>
   </g>
   <g id="patch_5">
    <path d="M 48.349063 317.875938 
L 413.248437 317.875938 
" style="fill: none; stroke: #000000; stroke-width: 0.8; stroke-linejoin: miter; stroke-linecap: square"/>
   </g>
   <g id="patch_6">
    <path d="M 48.349063 14.599219 
L 413.248437 14.599219 
" style="fill: none; stroke: #000000; stroke-width: 0.8; stroke-linejoin: miter; stroke-linecap: square"/>
   </g>
   <g id="legend_1">
    <g id="patch_7">
     <path d="M 223.509375 312.875937 
L 406.248438 312.875937 
Q 408.248438 312.875937 408.248438 310.875937 
L 408.248438 282.519687 
Q 408.248438 280.519687 406.248438 280.519687 
L 223.509375 280.519687 
Q 221.509375 280.519687 221.509375 282.519687 
L 221.509375 310.875937 
Q 221.509375 312.875937 223.509375 312.875937 
z
" style="fill: #ffffff; opacity: 0.9; stroke: #cccccc; stroke-linejoin: miter"/>
    </g>
    <g id="line2d_27">
     <path d="M 225.509375 288.618125 
L 235.509375 288.618125 
L 245.509375 288.618125 
" style="fill: none; stroke: #2e86ab; stroke-width: 2.5; stroke-linecap: square"/>
    </g>
    <g id="text_15">
     <!-- Random Forest (AUC = 0.926) -->
     <g transform="translate(253.509375 292.118125) scale(0.1 -0.1)">
      <defs>
       <path id="DejaVuSans-52" d="M 2841 2188 
Q 3044 2119 3236 1894 
Q 3428 1669 3622 1275 
L 4263 0 
L 3584 0 
L 2988 1197 
Q 2756 1666 2539 1819 
Q 2322 1972 1947 1972 
L 1259 1972 
L 1259 0 
L 628 0 
L 628 4666 
L 2053 4666 
Q 2853 4666 3247 4331 
Q 3641 3997 3641 3322 
Q 3641 2881 3436 2590 
Q 3231 2300 2841 2188 
z
M 1259 4147 
L 1259 2491 
L 2053 2491 
Q 2509 2491 2742 2702 
Q 2975 2913 2975 3322 
Q 2975 3731 2742 3939 
Q 2509 4147 2053 4147 
L 1259 4147 
z
" transform="scale(0.015625)"/>
       <path id="DejaVuSans-6d" d="M 3328 2828 
Q 3544 3216 3844 3400 
Q 4144 3584 4550 3584 
Q 5097 3584 5394 3201 
Q 5691 2819 5691 2113 
L 5691 0 
L 5113 0 
L 5113 2094 
Q 5113 2597 4934 2840 
Q 4756 3084 4391 3084 
Q 3944 3084 3684 2787 
Q 3425 2491 3425 1978 
L 3425 0 
L 2847 0 
L 2847 2094 
Q 2847 2600 2669 2842 
Q 2491 3084 2119 3084 
Q 1678 3084 1418 2786 
Q 1159 2488 1159 1978 
L 1159 0 
L 581 0 
L 581 3500 
L 1159 3500 
L 1159 2956 
Q 1356 3278 1631 3431 
Q 1906 3584 2284 3584 
Q 2666 3584 2933 3390 
Q 3200 3197 3328 2828 
z
" transform="scale(0.015625)"/>
       <path id="DejaVuSans-41" d="M 2188 4044 
L 1331 1722 
L 3047 1722 
L 2188 4044 
z
M 1831 4666 
L 2547 4666 
L 4325 0 
L 3669 0 
L 3244 1197 
L 1141 1197 
L 716 0 
L 50 0 
L 1831 4666 
z
" transform="scale(0.015625)"/>
       <path id="DejaVuSans-55" d="M 556 4666 
L 1191 4666 
L 1191 1831 
Q 1191 1081 1462 751 
Q 1734 422 2344 422 
Q 2950 422 3222 751 
Q 3494 1081 3494 1831 
L 3494 4666 
L 4128 4666 
L 4128 1753 
Q 4128 841 3676 375 
Q 3225 -91 2344 -91 
Q 1459 -91 1007 375 
Q 556 841 556 1753 
L 556 4666 
z
" transform="scale(0.015625)"/>
       <path id="DejaVuSans-43" d="M 4122 4306 
L 4122 3641 
Q 3803 3938 3442 4084 
Q 3081 4231 2675 4231 
Q 1875 4231 1450 3742 
Q 1025 3253 1025 2328 
Q 1025 1406 1450 917 
Q 1875 428 2675 428 
Q 3081 428 3442 575 
Q 3803 722 4122 1019 
L 4122 359 
Q 3791 134 3420 21 
Q 3050 -91 2638 -91 
Q 1578 -91 968 557 
Q 359 1206 359 2328 
Q 359 3453 968 4101 
Q 1578 4750 2638 4750 
Q 3056 4750 3426 4639 
Q 3797 4528 4122 4306 
z
" transform="scale(0.015625)"/>
       <path id="DejaVuSans-3d" d="M 678 2906 
L 4684 2906 
L 4684 2381 
L 678 2381 
L 678 2906 
z
M 678 1631 
L 4684 1631 
L 4684 1100 
L 678 1100 
L 678 1631 
z
" transform="scale(0.015625)"/>
       <path id="DejaVuSans-39" d="M 703 97 
L 703 672 
Q 941 559 1184 500 
Q 1428 441 1663 441 
Q 2288 441 2617 861 
Q 2947 1281 2994 2138 
Q 2813 1869 2534 1725 
Q 2256 1581 1919 1581 
Q 1219 1581 811 2004 
Q 403 2428 403 3163 
Q 403 3881 828 4315 
Q 1253 4750 1959 4750 
Q 2769 4750 3195 4129 
Q 3622 3509 3622 2328 
Q 3622 1225 3098 567 
Q 2575 -91 1691 -91 
Q 1453 -91 1209 -44 
Q 966 3 703 97 
z
M 1959 2075 
Q 2384 2075 2632 2365 
Q 2881 2656 2881 3163 
Q 2881 3666 2632 3958 
Q 2384 4250 1959 4250 
Q 1534 4250 1286 3958 
Q 1038 3666 1038 3163 
Q 1038 2656 1286 2365 
Q 1534 2075 1959 2075 
z
" transform="scale(0.015625)"/>
      </defs>
      <use xlink:href="#DejaVuSans-52"/>
      <use xlink:href="#DejaVuSans-61" transform="translate(67.232422 0)"/>
      <use xlink:href="#DejaVuSans-6e" transform="translate(128.511719 0)"/>
      <use xlink:href="#DejaVuSans-64" transform="translate(191.890625 0)"/>
      <use xlink:href="#DejaVuSans-6f" transform="translate(255.367188 0)"/>
      <use xlink:href="#DejaVuSans-6d" transform="translate(316.548828 0)"/>
      <use xlink:href="#DejaVuSans-20" transform="translate(413.960938 0)"/>
      <use xlink:href="#DejaVuSans-46" transform="translate(445.748047 0)"/>
      <use xlink:href="#DejaVuSans-6f" transform="translate(499.642578 0)"/>
      <use xlink:href="#DejaVuSans-72" transform="translate(560.824219 0)"/>
      <use xlink:href="#DejaVuSans-65" transform="translate(599.6875 0)"/>
      <use xlink:href="#DejaVuSans-73" transform="translate(661.210938 0)"/>
      <use xlink:href="#DejaVuSans-74" transform="translate(713.310547 0)"/>
      <use xlink:href="#DejaVuSans-20" transform="translate(752.519531 0)"/>
      <use xlink:href="#DejaVuSans-28" transform="translate(784.306641 0)"/>
      <use xlink:href="#DejaVuSans-41" transform="translate(823.320312 0)"/>
      <use xlink:href="#DejaVuSans-55" transform="translate(891.728516 0)"/>
      <use xlink:href="#DejaVuSans-43" transform="translate(964.921875 0)"/>
      <use xlink:href="#DejaVuSans-20" transform="translate(1034.746094 0)"/>
      <use xlink:href="#DejaVuSans-3d" transform="translate(1066.533203 0)"/>
      <use xlink:href="#DejaVuSans-20" transform="translate(1150.322266 0)"/>
      <use xlink:href="#DejaVuSans-30" transform="translate(1182.109375 0)"/>
      <use xlink:href="#DejaVuSans-2e" transform="translate(1245.732422 0)"/>
      <use xlink:href="#DejaVuSans-39" transform="translate(1277.519531 0)"/>
      <use xlink:href="#DejaVuSans-32" transform="translate(1341.142578 0)"/>
      <use xlink:href="#DejaVuSans-36" transform="translate(1404.765625 0)"/>
      <use xlink:href="#DejaVuSans-29" transform="translate(1468.388672 0)"/>
     </g>
    </g>
    <g id="line2d_28">
     <path d="M 225.509375 303.29625 
L 235.509375 303.29625 
L 245.509375 303.29625 
" style="fill: none; stroke-dasharray: 3.7,1.6; stroke-dashoffset: 0; stroke: #808080"/>
    </g>
    <g id="text_16">
     <!-- Classificador Aleatório -->
     <g transform="translate(253.509375 306.79625) scale(0.1 -0.1)">
      <defs>
       <path id="DejaVuSans-f3" d="M 1959 3097 
Q 1497 3097 1228 2736 
Q 959 2375 959 1747 
Q 959 1119 1226 758 
Q 1494 397 1959 397 
Q 2419 397 2687 759 
Q 2956 1122 2956 1747 
Q 2956 2369 2687 2733 
Q 2419 3097 1959 3097 
z
M 1959 3584 
Q 2709 3584 3137 3096 
Q 3566 2609 3566 1747 
Q 3566 888 3137 398 
Q 2709 -91 1959 -91 
Q 1206 -91 779 398 
Q 353 888 353 1747 
Q 353 2609 779 3096 
Q 1206 3584 1959 3584 
z
M 2394 5119 
L 3016 5119 
L 1998 3944 
L 1519 3944 
L 2394 5119 
z
" transform="scale(0.015625)"/>
      </defs>
      <use xlink:href="#DejaVuSans-43"/>
      <use xlink:href="#DejaVuSans-6c" transform="translate(69.824219 0)"/>
      <use xlink:href="#DejaVuSans-61" transform="translate(97.607422 0)"/>
      <use xlink:href="#DejaVuSans-73" transform="translate(158.886719 0)"/>
      <use xlink:href="#DejaVuSans-73" transform="translate(210.986328 0)"/>
      <use xlink:href="#DejaVuSans-69" transform="translate(263.085938 0)"/>
      <use xlink:href="#DejaVuSans-66" transform="translate(290.869141 0)"/>
      <use xlink:href="#DejaVuSans-69" transform="translate(326.074219 0)"/>
      <use xlink:href="#DejaVuSans-63" transform="translate(353.857422 0)"/>
      <use xlink:href="#DejaVuSans-61" transform="translate(408.837891 0)"/>
      <use xlink:href="#DejaVuSans-64" transform="translate(470.117188 0)"/>
      <use xlink:href="#DejaVuSans-6f" transform="translate(533.59375 0)"/>
      <use xlink:href="#DejaVuSans-72" transform="translate(594.775391 0)"/>
      <use xlink:href="#DejaVuSans-20" transform="translate(635.888672 0)"/>
      <use xlink:href="#DejaVuSans-41" transform="translate(667.675781 0)"/>
      <use xlink:href="#DejaVuSans-6c" transform="translate(736.083984 0)"/>
      <use xlink:href="#DejaVuSans-65" transform="translate(763.867188 0)"/>
      <use xlink:href="#DejaVuSans-61" transform="translate(825.390625 0)"/>
      <use xlink:href="#DejaVuSans-74" transform="translate(886.669922 0)"/>
      <use xlink:href="#DejaVuSans-f3" transform="translate(925.878906 0)"/>
      <use xlink:href="#DejaVuSans-72" transform="translate(987.060547 0)"/>
      <use xlink:href="#DejaVuSans-69" transform="translate(1028.173828 0)"/>
      <use xlink:href="#DejaVuSans-6f" transform="translate(1055.957031 0)"/>
     </g>
    </g>
   </g>
  </g>
 </g>
 <defs>
  <clipPath id="p672e08c749">
   <rect x="48.349063" y="14.599219" width="364.899375" height="303.276719"/>
  </clipPath>
 </defs>
</svg>
